<?xml version="1.0" encoding="UTF-8" standalone="no"?>
<svg
   xmlns:dc="http://purl.org/dc/elements/1.1/"
   xmlns:cc="http://creativecommons.org/ns#"
   xmlns:rdf="http://www.w3.org/1999/02/22-rdf-syntax-ns#"
   xmlns:svg="http://www.w3.org/2000/svg"
   xmlns="http://www.w3.org/2000/svg"
   width="100"
   height="100"
   viewBox="0 0 100 100"
   id="svg4157"
   version="1.1">
  <defs
     id="defs4159" />
  <metadata
     id="metadata4162">
    <rdf:RDF>
      <cc:Work
         rdf:about="">
        <dc:format>image/svg+xml</dc:format>
        <dc:type
           rdf:resource="http://purl.org/dc/dcmitype/StillImage" />
        <dc:title></dc:title>
      </cc:Work>
    </rdf:RDF>
  </metadata>
  <g
     id="layer1"
     transform="translate(0,2.2107222e-5)">
    <ellipse
       style="opacity:1;fill:none;fill-opacity:1;fill-rule:nonzero;stroke:#000000;stroke-width:8.0;stroke-linecap:round;stroke-linejoin:bevel;stroke-miterlimit:4;stroke-dasharray:none;stroke-dashoffset:0;stroke-opacity:1"
       id="path4705"
       cx="50"
       cy="50"
       rx="46"
       ry="46" />
  </g>
  <path
     id="path10032"
     d="m 41.600391,78.762378 9.031682,-15.236064 c 0.785365,-1.413655 1.413661,-2.905847 1.649269,-4.476576 0.471216,-2.748774 0.0786,-5.576085 -1.178041,-7.932177 l 0.314137,-0.314145 24.346301,-24.346288 c 1.570729,-1.570728 1.649257,-3.926821 0.235608,-5.419013 -1.41366,-1.492192 -3.848293,-1.413655 -5.419021,0.157073 L 46.234036,45.541476 45.9199,45.855621 c -2.434632,-1.256583 -5.183413,-1.727801 -7.932182,-1.178046 -1.570728,0.314146 -3.141456,0.863901 -4.476577,1.649265 l -15.314595,9.031687 c -0.628296,0.392682 -1.099512,1.020973 -1.178052,1.806337 -0.07848,0.785364 0.15708,1.492192 0.706824,2.041947 l 20.10532,20.105322 c 0.549756,0.549755 1.256593,0.785364 2.041957,0.706828 0.706824,-0.23561 1.33512,-0.628292 1.727796,-1.256583 z M 72.229594,22.844453 c 0.628285,-0.628291 1.570729,-0.706828 2.041945,-0.235609 0.549756,0.549755 0.392688,1.413655 -0.235608,2.041947 l -24.34629,24.346287 c -0.235608,-0.314146 -0.549756,-0.706828 -0.863904,-1.020974 -0.314136,-0.314145 -0.628284,-0.628291 -1.020972,-0.8639 L 72.229594,22.844453 Z M 38.537475,47.740495 c 2.984376,-0.549755 5.968765,0.392682 8.167789,2.513166 2.199013,2.199019 3.062917,5.183402 2.513161,8.167786 -0.235608,1.256583 -0.628296,2.356092 -1.33512,3.455602 l -0.235608,0.471219 -13.037043,-13.037044 0.471216,-0.23561 c 1.020972,-0.706827 2.199024,-1.09951 3.455605,-1.335119 z m -3.219997,24.50336 3.455605,-5.497548 c 0.314148,-0.549755 0.157068,-1.256582 -0.392689,-1.649265 -0.549756,-0.314145 -1.25658,-0.157072 -1.649256,0.392683 l -3.062929,5.104866 -7.303885,-7.303886 5.026333,-3.219993 c 0.549756,-0.314146 0.706824,-1.09951 0.392688,-1.649265 -0.314148,-0.549755 -1.099512,-0.706828 -1.649268,-0.392682 l -5.49755,3.455602 -4.083889,-4.083894 11.858991,-7.068276 13.900947,13.900945 -7.068277,11.858998 -3.926821,-3.848285 z m 23.403857,1.727802 1.17804,-2.120484 c 0.07848,-0.157073 0.235609,-0.157073 0.314149,0 l 1.17804,2.120484 c 0,0 0.07848,0.07854 0.07848,0.07854 l 2.120484,1.178046 c 0.157068,0.07854 0.157068,0.235609 0,0.314145 l -2.120484,1.178047 c 0,0 -0.07848,0.07854 -0.07848,0.07854 l -1.17804,2.120483 c -0.07848,0.157073 -0.235608,0.157073 -0.314149,0 l -1.17804,-2.120483 c 0,0 -0.07848,-0.07854 -0.07848,-0.07854 l -2.120484,-1.178047 c -0.157068,-0.07854 -0.157068,-0.235609 0,-0.314145 l 2.199024,-1.256583 c 0,0 0,0 0,0 z m 2.670229,-18.377521 1.178052,-2.120483 c 0.07848,-0.157073 0.235608,-0.157073 0.314148,0 l 1.17804,2.120483 c 0,0 0.07848,0.07854 0.07848,0.07854 l 2.120485,1.178046 c 0.157068,0.07854 0.157068,0.235609 0,0.314146 l -2.120485,1.178046 c 0,0 -0.07848,0.07854 -0.07848,0.07854 l -1.17804,2.120483 c -0.07848,0.157073 -0.235608,0.157073 -0.314148,0 l -1.178052,-2.120483 c 0,0 -0.07848,-0.07854 -0.07848,-0.07854 l -2.120485,-1.178046 c -0.15708,-0.07854 -0.15708,-0.235609 0,-0.314146 l 2.199013,-1.256583 c -0.07848,0.07854 0,0 0,0 z M 29.66286,27.635173 30.840901,25.514691 c 0.0786,-0.157073 0.235608,-0.157073 0.314148,0 l 1.178052,2.120482 c 0,0 0.07848,0.07854 0.07848,0.07854 l 2.120485,1.178047 c 0.15708,0.07854 0.15708,0.235609 0,0.314145 l -2.120485,1.178047 c 0,0 -0.07848,0.07854 -0.07848,0.07854 l -1.178052,2.120483 c -0.07848,0.157073 -0.235608,0.157073 -0.314148,0 L 29.66286,30.462492 c 0,0 -0.07848,-0.07854 -0.07848,-0.07854 l -2.120484,-1.178047 c -0.157068,-0.07854 -0.157068,-0.235609 0,-0.314145 l 2.199024,-1.256583 c -0.07848,0 -0.07848,0 0,0 z m 40.053562,40.760399 0.863904,-1.570728 c 0.07848,-0.07854 0.235608,-0.07854 0.314148,0 l 0.863904,1.570728 c 0,0 0,0.07854 0.07848,0.07854 l 1.570729,0.863899 c 0.07848,0.07854 0.07848,0.23561 0,0.314146 l -1.570729,0.863901 c 0,0 -0.07848,0 -0.07848,0.07854 l -0.863904,1.570728 c -0.0786,0.07854 -0.235608,0.07854 -0.314148,0 l -0.863904,-1.570728 c 0,0 0,-0.07854 -0.07848,-0.07854 l -1.570729,-0.863901 c -0.07848,-0.07854 -0.07848,-0.235609 0,-0.314146 l 1.649257,-0.942435 c 0,0 0,0 0,0 z M 22.044827,39.886855 22.908731,38.316126 c 0.07848,-0.07854 0.235608,-0.07854 0.314136,0 l 0.863904,1.570729 c 0,0 0,0.07854 0.07848,0.07854 l 1.570729,0.863899 c 0.07848,0.07854 0.07848,0.235609 0,0.314146 l -1.570729,0.8639 c 0,0 -0.07848,0 -0.07848,0.07854 l -0.863904,1.570729 c -0.07848,0.07854 -0.235608,0.07854 -0.314136,0 L 22.044827,42.08588 c 0,0 0,-0.07854 -0.07848,-0.07854 l -1.570729,-0.8639 c -0.07848,-0.07854 -0.07848,-0.23561 0,-0.314146 l 1.649269,-0.942436 c -0.07848,0 0,0 0,0 z" />
</svg>
