<?xml version="1.0" encoding="UTF-8" standalone="no"?>
<svg
   xmlns:dc="http://purl.org/dc/elements/1.1/"
   xmlns:cc="http://creativecommons.org/ns#"
   xmlns:rdf="http://www.w3.org/1999/02/22-rdf-syntax-ns#"
   xmlns:svg="http://www.w3.org/2000/svg"
   xmlns="http://www.w3.org/2000/svg"
   width="100"
   height="100"
   viewBox="0 0 100 100"
   id="svg4157"
   version="1.1">
  <defs
     id="defs4159" />
  <metadata
     id="metadata4162">
    <rdf:RDF>
      <cc:Work
         rdf:about="">
        <dc:format>image/svg+xml</dc:format>
        <dc:type
           rdf:resource="http://purl.org/dc/dcmitype/StillImage" />
        <dc:title></dc:title>
      </cc:Work>
    </rdf:RDF>
  </metadata>
  <g
     id="layer1"
     transform="translate(0,2.2107222e-5)">
    <ellipse
       style="opacity:1;fill:none;fill-opacity:1;fill-rule:nonzero;stroke:#000000;stroke-width:8.0;stroke-linecap:round;stroke-linejoin:bevel;stroke-miterlimit:4;stroke-dasharray:none;stroke-dashoffset:0;stroke-opacity:1"
       id="path4705"
       cx="50"
       cy="50"
       rx="46"
       ry="46" />
  </g>
  <g
     id="g10711"
     style="fill:none;fill-rule:evenodd;stroke:none;stroke-width:1"
     transform="matrix(0.6,0,0,0.6,20,20.000022)">
    <g
       id="g10713"
       style="fill:#000000">
      <g
         id="g10715"
         transform="translate(13,0)">
        <path
           id="path10717"
           d="m 66.9971,18 -59.994,0 c -1.098,0 -1.895,0.889 -1.761,1.986 l 9.516,78.028 c 0.133,1.093 1.139,1.986 2.247,1.986 l 39.99,0 c 1.106,0 2.113,-0.889 2.247,-1.986 l 9.516,-78.028 C 68.8911,18.893 68.1031,18 66.9971,18 m -2.515,4 -9.024,74 -36.916,0 -9.024,-74 54.964,0" />
        <path
           id="path10719"
           d="M 72.002,8 1.999,8 C 0.896,8 0,8.898 0,10.006 l 0,9.988 C 0,21.103 0.895,22 1.999,22 l 70.003,0 C 73.105,22 74,21.102 74,19.994 l 0,-9.988 C 74,8.897 73.106,8 72.002,8 l 0,0 z M 4,18 l 66,0 0,-6 -66,0 0,6 z" />
        <path
           id="path10721"
           d="m 61.9375,0 -49.875,0 c -1.107,0 -2.285,0.852 -2.641,1.901 l -2.777,8.198 C 6.2855,11.156 6.8925,12 7.9925,12 l 58.015,0 c 1.092,0 1.704,-0.851 1.348,-1.901 L 64.5795,1.901 C 64.2205,0.844 63.0405,0 61.9375,0 m -0.871,4 1.355,4 -50.843,0 1.355,-4 48.133,0" />
      </g>
    </g>
  </g>
</svg>
