<?xml version="1.0" encoding="UTF-8" standalone="no"?>
<svg
   xmlns:dc="http://purl.org/dc/elements/1.1/"
   xmlns:cc="http://creativecommons.org/ns#"
   xmlns:rdf="http://www.w3.org/1999/02/22-rdf-syntax-ns#"
   xmlns:svg="http://www.w3.org/2000/svg"
   xmlns="http://www.w3.org/2000/svg"
   width="100"
   height="100"
   viewBox="0 0 100 100"
   id="svg4157"
   version="1.1">
  <defs
     id="defs4159" />
  <metadata
     id="metadata4162">
    <rdf:RDF>
      <cc:Work
         rdf:about="">
        <dc:format>image/svg+xml</dc:format>
        <dc:type
           rdf:resource="http://purl.org/dc/dcmitype/StillImage" />
        <dc:title></dc:title>
      </cc:Work>
    </rdf:RDF>
  </metadata>
  <g
     id="layer1"
     transform="translate(0,2.2107222e-5)">
    <ellipse
       style="opacity:1;fill:none;fill-opacity:1;fill-rule:nonzero;stroke:#000000;stroke-width:8.0;stroke-linecap:round;stroke-linejoin:bevel;stroke-miterlimit:4;stroke-dasharray:none;stroke-dashoffset:0;stroke-opacity:1"
       id="path4705"
       cx="50"
       cy="50"
       rx="46"
       ry="46" />
  </g>
  <path
     id="path12067"
     d="m 78.181133,29.558493 -15.576346,0 1.539647,-9.966544 5.334799,1.049399 c 0.761592,0.143294 1.490256,-0.344515 1.639038,-1.099399 0.148172,-0.756103 -0.343295,-1.490866 -1.100009,-1.639038 l -6.76042,-1.330499 c -0.373174,-0.07378 -0.758543,0.0097 -1.070741,0.228052 -0.310978,0.217683 -0.519516,0.553052 -0.578053,0.929275 l -1.826844,11.828754 -14.781827,0 c -0.771348,0 -1.395133,0.623786 -1.395133,1.395744 l 0,5.704923 c 0,0.771348 0.623785,1.395744 1.395133,1.395744 l 1.197571,0 0.370734,3.673809 c -1.875014,-0.307929 -4.014056,-0.48354 -6.461637,-0.48354 -19.417839,0 -19.641011,11.061065 -19.641011,11.5318 0,1.104277 0.4061,2.126846 1.091472,2.98539 -2.230506,3.619542 -2.609778,6.724445 -0.974399,8.609216 0.518907,0.598175 1.209767,0.998788 2.015261,1.242693 -0.139026,1.036594 -0.15366,2.252457 0.102444,3.543931 -0.896958,0.618907 -1.489646,1.671965 -1.489646,2.865267 l 0,2.053675 c 0,1.899406 1.497573,3.44454 3.337222,3.44454 l 31.112445,0 c 1.701844,0 3.093927,-1.323181 3.298808,-3.020756 l 13.076934,0 c 0.717079,0 1.316475,-0.542687 1.388427,-1.255498 l 3.556126,-35.191747 1.1994,0 c 0.771347,0 1.395743,-0.623786 1.395743,-1.395743 l 0,-5.704924 c 6.09e-4,-0.770738 -0.623787,-1.394524 -1.395133,-1.394524 z m -31.785623,2.790877 30.39049,0 0,2.914657 -1.065863,0 -28.259984,0 -1.064033,0 0,-2.914657 z m -6.288465,11.686069 c 16.48184,0 16.841599,8.398239 16.848306,8.740925 0,1.441474 -1.748184,2.659778 -3.818323,2.659778 l -26.062405,0 c -2.070138,0 -3.818323,-1.218304 -3.818323,-2.646364 0.0073,-0.356709 0.367076,-8.754339 16.850745,-8.754339 z M 23.769109,57.467865 c 0.975617,0.470125 2.095748,0.759152 3.305514,0.759152 l 26.063015,0 c 1.216473,0 2.342092,-0.292075 3.321977,-0.76586 1.609159,2.737218 1.606721,4.433573 1.037814,5.082358 -0.73964,0.84208 -3.072586,0.900008 -6.629932,-0.878665 -3.003073,-1.500013 -5.273212,-0.304881 -7.099446,0.658542 -1.189644,0.627444 -2.313433,1.220741 -3.661006,1.220741 -1.347572,0 -2.471971,-0.593297 -3.662834,-1.220741 -1.825625,-0.962203 -4.093326,-2.157334 -7.099448,-0.658542 -3.551248,1.776844 -5.939682,1.701843 -6.653712,0.877446 -0.606102,-0.698786 -0.456711,-2.500021 1.078058,-5.074431 z m 1.659769,11.109845 c -0.194514,-1.005495 -0.165856,-1.962211 -0.0433,-2.765876 1.548184,-0.165245 3.305515,-0.698785 5.20797,-1.650013 1.639037,-0.821958 2.689655,-0.350612 4.550036,0.630493 1.371962,0.723786 2.925633,1.542085 4.964064,1.542085 2.038432,0 3.592103,-0.818909 4.964065,-1.542085 1.858552,-0.978056 2.906731,-1.45428 4.548207,-0.630493 1.921967,0.960374 3.67442,1.500012 5.210408,1.665867 0.120732,0.806714 0.148172,1.753673 -0.04512,2.750022 l -29.356334,0 z m 30.232561,6.153709 -31.113056,0 c -0.301222,0 -0.546346,-0.292686 -0.546346,-0.653664 l 0,-2.053675 c 0,-0.360979 0.245124,-0.654883 0.546346,-0.654883 l 31.112445,0 c 0.303661,0 0.550006,0.293904 0.550006,0.654883 l 0,1.075619 c 0,0.0024 -0.0012,0.0043 -0.0012,0.0067 0,0.003 0.0012,0.0043 0.0012,0.0073 l 0,0.964641 c 6.09e-4,0.359759 -0.245735,0.653054 -0.549395,0.653054 z m 15.114146,-3.020756 -11.804973,0 c -0.0939,-1.061595 -0.642078,-1.989651 -1.459768,-2.55246 0.256099,-1.284767 0.242685,-2.493923 0.10488,-3.534785 0.785372,-0.246343 1.460987,-0.647566 1.981723,-1.241473 1.641476,-1.877455 1.279279,-4.993943 -0.930495,-8.637875 0.676834,-0.855494 1.079277,-1.871966 1.079277,-2.967706 0,-0.378662 -0.15366,-7.603111 -10.3074,-10.418377 l -0.43476,-4.303083 25.172764,0 -3.401246,33.655759 z"
     style="fill:#000000" />
</svg>
