<?xml version="1.0" encoding="UTF-8" standalone="no"?>
<svg
   xmlns:dc="http://purl.org/dc/elements/1.1/"
   xmlns:cc="http://creativecommons.org/ns#"
   xmlns:rdf="http://www.w3.org/1999/02/22-rdf-syntax-ns#"
   xmlns:svg="http://www.w3.org/2000/svg"
   xmlns="http://www.w3.org/2000/svg"
   width="100"
   height="100"
   viewBox="0 0 100 100"
   id="svg4157"
   version="1.1">
  <defs
     id="defs4159" />
  <metadata
     id="metadata4162">
    <rdf:RDF>
      <cc:Work
         rdf:about="">
        <dc:format>image/svg+xml</dc:format>
        <dc:type
           rdf:resource="http://purl.org/dc/dcmitype/StillImage" />
        <dc:title></dc:title>
      </cc:Work>
    </rdf:RDF>
  </metadata>
  <g
     id="layer1"
     transform="translate(0,2.2107222e-5)">
    <ellipse
       style="opacity:1;fill:none;fill-opacity:1;fill-rule:nonzero;stroke:#000000;stroke-width:8.0;stroke-linecap:round;stroke-linejoin:bevel;stroke-miterlimit:4;stroke-dasharray:none;stroke-dashoffset:0;stroke-opacity:1"
       id="path4705"
       cx="50"
       cy="50"
       rx="46"
       ry="46" />
  </g>
  <g
     id="g13357"
     transform="matrix(0.75,0,0,0.75,12.5,12.500022)">
    <path
       id="path13359"
       d="M 94.46,63.858 84.353,30.63 C 82.418,24.271 76.651,20 70,20 L 30,20 C 23.349,20 17.582,24.271 15.647,30.63 L 5.539,63.858 C 5.182,65.036 5,66.261 5,67.5 5,74.393 10.607,80 17.5,80 c 4.825,0 9.268,-2.822 11.319,-7.191 L 34.834,60 65.165,60 71.18,72.809 C 73.232,77.178 77.675,80 82.5,80 89.393,80 95,74.393 95,67.5 95,66.261 94.818,65.036 94.46,63.858 l 0,0 z M 82.5,75 c -2.896,0 -5.562,-1.694 -6.794,-4.316 L 69.016,56.438 C 68.604,55.561 67.723,55 66.753,55 l -33.506,0 c -0.969,0 -1.851,0.561 -2.263,1.438 l -6.69,14.246 C 23.062,73.306 20.396,75 17.5,75 13.364,75 10,71.636 10,67.5 c 0,-0.746 0.109,-1.481 0.323,-2.187 L 20.431,32.084 C 21.72,27.848 25.565,25 30,25 l 40,0 c 4.435,0 8.28,2.848 9.569,7.085 L 89.676,65.314 C 89.891,66.019 90,66.754 90,67.5 90,71.636 86.636,75 82.5,75 Z" />
    <path
       id="path13361"
       d="m 37.5,37.5 -2.5,0 0,-2.5 c 0,-1.381 -1.119,-2.5 -2.5,-2.5 -1.381,0 -2.5,1.119 -2.5,2.5 l 0,2.5 -2.5,0 c -1.381,0 -2.5,1.119 -2.5,2.5 0,1.381 1.119,2.5 2.5,2.5 l 2.5,0 0,2.5 c 0,1.381 1.119,2.5 2.5,2.5 1.381,0 2.5,-1.119 2.5,-2.5 l 0,-2.5 2.5,0 c 1.381,0 2.5,-1.119 2.5,-2.5 0,-1.381 -1.119,-2.5 -2.5,-2.5 z" />
    <path
       id="path13363"
       d="m 73.618,35.264 c -1.234,-0.619 -2.737,-0.117 -3.354,1.118 l -2.5,5 c -0.618,1.235 -0.117,2.736 1.118,3.354 0.359,0.18 0.74,0.265 1.116,0.265 0.917,0 1.8,-0.507 2.238,-1.383 l 2.5,-5 c 0.618,-1.235 0.117,-2.736 -1.118,-3.354 z" />
    <path
       id="path13365"
       d="m 63.618,35.264 c -1.236,-0.619 -2.737,-0.117 -3.354,1.118 l -2.5,5 c -0.618,1.235 -0.117,2.736 1.118,3.354 0.359,0.18 0.74,0.265 1.116,0.265 0.917,0 1.8,-0.507 2.238,-1.383 l 2.5,-5 c 0.618,-1.235 0.117,-2.736 -1.118,-3.354 z" />
  </g>
</svg>
