<?xml version="1.0" encoding="UTF-8" standalone="no"?>
<svg
   xmlns:dc="http://purl.org/dc/elements/1.1/"
   xmlns:cc="http://creativecommons.org/ns#"
   xmlns:rdf="http://www.w3.org/1999/02/22-rdf-syntax-ns#"
   xmlns:svg="http://www.w3.org/2000/svg"
   xmlns="http://www.w3.org/2000/svg"
   width="100"
   height="100"
   viewBox="0 0 100 100"
   id="svg4157"
   version="1.1">
  <defs
     id="defs4159" />
  <metadata
     id="metadata4162">
    <rdf:RDF>
      <cc:Work
         rdf:about="">
        <dc:format>image/svg+xml</dc:format>
        <dc:type
           rdf:resource="http://purl.org/dc/dcmitype/StillImage" />
        <dc:title></dc:title>
      </cc:Work>
    </rdf:RDF>
  </metadata>
  <g
     id="layer1"
     transform="translate(0,2.2107222e-5)">
    <ellipse
       style="opacity:1;fill:none;fill-opacity:1;fill-rule:nonzero;stroke:#000000;stroke-width:8.0;stroke-linecap:round;stroke-linejoin:bevel;stroke-miterlimit:4;stroke-dasharray:none;stroke-dashoffset:0;stroke-opacity:1"
       id="path4705"
       cx="50"
       cy="50"
       rx="46"
       ry="46" />
  </g>
  <g
     id="g14677"
     transform="matrix(0.66110603,0,0,0.66110603,16.944368,17.194949)">
    <path
       id="path14679"
       d="m 78.605,48.242 c 5.105,0 9.26,-4.155 9.26,-9.261 0,-5.108 -4.154,-9.264 -9.26,-9.264 -5.107,0 -9.264,4.155 -9.264,9.264 0.001,5.106 4.157,9.261 9.264,9.261 z"
       style="fill:#000000" />
    <path
       id="path14681"
       d="m 82.059,50.823 -6.91,0 c -1.211,0 -3.107,2.453 -5.096,6.013 0.418,0.901 0.809,1.77 1.162,2.579 3.631,8.273 6.471,16.868 7.797,23.265 l 15.588,0 c 0.18,0 0.367,-0.046 0.531,-0.382 0.162,-0.339 0.248,-0.867 0.248,-1.566 -0.002,-8.106 -9.711,-29.909 -13.32,-29.909 z"
       style="fill:#000000" />
    <path
       id="path14683"
       d="m 21.426,48.242 c 5.106,0 9.26,-4.155 9.26,-9.261 0,-5.108 -4.153,-9.264 -9.26,-9.264 -5.108,0 -9.265,4.155 -9.265,9.264 0,5.106 4.156,9.261 9.265,9.261 z"
       style="fill:#000000" />
    <path
       id="path14685"
       d="m 24.88,50.823 -6.91,0 c -3.618,0 -13.348,21.808 -13.348,29.916 0,0.697 0.084,1.223 0.249,1.562 0.161,0.332 0.349,0.378 0.526,0.378 l 15.607,0 c 1.503,-7.213 4.898,-17.218 8.934,-25.896 -1.974,-3.531 -3.855,-5.96 -5.058,-5.96 z"
       style="fill:#000000" />
    <path
       id="path14687"
       d="m 50.002,37.147 c 8.498,0 15.41,-6.915 15.41,-15.414 0,-8.5 -6.912,-15.414 -15.41,-15.414 -8.5,0 -15.417,6.914 -15.417,15.414 0,4.111 1.604,7.979 4.52,10.894 2.916,2.915 6.786,4.52 10.897,4.52 z"
       style="fill:#000000" />
    <path
       id="path14689"
       d="m 55.502,40.955 -10.958,0 c -6.661,0 -21.892,35.86 -21.892,48.164 0,1.234 0.153,2.148 0.468,2.797 0.326,0.668 0.827,1.008 1.489,1.008 l 50.775,0 c 0.674,0 1.162,-0.332 1.496,-1.016 0.309,-0.641 0.467,-1.583 0.467,-2.801 C 77.346,76.808 62.145,40.955 55.502,40.955 Z"
       style="fill:#000000" />
  </g>
</svg>
