<?xml version="1.0" encoding="UTF-8" standalone="no"?>
<svg
   xmlns:dc="http://purl.org/dc/elements/1.1/"
   xmlns:cc="http://creativecommons.org/ns#"
   xmlns:rdf="http://www.w3.org/1999/02/22-rdf-syntax-ns#"
   xmlns:svg="http://www.w3.org/2000/svg"
   xmlns="http://www.w3.org/2000/svg"
   width="100"
   height="100"
   viewBox="0 0 100 100"
   id="svg4157"
   version="1.1">
  <defs
     id="defs4159" />
  <metadata
     id="metadata4162">
    <rdf:RDF>
      <cc:Work
         rdf:about="">
        <dc:format>image/svg+xml</dc:format>
        <dc:type
           rdf:resource="http://purl.org/dc/dcmitype/StillImage" />
        <dc:title></dc:title>
      </cc:Work>
    </rdf:RDF>
  </metadata>
  <g
     id="layer1"
     transform="translate(0,2.2107222e-5)">
    <ellipse
       style="opacity:1;fill:none;fill-opacity:1;fill-rule:nonzero;stroke:#000000;stroke-width:8.0;stroke-linecap:round;stroke-linejoin:bevel;stroke-miterlimit:4;stroke-dasharray:none;stroke-dashoffset:0;stroke-opacity:1"
       id="path4705"
       cx="50"
       cy="50"
       rx="46"
       ry="46" />
  </g>
  <g
     transform="matrix(0.83333339,0,0,0.83333339,111.28786,57.165133)"
     id="g18159">
    <polygon
       transform="matrix(2.4958403,0,0,2.4958403,-103.6203,-38.598132)"
       points="0.05,0.04 0.05,4.02 5.06,4.02 4.06,0.04 "
       id="polygon17572" />
    <polygon
       transform="matrix(2.4958403,0,0,2.4958403,-103.6203,-38.598132)"
       points="10.37,0.04 6.36,0.04 7.36,4.02 11.37,4.02 "
       id="polygon17574" />
    <polygon
       transform="matrix(2.4958403,0,0,2.4958403,-103.6203,-38.598132)"
       points="16.76,0.04 12.76,0.04 13.76,4.02 17.77,4.02 "
       id="polygon17576" />
    <polygon
       transform="matrix(2.4958403,0,0,2.4958403,-103.6203,-38.598132)"
       points="20.07,4.02 24.07,4.02 24.07,0.04 19.06,0.04 "
       id="polygon17578" />
    <path
       d="m -103.54542,16.310353 c 0,2.745425 2.24626,4.991681 4.991681,4.991681 l 49.667211,0 c 2.745424,0 4.99168,-2.246256 4.99168,-4.991681 l 0,-39.933444 -59.650572,0 0,39.933444 z m 23.760389,-28.103161 15.998336,10.6322797 -15.998336,10.582362 0,-21.2146417 z"
       id="path17580" />
  </g>
</svg>
