<?xml version="1.0" encoding="UTF-8" standalone="no"?>
<svg
   xmlns:dc="http://purl.org/dc/elements/1.1/"
   xmlns:cc="http://creativecommons.org/ns#"
   xmlns:rdf="http://www.w3.org/1999/02/22-rdf-syntax-ns#"
   xmlns:svg="http://www.w3.org/2000/svg"
   xmlns="http://www.w3.org/2000/svg"
   width="100"
   height="100"
   viewBox="0 0 100 100"
   id="svg4157"
   version="1.1">
  <defs
     id="defs4159" />
  <metadata
     id="metadata4162">
    <rdf:RDF>
      <cc:Work
         rdf:about="">
        <dc:format>image/svg+xml</dc:format>
        <dc:type
           rdf:resource="http://purl.org/dc/dcmitype/StillImage" />
        <dc:title></dc:title>
      </cc:Work>
    </rdf:RDF>
  </metadata>
  <g
     id="layer1"
     transform="translate(0,2.2107222e-5)">
    <ellipse
       style="opacity:1;fill:none;fill-opacity:1;fill-rule:nonzero;stroke:#000000;stroke-width:8.0;stroke-linecap:round;stroke-linejoin:bevel;stroke-miterlimit:4;stroke-dasharray:none;stroke-dashoffset:0;stroke-opacity:1"
       id="path4705"
       cx="50"
       cy="50"
       rx="46"
       ry="46" />
  </g>
  <path
     id="path19838"
     d="m 68.681183,19.874914 -27.781036,5.556208 c -1.299041,0.260025 -2.233595,1.400159 -2.233595,2.724759 l 0,28.312208 c -0.631185,-0.172242 -1.296819,-0.287811 -1.99579,-0.332261 -2.568079,-0.166686 -5.395078,0.552287 -7.942043,2.022459 -2.546965,1.470173 -4.579426,3.554862 -5.722894,5.867355 -1.309043,2.648089 -1.336823,5.418414 -0.07557,7.600892 1.260149,2.182478 3.673765,3.543749 6.620778,3.733772 0.244472,0.01556 0.488946,0.02333 0.736752,0.02333 2.369167,0 4.899464,-0.714528 7.20529,-2.045795 2.546965,-1.470173 4.579426,-3.554862 5.722894,-5.867356 0.852322,-1.723535 1.151245,-3.497077 0.915663,-5.12949 0.05445,-0.216692 0.09112,-0.440052 0.09112,-0.673413 l 0,-20.176811 c 0.180021,0 0.362265,-0.01775 0.544509,-0.05442 l 21.68032,-4.33495 0,13.811617 c -0.631185,-0.172242 -1.296818,-0.287812 -1.995789,-0.332262 -2.572525,-0.164463 -5.395077,0.552288 -7.942043,2.022461 -2.546966,1.470171 -4.579426,3.554861 -5.722894,5.867354 -1.309042,2.648089 -1.336823,5.418413 -0.07557,7.600892 1.260147,2.182478 3.673763,3.543749 6.620776,3.733771 0.244474,0.01556 0.488946,0.02333 0.736753,0.02333 2.369167,0 4.899464,-0.714528 7.20529,-2.045795 2.546965,-1.470172 4.579426,-3.554861 5.722894,-5.867354 0.852321,-1.723536 1.151246,-3.497078 0.915662,-5.129491 0.05445,-0.216693 0.09112,-0.440052 0.09112,-0.673413 l 0,-33.512823 c 0,-0.832317 -0.373377,-1.620183 -1.016786,-2.149142 -0.643408,-0.525616 -1.487952,-0.735641 -2.305826,-0.575616 z" />
</svg>
