<?xml version="1.0" encoding="UTF-8" standalone="no"?>
<svg
   xmlns:dc="http://purl.org/dc/elements/1.1/"
   xmlns:cc="http://creativecommons.org/ns#"
   xmlns:rdf="http://www.w3.org/1999/02/22-rdf-syntax-ns#"
   xmlns:svg="http://www.w3.org/2000/svg"
   xmlns="http://www.w3.org/2000/svg"
   width="100"
   height="100"
   viewBox="0 0 100 100"
   id="svg4157"
   version="1.1">
  <defs
     id="defs4159" />
  <metadata
     id="metadata4162">
    <rdf:RDF>
      <cc:Work
         rdf:about="">
        <dc:format>image/svg+xml</dc:format>
        <dc:type
           rdf:resource="http://purl.org/dc/dcmitype/StillImage" />
        <dc:title></dc:title>
      </cc:Work>
    </rdf:RDF>
  </metadata>
  <g
     id="layer1"
     transform="translate(0,2.2107222e-5)">
    <ellipse
       style="opacity:1;fill:none;fill-opacity:1;fill-rule:nonzero;stroke:#000000;stroke-width:8.0;stroke-linecap:round;stroke-linejoin:bevel;stroke-miterlimit:4;stroke-dasharray:none;stroke-dashoffset:0;stroke-opacity:1"
       id="path4705"
       cx="50"
       cy="50"
       rx="46"
       ry="46" />
  </g>
  <g
     id="g21772"
     transform="matrix(0.60563238,0,0,0.60563238,19.718684,19.718403)">
    <g
       id="g21774">
      <path
         id="path21776"
         d="m 77.5,99.535 -55,0 c -4.841,0 -8.779,-3.938 -8.779,-8.778 l 0,-81.515 c 0,-4.84 3.938,-8.777 8.779,-8.777 l 55,0 c 4.841,0 8.778,3.937 8.778,8.777 l 0,81.515 c 0,4.841 -3.937,8.778 -8.778,8.778 z M 22.5,3.352 c -3.25,0 -5.892,2.643 -5.892,5.891 l 0,81.515 c 0,3.25 2.643,5.893 5.892,5.893 l 55,0 c 3.248,0 5.893,-2.643 5.893,-5.893 l 0,-81.516 c 0,-3.248 -2.645,-5.891 -5.893,-5.891 l -55,0 z" />
    </g>
    <g
       id="g21778">
      <path
         id="path21780"
         d="m 50,12.738 c -4.616,0 -8.358,3.742 -8.358,8.357 0,4.616 3.742,8.358 8.358,8.358 4.616,0 8.357,-3.742 8.357,-8.358 C 58.356,16.48 54.615,12.738 50,12.738 Z m 0,11.496 c -1.733,0 -3.138,-1.405 -3.138,-3.138 0,-1.732 1.405,-3.138 3.138,-3.138 1.733,0 3.139,1.405 3.139,3.138 0,1.733 -1.407,3.138 -3.139,3.138 z" />
    </g>
    <g
       id="g21782">
      <circle
         id="circle21784"
         r="2.6370001"
         cy="11.765"
         cx="74.977997" />
    </g>
    <g
       id="g21786">
      <circle
         id="circle21788"
         r="2.638"
         cy="11.765"
         cx="25.021999" />
    </g>
    <g
       id="g21790">
      <circle
         id="circle21792"
         r="2.6370001"
         cy="88.234001"
         cx="74.977997" />
    </g>
    <g
       id="g21794">
      <circle
         id="circle21796"
         r="2.638"
         cy="88.234001"
         cx="25.021999" />
    </g>
    <path
       id="path21798"
       d="m 50,36.344 c -14.414,0 -26.097,11.683 -26.097,26.097 0,14.413 11.683,26.096 26.097,26.096 14.413,0 26.097,-11.683 26.097,-26.096 C 76.097,48.027 64.412,36.344 50,36.344 Z m 16.455,13.144 c 0.003,0.004 0.005,0.008 0.009,0.012 -0.004,-0.004 -0.007,-0.009 -0.011,-0.013 0,10e-4 0.002,10e-4 0.002,10e-4 z M 29.64,57.516 c 1.835,-7.611 7.823,-13.599 15.435,-15.433 l 0.742,3.069 C 39.362,46.714 34.272,51.803 32.71,58.258 l -3.07,-0.742 z m 7.406,21.38 c 0,0 -10e-4,-0.001 -10e-4,-0.002 0.006,0.004 0.012,0.009 0.017,0.014 -0.004,-0.004 -0.011,-0.009 -0.016,-0.012 z m 1.72,-19.172 -3.238,-0.783 c 1.309,-5.406 5.564,-9.661 10.971,-10.97 l 0.784,3.238 c -4.202,1.014 -7.504,4.312 -8.517,8.515 z m 4.641,2.717 c 0,-3.641 2.951,-6.591 6.592,-6.591 3.641,0 6.591,2.95 6.591,6.591 0,3.64 -2.95,6.592 -6.591,6.592 -3.641,0 -6.592,-2.952 -6.592,-6.592 z m 9.31,11.232 c 4.201,-1.013 7.502,-4.312 8.516,-8.515 l 3.239,0.783 c -1.31,5.406 -5.565,9.661 -10.972,10.971 l -0.783,-3.239 z m 2.207,9.127 -0.742,-3.07 c 6.455,-1.562 11.545,-6.651 13.107,-13.106 l 3.068,0.742 C 68.523,74.977 62.535,80.965 54.924,82.8 Z" />
  </g>
</svg>
