<?xml version="1.0" encoding="UTF-8" standalone="no"?>
<svg
   xmlns:dc="http://purl.org/dc/elements/1.1/"
   xmlns:cc="http://creativecommons.org/ns#"
   xmlns:rdf="http://www.w3.org/1999/02/22-rdf-syntax-ns#"
   xmlns:svg="http://www.w3.org/2000/svg"
   xmlns="http://www.w3.org/2000/svg"
   width="100"
   height="100"
   viewBox="0 0 100 100"
   id="svg4157"
   version="1.1">
  <defs
     id="defs4159" />
  <metadata
     id="metadata4162">
    <rdf:RDF>
      <cc:Work
         rdf:about="">
        <dc:format>image/svg+xml</dc:format>
        <dc:type
           rdf:resource="http://purl.org/dc/dcmitype/StillImage" />
        <dc:title></dc:title>
      </cc:Work>
    </rdf:RDF>
  </metadata>
  <g
     id="layer1"
     transform="translate(0,2.2107222e-5)">
    <ellipse        style="opacity:1;fill:none;fill-opacity:1;fill-rule:nonzero;stroke:#000000;stroke-width:2.0;stroke-linecap:round;stroke-linejoin:bevel;stroke-miterlimit:4;stroke-dasharray:none;stroke-dashoffset:0;stroke-opacity:1"
       id="path4705"
       cx="50"
       cy="50"
       rx="49"
       ry="49" />
  </g>
  <g
     id="g21869"
     transform="matrix(1.2499957,0,0,1.2499957,17.500112,17.500131)">
    <g
       id="g21871">
      <path
         id="path21873"
         d="m 12.768555,32.923096 c 2.523437,-1.742188 5.539062,-1.742188 8.064453,0 0.284363,0.196228 0.578796,0.353393 0.872009,0.515136 0.05066,0.03131 0.09595,0.06793 0.152161,0.08991 1.329467,0.702759 2.73407,1.069153 4.142822,1.068787 1.774414,0 3.549805,-0.558106 5.166992,-1.673828 2.526367,-1.743164 5.541016,-1.741211 8.06543,0 3.233398,2.230468 7.099609,2.232422 10.334961,0 0.455078,-0.313477 0.569336,-0.936524 0.255859,-1.391114 -0.314453,-0.455078 -0.936523,-0.569824 -1.390625,-0.255371 -2.524414,1.740235 -5.539062,1.742188 -8.06543,0 -0.852233,-0.58844 -1.749328,-1.011719 -2.666015,-1.289978 l 0,-20.5278928 c 0,-2.6650391 -2.167969,-4.8334961 -4.833008,-4.8334961 l -3.087891,0 c -0.552734,0 -1,0.4477539 -1,1 0,0.5522461 0.447266,1 1,1 l 3.087891,0 c 1.562492,0 2.833008,1.2709961 2.833008,2.8334961 l 0,1.6230468 -12.481445,0 0,-1.6230468 c 0,-2.6650391 -2.167969,-4.8334961 -4.833008,-4.8334961 l -3.087891,0 c -0.552734,0 -1,0.4477539 -1,1 0,0.5522461 0.447266,1 1,1 l 3.087891,0 c 1.5625,0 2.833008,1.2709961 2.833008,2.8334961 l 0,21.3762208 c -3.07251,-1.752319 -6.595459,-1.623352 -9.586914,0.44165 -2.5263677,1.742188 -5.5410161,1.740235 -8.0654302,0 -0.4541016,-0.314453 -1.0771484,-0.199707 -1.390625,0.255371 -0.3134766,0.45459 -0.1992188,1.077637 0.2558594,1.391114 3.2353516,2.231933 7.1005859,2.230469 10.3359378,0 z m 22.932617,-9.063477 -12.481445,0 0,-4.38916 12.481445,0 0,4.38916 z m -5.668945,7.416992 c -2.120301,1.462708 -4.581787,1.680725 -6.8125,0.687317 l 0,-6.104309 12.481445,0 0,3.781799 c -1.941406,-0.115173 -3.899536,0.413819 -5.668945,1.635193 z m 5.668945,-18.194824 0,4.388672 -12.481445,0 0,-4.388672 12.481445,0 z" />
    </g>
    <g
       id="g21875">
      <path
         id="path21877"
         d="m 48.432617,37.665283 c -2.526367,1.742676 -5.541015,1.741699 -8.06543,0 -3.235351,-2.232422 -7.100585,-2.231445 -10.335937,0 -2.523438,1.742188 -5.538086,1.742188 -8.063477,0 -3.235351,-2.230957 -7.099609,-2.231933 -10.334961,0 -2.5244136,1.741699 -5.539062,1.742676 -8.0654292,0 -0.4541016,-0.314941 -1.0771484,-0.199219 -1.390625,0.255371 -0.3134766,0.45459 -0.1992188,1.077637 0.2558594,1.391114 3.2353516,2.232421 7.1015625,2.231445 10.3349608,0 2.525391,-1.742188 5.541016,-1.741211 8.064453,0 1.618164,1.116211 3.392578,1.674316 5.167969,1.674316 1.774414,0 3.549805,-0.558106 5.166992,-1.674316 2.524414,-1.740723 5.539063,-1.7417 8.06543,0 3.234375,2.232421 7.100586,2.231445 10.334961,0 0.455078,-0.313477 0.569336,-0.936524 0.255859,-1.391114 -0.314453,-0.454589 -0.936523,-0.570312 -1.390625,-0.255371 z" />
    </g>
    <g
       id="g21879">
      <path
         id="path21881"
         d="m 48.432617,44.054443 c -2.524414,1.740723 -5.539062,1.7417 -8.06543,0 -3.235351,-2.233398 -7.101562,-2.231933 -10.33496,0 -2.525391,1.742188 -5.539063,1.742188 -8.064454,0 -3.235351,-2.231445 -7.099609,-2.233398 -10.33496,0 -2.5263676,1.7417 -5.541016,1.740723 -8.0654301,0 -0.4541016,-0.314453 -1.0771484,-0.199707 -1.390625,0.255371 -0.3134766,0.45459 -0.1992188,1.077637 0.2558594,1.391114 3.2353516,2.231445 7.1005859,2.230469 10.3359377,0 2.523437,-1.742188 5.539062,-1.742188 8.064453,0 1.617187,1.116211 3.391601,1.674316 5.166992,1.673828 1.774414,0 3.549805,-0.558106 5.166992,-1.673828 2.526367,-1.742676 5.541016,-1.741699 8.06543,0 3.233398,2.230957 7.099609,2.231933 10.334961,0 0.455078,-0.313477 0.569336,-0.936524 0.255859,-1.391114 -0.314453,-0.455078 -0.936523,-0.569824 -1.390625,-0.255371 z" />
    </g>
  </g>
</svg>
