<?xml version="1.0" encoding="UTF-8" standalone="no"?>
<svg
   xmlns:dc="http://purl.org/dc/elements/1.1/"
   xmlns:cc="http://creativecommons.org/ns#"
   xmlns:rdf="http://www.w3.org/1999/02/22-rdf-syntax-ns#"
   xmlns:svg="http://www.w3.org/2000/svg"
   xmlns="http://www.w3.org/2000/svg"
   width="100"
   height="100"
   viewBox="0 0 100 100"
   id="svg4157"
   version="1.1">
  <defs
     id="defs4159" />
  <metadata
     id="metadata4162">
    <rdf:RDF>
      <cc:Work
         rdf:about="">
        <dc:format>image/svg+xml</dc:format>
        <dc:type
           rdf:resource="http://purl.org/dc/dcmitype/StillImage" />
        <dc:title></dc:title>
      </cc:Work>
    </rdf:RDF>
  </metadata>
  <g
     id="layer1"
     transform="translate(0,2.2107222e-5)">
    <ellipse        style="opacity:1;fill:none;fill-opacity:1;fill-rule:nonzero;stroke:#000000;stroke-width:2.0;stroke-linecap:round;stroke-linejoin:bevel;stroke-miterlimit:4;stroke-dasharray:none;stroke-dashoffset:0;stroke-opacity:1"
       id="path4705"
       cx="50"
       cy="50"
       rx="49"
       ry="49" />
  </g>
  <g
     id="g19126"
     transform="matrix(0.79268293,0,0,0.79268293,10.365854,10.365876)">
    <path
       id="path19128"
       d="M 72.322266,9 27.677734,9 c -3.112304,0 -5.644043,2.531738 -5.644043,5.644043 l 0,11.385742 c 0,3.112305 2.531739,5.644531 5.644043,5.644531 l 15.704102,0 0,52.70752 C 43.381836,88.03125 46.350586,91 50,91 c 3.649414,0 6.618164,-2.96875 6.618164,-6.618164 l 0,-52.70752 15.704102,0 c 3.112304,0 5.644043,-2.532226 5.644043,-5.644531 l 0,-11.385742 C 77.966309,11.531738 75.43457,9 72.322266,9 Z M 54.618164,84.381836 C 54.618164,86.928223 52.546387,89 50,89 47.453613,89 45.381836,86.928223 45.381836,84.381836 l 0,-52.70752 9.236328,0 0,52.70752 z M 75.966309,26.029785 c 0,2.009766 -1.634766,3.644531 -3.644043,3.644531 l -16.704102,0 -11.236328,0 -16.704102,0 c -2.009277,0 -3.644043,-1.634765 -3.644043,-3.644531 l 0,-11.385742 C 24.033691,12.634766 25.668457,11 27.677734,11 l 44.644532,0 c 2.009277,0 3.644043,1.634766 3.644043,3.644043 l 0,11.385742 z" />
    <path
       id="path19130"
       d="m 70.174805,15.339356 -40.34961,0 c -0.552246,0 -1,0.447753 -1,0.999999 l 0,3.997559 0,3.998047 c 0,0.552246 0.447754,1 1,1 l 40.34961,0 c 0.552246,0 1,-0.447754 1,-1 l 0,-3.998047 0,-3.997559 c 0,-0.552246 -0.447754,-0.999999 -1,-0.999999 z m -39.34961,1.999999 38.34961,0 0,1.997559 -38.34961,0 0,-1.997559 z m 38.34961,5.995606 -38.34961,0 0,-1.998047 38.34961,0 0,1.998047 z" />
  </g>
</svg>
