<?xml version="1.0" encoding="UTF-8" standalone="no"?>
<svg
   xmlns:dc="http://purl.org/dc/elements/1.1/"
   xmlns:cc="http://creativecommons.org/ns#"
   xmlns:rdf="http://www.w3.org/1999/02/22-rdf-syntax-ns#"
   xmlns:svg="http://www.w3.org/2000/svg"
   xmlns="http://www.w3.org/2000/svg"
   width="100"
   height="100"
   viewBox="0 0 100 100"
   id="svg4157"
   version="1.1">
  <defs
     id="defs4159" />
  <metadata
     id="metadata4162">
    <rdf:RDF>
      <cc:Work
         rdf:about="">
        <dc:format>image/svg+xml</dc:format>
        <dc:type
           rdf:resource="http://purl.org/dc/dcmitype/StillImage" />
        <dc:title></dc:title>
      </cc:Work>
    </rdf:RDF>
  </metadata>
  <g
     id="layer1"
     transform="translate(0,2.2107222e-5)">
    <ellipse        style="opacity:1;fill:none;fill-opacity:1;fill-rule:nonzero;stroke:#000000;stroke-width:2.0;stroke-linecap:round;stroke-linejoin:bevel;stroke-miterlimit:4;stroke-dasharray:none;stroke-dashoffset:0;stroke-opacity:1"
       id="path4705"
       cx="50"
       cy="50"
       rx="49"
       ry="49" />
  </g>
  <path
     id="path18457"
     d="m 40.711313,50.460623 c -0.670628,0.670624 -0.670628,1.755245 -8.46e-4,2.424659 0.67062,0.670625 1.756454,0.671835 2.427074,0.0012 0.670627,-0.671835 0.669417,-1.756455 -8.46e-4,-2.42708 -0.66941,-0.669414 -1.754034,-0.670624 -2.424654,0.0012 z m 6.777664,6.776456 c -0.671835,0.670625 -0.670624,1.756455 -0.0025,2.425869 0.671835,0.669414 1.756455,0.670624 2.42829,0 0.669414,-0.670624 0.669414,-1.756455 -0.0025,-2.427079 -0.668205,-0.668204 -1.754035,-0.669415 -2.423449,0.0012 z m -9.573956,9.573952 c -0.67062,0.670626 -0.67062,1.755247 -8.47e-4,2.424661 0.670627,0.670624 1.756455,0.671835 2.427083,0.0012 0.670627,-0.670625 0.670627,-1.756456 -8.46e-4,-2.42708 -0.669418,-0.669414 -1.755246,-0.669414 -2.424663,0.0012 z m 1.211726,-8.362228 c -0.670628,0.670625 -0.66941,1.755244 0,2.424659 0.669417,0.670625 1.755244,0.671835 2.425872,0.0012 0.671838,-0.670624 0.669409,-1.756456 0,-2.42708 -0.669418,-0.669414 -1.756455,-0.669414 -2.425872,0.0012 z m -7.989394,1.584563 c -0.670619,0.670624 -0.669409,1.756455 0,2.424658 0.669418,0.670625 1.756454,0.671835 2.425872,0.0012 0.671838,-0.670626 0.669418,-1.756456 0,-2.427081 -0.669418,-0.668203 -1.754034,-0.669413 -2.425872,0.0012 z M 49.912426,40.51141 c -0.670626,0.670624 -0.669415,1.756455 0,2.427079 0.669414,0.669415 1.755245,0.670626 2.425871,-0.0012 0.670624,-0.670625 0.669414,-1.755245 0,-2.42466 -0.669415,-0.670625 -1.756457,-0.671835 -2.425871,-0.0012 z m 16.35041,-2.796287 c -0.670624,0.671835 -0.670624,1.756455 0.0012,2.42708 0.669414,0.669414 1.754034,0.670624 2.42466,-0.0012 0.670625,-0.670625 0.670625,-1.755246 0.0012,-2.42466 -0.671835,-0.670624 -1.757666,-0.671835 -2.42708,-0.0012 z M 48.69949,48.873639 c -0.669414,0.670625 -0.669414,1.756456 0.0025,2.427081 0.668204,0.669413 1.754035,0.669413 2.42345,-0.0012 0.671835,-0.670624 0.670624,-1.755244 0.0025,-2.424658 -0.671835,-0.669415 -1.757667,-0.670625 -2.428292,-0.0012 z M 71.935305,28.066117 c -3.621858,-3.621856 -7.857446,-5.616784 -11.927193,-5.616784 -2.66071,0 -5.113211,0.880044 -6.90114,2.477922 -2.092979,1.870244 -3.464491,3.672699 -4.566059,5.429154 -1.356985,-0.04721 -2.47429,-0.160998 -3.456016,-0.271155 -3.963224,-0.441837 -5.918204,-0.435784 -10.676736,4.321535 -4.759734,4.760951 -4.764582,6.712299 -4.321528,10.675521 0.111362,0.987779 0.229994,2.090557 0.278418,3.454806 -1.758882,1.101568 -3.563754,2.475501 -5.43763,4.5709 -3.589172,4.015274 -3.707804,11.979245 3.137649,18.8247 3.62186,3.621857 7.857444,5.617995 11.925981,5.617995 2.661923,0 5.114424,-0.881254 6.902353,-2.480343 2.095399,-1.872665 3.469332,-3.678751 4.5709,-5.436418 1.361829,0.04721 2.463397,0.167051 3.452386,0.277208 0.924833,0.102894 1.739509,0.181577 2.505764,0.181577 2.52029,0 4.520058,-0.854622 8.168547,-4.504322 4.760951,-4.760951 4.765793,-6.712299 4.321535,-10.675521 -0.110157,-0.987779 -0.228788,-2.090557 -0.277208,-3.453596 1.758876,-1.101567 3.563753,-2.47429 5.437628,-4.570899 3.589173,-4.014064 3.706593,-11.976824 -3.137651,-18.82228 z m -34.960852,8.909382 c 3.724752,-3.72354 4.489794,-3.640015 7.704921,-3.280492 0.549573,0.06174 1.165725,0.127104 1.853297,0.182788 -1.255303,2.285449 -2.641341,4.659267 -5.317786,7.338134 -2.678864,2.677656 -5.05269,4.063695 -7.339344,5.320208 -0.05568,-0.687572 -0.12105,-1.304934 -0.181576,-1.854507 -0.358312,-3.216336 -0.443054,-3.98017 3.280488,-7.706131 z m 26.047838,26.047835 c -3.723541,3.723541 -4.487374,3.638805 -7.703709,3.280493 -0.549574,-0.06174 -1.166936,-0.127104 -1.850877,-0.183998 1.254093,-2.28424 2.641341,-4.658057 5.317788,-7.334503 2.677657,-2.677657 5.050263,-4.063694 7.335713,-5.320209 0.0569,0.687573 0.123473,1.302514 0.183999,1.852087 0.357101,3.216336 0.443048,3.980168 -3.282914,7.70613 z M 72.366247,44.471 c -2.522711,2.821708 -4.794845,4.062485 -7.427712,5.500575 -2.557816,1.396933 -5.456997,2.981495 -8.722963,6.246251 -3.262335,3.264755 -4.845688,6.162725 -6.241411,8.719331 -1.43809,2.632867 -2.681287,4.906211 -5.501785,7.427712 -1.123356,1.002305 -2.713973,1.55551 -4.482535,1.55551 -3.097702,0 -6.421776,-1.617246 -9.35727,-4.553952 -5.269364,-5.270578 -5.476366,-11.062886 -2.997228,-13.837383 2.521496,-2.821708 4.79484,-4.062485 7.427708,-5.501785 2.55782,-1.395722 5.456998,-2.980285 8.721754,-6.24383 3.262334,-3.264756 4.845686,-6.163937 6.241409,-8.720542 1.43809,-2.632867 2.680078,-4.907423 5.501787,-7.427713 1.122146,-1.002305 2.713971,-1.554299 4.481322,-1.554299 3.098914,0 6.422985,1.616036 9.358482,4.552742 5.268155,5.269367 5.475153,11.062885 2.998442,13.837383 z M 59.48517,30.938666 c -0.669414,0.670626 -0.669414,1.756456 0.0012,2.427081 0.669414,0.668204 1.755245,0.669414 2.424658,-0.0012 0.671835,-0.670624 0.670625,-1.756455 0.0012,-2.425869 -0.670624,-0.669415 -1.755245,-0.670625 -2.42708,0 z m -2.797498,16.350411 c -0.669413,0.670624 -0.669413,1.755245 0.0012,2.42708 0.669415,0.668203 1.755245,0.669414 2.424659,-0.0012 0.671835,-0.670624 0.670625,-1.756455 0.0012,-2.424658 -0.669415,-0.671835 -1.755246,-0.671835 -2.427081,-0.0012 z m 1.585774,-7.988181 c -0.670625,0.670625 -0.670625,1.755245 0.0012,2.42587 0.669414,0.669413 1.754036,0.670624 2.424661,0 0.670624,-0.670625 0.670624,-1.756455 0.0012,-2.42587 -0.671835,-0.670625 -1.756455,-0.670625 -2.427079,0 z" />
</svg>
