<?xml version="1.0" encoding="UTF-8" standalone="no"?>
<svg
   xmlns:dc="http://purl.org/dc/elements/1.1/"
   xmlns:cc="http://creativecommons.org/ns#"
   xmlns:rdf="http://www.w3.org/1999/02/22-rdf-syntax-ns#"
   xmlns:svg="http://www.w3.org/2000/svg"
   xmlns="http://www.w3.org/2000/svg"
   width="100"
   height="100"
   viewBox="0 0 100 100"
   id="svg4157"
   version="1.1">
  <defs
     id="defs4159" />
  <metadata
     id="metadata4162">
    <rdf:RDF>
      <cc:Work
         rdf:about="">
        <dc:format>image/svg+xml</dc:format>
        <dc:type
           rdf:resource="http://purl.org/dc/dcmitype/StillImage" />
        <dc:title></dc:title>
      </cc:Work>
    </rdf:RDF>
  </metadata>
  <g
     id="layer1"
     transform="translate(0,2.2107222e-5)">
    <ellipse        style="opacity:1;fill:none;fill-opacity:1;fill-rule:nonzero;stroke:#000000;stroke-width:2.0;stroke-linecap:round;stroke-linejoin:bevel;stroke-miterlimit:4;stroke-dasharray:none;stroke-dashoffset:0;stroke-opacity:1"
       id="path4705"
       cx="50"
       cy="50"
       rx="49"
       ry="49" />
  </g>
  <path
     id="path17820"
     d="m 77.220144,27.85638 -5.127775,-5.127775 c -0.358228,-0.358228 -0.992593,-0.358228 -1.350822,0 l -7.508194,7.508505 c -0.2099,0.209589 -0.310341,0.505003 -0.271781,0.799174 0.221405,1.697857 -1.309775,3.273815 -1.784926,3.717248 -0.261208,0.244417 -0.522418,0.488833 -0.774919,0.741335 L 47.839262,48.05706 46.744246,46.961927 c -0.771188,-0.770565 -2.027166,-0.770565 -2.799597,6.22e-4 l -1.354554,1.354554 c -0.330747,0.330747 -0.520551,0.759099 -0.562532,1.218934 -2.32e-4,0.0011 -7.64e-4,0.002 -9.3e-4,0.0031 -0.120965,0.633121 -0.616329,2.448521 -1.455928,3.317351 l -15.758323,13.0673 c -1.394361,1.19161 -2.235514,2.925538 -2.307344,4.758352 -0.07184,1.832814 0.630943,3.628313 1.92797,4.925027 1.236392,1.236388 2.925231,1.932943 4.668486,1.932943 0.08489,0 0.170407,-0.0017 0.255919,-0.0051 1.83282,-0.07214 3.567368,-0.912987 4.767993,-2.318537 L 47.183661,59.469368 c 0.869141,-0.8396 2.68423,-1.334651 3.317039,-1.455927 10e-4,-1.95e-4 0.0019,-7.01e-4 0.003,-9.31e-4 0.459758,-0.04186 0.888458,-0.231745 1.21874,-0.562571 l 1.355176,-1.354552 c 0.373776,-0.374399 0.579634,-0.871318 0.579634,-1.399955 0,-0.529258 -0.205858,-1.026176 -0.579946,-1.399954 l -1.185997,-1.186092 12.56192,-12.562193 c 0.253435,-0.253123 0.498473,-0.514954 0.741646,-0.776162 0.443122,-0.474529 2.023124,-2.007575 3.71787,-1.784304 0.295726,0.04043 0.589274,-0.06157 0.798863,-0.271782 l 7.508505,-7.507883 c 0.179115,-0.179114 0.279866,-0.422287 0.279866,-0.675411 0,-0.253123 -0.100751,-0.496296 -0.279866,-0.675411 z m -31.41656,30.290875 c -0.02114,0.02114 -0.04105,0.04291 -0.06002,0.06592 L 32.663541,73.986451 c -0.858872,1.005653 -2.05981,1.587775 -3.381096,1.639394 -1.315372,0.05349 -2.563576,-0.434103 -3.498635,-1.369479 -0.935068,-0.935375 -1.421421,-2.177982 -1.369797,-3.499574 0.05187,-1.320969 0.634057,-2.521286 1.628517,-3.371457 L 41.827303,54.296293 c 0.0227,-0.01866 0.04478,-0.03856 0.06561,-0.0597 0.655431,-0.655432 1.119387,-1.561227 1.43688,-2.378982 l 4.853001,4.852767 c -0.817871,0.317455 -1.723744,0.78141 -2.379214,1.436881 z m 5.922906,-3.402554 -1.355176,1.354554 c -0.02301,0.02363 -0.07463,0.02363 -0.09764,0 l -3.11e-4,0 -6.332444,-6.332444 c -0.02301,-0.02301 -0.02363,-0.07463 -3.1e-4,-0.09826 l 1.354553,-1.354553 c 0.01368,-0.01368 0.03171,-0.02053 0.04945,-0.02053 0.01803,0 0.03576,0.0069 0.04914,0.0199 l 6.333066,6.333687 c 0.02301,0.02301 0.02239,0.07463 -3.11e-4,0.09764 z M 68.669603,35.055166 c -2.323514,-0.04727 -4.152596,1.642505 -4.871853,2.413071 -0.228557,0.24566 -0.457425,0.490076 -0.695001,0.727653 L 50.540595,50.758626 49.190006,49.407921 61.752549,36.845689 c 0.237575,-0.237575 0.483236,-0.467066 0.728274,-0.695934 0.769944,-0.718324 2.463758,-2.566065 2.412449,-4.870919 l 6.523686,-6.523998 3.776642,3.776953 -6.523997,6.523375 z" />
</svg>
