<?xml version="1.0" encoding="UTF-8" standalone="no"?>
<svg
   xmlns:dc="http://purl.org/dc/elements/1.1/"
   xmlns:cc="http://creativecommons.org/ns#"
   xmlns:rdf="http://www.w3.org/1999/02/22-rdf-syntax-ns#"
   xmlns:svg="http://www.w3.org/2000/svg"
   xmlns="http://www.w3.org/2000/svg"
   width="100"
   height="100"
   viewBox="0 0 100 100"
   id="svg4157"
   version="1.1">
  <defs
     id="defs4159" />
  <metadata
     id="metadata4162">
    <rdf:RDF>
      <cc:Work
         rdf:about="">
        <dc:format>image/svg+xml</dc:format>
        <dc:type
           rdf:resource="http://purl.org/dc/dcmitype/StillImage" />
        <dc:title></dc:title>
      </cc:Work>
    </rdf:RDF>
  </metadata>
  <g
     id="layer1"
     transform="translate(0,2.2107222e-5)">
    <ellipse        style="opacity:1;fill:none;fill-opacity:1;fill-rule:nonzero;stroke:#000000;stroke-width:2.0;stroke-linecap:round;stroke-linejoin:bevel;stroke-miterlimit:4;stroke-dasharray:none;stroke-dashoffset:0;stroke-opacity:1"
       id="path4705"
       cx="50"
       cy="50"
       rx="49"
       ry="49" />
  </g>
  <g
     id="g17150"
     transform="matrix(0.76142132,0,0,0.76142132,11.928934,11.967027)">
    <path
       id="path17152"
       d="m 84.9,25.4 -69.8,0 c -2.5,0 -4.5,2 -4.5,4.5 l 0,40.1 c 0,2.5 2,4.5 4.5,4.5 l 69.8,0 c 2.5,0 4.5,-2 4.5,-4.5 l 0,-40 c 0,-2.5 -2,-4.6 -4.5,-4.6 z M 86.4,70 c 0,0.8 -0.7,1.5 -1.5,1.5 l -69.8,0 c -0.8,0 -1.5,-0.7 -1.5,-1.5 l 0,-40 c 0,-0.8 0.7,-1.5 1.5,-1.5 l 69.8,0 c 0.8,0 1.5,0.7 1.5,1.5 l 0,40 z" />
    <path
       id="path17154"
       d="m 34.8,41.8 c -0.6,-0.6 -1.5,-0.6 -2.1,0 l -5.3,5.3 -5.3,-5.3 c -0.6,-0.6 -1.5,-0.6 -2.1,0 -0.6,0.6 -0.6,1.5 0,2.1 l 5.3,5.3 -5.3,5.4 c -0.6,0.6 -0.6,1.5 0,2.1 0.3,0.3 0.7,0.4 1.1,0.4 0.4,0 0.8,-0.1 1.1,-0.4 l 5.3,-5.3 5.3,5.3 c 0.3,0.3 0.7,0.4 1.1,0.4 0.4,0 0.8,-0.1 1.1,-0.4 0.6,-0.6 0.6,-1.5 0,-2.1 L 29.7,49.3 35,44 c 0.4,-0.6 0.4,-1.6 -0.2,-2.2 z" />
    <path
       id="path17156"
       d="m 57.4,41.8 c -0.6,-0.6 -1.5,-0.6 -2.1,0 L 50,47.1 44.7,41.8 c -0.6,-0.6 -1.5,-0.6 -2.1,0 -0.6,0.6 -0.6,1.5 0,2.1 l 5.3,5.3 -5.3,5.3 c -0.6,0.6 -0.6,1.5 0,2.1 0.3,0.3 0.7,0.4 1.1,0.4 0.4,0 0.8,-0.1 1.1,-0.4 l 5.3,-5.3 5.3,5.3 c 0.3,0.3 0.7,0.4 1.1,0.4 0.4,0 0.8,-0.1 1.1,-0.4 0.6,-0.6 0.6,-1.5 0,-2.1 l -5.3,-5.3 5.3,-5.3 C 58,43.4 58,42.4 57.4,41.8 Z" />
    <path
       id="path17158"
       d="m 80,41.8 c -0.6,-0.6 -1.5,-0.6 -2.1,0 l -5.3,5.3 -5.3,-5.3 c -0.6,-0.6 -1.5,-0.6 -2.1,0 -0.6,0.6 -0.6,1.5 0,2.1 l 5.3,5.3 -5.3,5.3 c -0.6,0.6 -0.6,1.5 0,2.1 0.3,0.3 0.7,0.4 1.1,0.4 0.4,0 0.8,-0.1 1.1,-0.4 l 5.3,-5.3 5.3,5.3 c 0.3,0.3 0.7,0.4 1.1,0.4 0.4,0 0.8,-0.1 1.1,-0.4 0.6,-0.6 0.6,-1.5 0,-2.1 L 74.9,49.2 80,44 c 0.6,-0.6 0.6,-1.6 0,-2.2 z" />
  </g>
</svg>
