<?xml version="1.0" encoding="UTF-8" standalone="no"?>
<svg
   xmlns:dc="http://purl.org/dc/elements/1.1/"
   xmlns:cc="http://creativecommons.org/ns#"
   xmlns:rdf="http://www.w3.org/1999/02/22-rdf-syntax-ns#"
   xmlns:svg="http://www.w3.org/2000/svg"
   xmlns="http://www.w3.org/2000/svg"
   width="100"
   height="100"
   viewBox="0 0 100 100"
   id="svg4157"
   version="1.1">
  <defs
     id="defs4159" />
  <metadata
     id="metadata4162">
    <rdf:RDF>
      <cc:Work
         rdf:about="">
        <dc:format>image/svg+xml</dc:format>
        <dc:type
           rdf:resource="http://purl.org/dc/dcmitype/StillImage" />
        <dc:title></dc:title>
      </cc:Work>
    </rdf:RDF>
  </metadata>
  <g
     id="layer1"
     transform="translate(0,2.2107222e-5)">
    <ellipse        style="opacity:1;fill:none;fill-opacity:1;fill-rule:nonzero;stroke:#000000;stroke-width:2.0;stroke-linecap:round;stroke-linejoin:bevel;stroke-miterlimit:4;stroke-dasharray:none;stroke-dashoffset:0;stroke-opacity:1"
       id="path4705"
       cx="50"
       cy="50"
       rx="49"
       ry="49" />
  </g>
  <g
     transform="matrix(0.66613333,0,0,0.66613333,86.976045,34.757988)"
     id="g14055">
    <path
       style="fill:#000000"
       d="m -16.217501,46.844856 c -0.024,0.008 -0.048,0.008 -0.08,0 l -78.484,0 c -0.724,0 -1.376,-0.384 -1.74,-1 -0.36,-0.616 -0.36,-1.384 0,-2 l 39.248,-67.984 c 0.716,-1.236 2.752,-1.236 3.46,0 l 39.008,67.568 c 0.36,0.368 0.58,0.868 0.58,1.42 0.008,1.1 -0.888,1.996 -1.992,1.996 z m -75.096,-4 71.556,0 -35.78,-61.98 -35.776,61.98 z"
       id="path13483" />
    <path
       style="fill:#000000"
       d="m -55.537501,70.828856 c -0.72,0 -1.376,-0.384 -1.736,-1 l -39.244,-67.9800001 c -0.36,-0.616 -0.36,-1.38399997 0,-1.99999997 0.36,-0.62 1.012,-1.00000003 1.736,-1.00000003 l 78.488,0 c 0.712,0 1.376,0.38400003 1.728,1.00000003 0.36,0.616 0.36,1.38399997 0,1.99999997 l -39.244,67.9840001 c -0.356,0.616 -1.012,0.996 -1.728,0.996 z m -35.776,-67.9800001 35.772,61.9840001 35.776,-61.9840001 -71.548,0 z"
       id="path13485" />
  </g>
</svg>
