<?xml version="1.0" encoding="UTF-8" standalone="no"?>
<svg
   xmlns:dc="http://purl.org/dc/elements/1.1/"
   xmlns:cc="http://creativecommons.org/ns#"
   xmlns:rdf="http://www.w3.org/1999/02/22-rdf-syntax-ns#"
   xmlns:svg="http://www.w3.org/2000/svg"
   xmlns="http://www.w3.org/2000/svg"
   width="100"
   height="100"
   viewBox="0 0 100 100"
   id="svg4157"
   version="1.1">
  <defs
     id="defs4159" />
  <metadata
     id="metadata4162">
    <rdf:RDF>
      <cc:Work
         rdf:about="">
        <dc:format>image/svg+xml</dc:format>
        <dc:type
           rdf:resource="http://purl.org/dc/dcmitype/StillImage" />
        <dc:title></dc:title>
      </cc:Work>
    </rdf:RDF>
  </metadata>
  <g
     id="layer1"
     transform="translate(0,2.2107222e-5)">
    <ellipse        style="opacity:1;fill:none;fill-opacity:1;fill-rule:nonzero;stroke:#000000;stroke-width:2.0;stroke-linecap:round;stroke-linejoin:bevel;stroke-miterlimit:4;stroke-dasharray:none;stroke-dashoffset:0;stroke-opacity:1"
       id="path4705"
       cx="50"
       cy="50"
       rx="49"
       ry="49" />
  </g>
  <path
     id="path9566"
     d="m 41.36649,22.23905 c -2.853359,0.175211 -5.902047,1.027119 -9.118523,1.888972 -4.288636,1.149136 -8.311578,2.162447 -11.220878,4.380406 -1.45462,1.108978 -2.61796,2.590458 -3.16291,4.443165 -0.54495,1.852703 -0.47519,3.994119 0.18828,6.4702 l 3.92857,14.672478 c 2.65386,9.904319 12.445572,16.021915 21.908318,13.486382 0.309747,-0.08297 0.60288,-0.195873 0.903695,-0.294966 2.072935,4.748288 6.074254,8.530105 11.315003,9.934361 9.462508,2.535472 19.254467,-3.582099 21.908308,-13.486381 l 3.934836,-14.672479 c 0.663461,-2.476071 0.726914,-4.623827 0.181992,-6.476475 -0.544931,-1.852642 -1.708334,-3.327921 -3.16293,-4.43688 -2.909188,-2.217915 -6.925988,-3.23128 -11.214592,-4.380406 -3.218399,-0.862367 -6.273,-1.687564 -9.124802,-1.876419 -2.023421,-0.133988 -4.009376,0.118242 -5.748498,0.972725 L 52.192037,30.271887 C 51.528573,27.795806 50.508993,25.905602 49.110692,24.573594 47.71239,23.241583 45.967176,22.54744 44.152921,22.314359 43.245789,22.197814 42.317643,22.18066 41.366523,22.239039 Z m 0.213352,3.225688 c 0.787218,-0.05706 1.51358,-0.05231 2.165108,0.03149 1.303022,0.167405 2.288407,0.584646 3.150372,1.405747 0.861962,0.821097 1.632379,2.122857 2.190201,4.204686 l 3.934838,14.672479 c 2.23129,8.32731 -2.2807,16.637657 -9.959456,18.695175 C 35.382123,66.531837 27.31873,61.593309 25.087439,53.265998 l -3.93484,-14.672495 c -0.55783,-2.081829 -0.54305,-3.596044 -0.20725,-4.738118 0.33593,-1.142076 0.98859,-1.996182 2.03333,-2.792667 2.0895,-1.592973 5.821687,-2.687035 10.103804,-3.834423 3.211592,-0.860545 6.135576,-1.592314 8.497231,-1.763459 z m 15.187082,9.6143 c 0.508826,-0.03268 1.058821,-0.02667 1.650497,0.01253 2.366709,0.156737 5.290006,0.914953 8.50351,1.776009 4.282087,1.147382 8.01425,2.241387 10.103806,3.834427 1.044776,0.79652 1.691086,1.650494 2.027034,2.792667 0.33595,1.14217 0.35074,2.656209 -0.207086,4.738118 l -3.928558,14.67248 c -2.231384,8.327633 -10.294609,13.265865 -17.973474,11.208318 -4.25492,-1.140104 -7.501108,-4.191615 -9.206386,-8.114421 2.344823,-1.313424 4.316886,-3.149859 5.811257,-5.340581 1.262154,2.050522 3.299655,3.656772 5.836356,4.336476 3.69641,0.990452 7.48872,-0.207472 9.808851,-2.861699 a 1.6078658,1.6078658 0 1 0 -2.422415,-2.114908 c -1.489973,1.704533 -4.009459,2.551361 -6.551782,1.870144 -2.544182,-0.681709 -4.307902,-2.678151 -4.744396,-4.901284 1.09941,-2.810683 1.532411,-5.929283 1.179825,-9.105975 l 2.949558,0.784458 a 1.6063595,1.6063595 0 1 0 0.828384,-3.100174 l -3.878352,-1.04176 a 1.6063595,1.6063595 0 0 0 -0.476952,-0.05649 1.6063595,1.6063595 0 0 0 -0.08159,0.0064 l -2.25296,-8.409519 c 0.841684,-0.580118 1.815103,-0.907611 3.024865,-0.985278 z m -16.787383,0.778183 a 1.6066901,1.6066901 0 0 0 -0.75936,3.03114 l 4.863658,2.629498 a 1.6066901,1.6066901 0 1 0 1.524986,-2.824044 l -4.863658,-2.629498 a 1.6066901,1.6066901 0 0 0 -0.765626,-0.207086 z m -7.844548,2.077241 a 1.6066901,1.6066901 0 0 0 -1.280241,0.778179 l -2.893081,4.706741 a 1.6075265,1.6075265 0 1 0 2.736183,1.688153 l 2.893075,-4.706742 a 1.6066901,1.6066901 0 0 0 -1.455936,-2.466331 z m 35.582947,9.651955 a 1.6063595,1.6063595 0 0 0 -0.357712,3.16293 l 3.878353,1.035483 a 1.6063595,1.6063595 0 1 0 0.834664,-3.100173 L 68.194891,47.6429 A 1.6063595,1.6063595 0 0 0 67.71794,47.58641 Z m -26.313824,0.03766 c -0.910988,-0.01382 -1.84344,0.09755 -2.76757,0.345161 -3.699218,0.991207 -6.386587,3.924359 -7.06639,7.386445 a 1.6080166,1.6080166 0 0 0 3.15668,0.615013 c 0.436473,-2.222949 2.193993,-4.219595 4.738121,-4.901283 2.542232,-0.681191 5.068174,0.165765 6.558047,1.870143 a 1.6066901,1.6066901 0 1 0 2.416126,-2.114894 c -1.740163,-1.990718 -4.302017,-3.158885 -7.035014,-3.200588 z"
     style="color:#000000;font-style:normal;font-variant:normal;font-weight:normal;font-stretch:normal;font-size:medium;line-height:normal;font-family:sans-serif;text-indent:0;text-align:start;text-decoration:none;text-decoration-line:none;text-decoration-style:solid;text-decoration-color:#000000;letter-spacing:normal;word-spacing:normal;text-transform:none;direction:ltr;writing-mode:lr-tb;baseline-shift:baseline;text-anchor:start;white-space:normal;clip-rule:nonzero;display:inline;overflow:visible;visibility:visible;opacity:1;isolation:auto;mix-blend-mode:normal;color-interpolation:sRGB;color-interpolation-filters:linearRGB;solid-color:#000000;solid-opacity:1;fill:#000000;fill-opacity:1;fill-rule:nonzero;stroke:none;stroke-width:0.99997634;stroke-linecap:round;stroke-linejoin:round;stroke-miterlimit:4;stroke-dasharray:none;stroke-dashoffset:0;stroke-opacity:1;color-rendering:auto;image-rendering:auto;shape-rendering:auto;text-rendering:auto;enable-background:accumulate" />
</svg>
