<?xml version="1.0" encoding="UTF-8" standalone="no"?>
<svg
   xmlns:dc="http://purl.org/dc/elements/1.1/"
   xmlns:cc="http://creativecommons.org/ns#"
   xmlns:rdf="http://www.w3.org/1999/02/22-rdf-syntax-ns#"
   xmlns:svg="http://www.w3.org/2000/svg"
   xmlns="http://www.w3.org/2000/svg"
   width="100"
   height="100"
   viewBox="0 0 100 100"
   id="svg4157"
   version="1.1">
  <defs
     id="defs4159" />
  <metadata
     id="metadata4162">
    <rdf:RDF>
      <cc:Work
         rdf:about="">
        <dc:format>image/svg+xml</dc:format>
        <dc:type
           rdf:resource="http://purl.org/dc/dcmitype/StillImage" />
        <dc:title></dc:title>
      </cc:Work>
    </rdf:RDF>
  </metadata>
  <g
     id="layer1"
     transform="translate(0,2.2107222e-5)">
    <ellipse        style="opacity:1;fill:none;fill-opacity:1;fill-rule:nonzero;stroke:#000000;stroke-width:2.0;stroke-linecap:round;stroke-linejoin:bevel;stroke-miterlimit:4;stroke-dasharray:none;stroke-dashoffset:0;stroke-opacity:1"
       id="path4705"
       cx="50"
       cy="50"
       rx="49"
       ry="49" />
  </g>
  <g
     id="g8199"
     transform="matrix(0.91194274,0,0,0.91194274,4.3116687,4.459241)">
    <path
       id="path8201"
       d="M 75,83.4 67.7,68.9 c -0.8,-1.6 -2.4,-2.5 -4.1,-2.5 l -27,0 c -1.8,0 -3.3,1 -4.1,2.5 l -7.3,14.5 c -0.4,0.7 -0.1,1.6 0.7,2 0.7,0.4 1.6,0.1 2,-0.7 l 1,-2 c 0,0 0.1,0 0.1,0 l 42.2,0 c 0,0 0.1,0 0.1,0 l 1,2 c 0.3,0.5 0.8,0.8 1.3,0.8 0.2,0 0.5,-0.1 0.7,-0.2 0.8,-0.3 1.1,-1.2 0.7,-1.9 z m -38.4,-14.1 27.1,0 c 0.6,0 1.2,0.3 1.4,0.9 l 1.5,3 -33,0 1.5,-3 c 0.3,-0.5 0.8,-0.9 1.5,-0.9 z m -6.3,10.4 1.8,-3.6 35.9,0 1.8,3.6 -39.5,0 z" />
    <path
       id="path8203"
       d="m 42.7,62.7 14.7,0 c 7.7,0 14,-6.3 14,-14 l 0,-20.4 c 0,-7.7 -6.3,-14 -14,-14 l -14.7,0 c -7.7,0 -14,6.3 -14,14 l 0,20.4 c 0,7.8 6.3,14 14,14 z m -11,-34.4 c 0,-6.1 4.9,-11 11,-11 l 14.7,0 c 6.1,0 11,4.9 11,11 l 0,20.4 c 0,6.1 -4.9,11 -11,11 l -14.7,0 c -6.1,0 -11,-4.9 -11,-11 l 0,-20.4 z" />
    <path
       id="path8205"
       d="m 40.3,43.5 19.7,0 c 2.7,0 4.8,-2.2 4.8,-4.8 l 0,-9.3 c 0,-4.5 -3.6,-8.1 -8.1,-8.1 l -13.1,0 c -4.5,0 -8.1,3.6 -8.1,8.1 l 0,9.3 c 0,2.6 2.2,4.8 4.8,4.8 z M 38.5,29.4 c 0,-2.8 2.3,-5.1 5.1,-5.1 l 13.2,0 c 2.8,0 5.1,2.3 5.1,5.1 l 0,9.3 c 0,1 -0.8,1.8 -1.8,1.8 l -19.8,0 c -1,0 -1.8,-0.8 -1.8,-1.8 l 0,-9.3 z" />
    <path
       id="path8207"
       d="m 41.6,46.3 c -2.6,0 -4.7,2.1 -4.7,4.7 0,2.6 2.1,4.7 4.7,4.7 2.6,0 4.7,-2.1 4.7,-4.7 0,-2.6 -2.1,-4.7 -4.7,-4.7 z m 0,6.8 c -1.1,0 -2,-0.9 -2,-2 0,-1.1 0.9,-2 2,-2 1.1,0 2,0.9 2,2 0,1.1 -0.9,2 -2,2 z" />
    <path
       id="path8209"
       d="m 58.8,46.3 c -2.6,0 -4.7,2.1 -4.7,4.7 0,2.6 2.1,4.7 4.7,4.7 2.6,0 4.7,-2.1 4.7,-4.7 0,-2.6 -2.1,-4.7 -4.7,-4.7 z m 0,6.8 c -1.1,0 -2,-0.9 -2,-2 0,-1.1 0.9,-2 2,-2 1.1,0 2,0.9 2,2 0,1.1 -0.9,2 -2,2 z" />
  </g>
</svg>
