<?xml version="1.0" encoding="UTF-8" standalone="no"?>
<svg
   xmlns:dc="http://purl.org/dc/elements/1.1/"
   xmlns:cc="http://creativecommons.org/ns#"
   xmlns:rdf="http://www.w3.org/1999/02/22-rdf-syntax-ns#"
   xmlns:svg="http://www.w3.org/2000/svg"
   xmlns="http://www.w3.org/2000/svg"
   width="100"
   height="100"
   viewBox="0 0 100 100"
   id="svg4157"
   version="1.1">
  <defs
     id="defs4159" />
  <metadata
     id="metadata4162">
    <rdf:RDF>
      <cc:Work
         rdf:about="">
        <dc:format>image/svg+xml</dc:format>
        <dc:type
           rdf:resource="http://purl.org/dc/dcmitype/StillImage" />
        <dc:title></dc:title>
      </cc:Work>
    </rdf:RDF>
  </metadata>
  <g
     id="layer1"
     transform="translate(0,2.2107222e-5)">
    <ellipse        style="opacity:1;fill:none;fill-opacity:1;fill-rule:nonzero;stroke:#000000;stroke-width:2.0;stroke-linecap:round;stroke-linejoin:bevel;stroke-miterlimit:4;stroke-dasharray:none;stroke-dashoffset:0;stroke-opacity:1"
       id="path4705"
       cx="50"
       cy="50"
       rx="49"
       ry="49" />
  </g>
  <g
     transform="matrix(0.88642659,0,0,0.88642659,9.5164261,7.204864)"
     id="g6854">
    <path
       style="color:#000000;text-indent:0;text-transform:none;direction:ltr;block-progression:tb;baseline-shift:baseline;display:inline;overflow:visible;visibility:visible;fill:#000000;fill-opacity:0.98039216;stroke:none;marker:none;enable-background:accumulate"
       d="m 44.8125,12.78125 c -6.779259,0 -12.350691,5.149986 -13.15625,11.71875 -0.14055,-0.0064 -0.263633,-0.0625 -0.40625,-0.0625 -5.493653,0 -9.96875,4.515804 -9.96875,10 0,0.955305 0.18367,1.878324 0.4375,2.75 -3.260693,1.645561 -5.5625,4.900159 -5.5625,8.78125 0,5.484196 4.475097,10 9.96875,10 0.200465,0 0.394265,-0.05104 0.59375,-0.0625 1.627205,3.307037 4.892891,5.65625 8.8125,5.65625 1.457788,0 2.811167,-0.403305 4.0625,-0.96875 0.29857,0.311262 0.603263,0.603204 0.9375,0.875 1.00721,4.283502 2.935922,9.712088 2.6875,12.34375 C 42.8767,77.43602 42.743862,79.789327 39.5625,84 a 2.0001999,2.0001999 0 1 0 3.1875,2.40625 c 3.634898,-4.810947 4.09419,-8.58189 4.4375,-12.21875 0.322635,-3.417842 -0.904896,-7.286341 -1.90625,-10.59375 0.462758,0.06841 0.954245,0.09375 1.4375,0.09375 2.952579,0 5.635855,-1.289539 7.46875,-3.34375 0.719484,0.564185 1.495465,1.048924 2.34375,1.40625 -1.988091,4.91852 -2.636897,10.482731 -1.5625,14.8125 1.004528,4.0482 1.585722,5.947914 4.6875,9.875 a 2.0009763,2.0009763 0 1 0 3.125,-2.5 C 59.864448,80.244606 59.851222,79.65381 58.84375,75.59375 58.029026,72.310454 58.658028,66.81888 60.5625,62.5 c 2.192726,-0.03795 4.226032,-0.574724 5.84375,-1.78125 0.971633,-0.724663 1.692324,-1.717571 2.25,-2.84375 1.354733,0.679362 2.800566,1.15625 4.40625,1.15625 2.904248,0 5.51319,-1.465193 7.40625,-3.5 C 82.36181,53.496443 83.625,50.832181 83.625,48 c 0,-2.04817 -0.747191,-3.852335 -1.8125,-5.4375 1.208331,-1.857841 2.03125,-3.984264 2.03125,-6.34375 0,-6.469944 -5.272329,-11.78125 -11.75,-11.78125 -0.826625,0 -1.536336,0.303961 -2.3125,0.46875 -1.401268,-3.827779 -4.955907,-6.65625 -9.25,-6.65625 -1.609039,0 -3.038942,0.506573 -4.375,1.1875 -2.314863,-3.931843 -6.4678,-6.65625 -11.34375,-6.65625 z m 0,4 c 4.019126,0 7.402349,2.552501 8.71875,6.09375 l 1,2.65625 2.1875,-1.84375 c 1.060822,-0.895632 2.351645,-1.4375 3.8125,-1.4375 3.038572,0 5.538403,2.273547 5.9375,5.1875 l 0.34375,2.53125 2.375,-0.9375 c 0.904793,-0.364474 1.891243,-0.59375 2.90625,-0.59375 4.307409,0 7.75,3.466114 7.75,7.78125 0,1.952916 -0.679839,3.709724 -1.84375,5.0625 l -1.15625,1.375 1.21875,1.3125 c 0.994773,1.07366 1.5625,2.452032 1.5625,4.03125 0,1.573919 -0.806275,3.428622 -2.09375,4.8125 -1.287475,1.383878 -2.966898,2.21875 -4.46875,2.21875 -1.600097,0 -3.026617,-0.590637 -4.09375,-1.59375 L 66.25,50.84375 65.625,54.5625 c -0.242696,1.490284 -0.779788,2.361681 -1.59375,2.96875 C 63.217288,58.138319 61.988969,58.5 60.3125,58.5 58.315893,58.5 56.586549,57.540938 55.5,56.0625 l -1.9375,-2.625 -1.46875,2.9375 c -0.974906,1.967158 -3.007583,3.3125 -5.375,3.3125 -2.102991,0 -3.861626,-1.033596 -4.9375,-2.65625 l -1.125,-1.71875 -1.6875,1.1875 c -0.970938,0.675701 -2.170421,1.0625 -3.4375,1.0625 -2.736937,0 -4.999158,-1.851693 -5.71875,-4.34375 l -0.53125,-1.78125 -1.8125,0.40625 c -0.406672,0.09024 -0.889622,0.125 -1.34375,0.125 -3.318547,0 -5.96875,-2.671996 -5.96875,-6 0,-2.836546 1.977561,-5.17971 4.59375,-5.8125 l 2.5,-0.59375 -1.21875,-2.28125 c -0.467415,-0.860434 -0.75,-1.810285 -0.75,-2.84375 0,-3.328004 2.650203,-6 5.96875,-6 0.573061,0 1.158754,0.114808 1.71875,0.28125 l 2.75,0.8125 -0.1875,-2.875 C 35.51619,26.404993 35.5,26.225261 35.5,26.09375 c 0,-5.166479 4.146021,-9.3125 9.3125,-9.3125 z"
       transform="translate(-4.329468,-1.7599361)"
       visibility="visible"
       display="inline"
       overflow="visible"
       id="path6856" />
  </g>
</svg>
