<?xml version="1.0" encoding="UTF-8" standalone="no"?>
<svg
   xmlns:dc="http://purl.org/dc/elements/1.1/"
   xmlns:cc="http://creativecommons.org/ns#"
   xmlns:rdf="http://www.w3.org/1999/02/22-rdf-syntax-ns#"
   xmlns:svg="http://www.w3.org/2000/svg"
   xmlns="http://www.w3.org/2000/svg"
   width="100"
   height="100"
   viewBox="0 0 100 100"
   id="svg4157"
   version="1.1">
  <defs
     id="defs4159" />
  <metadata
     id="metadata4162">
    <rdf:RDF>
      <cc:Work
         rdf:about="">
        <dc:format>image/svg+xml</dc:format>
        <dc:type
           rdf:resource="http://purl.org/dc/dcmitype/StillImage" />
        <dc:title></dc:title>
      </cc:Work>
    </rdf:RDF>
  </metadata>
  <g
     id="layer1"
     transform="translate(0,2.2107222e-5)">
    <ellipse
       id="path4705"
       cx="50"
       cy="50"
       rx="49"
       ry="49"
       style="opacity:1;fill:none;fill-opacity:1;fill-rule:nonzero;stroke:#000000;stroke-width:2.0;stroke-linecap:round;stroke-linejoin:bevel;stroke-miterlimit:4;stroke-dasharray:none;stroke-dashoffset:0;stroke-opacity:1" />
  </g>
  <path
     id="path5876"
     d="m 81.518204,62.117468 c -0.26595,-0.06488 -0.665944,-0.193224 -1.157201,-0.291617 -0.987506,-0.214613 -2.375718,-0.432792 -3.999221,-0.52976 -1.624928,-0.101964 -3.484434,-0.06844 -5.43663,0.11408 -1.952196,0.186093 -3.991378,0.554715 -5.994911,1.05738 -2.002819,0.512647 -3.971413,1.158626 -5.775305,1.927241 -0.552576,0.235291 -1.083761,0.481988 -1.604252,0.730826 0.327267,-0.277357 0.654535,-0.555427 0.98608,-0.853462 0.888398,-0.80783 1.808883,-1.669848 2.711541,-2.598888 1.816014,-1.852375 3.598515,-3.94432 5.256955,-6.13038 1.648458,-2.192477 3.17927,-4.475506 4.469088,-6.726449 1.285541,-2.253082 2.361459,-4.449125 3.166437,-6.421284 0.810681,-1.967883 1.357553,-3.703326 1.686246,-4.96106 0.173973,-0.621736 0.263098,-1.145792 0.345093,-1.487319 0.07272,-0.347944 0.09768,-0.54402 0.09768,-0.54402 0,0 -0.182527,0.07772 -0.496962,0.241708 -0.308015,0.17112 -0.787152,0.39928 -1.339728,0.733678 -1.119411,0.656673 -2.641667,1.655587 -4.317219,2.968222 -1.680543,1.308356 -3.503686,2.939701 -5.323977,4.788513 -1.817438,1.850237 -3.59994,3.941467 -5.264083,6.12325 -1.655588,2.188912 -3.187827,4.470514 -4.476933,6.720031 -0.544732,0.937597 -1.031711,1.869489 -1.493023,2.778565 0.410689,-1.88874 0.771467,-3.937191 1.037416,-6.096157 0.388586,-3.100127 0.573966,-6.406311 0.576817,-9.713209 -0.01141,-3.306184 -0.198927,-6.611656 -0.590363,-9.711783 -0.382882,-3.100127 -0.956848,-5.992057 -1.598549,-8.471875 -0.640275,-2.479816 -1.361831,-4.546092 -1.949343,-5.992771 -0.581096,-1.443826 -1.033852,-2.270907 -1.033852,-2.270907 0,0 -0.452756,0.826368 -1.033137,2.273047 -0.586801,1.446678 -1.307644,3.512954 -1.949345,5.992771 -0.6417,2.479816 -1.215666,5.37246 -1.598547,8.471875 -0.392864,3.099413 -0.580383,6.405598 -0.589652,9.711783 0.0014,3.306896 0.188233,6.613081 0.576818,9.713208 0.265236,2.158967 0.62744,4.208131 1.038129,6.097582 -0.462024,-0.909789 -0.949717,-1.842394 -1.493737,-2.779989 -1.290532,-2.249518 -2.822057,-4.53112 -4.477644,-6.720033 -1.662718,-2.182495 -3.446646,-4.273726 -5.263372,-6.12325 -1.821004,-1.84881 -3.642721,-3.479443 -5.324689,-4.788513 -1.675552,-1.312634 -3.196383,-2.311548 -4.31722,-2.968222 -0.551863,-0.334396 -1.031712,-0.562557 -1.339728,-0.733677 -0.31586,-0.16399 -0.496962,-0.241707 -0.496962,-0.241707 0,0 0.02566,0.195362 0.0991,0.544019 0.08057,0.341528 0.171121,0.865583 0.343667,1.48732 0.328693,1.257019 0.87699,2.992464 1.687673,4.961058 0.803551,1.972161 1.880182,4.168916 3.165723,6.421285 1.289105,2.250944 2.818492,4.533972 4.469088,6.726449 1.65844,2.185347 3.440229,4.278005 5.256242,6.130381 0.902658,0.92904 1.824568,1.791058 2.711541,2.598887 0.332972,0.298034 0.659526,0.576818 0.986793,0.853462 -0.519777,-0.24955 -1.051676,-0.495536 -1.604965,-0.730826 -1.803892,-0.768614 -3.77106,-1.414593 -5.773879,-1.92724 -2.005672,-0.502666 -4.044141,-0.872 -5.99705,-1.05738 -1.951483,-0.182529 -3.809562,-0.21604 -5.435917,-0.114081 -1.623503,0.09697 -3.012428,0.315146 -3.999221,0.52976 -0.49197,0.0991 -0.891251,0.226734 -1.1572,0.291617 -0.268802,0.07415 -0.416393,0.129053 -0.416393,0.129053 0,0 0.104097,0.118358 0.304451,0.312294 0.202493,0.184668 0.491971,0.489118 0.876278,0.809256 0.76505,0.660239 1.880183,1.516553 3.261266,2.377145 1.378943,0.866296 3.025975,1.725461 4.829154,2.496928 1.803892,0.770041 3.771774,1.420298 5.772454,1.937223 2.004245,0.508369 4.042001,0.879843 5.993484,1.066649 1.276271,0.122637 2.504058,0.17112 3.659833,0.166843 -1.33759,0.511221 -2.717246,1.157199 -4.027029,1.925815 -1.24989,0.722983 -2.438462,1.547211 -3.505824,2.4021 -1.067362,0.853461 -2.007098,1.750416 -2.769295,2.593183 -0.762198,0.841341 -1.348284,1.629207 -1.736869,2.218145 -0.385021,0.594642 -0.578958,0.978951 -0.578958,0.978951 0,0 0.42994,0.0221 1.13581,-0.01497 0.705158,-0.0435 1.680544,-0.159 2.78926,-0.400707 1.110141,-0.240995 2.355041,-0.609615 3.627747,-1.111568 1.272707,-0.499814 2.58035,-1.120837 3.827389,-1.84382 2.504771,-1.433131 4.759279,-3.293351 6.27797,-4.988153 0.402134,-0.444199 0.75293,-0.872 1.052389,-1.265576 0.03351,0.186805 0.06774,0.385733 0.103383,0.603198 0.09126,0.566835 0.176111,1.232779 0.243133,1.949344 0.05562,0.717278 0.106243,1.487319 0.08841,2.251656 7.13e-4,0.770041 -0.06987,1.532952 -0.183954,2.243101 -0.03779,0.362204 -0.151869,0.686619 -0.218892,1.012461 -0.07344,0.325841 -0.206769,0.604625 -0.296608,0.882695 -0.09198,0.277357 -0.246698,0.492684 -0.347944,0.707296 -0.100533,0.218891 -0.229586,0.378604 -0.337249,0.512648 -0.213188,0.273079 -0.334398,0.429226 -0.334398,0.429226 0,0 0.149731,-0.131192 0.409263,-0.359352 0.134044,-0.115507 0.298747,-0.254542 0.441347,-0.454181 0.143314,-0.196076 0.350083,-0.397142 0.497674,-0.661665 0.145453,-0.263097 0.34438,-0.539028 0.484841,-0.85774 0.133331,-0.320138 0.320138,-0.651683 0.429941,-1.015313 0.26167,-0.718705 0.490544,-1.507996 0.6417,-2.30727 0.171121,-0.799275 0.27308,-1.60853 0.3565,-2.368589 0.07415,-0.760059 0.118358,-1.474485 0.134757,-2.08624 0.0086,-0.253115 0.01284,-0.48484 0.01426,-0.69874 0.334398,0.451328 0.735105,0.952568 1.215667,1.483041 1.517979,1.694802 3.772486,3.556448 6.277971,4.988153 1.247752,0.722983 2.55397,1.344006 3.826676,1.84382 1.272706,0.501239 2.517605,0.870573 3.627747,1.111568 1.110142,0.24242 2.084814,0.357926 2.789259,0.400707 0.705872,0.03779 1.136523,0.01497 1.136523,0.01497 0,0 -0.193223,-0.384309 -0.578243,-0.978951 -0.388579,-0.588938 -0.974666,-1.377517 -1.738288,-2.218145 -0.760059,-0.842767 -1.700508,-1.739009 -2.768582,-2.593183 -1.066648,-0.854889 -2.255934,-1.679117 -3.505111,-2.4021 -1.311921,-0.768616 -2.690152,-1.414594 -4.028454,-1.925815 1.155773,0.0042 2.384274,-0.04421 3.659832,-0.166843 1.952196,-0.186806 3.989952,-0.55828 5.993484,-1.066649 2.001393,-0.516925 3.968562,-1.167182 5.772453,-1.937223 1.801754,-0.771467 3.450924,-1.630632 4.829154,-2.496928 1.38037,-0.860592 2.495503,-1.716906 3.261267,-2.377145 0.384307,-0.320138 0.673786,-0.624588 0.876991,-0.809256 0.200352,-0.193222 0.303738,-0.312294 0.303738,-0.312294 0,0 -0.146878,-0.05632 -0.415679,-0.131192 z m -31.483261,8.332839 -0.129766,0.01782 c 0.03209,-0.01 0.0713,-0.02068 0.09482,-0.02923 0.0086,0.0042 0.02566,0.0086 0.03494,0.01141 z" />
</svg>
