<?xml version="1.0" encoding="UTF-8" standalone="no"?>
<svg
   xmlns:dc="http://purl.org/dc/elements/1.1/"
   xmlns:cc="http://creativecommons.org/ns#"
   xmlns:rdf="http://www.w3.org/1999/02/22-rdf-syntax-ns#"
   xmlns:svg="http://www.w3.org/2000/svg"
   xmlns="http://www.w3.org/2000/svg"
   width="100"
   height="100"
   viewBox="0 0 100 100"
   id="svg4157"
   version="1.1">
  <defs
     id="defs4159" />
  <metadata
     id="metadata4162">
    <rdf:RDF>
      <cc:Work
         rdf:about="">
        <dc:format>image/svg+xml</dc:format>
        <dc:type
           rdf:resource="http://purl.org/dc/dcmitype/StillImage" />
        <dc:title></dc:title>
      </cc:Work>
    </rdf:RDF>
  </metadata>
  <g
     id="layer1"
     transform="translate(0,2.2107222e-5)">
    <ellipse        style="opacity:1;fill:none;fill-opacity:1;fill-rule:nonzero;stroke:#000000;stroke-width:2.0;stroke-linecap:round;stroke-linejoin:bevel;stroke-miterlimit:4;stroke-dasharray:none;stroke-dashoffset:0;stroke-opacity:1"
       id="path4705"
       cx="50"
       cy="50"
       rx="49"
       ry="49" />
  </g>
  <path
     id="path6203"
     d="m 59.383803,80.211289 -8.239436,0 0,-25.748239 c 3.318661,-0.34331 6.40845,-1.830986 8.697182,-4.348592 2.517606,-2.746479 3.661972,-6.522888 3.204225,-10.299296 L 60.528168,18.529951 c -0.114436,-0.572183 -0.572183,-1.029929 -1.144366,-1.029929 l -18.767604,0 c -0.572184,0 -1.02993,0.457746 -1.144366,1.029929 l -2.517607,21.285211 c -0.457746,3.776408 0.68662,7.43838 3.204226,10.299296 2.288732,2.517606 5.378521,4.005282 8.697182,4.348592 l 0,25.748239 -8.239435,0 c -0.68662,0 -1.144366,0.457747 -1.144366,1.144367 0,0.68662 0.457746,1.144366 1.144366,1.144366 l 18.767604,0 c 0.68662,0 1.144366,-0.457746 1.144366,-1.144366 0,-0.68662 -0.457746,-1.144367 -1.144366,-1.144367 z m -17.737676,-60.308098 16.59331,0 2.288731,18.882042 -0.114436,0 -21.056338,0 z" />
</svg>
