<?xml version="1.0" encoding="UTF-8" standalone="no"?>
<svg
   xmlns:dc="http://purl.org/dc/elements/1.1/"
   xmlns:cc="http://creativecommons.org/ns#"
   xmlns:rdf="http://www.w3.org/1999/02/22-rdf-syntax-ns#"
   xmlns:svg="http://www.w3.org/2000/svg"
   xmlns="http://www.w3.org/2000/svg"
   width="100"
   height="100"
   viewBox="0 0 100 100"
   id="svg4157"
   version="1.1">
  <defs
     id="defs4159" />
  <metadata
     id="metadata4162">
    <rdf:RDF>
      <cc:Work
         rdf:about="">
        <dc:format>image/svg+xml</dc:format>
        <dc:type
           rdf:resource="http://purl.org/dc/dcmitype/StillImage" />
        <dc:title></dc:title>
      </cc:Work>
    </rdf:RDF>
  </metadata>
  <g
     id="layer1"
     transform="translate(0,2.2107222e-5)">
    <ellipse
       style="opacity:1;fill:none;fill-opacity:1;fill-rule:nonzero;stroke:#000000;stroke-width:8.0;stroke-linecap:round;stroke-linejoin:bevel;stroke-miterlimit:4;stroke-dasharray:none;stroke-dashoffset:0;stroke-opacity:1"
       id="path4705"
       cx="50"
       cy="50"
       rx="46"
       ry="46" />
  </g>
  <path
     id="path10331"
     d="m 53.956147,46.043877 -2e-6,-14.340594 c 0,-2.176334 -1.779811,-3.956145 -3.956146,-3.956145 -2.176334,0 -3.956145,1.779811 -3.956146,3.956146 l 2e-6,14.340593 -14.340593,-2e-6 c -2.176335,0 -3.956146,1.779811 -3.956146,3.956146 0,2.176335 1.779811,3.956146 3.956146,3.956146 l 14.340593,10e-7 0,14.340593 c 0,2.176334 1.779811,3.956145 3.956146,3.956145 2.176335,0 3.956146,-1.779811 3.956146,-3.956146 l 0,-14.340591 14.340591,0 c 2.176335,0 3.956146,-1.779812 3.956146,-3.956146 0,-2.176335 -1.779811,-3.956146 -3.956145,-3.956146 l -14.340592,0 z" />
</svg>
