<?xml version="1.0" encoding="UTF-8" standalone="no"?>
<svg
   xmlns:dc="http://purl.org/dc/elements/1.1/"
   xmlns:cc="http://creativecommons.org/ns#"
   xmlns:rdf="http://www.w3.org/1999/02/22-rdf-syntax-ns#"
   xmlns:svg="http://www.w3.org/2000/svg"
   xmlns="http://www.w3.org/2000/svg"
   version="1.1"
   id="svg4157"
   viewBox="0 0 100 100"
   height="100"
   width="100">
  <defs
     id="defs4159" />
  <metadata
     id="metadata4162">
    <rdf:RDF>
      <cc:Work
         rdf:about="">
        <dc:format>image/svg+xml</dc:format>
        <dc:type
           rdf:resource="http://purl.org/dc/dcmitype/StillImage" />
        <dc:title></dc:title>
      </cc:Work>
    </rdf:RDF>
  </metadata>
  <g
     style="fill-opacity:1;fill:#000000"
     transform="translate(0,2.2107222e-5)"
     id="layer1">
    <ellipse
       ry="49"
       rx="49"
       cy="50"
       cx="50"
       id="path4705"
       style="opacity:1;fill:#000000;fill-opacity:1;fill-rule:nonzero;stroke:#000000;stroke-width:2;stroke-linecap:round;stroke-linejoin:bevel;stroke-miterlimit:4;stroke-dasharray:none;stroke-dashoffset:0;stroke-opacity:1" />
  </g>
  <g
     style="stroke:none;stroke-opacity:1;fill:#ffffff;fill-opacity:1"
     transform="matrix(1.2,0,0,1.2,11.6,8.0045638)"
     id="g9366">
    <g
       style="stroke:none;stroke-opacity:1;fill:#ffffff;fill-opacity:1"
       id="g9368">
      <path
         style="stroke:none;stroke-opacity:1;fill:#ffffff;fill-opacity:1"
         d="m 52,19 -11,0 0,-3 c 0,-4.962 -4.037,-9 -9,-9 -4.962,0 -9,4.038 -9,9 l 0,3 -11,0 c -2.757,0 -5,2.243 -5,5 l 0,28 c 0,2.757 2.243,5 5,5 l 40,0 c 2.757,0 5,-2.243 5,-5 l 0,-28 c 0,-2.757 -2.243,-5 -5,-5 z M 9,30.949 C 14.268,30.471 18.472,26.268 18.949,21 l 26.102,0 c 0.478,5.268 4.682,9.472 9.949,9.949 l 0,14.102 C 49.732,45.529 45.528,49.733 45.051,55 L 18.949,55 C 18.471,49.732 14.268,45.528 9,45.051 L 9,30.949 Z M 55,24 55,28.941 C 50.835,28.478 47.521,25.164 47.059,21 L 52,21 c 1.654,0 3,1.346 3,3 z M 25,16 c 0,-3.86 3.14,-7 7,-7 3.859,0 7,3.14 7,7 l 0,3 -14,0 0,-3 z m -13,5 4.941,0 C 16.478,25.164 13.164,28.478 9,28.941 L 9,24 c 0,-1.654 1.346,-3 3,-3 z M 9,52 9,47.059 c 4.164,0.463 7.478,3.776 7.941,7.941 L 12,55 C 10.346,55 9,53.654 9,52 Z m 43,3 -4.941,0 C 47.522,50.835 50.835,47.521 55,47.059 L 55,52 c 0,1.654 -1.346,3 -3,3 z"
         id="path9370" />
      <path
         style="stroke:none;stroke-opacity:1;fill:#ffffff;fill-opacity:1"
         d="m 39,41 c 0,2.206 1.794,4 4,4 2.206,0 4,-1.794 4,-4 0,-2.206 -1.794,-4 -4,-4 -2.206,0 -4,1.794 -4,4 z m 6,0 c 0,1.103 -0.897,2 -2,2 -1.103,0 -2,-0.897 -2,-2 0,-1.103 0.897,-2 2,-2 1.103,0 2,0.897 2,2 z"
         id="path9372" />
      <path
         style="stroke:none;stroke-opacity:1;fill:#ffffff;fill-opacity:1"
         d="m 20.624,46.009 c 0.084,0.251 0.264,0.459 0.501,0.578 0.14,0.07 0.293,0.105 0.447,0.105 0.106,0 0.213,-0.017 0.316,-0.052 l 11.384,-3.795 c 0.251,-0.083 0.459,-0.264 0.578,-0.501 0.118,-0.237 0.138,-0.512 0.054,-0.764 L 31.375,33.991 C 31.201,33.468 30.636,33.182 30.11,33.359 l -11.384,3.794 c -0.251,0.083 -0.459,0.264 -0.578,0.501 -0.119,0.237 -0.138,0.512 -0.054,0.764 l 2.53,7.591 z m 9.171,-10.436 1.897,5.691 -9.487,3.163 -1.897,-5.692 9.487,-3.162 z"
         id="path9374" />
      <path
         style="stroke:none;stroke-opacity:1;fill:#ffffff;fill-opacity:1"
         d="m 36,33 6,0 c 0.553,0 1,-0.448 1,-1 l 0,-6 c 0,-0.552 -0.447,-1 -1,-1 l -6,0 c -0.553,0 -1,0.448 -1,1 l 0,6 c 0,0.552 0.447,1 1,1 z m 1,-6 4,0 0,4 -4,0 0,-4 z"
         id="path9376" />
    </g>
  </g>
</svg>
