<?xml version="1.0" encoding="UTF-8" standalone="no"?>
<svg
   xmlns:dc="http://purl.org/dc/elements/1.1/"
   xmlns:cc="http://creativecommons.org/ns#"
   xmlns:rdf="http://www.w3.org/1999/02/22-rdf-syntax-ns#"
   xmlns:svg="http://www.w3.org/2000/svg"
   xmlns="http://www.w3.org/2000/svg"
   width="100"
   height="100"
   viewBox="0 0 100 100"
   id="svg4157"
   version="1.1">
  <defs
     id="defs4159" />
  <metadata
     id="metadata4162">
    <rdf:RDF>
      <cc:Work
         rdf:about="">
        <dc:format>image/svg+xml</dc:format>
        <dc:type
           rdf:resource="http://purl.org/dc/dcmitype/StillImage" />
        <dc:title></dc:title>
      </cc:Work>
    </rdf:RDF>
  </metadata>
  <g
     id="layer1"
     transform="translate(0,2.2107222e-5)">
    <ellipse        style="opacity:1;fill:none;fill-opacity:1;fill-rule:nonzero;stroke:#000000;stroke-width:2.0;stroke-linecap:round;stroke-linejoin:bevel;stroke-miterlimit:4;stroke-dasharray:none;stroke-dashoffset:0;stroke-opacity:1"
       id="path4705"
       cx="50"
       cy="50"
       rx="49"
       ry="49" />
  </g>
  <g
     transform="matrix(2.5,0,0,2.5,20,22.996237)"
     id="g14406">
    <g
       id="g14408">
      <g
         id="g14410">
        <path
           id="path14412"
           d="M 12,24 C 11.892,24 11.784,23.965 11.694,23.895 11.216,23.525 0,14.737 0,6.75 0,3.028 3.028,0 6.75,0 8.809,0 10.723,0.928 12,2.514 13.277,0.928 15.191,0 17.25,0 20.972,0 24,3.028 24,6.75 24,14.737 12.784,23.525 12.306,23.895 12.216,23.965 12.108,24 12,24 Z M 6.75,1 C 3.58,1 1,3.58 1,6.75 1,13.543 10.19,21.382 12,22.859 13.81,21.382 23,13.544 23,6.75 23,3.58 20.42,1 17.25,1 15.292,1 13.487,1.986 12.42,3.638 12.236,3.923 11.764,3.923 11.58,3.638 10.513,1.986 8.708,1 6.75,1 Z" />
      </g>
    </g>
    <g
       id="g14414">
      <path
         id="path14416"
         d="m 12,24 c -0.202,0 -0.393,-0.124 -0.468,-0.324 l -1.5,-4 C 9.98,19.536 9.992,19.381 10.066,19.252 L 11.907,16.03 9.594,12.791 C 9.452,12.592 9.474,12.32 9.647,12.147 L 12.265,9.529 9.175,6.88 C 9.072,6.792 9.009,6.666 9.001,6.531 8.993,6.396 9.04,6.263 9.131,6.163 9.148,6.144 10.858,4.267 11.574,3.104 11.719,2.868 12.026,2.795 12.262,2.94 c 0.235,0.145 0.308,0.453 0.164,0.688 -0.567,0.92 -1.656,2.193 -2.213,2.824 l 3.112,2.668 c 0.106,0.09 0.169,0.221 0.174,0.36 0.005,0.139 -0.047,0.274 -0.146,0.373 l -2.701,2.701 2.254,3.155 c 0.114,0.159 0.124,0.369 0.027,0.539 l -1.883,3.296 1.417,3.78 c 0.097,0.259 -0.034,0.547 -0.292,0.644 C 12.118,23.99 12.059,24 12,24 Z" />
    </g>
  </g>
</svg>
