<?xml version="1.0" encoding="UTF-8" standalone="no"?>
<svg
   xmlns:dc="http://purl.org/dc/elements/1.1/"
   xmlns:cc="http://creativecommons.org/ns#"
   xmlns:rdf="http://www.w3.org/1999/02/22-rdf-syntax-ns#"
   xmlns:svg="http://www.w3.org/2000/svg"
   xmlns="http://www.w3.org/2000/svg"
   width="100"
   height="100"
   viewBox="0 0 100 100"
   id="svg4157"
   version="1.1">
  <defs
     id="defs4159" />
  <metadata
     id="metadata4162">
    <rdf:RDF>
      <cc:Work
         rdf:about="">
        <dc:format>image/svg+xml</dc:format>
        <dc:type
           rdf:resource="http://purl.org/dc/dcmitype/StillImage" />
        <dc:title></dc:title>
      </cc:Work>
    </rdf:RDF>
  </metadata>
  <g
     id="layer1"
     transform="translate(0,2.2107222e-5)">
    <ellipse        style="opacity:1;fill:none;fill-opacity:1;fill-rule:nonzero;stroke:#000000;stroke-width:2.0;stroke-linecap:round;stroke-linejoin:bevel;stroke-miterlimit:4;stroke-dasharray:none;stroke-dashoffset:0;stroke-opacity:1"
       id="path4705"
       cx="50"
       cy="50"
       rx="49"
       ry="49" />
  </g>
  <g
     id="g8700"
     transform="matrix(0.6810319,0,0,0.6810319,15.949086,15.948087)">
    <path
       id="path8702"
       d="m 29.529,92.352 40.941,0 c 8.953,0 16.238,-7.285 16.238,-16.238 l 0,-40.942 c 0,-6.916 -4.355,-12.82 -10.459,-15.156 l 0,4.634 c 0,0.389 -0.029,0.771 -0.072,1.148 -0.113,0.987 -0.369,1.932 -0.75,2.811 -1.537,3.55 -5.07,6.041 -9.178,6.041 -4.729,0 -8.689,-3.301 -9.727,-7.716 -0.088,-0.372 -0.158,-0.749 -0.203,-1.136 -0.043,-0.378 -0.07,-0.76 -0.07,-1.148 l 0,-5.716 -12.5,0 0,5.716 c 0,0.389 -0.027,0.771 -0.07,1.148 -0.045,0.387 -0.115,0.764 -0.203,1.136 -1.037,4.415 -5,7.716 -9.727,7.716 -4.107,0 -7.643,-2.491 -9.18,-6.041 C 24.19,27.73 23.934,26.786 23.821,25.798 23.776,25.42 23.749,25.038 23.749,24.65 l 0,-4.634 C 17.645,22.352 13.29,28.256 13.29,35.172 l 0,40.941 c 0.001,8.953 7.286,16.239 16.239,16.239 z m -8.238,-42.658 57.418,0 0,26.419 c 0,4.543 -3.697,8.238 -8.238,8.238 l -40.942,0 c -4.543,0 -8.238,-3.695 -8.238,-8.238 l 0,-26.419 z" />
    <path
       id="path8704"
       d="m 30.473,26.934 c 0.723,1.035 1.92,1.716 3.277,1.716 1.359,0 2.555,-0.681 3.277,-1.716 0.238,-0.342 0.412,-0.728 0.535,-1.136 0.111,-0.366 0.188,-0.746 0.188,-1.148 l 0,-5.716 0,-7.285 c 0,-2.209 -1.791,-4 -4,-4 -2.209,0 -4,1.791 -4,4 l 0,7.285 0,5.716 c 0,0.402 0.078,0.782 0.188,1.148 0.123,0.409 0.296,0.794 0.535,1.136 z" />
    <path
       id="path8706"
       d="m 62.973,26.934 c 0.723,1.035 1.918,1.716 3.277,1.716 1.357,0 2.553,-0.681 3.277,-1.716 0.238,-0.342 0.412,-0.728 0.535,-1.136 0.109,-0.366 0.188,-0.746 0.188,-1.148 l 0,-5.716 0,-7.285 c 0,-2.209 -1.791,-4 -4,-4 -2.209,0 -4,1.791 -4,4 l 0,7.285 0,5.716 c 0,0.402 0.076,0.782 0.188,1.148 0.123,0.409 0.294,0.794 0.535,1.136 z" />
  </g>
</svg>
