<?xml version="1.0" encoding="UTF-8" standalone="no"?>
<svg
   xmlns:dc="http://purl.org/dc/elements/1.1/"
   xmlns:cc="http://creativecommons.org/ns#"
   xmlns:rdf="http://www.w3.org/1999/02/22-rdf-syntax-ns#"
   xmlns:svg="http://www.w3.org/2000/svg"
   xmlns="http://www.w3.org/2000/svg"
   width="100"
   height="100"
   viewBox="0 0 100 100"
   id="svg4157"
   version="1.1">
  <defs
     id="defs4159" />
  <metadata
     id="metadata4162">
    <rdf:RDF>
      <cc:Work
         rdf:about="">
        <dc:format>image/svg+xml</dc:format>
        <dc:type
           rdf:resource="http://purl.org/dc/dcmitype/StillImage" />
        <dc:title></dc:title>
      </cc:Work>
    </rdf:RDF>
  </metadata>
  <g
     id="layer1"
     transform="translate(0,2.2107222e-5)">
    <ellipse        style="opacity:1;fill:none;fill-opacity:1;fill-rule:nonzero;stroke:#000000;stroke-width:2.0;stroke-linecap:round;stroke-linejoin:bevel;stroke-miterlimit:4;stroke-dasharray:none;stroke-dashoffset:0;stroke-opacity:1"
       id="path4705"
       cx="50"
       cy="50"
       rx="49"
       ry="49" />
  </g>
  <g
     transform="matrix(0.79317198,0,0,0.79317198,164.12609,-85.948148)"
     id="g12290">
    <path
       d="m -143.88488,212.37282 c -16.54245,0 -30.0008,-13.45835 -30.0008,-30.0008 0,-15.46694 24.68084,-47.16584 27.49447,-50.73488 a 3.1929366,3.1929366 0 0 1 5.01107,0 c 2.81522,3.56424 27.49446,35.26154 27.49446,50.73488 0.002,16.54245 -13.45515,30.0008 -29.9992,30.0008 z m 0,-73.51596 c -8.35285,11.08005 -23.61493,33.4146 -23.61493,43.51516 0,13.01982 10.59351,23.61333 23.61493,23.61333 13.02142,0 23.61493,-10.59191 23.61493,-23.61333 0,-10.10056 -15.26208,-32.43511 -23.61493,-43.51516 z"
       id="path11718" />
    <path
       d="m -143.88488,199.60267 a 3.2009389,3.2009389 0 0 1 0,-6.38747 10.854384,10.854384 0 0 0 10.84318,-10.83998 3.2009389,3.2009389 0 0 1 6.38747,0 17.24986,17.24986 0 0 1 -17.23065,17.22745 z"
       id="path11720" />
  </g>
</svg>
