<?xml version="1.0" encoding="UTF-8" standalone="no"?>
<svg
   xmlns:dc="http://purl.org/dc/elements/1.1/"
   xmlns:cc="http://creativecommons.org/ns#"
   xmlns:rdf="http://www.w3.org/1999/02/22-rdf-syntax-ns#"
   xmlns:svg="http://www.w3.org/2000/svg"
   xmlns="http://www.w3.org/2000/svg"
   width="100"
   height="100"
   viewBox="0 0 100 100"
   id="svg4157"
   version="1.1">
  <defs
     id="defs4159" />
  <metadata
     id="metadata4162">
    <rdf:RDF>
      <cc:Work
         rdf:about="">
        <dc:format>image/svg+xml</dc:format>
        <dc:type
           rdf:resource="http://purl.org/dc/dcmitype/StillImage" />
        <dc:title></dc:title>
      </cc:Work>
    </rdf:RDF>
  </metadata>
  <g
     id="layer1"
     transform="translate(0,2.2107222e-5)">
    <ellipse        style="opacity:1;fill:none;fill-opacity:1;fill-rule:nonzero;stroke:#000000;stroke-width:2.0;stroke-linecap:round;stroke-linejoin:bevel;stroke-miterlimit:4;stroke-dasharray:none;stroke-dashoffset:0;stroke-opacity:1"
       id="path4705"
       cx="50"
       cy="50"
       rx="49"
       ry="49" />
  </g>
  <g
     id="g15446"
     data-name="Layer 2"
     transform="matrix(0.77713488,0,0,0.77713488,11.134378,13.240243)">
    <path
       id="path15448"
       d="m 82.31757,52.75989 c 8.396275,-8.396291 8.396249,-22.009335 -3.7e-5,-30.405603 -8.396285,-8.396269 -22.009328,-8.396268 -30.405603,2.3e-5 l 0.0021,-0.0021 -1.91418,1.90955 -1.91449,-1.90972 0.0022,0.0022 C 39.687562,13.979733 26.092316,13.990133 17.705132,22.377461 9.3179472,30.764789 9.3077795,44.360036 17.68243,52.75989 l 0.0048,0.0048 3.63965,3.62012 -0.0021,-0.0021 26.91015,26.83008 c 0.974877,0.974818 2.555403,0.974818 3.53028,0 l 26.91015,-26.83008 -0.0021,0.0021 3.63965,-3.62012 z" />
  </g>
</svg>
