<?xml version="1.0" encoding="UTF-8" standalone="no"?>
<svg
   xmlns:dc="http://purl.org/dc/elements/1.1/"
   xmlns:cc="http://creativecommons.org/ns#"
   xmlns:rdf="http://www.w3.org/1999/02/22-rdf-syntax-ns#"
   xmlns:svg="http://www.w3.org/2000/svg"
   xmlns="http://www.w3.org/2000/svg"
   width="100"
   height="100"
   viewBox="0 0 100 100"
   id="svg4157"
   version="1.1">
  <defs
     id="defs4159" />
  <metadata
     id="metadata4162">
    <rdf:RDF>
      <cc:Work
         rdf:about="">
        <dc:format>image/svg+xml</dc:format>
        <dc:type
           rdf:resource="http://purl.org/dc/dcmitype/StillImage" />
        <dc:title></dc:title>
      </cc:Work>
    </rdf:RDF>
  </metadata>
  <g
     id="layer1"
     transform="translate(0,2.2107222e-5)">
    <ellipse        style="opacity:1;fill:none;fill-opacity:1;fill-rule:nonzero;stroke:#000000;stroke-width:2.0;stroke-linecap:round;stroke-linejoin:bevel;stroke-miterlimit:4;stroke-dasharray:none;stroke-dashoffset:0;stroke-opacity:1"
       id="path4705"
       cx="50"
       cy="50"
       rx="49"
       ry="49" />
  </g>
  <g
     id="g8451"
     transform="matrix(0.66829601,0,0,0.66829601,16.698814,19.033336)">
    <path
       id="path8453"
       d="m 82.467,72.046 c -1.959,1.573 -4.078,2.943 -6.3,4.071 -5.109,2.594 -10.581,3.909 -16.265,3.909 -13.643,0 -25.95,-7.55 -32.12,-19.705 C 23.428,51.752 22.674,41.998 25.657,32.86 28.64,23.72 35.005,16.291 43.574,11.939 45.808,10.808 48.166,9.905 50.583,9.255 51.637,8.972 52.323,7.954 52.187,6.871 52.053,5.787 51.14,4.967 50.048,4.95 L 49.35,4.944 c -7.038,0 -13.794,1.62 -20.083,4.812 -10.578,5.372 -18.431,14.54 -22.112,25.818 -3.682,11.277 -2.751,23.314 2.62,33.891 7.614,14.999 22.802,24.315 39.634,24.315 7.02,0 13.771,-1.621 20.071,-4.82 6.421,-3.26 12.003,-8.079 16.146,-13.94 0.63,-0.893 0.508,-2.112 -0.288,-2.86 -0.798,-0.75 -2.022,-0.797 -2.871,-0.114 z" />
    <path
       id="path8455"
       d="M 94.646,30.296 C 94.452,29.713 93.913,29.315 93.299,29.297 L 79.353,28.935 74.624,15.636 c -0.208,-0.581 -0.756,-0.97 -1.372,-0.971 -0.003,0 -0.003,0 -0.006,0 -0.613,0 -1.163,0.385 -1.372,0.962 l -4.812,13.27 -13.949,0.283 c -0.615,0.013 -1.155,0.409 -1.354,0.991 -0.197,0.582 -0.009,1.225 0.471,1.608 l 10.997,8.802 -3.892,13.249 c -0.175,0.588 0.038,1.221 0.53,1.586 0.492,0.363 1.158,0.382 1.671,0.047 l 11.616,-7.621 11.57,7.689 c 0.245,0.163 0.528,0.244 0.808,0.244 0.305,0 0.607,-0.095 0.864,-0.282 0.493,-0.361 0.71,-0.993 0.539,-1.582 L 83.122,40.64 94.165,31.903 c 0.483,-0.381 0.674,-1.024 0.481,-1.607 z" />
  </g>
</svg>
