<?xml version="1.0" encoding="UTF-8" standalone="no"?>
<svg
   xmlns:dc="http://purl.org/dc/elements/1.1/"
   xmlns:cc="http://creativecommons.org/ns#"
   xmlns:rdf="http://www.w3.org/1999/02/22-rdf-syntax-ns#"
   xmlns:svg="http://www.w3.org/2000/svg"
   xmlns="http://www.w3.org/2000/svg"
   version="1.1"
   id="svg4157"
   viewBox="0 0 100 100"
   height="100"
   width="100">
  <defs
     id="defs4159" />
  <metadata
     id="metadata4162">
    <rdf:RDF>
      <cc:Work
         rdf:about="">
        <dc:format>image/svg+xml</dc:format>
        <dc:type
           rdf:resource="http://purl.org/dc/dcmitype/StillImage" />
        <dc:title></dc:title>
      </cc:Work>
    </rdf:RDF>
  </metadata>
  <g
     style="fill:#000000;fill-opacity:1"
     transform="translate(0,2.2107222e-5)"
     id="layer1">
    <ellipse
       ry="49"
       rx="49"
       cy="50"
       cx="50"
       id="path4705"
       style="opacity:1;fill:#000000;fill-opacity:1;fill-rule:nonzero;stroke:#000000;stroke-width:2;stroke-linecap:round;stroke-linejoin:bevel;stroke-miterlimit:4;stroke-dasharray:none;stroke-dashoffset:0;stroke-opacity:1" />
  </g>
  <g
     style="fill:#ffffff;fill-opacity:1"
     transform="matrix(0.65105471,0,0,0.65105471,17.447264,17.447287)"
     id="g16845">
    <path
       style="fill:#ffffff;fill-opacity:1"
       d="m 42.522,37.535 c -0.593,0.593 -0.593,1.556 0,2.15 0.595,0.591 1.555,0.593 2.15,0 0.593,-0.594 0.593,-1.557 0,-2.15 -0.594,-0.593 -1.555,-0.593 -2.15,0 z"
       id="path16847" />
    <path
       style="fill:#ffffff;fill-opacity:1"
       d="m 40.329,6.037 0.323,0 0,13.831 3.349,0 0,-13.831 11.999,0 0,13.831 3.349,0 0,-13.831 0.322,0 c 1.645,0 2.979,-1.333 2.979,-2.979 0,-1.646 -1.334,-2.977 -2.979,-2.977 l -19.342,0 c -1.644,0 -2.977,1.332 -2.977,2.977 0,1.645 1.333,2.979 2.977,2.979 z"
       id="path16849" />
    <path
       style="fill:#ffffff;fill-opacity:1"
       d="m 29.873,95.894 c 0,2.224 1.803,4.025 4.025,4.025 2.224,0 4.025,-1.802 4.025,-4.025 l 0,-2.562 -8.05,0 0,2.562 z"
       id="path16851" />
    <path
       style="fill:#ffffff;fill-opacity:1"
       d="m 62.075,95.894 c 0,2.224 1.803,4.025 4.026,4.025 2.223,0 4.025,-1.802 4.025,-4.025 l 0,-2.562 -8.052,0 0,2.562 z"
       id="path16853" />
    <path
       style="fill:#ffffff;fill-opacity:1"
       d="m 68.622,21.799 -12.373,0 -12.498,0 -12.375,0 c -4.616,0 -8.373,3.756 -8.373,8.373 l 0,35.337 53.992,0 0,-35.337 c 10e-4,-4.617 -3.753,-8.373 -8.373,-8.373 z M 52.131,56.39 37.923,42.183 39.547,34.559 47.172,32.936 61.38,47.143 52.131,56.39 Z"
       id="path16855" />
    <path
       style="fill:#ffffff;fill-opacity:1"
       d="m 23.004,82.987 c 0,4.616 3.757,8.374 8.373,8.374 l 12.375,0 12.498,0 12.373,0 c 4.62,0 8.374,-3.758 8.374,-8.374 l 0,-13.678 -53.993,0 0,13.678 z"
       id="path16857" />
  </g>
</svg>
