<?xml version="1.0" encoding="UTF-8" standalone="no"?>
<svg
   xmlns:dc="http://purl.org/dc/elements/1.1/"
   xmlns:cc="http://creativecommons.org/ns#"
   xmlns:rdf="http://www.w3.org/1999/02/22-rdf-syntax-ns#"
   xmlns:svg="http://www.w3.org/2000/svg"
   xmlns="http://www.w3.org/2000/svg"
   width="100"
   height="100"
   viewBox="0 0 100 100"
   id="svg4157"
   version="1.1">
  <defs
     id="defs4159" />
  <metadata
     id="metadata4162">
    <rdf:RDF>
      <cc:Work
         rdf:about="">
        <dc:format>image/svg+xml</dc:format>
        <dc:type
           rdf:resource="http://purl.org/dc/dcmitype/StillImage" />
        <dc:title></dc:title>
      </cc:Work>
    </rdf:RDF>
  </metadata>
  <g
     id="layer1"
     transform="translate(0,2.2107222e-5)">
    <ellipse        style="opacity:1;fill:none;fill-opacity:1;fill-rule:nonzero;stroke:#000000;stroke-width:2.0;stroke-linecap:round;stroke-linejoin:bevel;stroke-miterlimit:4;stroke-dasharray:none;stroke-dashoffset:0;stroke-opacity:1"
       id="path4705"
       cx="50"
       cy="50"
       rx="49"
       ry="49" />
  </g>
  <g
     transform="matrix(0.75000075,0,0,0.75000075,62.923744,90.042435)"
     id="g7731">
    <path
       d="m -31.579486,-19.657331 c 11.979,0 21.7250004,-9.746 21.7250004,-21.725 0,-11.979 -9.7460004,-21.725 -21.7250004,-21.725 -11.979,0 -21.724,9.746 -21.724,21.725 0,11.979 9.746,21.725 21.724,21.725 z m 19.725,-21.724 c 0,10.538 -8.314,19.148 -18.725,19.674 l 0,-39.348 c 10.41,0.526 18.725,9.135 18.725,19.674 z m -20.725,-19.674 0,39.348 c -10.41,-0.526 -18.724,-9.135 -18.724,-19.674 0,-10.539 8.314,-19.148 18.724,-19.674 z"
       id="path7154" />
    <path
       d="m -59.491486,-41.381331 c 0,15.391 12.521,27.913 27.912,27.913 15.392,0 27.9130004,-12.521 27.9130004,-27.913 0,-12.156 -7.8140004,-22.516 -18.6800004,-26.336 l 17.6710004,0 c 0.553,0 1,-0.448 1,-1 l 0,-2.068 c 0,-5.455 -4.438,-9.892 -9.8930004,-9.892 l -36.031,0 c -5.454,0 -9.892,4.438 -9.892,9.892 l 0,2.068 c 0,0.552 0.447,1 1,1 l 17.68,0 c -10.866,3.82 -18.68,14.18 -18.68,26.336 z m 2,-29.405 c 0,-4.352 3.54,-7.892 7.892,-7.892 l 36.032,0 c 4.3520004,0 7.8930004,3.541 7.8930004,7.892 l 0,1.068 -51.8170004,0 0,-1.068 z m 25.912,3.492 c 14.288,0 25.9130004,11.625 25.9130004,25.913 0,14.288 -11.6250004,25.912 -25.9130004,25.912 -14.288,0 -25.912,-11.624 -25.912,-25.912 0,-14.288 11.624,-25.913 25.912,-25.913 z"
       id="path7156" />
    <path
       d="m 20.415514,-86.263331 c -0.125,-0.269 -3.128,-6.518 -12.3449996,-7.068 -0.063,-0.013 -0.13,-0.02 -0.197,-0.02 l -0.21,0 c -0.067,0 -0.134,0.007 -0.197,0.02 -9.217,0.55 -12.22,6.799 -12.345,7.068 -0.148,0.321 -0.117,0.697 0.084,0.988 l 6.487,9.419 -0.287,0 c -0.55299999,0 -0.99999999,0.448 -0.99999999,1 l 0,5.958 c 0,0.552 0.447,1 0.99999999,1 l 1.149,0 0.981,50.312 c 0.041,2.293 1.941,4.158 4.234,4.158 2.2919996,0 4.1909996,-1.865 4.2329996,-4.156 l 0.981,-50.313 1.149,0 c 0.553,0 1,-0.448 1,-1 l 0,-5.958 c 0,-0.552 -0.447,-1 -1,-1 l -0.287,0 6.487,-9.419 c 0.2,-0.292 0.232,-0.668 0.083,-0.989 z m -10.413,68.641 c -0.021,1.21 -1.0229996,2.194 -2.2329996,2.194 -1.21,0 -2.213,-0.984 -2.234,-2.195 l -0.981,-50.274 6.4289996,0 -0.981,50.275 z m 3.13,-52.275 -10.7279996,0 0,-3.958 10.7279996,0 0,3.958 z m -1.698,-5.983 c -0.005,0.008 -0.006,0.017 -0.011,0.025 l -7.3099996,0 c -0.005,-0.008 -0.005,-0.017 -0.011,-0.025 l -6.898,-10.018 c 0.846,-1.359 3.78100001,-5.107 10.564,-5.447 6.7859996,0.34 9.7209996,4.092 10.5629996,5.447 l -6.897,10.018 z"
       id="path7158" />
  </g>
</svg>
