<?xml version="1.0" encoding="UTF-8" standalone="no"?>
<svg
   xmlns:dc="http://purl.org/dc/elements/1.1/"
   xmlns:cc="http://creativecommons.org/ns#"
   xmlns:rdf="http://www.w3.org/1999/02/22-rdf-syntax-ns#"
   xmlns:svg="http://www.w3.org/2000/svg"
   xmlns="http://www.w3.org/2000/svg"
   version="1.1"
   id="svg4157"
   viewBox="0 0 100 100"
   height="100"
   width="100">
  <defs
     id="defs4159" />
  <metadata
     id="metadata4162">
    <rdf:RDF>
      <cc:Work
         rdf:about="">
        <dc:format>image/svg+xml</dc:format>
        <dc:type
           rdf:resource="http://purl.org/dc/dcmitype/StillImage" />
        <dc:title></dc:title>
      </cc:Work>
    </rdf:RDF>
  </metadata>
  <g
     style="fill:#000000;fill-opacity:1"
     transform="translate(0,2.2107222e-5)"
     id="layer1">
    <ellipse
       style="opacity:1;fill:#000000;fill-opacity:1;fill-rule:nonzero;stroke:#000000;stroke-width:2;stroke-linecap:round;stroke-linejoin:bevel;stroke-miterlimit:4;stroke-dasharray:none;stroke-dashoffset:0;stroke-opacity:1"
       ry="49"
       rx="49"
       cy="50"
       cx="50"
       id="path4705" />
  </g>
  <g
     style="stroke:none;stroke-opacity:1;stroke-width:0.29183333;stroke-miterlimit:4;stroke-dasharray:none;stroke-linejoin:round;stroke-linecap:round;fill:#ffffff;fill-opacity:1"
     id="g4893"
     transform="matrix(0.70588235,0,0,0.70588235,83.200399,49.102714)">
    <path
       style="stroke:none;stroke-opacity:1;stroke-width:0.29183333;stroke-miterlimit:4;stroke-dasharray:none;stroke-linejoin:round;stroke-linecap:round;fill:#ffffff;fill-opacity:1"
       id="path4251"
       d="m -23.090898,-39.228814 c 0.536,0 0.972,0.431 0.972,0.961 l 0,79.077 c 0,0.53 -0.436,0.962 -0.972,0.962 l -47.63,0 c -0.536,0 -0.972,-0.432 -0.972,-0.962 l 0,-79.077 c 0,-0.53 0.436,-0.961 0.972,-0.961 l 47.63,0 m 0,-2 -47.63,0 c -1.645,0 -2.977,1.324 -2.977,2.961 l 0,79.077 c 0,1.637 1.333,2.962 2.977,2.962 l 47.63,0 c 1.646,0 2.978,-1.325 2.978,-2.962 l 0,-79.077 c 0,-1.637 -1.332,-2.961 -2.978,-2.961 l 0,0 z" />
    <path
       style="stroke:none;stroke-opacity:1;stroke-width:0.29183333;stroke-miterlimit:4;stroke-dasharray:none;stroke-linejoin:round;stroke-linecap:round;fill:#ffffff;fill-opacity:1"
       id="path4253"
       d="m -39.979898,25.041186 0,16.73 -13.851,0 0,-16.73 13.851,0 m 2.006,-2 -17.863,0 0,20.73 17.863,0 0,-20.73 0,0 z" />
    <path
       style="stroke:none;stroke-opacity:1;stroke-width:0.29183333;stroke-miterlimit:4;stroke-dasharray:none;stroke-linejoin:round;stroke-linecap:round;fill:#ffffff;fill-opacity:1"
       id="path4255"
       d="m -52.859898,-12.549814 0,8.8850004 -8.931,0 0,-8.8850004 8.931,0 m 2.006,-2 -2.005,0 -8.931,0 -2.005,0 0,2 0,8.8850004 0,2 2.005,0 8.931,0 2.005,0 0,-2 0,-8.8850004 0,-2 0,0 z" />
    <path
       style="stroke:none;stroke-opacity:1;stroke-width:0.29183333;stroke-miterlimit:4;stroke-dasharray:none;stroke-linejoin:round;stroke-linecap:round;fill:#ffffff;fill-opacity:1"
       id="path4257"
       d="m -32.020898,-12.549814 0,8.8850004 -8.931,0 0,-8.8850004 8.931,0 m 2.006,-2 -2.006,0 -8.931,0 -2.006,0 0,2 0,8.8850004 0,2 2.006,0 8.931,0 2.006,0 0,-2 0,-8.8850004 0,-2 0,0 z" />
    <path
       style="stroke:none;stroke-opacity:1;stroke-width:0.29183333;stroke-miterlimit:4;stroke-dasharray:none;stroke-linejoin:round;stroke-linecap:round;fill:#ffffff;fill-opacity:1"
       id="path4259"
       d="m -52.859898,-31.216814 0,8.885 -8.931,0 0,-8.885 8.931,0 m 2.006,-2 -2.005,0 -8.931,0 -2.005,0 0,2 0,8.885 0,2 2.005,0 8.931,0 2.005,0 0,-2 0,-8.885 0,-2 0,0 z" />
    <path
       style="stroke:none;stroke-opacity:1;stroke-width:0.29183333;stroke-miterlimit:4;stroke-dasharray:none;stroke-linejoin:round;stroke-linecap:round;fill:#ffffff;fill-opacity:1"
       id="path4261"
       d="m -79.808898,3.5951864 0,6.1 -6.131,0 0,-6.1 6.131,0 m 1.377,-1.373 -1.377,0 -6.131,0 -1.377,0 0,1.373 0,6.1 0,1.3729996 1.377,0 6.131,0 1.377,0 0,-1.3729996 0,-6.1 0,-1.373 0,0 z" />
    <path
       style="stroke:none;stroke-opacity:1;stroke-width:0.29183333;stroke-miterlimit:4;stroke-dasharray:none;stroke-linejoin:round;stroke-linecap:round;fill:#ffffff;fill-opacity:1"
       id="path4263"
       d="m -79.808898,16.923186 0,6.099 -6.131,0 0,-6.099 6.131,0 m 1.377,-1.373 -1.377,0 -6.131,0 -1.377,0 0,1.373 0,6.099 0,1.373 1.377,0 6.131,0 1.377,0 0,-1.373 0,-6.099 0,-1.373 0,0 z" />
    <path
       style="stroke:none;stroke-opacity:1;stroke-width:0.29183333;stroke-miterlimit:4;stroke-dasharray:none;stroke-linejoin:round;stroke-linecap:round;fill:#ffffff;fill-opacity:1"
       id="path4265"
       d="m -79.808898,30.090186 0,6.099 -6.131,0 0,-6.099 6.131,0 m 1.377,-1.373 -1.377,0 -6.131,0 -1.377,0 0,1.373 0,6.099 0,1.373 1.377,0 6.131,0 1.377,0 0,-1.373 0,-6.099 0,-1.373 0,0 z" />
    <path
       style="stroke:none;stroke-opacity:1;stroke-width:0.29183333;stroke-miterlimit:4;stroke-dasharray:none;stroke-linejoin:round;stroke-linecap:round;fill:#ffffff;fill-opacity:1"
       id="path4267"
       d="m -32.020898,-31.216814 0,8.885 -8.931,0 0,-8.885 8.931,0 m 2.006,-2 -2.006,0 -8.931,0 -2.006,0 0,2 0,8.885 0,2 2.006,0 8.931,0 2.006,0 0,-2 0,-8.885 0,-2 0,0 z" />
    <path
       style="stroke:none;stroke-opacity:1;stroke-width:0.29183333;stroke-miterlimit:4;stroke-dasharray:none;stroke-linejoin:round;stroke-linecap:round;fill:#ffffff;fill-opacity:1"
       id="path4269"
       d="m -52.859898,6.1041864 0,8.8849996 -8.931,0 0,-8.8849996 8.931,0 m 2.006,-2 -2.005,0 -8.931,0 -2.005,0 0,2 0,8.8849996 0,2 2.005,0 8.931,0 2.005,0 0,-2 0,-8.8849996 0,-2 0,0 z" />
    <path
       style="stroke:none;stroke-opacity:1;stroke-width:0.29183333;stroke-miterlimit:4;stroke-dasharray:none;stroke-linejoin:round;stroke-linecap:round;fill:#ffffff;fill-opacity:1"
       id="path4271"
       d="m -32.020898,6.1041864 0,8.8849996 -8.931,0 0,-8.8849996 8.931,0 m 2.006,-2 -2.006,0 -8.931,0 -2.006,0 0,2 0,8.8849996 0,2 2.006,0 8.931,0 2.006,0 0,-2 0,-8.8849996 0,-2 0,0 z" />
    <path
       style="stroke:none;stroke-opacity:1;stroke-width:0.29183333;stroke-miterlimit:4;stroke-dasharray:none;stroke-linejoin:round;stroke-linecap:round;fill:#ffffff;fill-opacity:1"
       id="path4273"
       d="m -73.979898,-2.8438136 0,44.6149996 -16.577,0 c -0.536,0 -0.972,-0.432 -0.972,-0.962 l 0,-42.6919996 c 0,-0.53 0.436,-0.961 0.972,-0.961 l 16.577,0 m 2.005,-2 -18.582,0 c -1.644,0 -2.977,1.325 -2.977,2.961 l 0,42.6919996 c 0,1.637 1.333,2.962 2.977,2.962 l 25.884,0 c 0.331,0 0.645,-0.066 0.943,-0.166 l -8.245,0 0,-48.4489996 0,0 z" />
    <path
       style="stroke:none;stroke-opacity:1;stroke-width:0.29183333;stroke-miterlimit:4;stroke-dasharray:none;stroke-linejoin:round;stroke-linecap:round;fill:#ffffff;fill-opacity:1"
       id="path4275"
       d="m -8.1278983,3.5951864 0,6.1 -6.1319997,0 0,-6.1 6.1319997,0 m 1.376,-1.373 -1.376,0 -6.1319997,0 -1.377,0 0,1.373 0,6.1 0,1.3729996 1.377,0 6.1319997,0 1.376,0 0,-1.3729996 0,-6.1 0,-1.373 0,0 z" />
    <path
       style="stroke:none;stroke-opacity:1;stroke-width:0.29183333;stroke-miterlimit:4;stroke-dasharray:none;stroke-linejoin:round;stroke-linecap:round;fill:#ffffff;fill-opacity:1"
       id="path4277"
       d="m -8.1278983,16.923186 0,6.099 -6.1319997,0 0,-6.099 6.1319997,0 m 1.376,-1.373 -1.376,0 -6.1319997,0 -1.377,0 0,1.373 0,6.099 0,1.373 1.377,0 6.1319997,0 1.376,0 0,-1.373 0,-6.099 0,-1.373 0,0 z" />
    <path
       style="stroke:none;stroke-opacity:1;stroke-width:0.29183333;stroke-miterlimit:4;stroke-dasharray:none;stroke-linejoin:round;stroke-linecap:round;fill:#ffffff;fill-opacity:1"
       id="path4279"
       d="m -8.1278983,30.090186 0,6.099 -6.1319997,0 0,-6.099 6.1319997,0 m 1.376,-1.373 -1.376,0 -6.1319997,0 -1.377,0 0,1.373 0,6.099 0,1.373 1.377,0 6.1319997,0 1.376,0 0,-1.373 0,-6.099 0,-1.373 0,0 z" />
    <path
       style="stroke:none;stroke-opacity:1;stroke-width:0.29183333;stroke-miterlimit:4;stroke-dasharray:none;stroke-linejoin:round;stroke-linecap:round;fill:#ffffff;fill-opacity:1"
       id="path4281"
       d="m -3.5108983,-2.8438136 c 0.535,0 0.971,0.431 0.971,0.961 l 0,42.6919996 c 0,0.53 -0.436,0.962 -0.971,0.962 l -9.5109997,0 -0.188,-0.062 -0.311,-0.104 -0.325,0 -6.242,0 0,-44.4489996 16.5769997,0 m 0,-2 -18.5829997,0 0,48.4489996 8.248,0 c 0.298,0.1 -8.636,0.166 -8.305,0.166 l 18.6399997,0 c 1.644,0 2.97699999,-1.325 2.97699999,-2.962 l 0,-42.6919996 c 0,-1.636 -1.33299999,-2.961 -2.97699999,-2.961 l 0,0 z" />
  </g>
</svg>
