<?xml version="1.0" encoding="UTF-8" standalone="no"?>
<svg
   xmlns:dc="http://purl.org/dc/elements/1.1/"
   xmlns:cc="http://creativecommons.org/ns#"
   xmlns:rdf="http://www.w3.org/1999/02/22-rdf-syntax-ns#"
   xmlns:svg="http://www.w3.org/2000/svg"
   xmlns="http://www.w3.org/2000/svg"
   width="100"
   height="100"
   viewBox="0 0 100 100"
   id="svg4157"
   version="1.1">
  <defs
     id="defs4159" />
  <metadata
     id="metadata4162">
    <rdf:RDF>
      <cc:Work
         rdf:about="">
        <dc:format>image/svg+xml</dc:format>
        <dc:type
           rdf:resource="http://purl.org/dc/dcmitype/StillImage" />
        <dc:title></dc:title>
      </cc:Work>
    </rdf:RDF>
  </metadata>
  <g
     id="layer1"
     transform="translate(0,2.2107222e-5)">
    <ellipse        style="opacity:1;fill:none;fill-opacity:1;fill-rule:nonzero;stroke:#000000;stroke-width:2.0;stroke-linecap:round;stroke-linejoin:bevel;stroke-miterlimit:4;stroke-dasharray:none;stroke-dashoffset:0;stroke-opacity:1"
       id="path4705"
       cx="50"
       cy="50"
       rx="49"
       ry="49" />
  </g>
  <g
     id="g19873"
     transform="matrix(0.19503546,0,0,0.19503546,0.07092224,1.8435378)">
    <path
       id="path19875"
       d="m 374,151 c 2.762,0 5,-2.239 5,-5 0,-2.761 -2.238,-5 -5,-5 l -11,0 -172,0 0,-1.677 c 0,-1.431 0.302,-2.842 0.302,-4.202 0,-21.021 -17.131,-38.122 -38.151,-38.122 -20.881,0 -37.956,16.938 -38.132,37.796 C 115.016,134.864 115,134.932 115,135 l 0,199 c 0,0.022 0,0.044 0,0.067 0,0.021 0,0.04 0,0.055 0,21.021 16.979,38.122 38,38.122 0.021,0 0.04,-0.001 0.061,-0.001 0.021,0 0.04,0.001 0.061,0.001 3.357,0 6.613,-0.44 9.717,-1.259 0.056,10e-4 0.106,0.016 0.162,0.016 l 200,0 11,0 c 2.762,0 5,-2.239 5,-5 0,-2.761 -2.238,-5 -5,-5 l -6,0 0,-32 6,0 c 2.762,0 5,-2.239 5,-5 0,-2.761 -2.238,-5 -5,-5 l -6,0 0,-35 6,0 c 2.762,0 5,-2.239 5,-5 0,-2.761 -2.238,-5 -5,-5 l -6,0 0,-37 6,0 c 2.762,0 5,-2.239 5,-5 0,-2.761 -2.238,-5 -5,-5 l -6,0 0,-34 6,0 c 2.762,0 5,-2.239 5,-5 0,-2.761 -2.238,-5 -5,-5 l -6,0 0,-32 5.999,0 z m -182.946,29 116.971,0 C 310.022,192.885 320,203.116 333,205.254 l 0,102.163 c -13,2.114 -22.604,12.042 -24.855,24.583 l -116.905,0 -0.052,-42 10.684,0 c 7.614,9.269 18.195,14.532 29.392,14.532 26.205,0 42.188,-17.451 53.857,-30.193 6.083,-6.642 11.829,-12.916 15.879,-12.916 2.762,0 5,-2.239 5,-5 0,-2.761 -2.238,-5 -5,-5 -4.26,0 -10.567,-6.57 -17.246,-13.525 -11.971,-12.467 -28.364,-29.541 -52.49,-29.541 -11.154,0 -21.737,5.304 -29.394,14.642 l -10.764,0 L 191.054,180 Z m -33.658,181.918 c -0.204,0.032 -0.412,0.052 -0.617,0.079 -0.263,0.034 -0.523,0.073 -0.789,0.1 -0.943,0.096 -1.9,0.146 -2.869,0.146 -0.484,0 -0.966,-0.012 -1.445,-0.037 -0.033,-0.002 -0.067,-0.006 -0.102,-0.008 -0.443,-0.024 -0.885,-0.056 -1.322,-0.101 -0.146,-0.015 -0.288,-0.038 -0.433,-0.055 -0.325,-0.039 -0.651,-0.075 -0.974,-0.124 -0.178,-0.027 -0.354,-0.064 -0.531,-0.095 -0.283,-0.049 -0.569,-0.095 -0.85,-0.152 -0.166,-0.034 -0.328,-0.077 -0.492,-0.114 -0.291,-0.065 -0.582,-0.127 -0.869,-0.201 -0.113,-0.029 -0.225,-0.065 -0.338,-0.096 -0.333,-0.09 -0.666,-0.181 -0.994,-0.283 -0.146,-0.045 -0.29,-0.099 -0.436,-0.147 -0.291,-0.096 -0.583,-0.189 -0.87,-0.295 -0.134,-0.049 -0.265,-0.105 -0.397,-0.157 -0.294,-0.113 -0.59,-0.225 -0.879,-0.347 -0.113,-0.048 -0.222,-0.102 -0.334,-0.151 -0.306,-0.134 -0.611,-0.268 -0.911,-0.413 -0.11,-0.054 -0.218,-0.113 -0.327,-0.168 -0.297,-0.148 -0.594,-0.295 -0.885,-0.453 -0.127,-0.07 -0.251,-0.146 -0.377,-0.217 -0.268,-0.151 -0.537,-0.3 -0.799,-0.46 -0.14,-0.084 -0.273,-0.176 -0.411,-0.263 -0.244,-0.154 -0.49,-0.307 -0.729,-0.468 -0.133,-0.089 -0.26,-0.186 -0.391,-0.277 -0.238,-0.167 -0.479,-0.333 -0.713,-0.507 -0.124,-0.093 -0.243,-0.193 -0.366,-0.288 -0.233,-0.181 -0.468,-0.359 -0.696,-0.547 -0.121,-0.1 -0.236,-0.206 -0.355,-0.308 -0.223,-0.19 -0.447,-0.379 -0.664,-0.576 -0.119,-0.108 -0.232,-0.222 -0.35,-0.332 -0.211,-0.198 -0.423,-0.394 -0.628,-0.599 -0.123,-0.123 -0.239,-0.252 -0.36,-0.378 -0.191,-0.198 -0.385,-0.394 -0.57,-0.598 -0.121,-0.133 -0.235,-0.272 -0.354,-0.408 -0.179,-0.203 -0.359,-0.404 -0.531,-0.612 -0.115,-0.14 -0.225,-0.286 -0.337,-0.428 -0.167,-0.21 -0.337,-0.418 -0.498,-0.633 -0.12,-0.161 -0.233,-0.329 -0.351,-0.492 -0.146,-0.203 -0.294,-0.402 -0.434,-0.609 -0.114,-0.168 -0.221,-0.343 -0.331,-0.514 -0.134,-0.208 -0.272,-0.415 -0.401,-0.626 -0.104,-0.17 -0.199,-0.346 -0.3,-0.519 -0.127,-0.219 -0.257,-0.435 -0.378,-0.658 -0.1,-0.183 -0.191,-0.371 -0.287,-0.556 -0.112,-0.218 -0.229,-0.434 -0.335,-0.655 -0.092,-0.189 -0.174,-0.382 -0.261,-0.574 -0.102,-0.223 -0.208,-0.445 -0.305,-0.671 -0.082,-0.194 -0.155,-0.392 -0.232,-0.588 -0.092,-0.228 -0.187,-0.455 -0.271,-0.686 -0.075,-0.205 -0.141,-0.414 -0.211,-0.62 -0.078,-0.228 -0.16,-0.455 -0.232,-0.685 -0.066,-0.213 -0.123,-0.43 -0.185,-0.645 -0.065,-0.229 -0.136,-0.455 -0.195,-0.686 -0.059,-0.225 -0.106,-0.453 -0.159,-0.68 -0.052,-0.226 -0.109,-0.45 -0.156,-0.678 -0.047,-0.229 -0.084,-0.461 -0.125,-0.691 -0.042,-0.23 -0.088,-0.459 -0.124,-0.691 -0.036,-0.23 -0.06,-0.464 -0.09,-0.696 -0.03,-0.236 -0.065,-0.471 -0.091,-0.708 -0.023,-0.229 -0.036,-0.462 -0.054,-0.693 -0.019,-0.244 -0.044,-0.487 -0.056,-0.732 -0.012,-0.227 -0.013,-0.457 -0.02,-0.686 -0.007,-0.254 -0.019,-0.508 -0.02,-0.764 0.002,-0.046 0.002,-0.092 0.003,-0.126 0.007,-1.864 0.196,-3.686 0.55,-5.449 -0.004,0.185 -0.014,0.367 -0.014,0.553 0,15.209 12.373,27.582 27.582,27.582 15.209,0 27.582,-12.373 27.582,-27.582 0,-0.188 -0.011,-0.373 -0.014,-0.559 0.355,1.769 0.424,3.596 0.43,5.467 L 181,334.133 c 0,0.018 0,0.035 0,0.052 0,0.62 0.086,1.232 0.045,1.843 -0.012,0.166 0.042,0.322 0.027,0.494 -0.004,0.049 0.024,0.099 0.02,0.147 -0.056,0.618 -0.113,1.23 -0.207,1.837 -0.027,0.173 -0.056,0.344 -0.086,0.516 -0.008,0.045 -0.012,0.091 -0.021,0.136 -0.069,0.391 -0.148,0.777 -0.234,1.163 -0.003,0.014 -0.005,0.027 -0.008,0.041 -0.061,0.264 -0.116,0.529 -0.183,0.791 -0.051,0.195 -0.111,0.386 -0.165,0.58 -0.041,0.145 -0.081,0.291 -0.124,0.435 -0.033,0.11 -0.062,0.222 -0.096,0.332 -0.053,0.167 -0.113,0.331 -0.168,0.496 -0.089,0.267 -0.175,0.535 -0.271,0.798 -0.053,0.144 -0.113,0.285 -0.169,0.428 -0.109,0.284 -0.217,0.568 -0.335,0.847 -0.058,0.134 -0.121,0.264 -0.181,0.397 -0.126,0.284 -0.25,0.569 -0.385,0.849 -0.046,0.096 -0.099,0.189 -0.146,0.285 -0.155,0.312 -0.311,0.623 -0.477,0.928 -0.038,0.068 -0.08,0.134 -0.117,0.203 -0.182,0.328 -0.366,0.654 -0.561,0.973 -0.049,0.08 -0.102,0.156 -0.151,0.235 -0.19,0.305 -0.381,0.609 -0.582,0.906 -0.032,0.047 -0.067,0.092 -0.1,0.14 -0.224,0.325 -0.45,0.647 -0.687,0.963 -0.02,0.027 -0.042,0.053 -0.062,0.08 -0.251,0.333 -0.508,0.661 -0.772,0.981 -0.028,0.034 -0.058,0.065 -0.086,0.099 -0.261,0.312 -0.525,0.62 -0.799,0.921 -0.026,0.029 -0.056,0.057 -0.082,0.086 -0.277,0.302 -0.56,0.6 -0.85,0.89 -0.011,0.011 -0.022,0.021 -0.034,0.032 -0.308,0.307 -0.621,0.607 -0.943,0.899 -0.005,0.005 -0.011,0.009 -0.016,0.014 -0.328,0.297 -0.663,0.587 -1.005,0.87 -0.009,0.007 -0.017,0.013 -0.025,0.02 -0.339,0.279 -0.685,0.551 -1.036,0.814 -0.027,0.02 -0.056,0.038 -0.082,0.058 -0.335,0.249 -0.675,0.492 -1.021,0.726 -0.032,0.022 -0.066,0.042 -0.1,0.064 -0.343,0.229 -0.688,0.453 -1.041,0.667 -0.014,0.008 -0.027,0.016 -0.041,0.024 -0.373,0.226 -0.752,0.444 -1.136,0.653 -0.038,0.021 -0.077,0.039 -0.116,0.06 -0.361,0.194 -0.726,0.383 -1.096,0.562 -0.022,0.011 -0.046,0.02 -0.068,0.03 -0.2,0.096 -0.404,0.184 -0.607,0.275 -0.2,0.089 -0.396,0.185 -0.599,0.269 -0.042,0.018 -0.084,0.032 -0.125,0.049 -0.237,0.099 -0.478,0.191 -0.718,0.283 -0.421,0.161 -0.846,0.314 -1.277,0.456 -0.145,0.048 -0.287,0.101 -0.432,0.146 -0.035,0.011 -0.07,0.019 -0.105,0.03 -0.405,0.125 -0.814,0.243 -1.228,0.349 -0.091,0.023 -0.185,0.042 -0.276,0.064 -0.358,0.089 -0.719,0.176 -1.083,0.25 -0.021,0.004 -0.044,0.007 -0.065,0.012 -0.435,0.09 -0.872,0.17 -1.316,0.237 z m -4.275,-50.378 c 9.694,0 17.582,7.887 17.582,17.582 0,9.695 -7.888,17.582 -17.582,17.582 -9.694,0 -17.582,-7.887 -17.582,-17.582 0,-9.695 7.888,-17.582 17.582,-17.582 z m 37.998,-78.54 13.202,0 c 1.597,0 3.098,-0.763 4.039,-2.053 5.838,-8 14.186,-12.589 22.903,-12.589 19.864,0 33.955,14.675 45.277,26.466 4.3,4.479 8.306,8.651 12.31,11.692 -3.65,2.931 -7.249,6.86 -11.104,11.069 -10.995,12.005 -24.68,26.947 -46.483,26.947 -8.769,0 -17.116,-4.549 -22.903,-12.479 -0.941,-1.29 -2.442,-2.053 -4.039,-2.053 l -13.144,0 -0.058,-47 z M 125,135.171 c 0.002,-0.051 0.003,-0.102 0.003,-0.153 0.057,-15.449 12.67,-28.018 28.118,-28.018 15.507,0 28.122,12.615 28.122,28.122 0,1.08 -0.066,2.169 -0.204,3.332 -0.023,0.197 -0.059,0.396 -0.059,0.594 l 0.02,35.957 c 0,0.001 0,0.001 0,0.002 l 0.188,133.375 C 174.215,300.777 164.216,296 153.109,296 141.986,296 131.974,300.79 125,308.414 l 0,-173.243 z m 60.978,218.25 c 2.059,-3.492 3.58,-7.335 4.442,-11.421 l 122.254,0 c 2.736,0 4.964,-2.199 5,-4.936 C 317.816,326.001 326.935,317 338,317 c 1.326,0 2.598,-0.527 3.535,-1.464 C 342.473,314.598 343,313.327 343,312 l 0,-111.334 c 0,-2.762 -2.238,-5 -5,-5 -11.213,0 -20.334,-9.122 -20.332,-20.374 l 0.005,-0.204 c 0.023,-1.341 -0.492,-2.636 -1.433,-3.593 -0.939,-0.957 -2.225,-1.496 -3.566,-1.496 l -121.657,0 0.002,-19 166.981,0 0,210 -177.782,0 c 2.256,-2.269 4.18,-4.819 5.76,-7.578 z" />
    <path
       id="path19877"
       d="m 389,151 3,0 c 2.762,0 5,-2.239 5,-5 0,-2.761 -2.238,-5 -5,-5 l -3,0 c -2.762,0 -5,2.239 -5,5 0,2.761 2.238,5 5,5 z" />
    <path
       id="path19879"
       d="m 392,183 -3,0 c -2.762,0 -5,2.239 -5,5 0,2.761 2.238,5 5,5 l 3,0 c 2.762,0 5,-2.239 5,-5 0,-2.761 -2.238,-5 -5,-5 z" />
    <path
       id="path19881"
       d="m 392,227 -3,0 c -2.762,0 -5,2.239 -5,5 0,2.761 2.238,5 5,5 l 3,0 c 2.762,0 5,-2.239 5,-5 0,-2.761 -2.238,-5 -5,-5 z" />
    <path
       id="path19883"
       d="m 392,274 -3,0 c -2.762,0 -5,2.239 -5,5 0,2.761 2.238,5 5,5 l 3,0 c 2.762,0 5,-2.239 5,-5 0,-2.761 -2.238,-5 -5,-5 z" />
    <path
       id="path19885"
       d="m 392,319 -3,0 c -2.762,0 -5,2.239 -5,5 0,2.761 2.238,5 5,5 l 3,0 c 2.762,0 5,-2.239 5,-5 0,-2.761 -2.238,-5 -5,-5 z" />
    <path
       id="path19887"
       d="m 392,361 -3,0 c -2.762,0 -5,2.239 -5,5 0,2.761 2.238,5 5,5 l 3,0 c 2.762,0 5,-2.239 5,-5 0,-2.761 -2.238,-5 -5,-5 z" />
  </g>
</svg>
