<?xml version="1.0" encoding="UTF-8" standalone="no"?>
<svg
   xmlns:dc="http://purl.org/dc/elements/1.1/"
   xmlns:cc="http://creativecommons.org/ns#"
   xmlns:rdf="http://www.w3.org/1999/02/22-rdf-syntax-ns#"
   xmlns:svg="http://www.w3.org/2000/svg"
   xmlns="http://www.w3.org/2000/svg"
   width="100"
   height="100"
   viewBox="0 0 100 100"
   id="svg4157"
   version="1.1">
  <defs
     id="defs4159" />
  <metadata
     id="metadata4162">
    <rdf:RDF>
      <cc:Work
         rdf:about="">
        <dc:format>image/svg+xml</dc:format>
        <dc:type
           rdf:resource="http://purl.org/dc/dcmitype/StillImage" />
        <dc:title></dc:title>
      </cc:Work>
    </rdf:RDF>
  </metadata>
  <g
     id="layer1"
     transform="translate(0,2.2107222e-5)">
    <ellipse        style="opacity:1;fill:none;fill-opacity:1;fill-rule:nonzero;stroke:#000000;stroke-width:2.0;stroke-linecap:round;stroke-linejoin:bevel;stroke-miterlimit:4;stroke-dasharray:none;stroke-dashoffset:0;stroke-opacity:1"
       id="path4705"
       cx="50"
       cy="50"
       rx="49"
       ry="49" />
  </g>
  <path
     style="fill:#000000;fill-opacity:1"
     id="path7287"
     d="m 61.201091,30.24339 c -0.456587,-0.138178 -0.962437,0.01081 -1.271234,0.382091 -0.307596,0.371277 -0.364068,0.890344 -0.142984,1.319296 1.68817,3.269402 2.543669,6.781516 2.543669,10.437816 0,12.587379 -10.240763,22.829344 -22.829343,22.829344 -2.226462,0 -4.443311,-0.326821 -6.590471,-0.975655 -0.460192,-0.136976 -0.961236,0.01322 -1.270033,0.382092 -0.307595,0.371277 -0.365269,0.890344 -0.144185,1.319295 4.3568,8.445656 12.947842,13.691599 22.424423,13.691599 13.912683,0 25.232432,-11.31975 25.232432,-25.232433 0,-11.038588 -7.382288,-20.971756 -17.952274,-24.153445 z" />
  <path
     id="path7289"
     d="m 34.967772,43.584137 9.450146,0 -10.372932,12.446799 c -0.299185,0.359262 -0.362867,0.857902 -0.165814,1.278443 0.198255,0.422944 0.6224,0.69209 1.0886,0.69209 l 12.015444,0 c 0.663252,0 1.201544,-0.537091 1.201544,-1.201545 0,-0.664454 -0.538292,-1.201544 -1.201544,-1.201544 l -9.450147,0 10.372933,-12.446799 c 0.299184,-0.35806 0.362866,-0.856701 0.165813,-1.278443 -0.198255,-0.421742 -0.6224,-0.692089 -1.088599,-0.692089 l -12.015444,0 c -0.663253,0 -1.201545,0.538291 -1.201545,1.201544 0,0.663252 0.538292,1.201544 1.201545,1.201544 z" />
  <path
     id="path7291"
     d="m 33.766227,36.199445 c 0,-0.663252 -0.538292,-1.201544 -1.201544,-1.201544 l -4.806178,0 5.767413,-7.689884 C 33.799871,26.943949 33.843126,26.457323 33.640065,26.05 33.437004,25.642676 33.020068,25.385546 32.564683,25.385546 l -7.209266,0 c -0.663253,0 -1.201545,0.538292 -1.201545,1.201544 0,0.663253 0.538292,1.201545 1.201545,1.201545 l 4.806177,0 -5.767413,7.689884 c -0.273952,0.364068 -0.317208,0.850693 -0.114147,1.258017 0.203061,0.407323 0.619997,0.664454 1.075383,0.664454 l 7.209266,0 c 0.664454,0 1.201544,-0.538292 1.201544,-1.201545 z" />
  <path
     id="path7293"
     d="m 39.773949,22.982457 2.560491,0 -3.560176,5.340865 c -0.246316,0.368874 -0.269146,0.842283 -0.06008,1.232784 0.209069,0.390502 0.616392,0.634416 1.059762,0.634416 l 4.806178,0 c 0.663252,0 1.201544,-0.538292 1.201544,-1.201544 0,-0.663253 -0.538292,-1.201545 -1.201544,-1.201545 l -2.560491,0 3.560176,-5.340865 c 0.246316,-0.368874 0.269146,-0.842282 0.06008,-1.232784 -0.209069,-0.390502 -0.616392,-0.634416 -1.059762,-0.634416 l -4.806178,0 c -0.663252,0 -1.201544,0.538292 -1.201544,1.201545 0,0.663252 0.538292,1.201544 1.201544,1.201544 z" />
</svg>
