<?xml version="1.0" encoding="UTF-8" standalone="no"?>
<svg
   xmlns:dc="http://purl.org/dc/elements/1.1/"
   xmlns:cc="http://creativecommons.org/ns#"
   xmlns:rdf="http://www.w3.org/1999/02/22-rdf-syntax-ns#"
   xmlns:svg="http://www.w3.org/2000/svg"
   xmlns="http://www.w3.org/2000/svg"
   width="100"
   height="100"
   viewBox="0 0 100 100"
   id="svg4157"
   version="1.1">
  <defs
     id="defs4159" />
  <metadata
     id="metadata4162">
    <rdf:RDF>
      <cc:Work
         rdf:about="">
        <dc:format>image/svg+xml</dc:format>
        <dc:type
           rdf:resource="http://purl.org/dc/dcmitype/StillImage" />
        <dc:title></dc:title>
      </cc:Work>
    </rdf:RDF>
  </metadata>
  <g
     id="layer1"
     transform="translate(0,2.2107222e-5)">
    <ellipse        style="opacity:1;fill:none;fill-opacity:1;fill-rule:nonzero;stroke:#000000;stroke-width:2.0;stroke-linecap:round;stroke-linejoin:bevel;stroke-miterlimit:4;stroke-dasharray:none;stroke-dashoffset:0;stroke-opacity:1"
       id="path4705"
       cx="50"
       cy="50"
       rx="49"
       ry="49" />
  </g>
  <g
     id="g14850"
     transform="matrix(0.85103249,0,0,0.85103249,8.3372799,-1.4073559)">
    <g
       id="g14852">
      <path
         id="path14854"
         d="m 79.8,62.4 -63.6,0 c -0.8,0 -1.5,0.7 -1.5,1.5 l 0,9.4 c 0,0.8 0.7,1.5 1.5,1.5 l 63.6,0 c 0.8,0 1.5,-0.7 1.5,-1.5 l 0,-9.4 c 0,-0.8 -0.6,-1.5 -1.5,-1.5 z m -62.1,3 53.7,0 0,6.4 -53.7,0 0,-6.4 z m 60.6,6.4 -3.9,0 0,-6.4 3.9,0 0,6.4 z" />
      <path
         id="path14856"
         d="M 78.8,45.8 C 78.7,43 77.1,40.4 74.7,39 74.9,38.1 75,37.3 75,36.4 75,30.2 69.9,25.1 63.7,25.1 c -6.2,0 -11.3,5.1 -11.3,11.3 0,5.7 4.1,10.4 9.7,11.2 0.6,3.7 3.6,6.6 7.4,7 0.5,3.9 3.8,6.9 7.8,6.9 4.4,0 7.9,-3.5 7.9,-7.9 0.1,-3.8 -2.7,-7.1 -6.4,-7.8 z m -1.4,12.7 c -2.7,0 -4.9,-2.2 -4.9,-4.9 0,-0.6 -0.4,-1.1 -0.9,-1.4 -0.3,-0.3 -0.7,-0.5 -1.1,-0.5 -3,0 -5.4,-2.4 -5.4,-5.4 0,0 0,-0.1 0,-0.1 0,-0.8 -0.6,-1.5 -1.5,-1.5 -4.5,-0.1 -8.1,-3.8 -8.1,-8.3 0,-4.6 3.7,-8.3 8.3,-8.3 4.6,0 8.3,3.7 8.3,8.3 0,0.9 -0.2,1.9 -0.5,2.8 -0.3,0.8 0.1,1.6 0.9,1.9 2.1,0.8 3.5,2.8 3.5,5 0,0.2 0,0.3 0.1,0.5 0,0.1 -0.1,0.3 -0.1,0.5 0,0.8 0.7,1.5 1.5,1.5 2.7,0 4.9,2.2 4.9,4.9 -0.1,2.8 -2.3,5 -5,5 z" />
    </g>
  </g>
</svg>
