<?xml version="1.0" encoding="UTF-8" standalone="no"?>
<svg
   xmlns:dc="http://purl.org/dc/elements/1.1/"
   xmlns:cc="http://creativecommons.org/ns#"
   xmlns:rdf="http://www.w3.org/1999/02/22-rdf-syntax-ns#"
   xmlns:svg="http://www.w3.org/2000/svg"
   xmlns="http://www.w3.org/2000/svg"
   width="100"
   height="100"
   viewBox="0 0 100 100"
   id="svg4157"
   version="1.1">
  <defs
     id="defs4159" />
  <metadata
     id="metadata4162">
    <rdf:RDF>
      <cc:Work
         rdf:about="">
        <dc:format>image/svg+xml</dc:format>
        <dc:type
           rdf:resource="http://purl.org/dc/dcmitype/StillImage" />
        <dc:title></dc:title>
      </cc:Work>
    </rdf:RDF>
  </metadata>
  <g
     id="layer1"
     transform="translate(0,2.2107222e-5)">
    <ellipse        style="opacity:1;fill:none;fill-opacity:1;fill-rule:nonzero;stroke:#000000;stroke-width:2.0;stroke-linecap:round;stroke-linejoin:bevel;stroke-miterlimit:4;stroke-dasharray:none;stroke-dashoffset:0;stroke-opacity:1"
       id="path4705"
       cx="50"
       cy="50"
       rx="49"
       ry="49" />
  </g>
  <g
     transform="matrix(0.74975617,0,0,0.74975617,117.03329,51.588489)"
     id="g19755">
    <path
       d="m -69.032235,-9.7686441 c -6.3,1.5 -12.9,5.4 -18.1,10.60000003 -4.9,4.89999997 -8.6,11.80000007 -10,18.80000007 -1.3,6.7 -0.4,12.4 2.4,15.2 2,2 5.3,3 9.4,3 1.8,0 3.8,-0.2 5.8,-0.6 7,-1.4 13.8,-5 18.8,-10 5.2,-5.2 9.1,-11.8 10.6,-18.1000001 1.6,-6.7 0.6,-12.3 -3,-15.9 -3.6,-3.5999999 -9.2,-4.5999999 -15.9,-3 z m 17.5,11.4 -10,-10 c 2.9,0.3 5.3,1.3 7,3.1 1.7,1.7 2.7,4.1 3,6.9 z m -16.7,-9.5 c 1.3,-0.3 2.6,-0.5 3.8,-0.6 l 13,13 c -0.1,1.2 -0.3,2.5 -0.6,3.8 l -16.2,-16.2 z m -27.5,33.7000001 10,10 c -3.3,-0.1 -6,-0.9 -7.5,-2.4 -1.6,-1.5 -2.4,-4.2 -2.5,-7.6 z m 15.8,9.4 c -1.1,0.2 -2.1,0.4 -3.1,0.5 l -12.6,-12.6 c 0.1,-1 0.2,-2.1 0.5,-3.1 0,-0.2 0.1,-0.4 0.2,-0.6 l 15.8,15.8 c -0.3,-0.1 -0.6,0 -0.8,0 z m 17.8,-9.4 c -4,4 -9.3,7.1 -14.9,8.7 l -17.4,-17.4 c 1.6,-5.6 4.7,-10.9000001 8.7,-14.9000001 4.4,-4.4 9.9,-7.8 15.2,-9.5 l 17.8,17.8000001 c -1.6,5.4 -5,10.9 -9.4,15.3 z"
       id="path19168" />
    <path
       d="m -63.632235,3.7313559 c -0.4,-0.4 -1,-0.4 -1.4,0 l -2.4,2.4 -2.2,-2.2 c -0.4,-0.4 -1,-0.4 -1.4,0 -0.4,0.4 -0.4,1 0,1.4 l 2.2,2.2 -1.8,1.8 -2.2,-2.2 c -0.4,-0.4 -1,-0.4 -1.4,0 -0.4,0.4 -0.4,1 0,1.4 l 2.2,2.2000001 -1.8,1.8 -2.2,-2.2 c -0.4,-0.4000001 -1,-0.4000001 -1.4,0 -0.4,0.4 -0.4,1 0,1.4 l 2.2,2.2 -1.8,1.8 -2.2,-2.2 c -0.4,-0.4 -1,-0.4 -1.4,0 -0.4,0.4 -0.4,1 0,1.4 l 2.2,2.2 -1.8,1.8 -2.2,-2.2 c -0.4,-0.4 -1,-0.4 -1.4,0 -0.4,0.4 -0.4,1 0,1.4 l 2.2,2.2 -2.4,2.4 c -0.4,0.4 -0.4,1 0,1.4 0.2,0.2 0.5,0.3 0.7,0.3 0.2,0 0.5,-0.1 0.7,-0.3 l 2.4,-2.4 2.2,2.2 c 0.2,0.2 0.5,0.3 0.7,0.3 0.2,0 0.5,-0.1 0.7,-0.3 0.4,-0.4 0.4,-1 0,-1.4 l -2.2,-2.2 1.8,-1.8 2.2,2.2 c 0.2,0.2 0.5,0.3 0.7,0.3 0.2,0 0.5,-0.1 0.7,-0.3 0.4,-0.4 0.4,-1 0,-1.4 l -2.2,-2.2 1.8,-1.8 2.2,2.2 c 0.2,0.2 0.5,0.3 0.7,0.3 0.2,0 0.5,-0.1 0.7,-0.3 0.4,-0.4 0.4,-1 0,-1.4 l -2.3,-2.1 1.8,-1.8 2.2,2.2 c 0.2,0.2 0.5,0.3 0.7,0.3 0.2,0 0.5,-0.1 0.7,-0.3 0.4,-0.4 0.4,-1 0,-1.4 l -2.2,-2.2 1.8,-1.8000001 2.2,2.2000001 c 0.2,0.2 0.5,0.3 0.7,0.3 0.2,0 0.5,-0.1 0.7,-0.3 0.4,-0.4 0.4,-1 0,-1.4000001 l -2.2,-2.2 2.4,-2.4 c 0.5,-0.4 0.5,-1.1 0.1,-1.5 z"
       id="path19170" />
    <path
       d="m -65.932235,-39.668644 c -7.1,0 -12.8,5.8 -12.8,12.8 0,7 5.7,12.9 12.8,12.9 7.1,0 12.8,-5.8 12.8,-12.8 0,-7 -5.7,-12.9 -12.8,-12.9 z m 6.7,4.3 c -1.9,1.6 -4.3,2.4 -6.7,2.4 -2.5,0 -4.8,-0.9 -6.7,-2.4 1.9,-1.5 4.2,-2.4 6.7,-2.4 2.5,0.1 4.9,1 6.7,2.4 z m -13.3,17.1 c 1.9,-1.5 4.2,-2.3 6.6,-2.3 2.4,0 4.7,0.8 6.6,2.3 -1.8,1.4 -4.1,2.2 -6.6,2.2 -2.5,0.1 -4.7,-0.8 -6.6,-2.2 z m 14.6,-1.3 c -2.3,-1.9 -5.1,-2.9 -8,-2.9 -3,0 -5.8,1 -8,2.9 -1.7,-1.9 -2.8,-4.5 -2.8,-7.2 0,-2.7 1,-5.2 2.7,-7.1 2.3,1.9 5.2,3 8.2,3 3,0 5.9,-1.1 8.2,-3 1.7,1.9 2.7,4.4 2.7,7.1 -0.2,2.7 -1.2,5.2 -3,7.2 z"
       id="path19172" />
    <path
       d="m -123.03224,11.431356 c -2.4,2.4 -3.8,5.6 -3.8,9.1 0,3.4 1.3,6.7 3.8,9.1 2.5,2.5 5.80001,3.8 9.10001,3.8 3.3,0 6.6,-1.3 9.1,-3.8 2.4,-2.4 3.8,-5.6 3.8,-9.1 0,-3.4 -1.3,-6.7 -3.8,-9.1 -2.4,-2.4000001 -5.6,-3.8000001 -9.1,-3.8000001 -3.5,0.1 -6.70001,1.4 -9.10001,3.8000001 z m -1.7,10.5 c 2.4,0.3 4.6,1.3 6.30001,3 1.7,1.7 2.7,3.9 3,6.3 -2.3,-0.3 -4.50001,-1.3 -6.20001,-3.1 -1.7,-1.6 -2.8,-3.8 -3.1,-6.2 z m 18.40001,6.3 c -2,2 -4.5,3 -7.1,3.1 -0.3,-2.9 -1.5,-5.7 -3.6,-7.8 -2.1,-2.1 -4.80001,-3.4 -7.80001,-3.6 0.1,-2.7 1.2,-5.2 3.1,-7.1 1.9,-1.9 4.30001,-3.0000001 6.90001,-3.1000001 0.2,3.0000001 1.5,5.8000001 3.6,7.9000001 2.1,2.1 4.9,3.4 7.9,3.6 0,2.7 -1.1,5.1 -3,7 z m 3.1,-9 c -2.4,-0.2 -4.7,-1.3 -6.5,-3 -1.7,-1.7 -2.8,-4 -3,-6.5000001 2.4,0.3000001 4.7,1.3000001 6.4,3.1000001 1.8,1.8 2.8,4 3.1,6.4 z"
       id="path19174" />
    <path
       d="m -89.032235,-35.168644 c -9.2,-9.2 -24.199995,-9.2 -33.400005,0 -9.3,9.2 -9.3,24.2 -0.1,33.4999999 4.60001,4.6 10.70001,6.9 16.70001,6.9 6.099995,0 12.099995,-2.3 16.699995,-6.9 9.3,-9.2999999 9.3,-24.2999999 0.1,-33.4999999 z m -38.300005,18.3 c 5.6,-0.5 10.90001,-2.8 15.10001,-6.6 l 5.1,5.1 -14.60001,14.4999999 c -3.4,-3.7 -5.3,-8.2999999 -5.6,-12.9999999 z m 43.100005,-3.1 c -5.6,0.5 -10.9,2.8 -15.1,6.6 l -5.099995,-5.1 14.599995,-14.5 c 3.4,3.7 5.3,8.3 5.6,13 z m -21.499995,0.1 -5.1,-5.1 c 3.8,-4.1 6.2,-9.4 6.6,-15.1 4.699995,0.3 9.299995,2.2 12.999995,5.6 l -14.499995,14.6 z m -6.5,-6.5 -8.10001,-8.1 c 4.00001,-3.6 9.00001,-5.5 14.10001,-5.6 -0.5,5.1 -2.6,9.9 -6,13.7 z m 6.5,9.4 5.1,5.1 c -3.8,4.0999999 -6.2,9.3999999 -6.6,15.0999999 -4.7,-0.3 -9.3,-2.2 -13.00001,-5.6 l 14.50001,-14.5999999 z m 6.499995,6.5 8.1,8.0999999 c -4,3.6 -8.999995,5.5 -14.099995,5.6 0.4,-5.2 2.5,-10 5.999995,-13.6999999 z m 1.4,-1.5 c 3.8,-3.5 8.6,-5.6 13.7,-6 -0.1,5.1 -2,10.0999999 -5.6,14.0999999 l -8.1,-8.0999999 z m -23.900005,-21 8.10001,8.1 c -3.8,3.5 -8.60001,5.6 -13.70001,6 0.1,-5.1 2,-10.1 5.6,-14.1 z"
       id="path19176" />
  </g>
</svg>
