<?xml version="1.0" encoding="UTF-8" standalone="no"?>
<svg
   xmlns:dc="http://purl.org/dc/elements/1.1/"
   xmlns:cc="http://creativecommons.org/ns#"
   xmlns:rdf="http://www.w3.org/1999/02/22-rdf-syntax-ns#"
   xmlns:svg="http://www.w3.org/2000/svg"
   xmlns="http://www.w3.org/2000/svg"
   width="100"
   height="100"
   viewBox="0 0 100 100"
   id="svg4157"
   version="1.1">
  <defs
     id="defs4159" />
  <metadata
     id="metadata4162">
    <rdf:RDF>
      <cc:Work
         rdf:about="">
        <dc:format>image/svg+xml</dc:format>
        <dc:type
           rdf:resource="http://purl.org/dc/dcmitype/StillImage" />
        <dc:title></dc:title>
      </cc:Work>
    </rdf:RDF>
  </metadata>
  <g
     id="layer1"
     transform="translate(0,2.2107222e-5)">
    <ellipse        style="opacity:1;fill:none;fill-opacity:1;fill-rule:nonzero;stroke:#000000;stroke-width:2.0;stroke-linecap:round;stroke-linejoin:bevel;stroke-miterlimit:4;stroke-dasharray:none;stroke-dashoffset:0;stroke-opacity:1"
       id="path4705"
       cx="50"
       cy="50"
       rx="49"
       ry="49" />
  </g>
  <path
     id="path12200"
     d="m 49.96609,17.500292 a 2.2160761,2.2160785 0 0 0 -2.181225,2.247595 l 0,10.308926 a 2.2160761,2.2160785 0 1 0 4.431709,0 l 0,-10.308926 A 2.2160761,2.2160785 0 0 0 49.96609,17.500292 Z m -21.380965,8.870644 a 2.2160761,2.2160785 0 0 0 -1.543607,3.804189 l 7.298187,7.298165 a 2.216133,2.2161354 0 1 0 3.134802,-3.133372 l -7.29819,-7.298165 a 2.2160761,2.2160785 0 0 0 -1.591192,-0.670817 z m 42.763392,0 a 2.2160761,2.2160785 0 0 0 -1.523406,0.670817 l -7.29962,7.299644 a 2.2160761,2.2160785 0 1 0 3.133362,3.133345 l 7.299622,-7.299617 a 2.2160761,2.2160785 0 0 0 -1.609958,-3.804189 z m -21.347799,8.856211 c -8.132299,0 -14.772357,6.640022 -14.772357,14.772374 0,8.132351 6.640058,14.772373 14.772357,14.772373 8.132307,0 14.772368,-6.640022 14.772368,-14.772373 0,-8.132352 -6.640062,-14.772374 -14.772369,-14.772374 z m 0,4.431706 c 5.737232,0 10.340659,4.603424 10.340659,10.340668 0,5.737215 -4.603427,10.340667 -10.340659,10.340667 -5.737232,0 -10.340651,-4.603452 -10.340651,-10.340667 0,-5.737244 4.603419,-10.340668 10.340651,-10.340668 z m -30.253049,8.124814 a 2.2160761,2.2160785 0 1 0 0,4.431707 l 10.310364,0 a 2.2160761,2.2160785 0 1 0 0,-4.431707 z m 50.195742,0 a 2.2160761,2.2160785 0 1 0 0,4.431707 l 10.30892,0 a 2.2160761,2.2160785 0 1 0 0,-4.431707 z M 35.864549,61.854934 a 2.2160761,2.2160785 0 0 0 -1.523398,0.670817 l -7.299633,7.299617 a 2.2161323,2.2161346 0 1 0 3.134799,3.133372 l 7.29819,-7.299616 a 2.2160761,2.2160785 0 0 0 -1.609958,-3.80419 z m 28.205982,0 a 2.2160761,2.2160785 0 0 0 -1.543599,3.805585 l 7.298179,7.298221 a 2.2160761,2.2160785 0 1 0 3.133364,-3.133372 L 65.660293,62.527147 A 2.2160761,2.2160785 0 0 0 64.070531,61.854934 Z M 49.96609,67.696085 a 2.2160761,2.2160785 0 0 0 -2.181225,2.247623 l 0,10.308897 a 2.2160761,2.2160785 0 1 0 4.431709,0 l 0,-10.308897 A 2.2160761,2.2160785 0 0 0 49.96609,67.696085 Z"
     style="fill-rule:evenodd" />
</svg>
