<?xml version="1.0" encoding="UTF-8" standalone="no"?>
<svg
   xmlns:dc="http://purl.org/dc/elements/1.1/"
   xmlns:cc="http://creativecommons.org/ns#"
   xmlns:rdf="http://www.w3.org/1999/02/22-rdf-syntax-ns#"
   xmlns:svg="http://www.w3.org/2000/svg"
   xmlns="http://www.w3.org/2000/svg"
   width="100"
   height="100"
   viewBox="0 0 100 100"
   id="svg4157"
   version="1.1">
  <defs
     id="defs4159" />
  <metadata
     id="metadata4162">
    <rdf:RDF>
      <cc:Work
         rdf:about="">
        <dc:format>image/svg+xml</dc:format>
        <dc:type
           rdf:resource="http://purl.org/dc/dcmitype/StillImage" />
        <dc:title></dc:title>
      </cc:Work>
    </rdf:RDF>
  </metadata>
  <g
     id="layer1"
     transform="translate(0,2.2107222e-5)">
    <ellipse        style="opacity:1;fill:none;fill-opacity:1;fill-rule:nonzero;stroke:#000000;stroke-width:2.0;stroke-linecap:round;stroke-linejoin:bevel;stroke-miterlimit:4;stroke-dasharray:none;stroke-dashoffset:0;stroke-opacity:1"
       id="path4705"
       cx="50"
       cy="50"
       rx="49"
       ry="49" />
  </g>
  <path
     id="path10888"
     d="m 57.358548,53.063376 0,-28.412667 c 0,-3.942627 -3.206834,-7.150687 -7.150687,-7.150687 l -0.415723,0 c -3.942627,0 -7.150687,3.20806 -7.150687,7.150687 l 0,28.412667 c 0,0.678156 0.549392,1.226322 1.226323,1.226322 l 0,3.682647 c -0.676931,0 -1.226323,0.548166 -1.226323,1.226322 0,0.678157 0.549392,1.226323 1.226323,1.226323 l 1.226322,0 3.678968,0 0,1.976832 c 0,1.361218 0.45006,2.711399 1.266791,3.800373 1.151517,1.535356 0.995774,3.715758 -0.361765,5.074523 l -0.179043,0.179043 c -2.058996,2.057769 -2.451419,5.23885 -0.952853,7.736869 l 1.62733,2.712626 c 0.23055,0.382612 0.636461,0.594766 1.052185,0.594766 0.214607,0 0.432893,-0.05641 0.630331,-0.175364 0.581276,-0.348276 0.768903,-1.101238 0.420628,-1.682515 l -1.62733,-2.712625 c -0.917289,-1.529224 -0.678157,-3.479077 0.586182,-4.740963 l 0.179043,-0.179043 c 2.214739,-2.213512 2.46736,-5.7723 0.587409,-8.277677 -0.50034,-0.668346 -0.776263,-1.494887 -0.776263,-2.328787 l 0,-1.976832 3.678967,0 1.226324,0 c 0.678156,0 1.226323,-0.548166 1.226323,-1.226322 0,-0.678157 -0.548167,-1.226323 -1.226323,-1.226323 l 0,-3.682646 c 0.679383,-0.0012 1.227549,-0.549393 1.227549,-1.227549 z M 45.095322,24.650709 c 0,-2.239265 1.578278,-4.11186 3.678968,-4.579089 l 0,4.41844 c 0,0.676931 0.549393,1.226323 1.226323,1.226323 0.67693,0 1.226322,-0.549392 1.226322,-1.226323 l 0,-4.41844 c 2.100691,0.467229 3.678968,2.339824 3.678968,4.579089 l 0,27.186344 -9.810581,0 0,-27.186344 z m 8.584258,33.321636 -7.357935,0 0,-3.682647 7.357935,0 0,3.682647 z" />
</svg>
