<?xml version="1.0" encoding="UTF-8" standalone="no"?>
<svg
   xmlns:dc="http://purl.org/dc/elements/1.1/"
   xmlns:cc="http://creativecommons.org/ns#"
   xmlns:rdf="http://www.w3.org/1999/02/22-rdf-syntax-ns#"
   xmlns:svg="http://www.w3.org/2000/svg"
   xmlns="http://www.w3.org/2000/svg"
   width="100"
   height="100"
   viewBox="0 0 100 100"
   id="svg4157"
   version="1.1">
  <defs
     id="defs4159" />
  <metadata
     id="metadata4162">
    <rdf:RDF>
      <cc:Work
         rdf:about="">
        <dc:format>image/svg+xml</dc:format>
        <dc:type
           rdf:resource="http://purl.org/dc/dcmitype/StillImage" />
        <dc:title></dc:title>
      </cc:Work>
    </rdf:RDF>
  </metadata>
  <g
     id="layer1"
     transform="translate(0,2.2107222e-5)">
    <ellipse        style="opacity:1;fill:none;fill-opacity:1;fill-rule:nonzero;stroke:#000000;stroke-width:2.0;stroke-linecap:round;stroke-linejoin:bevel;stroke-miterlimit:4;stroke-dasharray:none;stroke-dashoffset:0;stroke-opacity:1"
       id="path4705"
       cx="50"
       cy="50"
       rx="49"
       ry="49" />
  </g>
  <g
     id="g10221"
     transform="matrix(0.69678194,0,0,0.69678194,14.816693,14.52755)">
    <g
       id="g10223">
      <path
         id="path10225"
         d="m 79.071,10.847 c -6.51,0 -12.519,3.552 -15.706,9.167 -4.146,-1.471 -8.466,-2.216 -12.867,-2.216 -0.002,0 -0.004,0 -0.008,0 -4.4,0 -8.722,0.745 -12.868,2.216 -3.187,-5.616 -9.195,-9.167 -15.706,-9.167 -9.961,0 -18.065,8.104 -18.065,18.065 0,6.621 3.635,12.679 9.38,15.832 -1.06,3.078 -1.734,6.265 -2.01,9.484 -0.859,8.934 1.989,17.512 8.023,24.154 7.268,8.001 18.658,12.589 31.25,12.589 10e-4,0 10e-4,0 0.002,0 12.59,0 23.978,-4.588 31.245,-12.587 6.035,-6.643 8.886,-15.221 8.027,-24.139 -0.276,-3.234 -0.951,-6.423 -2.011,-9.501 5.744,-3.153 9.38,-9.21 9.38,-15.832 0.001,-9.961 -8.104,-18.065 -18.066,-18.065 z m 5.974,31.576 -1.433,0.634 0.565,1.461 c 1.245,3.219 2.024,6.585 2.318,10.024 0.77,8.001 -1.783,15.683 -7.187,21.631 -6.646,7.316 -17.149,11.512 -28.815,11.511 -11.668,0 -22.171,-4.196 -28.817,-11.512 -5.403,-5.948 -7.955,-13.63 -7.184,-21.647 0.293,-3.421 1.072,-6.788 2.317,-10.007 l 0.565,-1.461 -1.433,-0.634 c -5.35,-2.369 -8.806,-7.672 -8.806,-13.511 0,-8.149 6.629,-14.779 14.778,-14.779 5.745,0 11.014,3.384 13.421,8.622 l 0.652,1.417 1.449,-0.578 c 4.181,-1.666 8.572,-2.51 13.053,-2.51 0.003,0 0.003,0 0.007,0 4.479,0 8.871,0.845 13.051,2.51 l 1.449,0.578 0.652,-1.417 c 2.408,-5.237 7.677,-8.622 13.421,-8.622 8.149,0 14.779,6.63 14.779,14.779 0.004,5.838 -3.452,11.142 -8.802,13.511 z" />
      <path
         id="path10227"
         d="m 21.916,22.233 c -3.683,0 -6.68,2.996 -6.68,6.68 0,3.683 2.996,6.68 6.68,6.68 3.683,0 6.68,-2.996 6.68,-6.68 0,-3.684 -2.997,-6.68 -6.68,-6.68 z" />
      <path
         id="path10229"
         d="m 79.072,22.233 c -3.683,0 -6.68,2.996 -6.68,6.68 0,3.683 2.996,6.68 6.68,6.68 3.683,0 6.68,-2.996 6.68,-6.68 -10e-4,-3.684 -2.997,-6.68 -6.68,-6.68 z" />
      <path
         id="path10231"
         d="m 50.494,47.307 c -10.115,0 -18.345,8.229 -18.345,18.344 0,10.115 8.229,18.344 18.345,18.344 10.116,0 18.345,-8.229 18.345,-18.344 0,-10.115 -8.23,-18.344 -18.345,-18.344 z m 0,33.402 c -8.303,0 -15.058,-6.755 -15.058,-15.058 0,-8.303 6.755,-15.058 15.058,-15.058 8.303,0 15.058,6.755 15.058,15.058 0,8.303 -6.755,15.058 -15.058,15.058 z" />
      <circle
         id="circle10233"
         r="6.7529998"
         cy="61.370998"
         cx="50.493999" />
    </g>
  </g>
</svg>
