<?xml version="1.0" encoding="UTF-8" standalone="no"?>
<svg
   xmlns:dc="http://purl.org/dc/elements/1.1/"
   xmlns:cc="http://creativecommons.org/ns#"
   xmlns:rdf="http://www.w3.org/1999/02/22-rdf-syntax-ns#"
   xmlns:svg="http://www.w3.org/2000/svg"
   xmlns="http://www.w3.org/2000/svg"
   version="1.1"
   id="svg4157"
   viewBox="0 0 100 100"
   height="100"
   width="100">
  <defs
     id="defs4159" />
  <metadata
     id="metadata4162">
    <rdf:RDF>
      <cc:Work
         rdf:about="">
        <dc:format>image/svg+xml</dc:format>
        <dc:type
           rdf:resource="http://purl.org/dc/dcmitype/StillImage" />
        <dc:title></dc:title>
      </cc:Work>
    </rdf:RDF>
  </metadata>
  <g
     style="fill:#000000;fill-opacity:1"
     transform="translate(0,2.2107222e-5)"
     id="layer1">
    <ellipse
       ry="49"
       rx="49"
       cy="50"
       cx="50"
       id="path4705"
       style="opacity:1;fill:#000000;fill-opacity:1;fill-rule:nonzero;stroke:#000000;stroke-width:2;stroke-linecap:round;stroke-linejoin:bevel;stroke-miterlimit:4;stroke-dasharray:none;stroke-dashoffset:0;stroke-opacity:1" />
  </g>
  <g
     style="fill:#ffffff;fill-opacity:1"
     id="g6384"
     transform="translate(0.40568997,0)">
    <path
       style="fill:#ffffff;fill-opacity:1"
       id="path4699"
       d="m 49.385547,38.072586 c 8.880229,0.179123 16.224673,3.541809 22.756425,8.921061 0.819266,0.674388 1.400126,1.589804 1.788688,2.588206 0.493931,1.2671 0.575595,2.542097 -0.37802,3.640603 -0.977331,1.123532 -2.285264,1.310564 -3.665629,1.001035 -1.483113,-0.331924 -2.625084,-1.248662 -3.735441,-2.239154 -8.855216,-7.926614 -21.988532,-8.474551 -31.34822,-1.317152 -0.839015,0.641453 -1.608243,1.37379 -2.403793,2.07056 -1.221003,1.068215 -2.593471,1.734695 -4.262308,1.601656 -2.173296,-0.172549 -3.435131,-2.007335 -2.838465,-4.093701 a 5.9508911,5.9508911 0 0 1 1.746546,-2.76602 c 6.394771,-5.874505 13.823512,-9.281965 22.340217,-9.407094 z" />
    <path
       style="fill:#ffffff;fill-opacity:1"
       id="path4701"
       d="m 51.042519,53.690051 a 17.162485,17.162485 0 0 1 12.137547,5.344994 c 1.118267,1.168319 1.890114,2.48547 1.448868,4.214887 -0.558466,2.203599 -3.208576,3.236247 -5.053903,1.526578 -5.742789,-5.32129 -13.731305,-5.3608 -19.820501,-0.304265 -1.699127,1.410668 -2.789723,1.526578 -4.147707,0.438614 -1.357984,-1.087964 -1.687275,-2.929349 -0.783712,-4.610024 0.487343,-0.906209 1.199932,-1.620095 1.990218,-2.265503 3.487815,-2.839775 7.985884,-4.354501 14.22919,-4.345281 z" />
    <path
       style="fill:#ffffff;fill-opacity:1"
       id="path4703"
       d="m 55.244233,73.361706 a 5.5610141,5.5610141 0 0 1 -5.615014,5.555743 c -3.200679,-0.01579 -5.674298,-2.522348 -5.621614,-5.700634 0.05406,-3.302092 2.557916,-5.795459 5.766492,-5.729601 3.092678,0.05791 5.496472,2.636936 5.470136,5.874492 z" />
    <path
       style="fill:#ffffff;fill-opacity:1"
       id="path4699-7"
       d="m 49.185199,23.978938 c 10.84293,0.177133 19.810627,3.502184 27.786021,8.821227 1.000341,0.666839 1.709579,1.572008 2.184017,2.559239 0.603099,1.252924 0.702818,2.513655 -0.461572,3.59986 -1.193332,1.110961 -2.79034,1.295901 -4.475804,0.989838 C 72.406959,39.62089 71.012585,38.714411 69.656822,37.735 58.844453,29.897088 42.808431,29.355288 31.380083,36.432589 c -1.024455,0.634275 -1.96369,1.35842 -2.935089,2.047396 -1.490856,1.056248 -3.166665,1.715267 -5.20434,1.58373 -2.653641,-0.170622 -4.194357,-1.984876 -3.46582,-4.047899 A 7.2661464,5.8842919 0 0 1 21.9074,33.280755 c 7.808135,-5.80875 16.878748,-9.178087 27.277799,-9.301817 z" />
  </g>
</svg>
