<?xml version="1.0" encoding="UTF-8" standalone="no"?>
<svg
   xmlns:dc="http://purl.org/dc/elements/1.1/"
   xmlns:cc="http://creativecommons.org/ns#"
   xmlns:rdf="http://www.w3.org/1999/02/22-rdf-syntax-ns#"
   xmlns:svg="http://www.w3.org/2000/svg"
   xmlns="http://www.w3.org/2000/svg"
   width="100"
   height="100"
   viewBox="0 0 100 100"
   id="svg4157"
   version="1.1">
  <defs
     id="defs4159" />
  <metadata
     id="metadata4162">
    <rdf:RDF>
      <cc:Work
         rdf:about="">
        <dc:format>image/svg+xml</dc:format>
        <dc:type
           rdf:resource="http://purl.org/dc/dcmitype/StillImage" />
        <dc:title></dc:title>
      </cc:Work>
    </rdf:RDF>
  </metadata>
  <g
     id="layer1"
     transform="translate(0,2.2107222e-5)">
    <ellipse        style="opacity:1;fill:none;fill-opacity:1;fill-rule:nonzero;stroke:#000000;stroke-width:2.0;stroke-linecap:round;stroke-linejoin:bevel;stroke-miterlimit:4;stroke-dasharray:none;stroke-dashoffset:0;stroke-opacity:1"
       id="path4705"
       cx="50"
       cy="50"
       rx="49"
       ry="49" />
  </g>
  <path
     id="path4866"
     d="m 64.158131,55.332521 c 8.904108,-9.026634 8.562677,-15.040903 8.221992,-16.736106 l 1.72434,-1.725086 c 0.946593,-0.946594 0.946593,-2.48565 0,-3.432244 l -9.593694,-9.594441 c -0.945847,-0.947342 -2.486397,-0.947342 -3.432244,0 l -1.725834,1.725834 C 57.656742,25.23054 51.643967,24.887615 42.617332,33.791723 L 31.255218,22.430356 c -0.747114,-0.747114 -1.740029,-1.159522 -2.797195,-1.159522 -1.05642,0 -2.050083,0.412408 -2.797197,1.159522 l -7.467406,7.467407 c -0.747114,0.747115 -1.159522,1.740777 -1.159522,2.797196 0,1.057168 0.412408,2.050083 1.159522,2.797197 L 62.815566,80.11505 c 0.771023,0.771021 1.78411,1.156532 2.797196,1.156532 1.01234,0 2.026174,-0.385511 2.797196,-1.156532 l 7.467408,-7.468155 c 1.542043,-1.542044 1.542043,-4.052348 0,-5.594391 L 64.158131,55.332521 Z M 49.74779,64.934434 60.69675,53.984728 64.35761,57.645587 53.408651,68.595294 49.74779,64.934434 Z M 34.023276,49.209173 44.972983,38.260214 59.641078,52.928308 48.691372,63.878014 34.023276,49.209173 Z m -4.717279,-4.716531 10.948959,-10.949708 3.660861,3.660861 -10.94896,10.948959 -3.66086,-3.660112 z M 62.134945,24.90181 c 0.363097,-0.363097 0.955559,-0.363097 1.319404,0 l 9.594441,9.594443 c 0.363098,0.363843 0.363098,0.955559 0,1.319403 L 71.552321,37.312874 60.638476,26.39828 62.134945,24.90181 Z m -2.942136,2.164391 11.696074,11.695327 c 0.227123,0.912226 1.1132,6.491676 -7.786425,15.515322 L 43.673752,34.848143 c 8.936233,-8.809971 14.590394,-7.997858 15.519057,-7.781942 z m -40.664683,5.628758 c 0,-0.657459 0.257008,-1.275324 0.721712,-1.740776 l 7.467408,-7.467407 c 0.930904,-0.930157 2.55289,-0.929411 3.481552,0 l 8.99974,8.999738 -10.94896,10.949708 -8.99974,-9.000486 c -0.464704,-0.464705 -0.721712,-1.082568 -0.721712,-1.740777 z m 56.29282,38.895516 -7.467407,7.468155 c -0.960042,0.958548 -2.521511,0.958548 -3.481553,0 l -9.406916,-9.406917 10.949707,-10.948959 9.406169,9.406168 c 0.960042,0.960042 0.960042,2.521511 0,3.481553 z" />
</svg>
