<?xml version="1.0" encoding="UTF-8" standalone="no"?>
<svg
   xmlns:dc="http://purl.org/dc/elements/1.1/"
   xmlns:cc="http://creativecommons.org/ns#"
   xmlns:rdf="http://www.w3.org/1999/02/22-rdf-syntax-ns#"
   xmlns:svg="http://www.w3.org/2000/svg"
   xmlns="http://www.w3.org/2000/svg"
   xmlns:sodipodi="http://sodipodi.sourceforge.net/DTD/sodipodi-0.dtd"
   xmlns:inkscape="http://www.inkscape.org/namespaces/inkscape"
   version="1.1"
   x="0px"
   y="0px"
   viewBox="0 0 16 20"
   style="enable-background:new 0 0 16 16;"
   xml:space="preserve"
   id="svg8"
   sodipodi:docname="code_branch.svg"
   inkscape:version="0.92.5 (0.92.5+68)"><metadata
     id="metadata14"><rdf:RDF><cc:Work
         rdf:about=""><dc:format>image/svg+xml</dc:format><dc:type
           rdf:resource="http://purl.org/dc/dcmitype/StillImage" /><dc:title></dc:title></cc:Work></rdf:RDF></metadata><defs
     id="defs12" /><sodipodi:namedview
     pagecolor="#ffffff"
     bordercolor="#666666"
     borderopacity="1"
     objecttolerance="10"
     gridtolerance="10"
     guidetolerance="10"
     inkscape:pageopacity="0"
     inkscape:pageshadow="2"
     inkscape:window-width="1415"
     inkscape:window-height="842"
     id="namedview10"
     showgrid="false"
     inkscape:zoom="4.17193"
     inkscape:cx="-16.82818"
     inkscape:cy="37.481216"
     inkscape:window-x="0"
     inkscape:window-y="0"
     inkscape:window-maximized="0"
     inkscape:current-layer="svg8" /><path
     d="M14,4c0-1.103-0.897-2-2-2s-2,0.897-2,2c0,0.737,0.405,1.375,1,1.722V6c0,0.551-0.448,1-1,1H7.5  C6.575,7,5.716,7.282,5,7.762v-3.04C5.595,4.375,6,3.737,6,3c0-1.103-0.897-2-2-2S2,1.897,2,3c0,0.737,0.405,1.375,1,1.722v6.556  C2.405,11.625,2,12.263,2,13c0,1.103,0.897,2,2,2s2-0.897,2-2c0-0.728-0.395-1.36-0.979-1.71C5.13,10.011,6.194,9,7.5,9H10  c1.654,0,3-1.346,3-3V5.722C13.595,5.375,14,4.737,14,4z M4,2c0.551,0,1,0.449,1,1S4.551,4,4,4S3,3.551,3,3S3.449,2,4,2z M4,14  c-0.551,0-1-0.448-1-1s0.449-1,1-1s1,0.448,1,1S4.551,14,4,14z M12,5c-0.552,0-1-0.449-1-1s0.448-1,1-1s1,0.449,1,1S12.552,5,12,5z"
     id="path2" /></svg>