<?xml version="1.0" encoding="UTF-8" standalone="no"?>
<svg
   xmlns:dc="http://purl.org/dc/elements/1.1/"
   xmlns:cc="http://creativecommons.org/ns#"
   xmlns:rdf="http://www.w3.org/1999/02/22-rdf-syntax-ns#"
   xmlns:svg="http://www.w3.org/2000/svg"
   xmlns="http://www.w3.org/2000/svg"
   xmlns:xlink="http://www.w3.org/1999/xlink"
   xmlns:sodipodi="http://sodipodi.sourceforge.net/DTD/sodipodi-0.dtd"
   xmlns:inkscape="http://www.inkscape.org/namespaces/inkscape"
   version="1.1"
   x="0px"
   y="0px"
   viewBox="0 0 100 125"
   style="enable-background:new 0 0 100 100;"
   xml:space="preserve"
   id="svg57"
   sodipodi:docname="cog.svg"
   inkscape:version="0.92.5 (0.92.5+68)"><metadata
     id="metadata63"><rdf:RDF><cc:Work
         rdf:about=""><dc:format>image/svg+xml</dc:format><dc:type
           rdf:resource="http://purl.org/dc/dcmitype/StillImage" /><dc:title></dc:title></cc:Work></rdf:RDF></metadata><defs
     id="defs61" /><sodipodi:namedview
     pagecolor="#ffffff"
     bordercolor="#666666"
     borderopacity="1"
     objecttolerance="10"
     gridtolerance="10"
     guidetolerance="10"
     inkscape:pageopacity="0"
     inkscape:pageshadow="2"
     inkscape:window-width="1658"
     inkscape:window-height="996"
     id="namedview59"
     showgrid="false"
     inkscape:zoom="10.680141"
     inkscape:cx="48.631267"
     inkscape:cy="-4.7057"
     inkscape:window-x="0"
     inkscape:window-y="0"
     inkscape:window-maximized="0"
     inkscape:current-layer="svg57" /><style
     type="text/css"
     id="style2">
	.st0{opacity:0.4;}
	.st1{clip-path:url(#b);fill:none;stroke:#000000;stroke-width:0.25;stroke-miterlimit:10;}
	.st2{clip-path:url(#b);}
	.st3{display:none;}
</style><symbol
     id="a"
     viewBox="0 -48 48 48"><g
       class="st0"
       id="g40"><defs
         id="defs5"><polygon
           id="c"
           class="st0"
           points="0,-48 0,0 48,0 48,-48    " /></defs><clipPath
         id="b"><use
           xlink:href="#c"
           style=""
           overflow="visible"
           id="use7" /></clipPath><line
         class="st1"
         x1="24"
         y1="0"
         x2="24"
         y2="-48"
         clip-path="url(#b)"
         id="line10" /><line
         class="st1"
         x1="48"
         y1="-24"
         x2="0"
         y2="-24"
         clip-path="url(#b)"
         id="line12" /><line
         class="st1"
         x1="48"
         y1="-16"
         x2="0"
         y2="-16"
         clip-path="url(#b)"
         id="line14" /><line
         class="st1"
         x1="48"
         y1="-32"
         x2="0"
         y2="-32"
         clip-path="url(#b)"
         id="line16" /><line
         class="st1"
         x1="32"
         y1="-48"
         x2="32"
         y2="0"
         clip-path="url(#b)"
         id="line18" /><line
         class="st1"
         x1="16"
         y1="-48"
         x2="16"
         y2="0"
         clip-path="url(#b)"
         id="line20" /><line
         class="st1"
         x1="47.7"
         y1="-0.3"
         x2="0.2"
         y2="-47.8"
         clip-path="url(#b)"
         id="line22" /><line
         class="st1"
         x1="0.2"
         y1="-0.3"
         x2="47.7"
         y2="-47.8"
         clip-path="url(#b)"
         id="line24" /><path
         class="st1"
         d="M24-14c-5.5,0-10-4.5-10-10c0-5.5,4.5-10,10-10c5.5,0,10,4.5,10,10C34-18.5,29.5-14,24-14z"
         clip-path="url(#b)"
         id="path26" /><path
         class="st1"
         d="M24-4C12.9-4,4-12.9,4-24c0-11.1,8.9-20,20-20c11.1,0,20,8.9,20,20C44-12.9,35.1-4,24-4z"
         clip-path="url(#b)"
         id="path28" /><path
         class="st1"
         d="M38-6H10c-2.2,0-4-1.8-4-4v-28c0-2.2,1.8-4,4-4h28c2.2,0,4,1.8,4,4v28C42-7.8,40.2-6,38-6z"
         clip-path="url(#b)"
         id="path30" /><path
         class="st1"
         d="M40-8H8c-2.2,0-4-1.8-4-4v-24c0-2.2,1.8-4,4-4h32c2.2,0,4,1.8,4,4l0,24C44-9.8,42.2-8,40-8z"
         clip-path="url(#b)"
         id="path32" /><path
         class="st1"
         d="M40-40v32c0,2.2-1.8,4-4,4H12C9.8-4,8-5.8,8-8v-32c0-2.2,1.8-4,4-4h24C38.2-44,40-42.2,40-40z"
         clip-path="url(#b)"
         id="path34" /><g
         class="st2"
         clip-path="url(#b)"
         id="g38"><path
           d="M47.7-0.3v-47.5H0.2v47.5H47.7 M48,0H0v-48h48V0L48,0z"
           id="path36" /></g></g></symbol><g
     class="st3"
     id="g47"><use
       xlink:href="#a"
       width="48"
       height="48"
       x="0"
       y="-48"
       transform="matrix(1 0 0 -1 -33.9737 26)"
       style=""
       display="inline"
       overflow="visible"
       id="use43" /><use
       xlink:href="#a"
       width="48"
       height="48"
       x="0"
       y="-48"
       transform="matrix(1 0 0 -1 26 26)"
       style=""
       display="inline"
       overflow="visible"
       id="use45" /></g><g
     id="g51"><path
       d="M87.6,54.9c0.2-1.6,0.4-3.3,0.4-4.9c0-1.7-0.2-3.3-0.4-4.9l0,0l12.4-9.7l-1.1-1.9L87.7,14l-14.6,5.9l0,0   c-2.6-2-5.5-3.7-8.5-5L62.4-0.6h-2.2H37.7l-2.2,15.5c-3.1,1.3-6,3-8.6,5l0,0L12.3,14L1.1,33.5L0,35.4l12.4,9.7l0,0l0,0   C12.2,46.7,12,48.3,12,50c0,1.7,0.2,3.3,0.4,4.9l0,0L0,64.6l1.1,1.9c0,0,11.2,19.5,11.2,19.5l14.6-5.9l0,0c2.6,2,5.5,3.7,8.6,5h0   l2.2,15.5h22.5h2.2l2.2-15.5h0c3.1-1.3,5.9-3,8.5-5l0,0L87.7,86l11.2-19.5l1.1-1.9L87.6,54.9L87.6,54.9z M50,67.7   c-9.8,0-17.7-7.9-17.7-17.7S40.2,32.3,50,32.3S67.7,40.2,67.7,50S59.8,67.7,50,67.7z"
       id="path49" /></g></svg>