<svg xmlns="http://www.w3.org/2000/svg" viewBox="0 0 24 30" x="0px" y="0px"><title>stats,statistics,line,graph</title><path d="M20,6a2,2,0,0,0-2,2,2,2,0,0,0,.07.51l-4.56,4.56a1.79,1.79,0,0,0-1,0l-1.56-1.56A2,2,0,0,0,11,11a2,2,0,0,0-4,0,2,2,0,0,0,.07.51L4.51,14.07A2,2,0,0,0,4,14a2,2,0,1,0,2,2,2,2,0,0,0-.07-.51l2.56-2.56a1.79,1.79,0,0,0,1,0l1.56,1.56A2,2,0,0,0,11,15a2,2,0,0,0,4,0,2,2,0,0,0-.07-.51l4.56-4.56A2,2,0,0,0,20,10a2,2,0,0,0,0-4Z"/><text x="0" y="39" fill="#000000" font-size="5px" font-weight="bold" font-family="'Helvetica Neue', Helvetica, Arial-Unicode, Arial, Sans-serif">Created by IconSrc</text><text x="0" y="44" fill="#000000" font-size="5px" font-weight="bold" font-family="'Helvetica Neue', Helvetica, Arial-Unicode, Arial, Sans-serif">from the Noun Project</text></svg>