<svg xmlns="http://www.w3.org/2000/svg" xmlns:xlink="http://www.w3.org/1999/xlink" version="1.1" x="0px" y="0px" viewBox="0 0 96 120" enable-background="new 0 0 96 96" xml:space="preserve"><path d="M91.996,44H16.672l13.74-16.408c1.416-1.692,1.192-4.216-0.5-5.636c-1.696-1.416-4.216-1.196-5.636,0.5L8,41.9V24  c0-2.208-1.792-4-4-4s-4,1.792-4,4v48c0,2.208,1.792,4,4,4s4-1.792,4-4V54.488l16.304,19.088c0.792,0.92,1.916,1.404,3.044,1.404  c0.916,0,1.844-0.316,2.596-0.957c1.68-1.432,1.88-3.959,0.444-5.64L16.4,52.004H92c2.208,0,4-1.792,4-4  C95.996,45.792,94.204,44,91.996,44z"/><text x="0" y="111" fill="#000000" font-size="5px" font-weight="bold" font-family="'Helvetica Neue', Helvetica, Arial-Unicode, Arial, Sans-serif">Created by iconsmind.com</text><text x="0" y="116" fill="#000000" font-size="5px" font-weight="bold" font-family="'Helvetica Neue', Helvetica, Arial-Unicode, Arial, Sans-serif">from the Noun Project</text></svg>