<svg xmlns="http://www.w3.org/2000/svg" xmlns:xlink="http://www.w3.org/1999/xlink" version="1.1" x="0px" y="0px" viewBox="0 0 96 120" enable-background="new 0 0 96 96" xml:space="preserve"><path d="M92,19.996c-2.208,0-4,1.792-4,4v13.32l-12.436-14.86c-1.42-1.696-3.944-1.92-5.641-0.5c-1.688,1.42-1.916,3.944-0.5,5.636  L83.164,44H4c-2.208,0-4,1.792-4,4s1.792,4,4,4h79.436L69.443,68.384c-1.432,1.681-1.235,4.204,0.445,5.64  c0.752,0.645,1.676,0.953,2.592,0.953c1.131,0,2.252-0.477,3.047-1.404L88,58.977V72c0,2.212,1.792,4,4,4s4-1.788,4-4V24  C96,21.788,94.208,19.996,92,19.996L92,19.996z"/><text x="0" y="111" fill="#000000" font-size="5px" font-weight="bold" font-family="'Helvetica Neue', Helvetica, Arial-Unicode, Arial, Sans-serif">Created by iconsmind.com</text><text x="0" y="116" fill="#000000" font-size="5px" font-weight="bold" font-family="'Helvetica Neue', Helvetica, Arial-Unicode, Arial, Sans-serif">from the Noun Project</text></svg>