<svg xmlns="http://www.w3.org/2000/svg" viewBox="0 0 24 30" x="0px" y="0px"><title>_</title><path d="M18,4H16V3H15V4H9V3H8V4H6A2,2,0,0,0,4,6V18a2,2,0,0,0,2,2H18a2,2,0,0,0,2-2V6A2,2,0,0,0,18,4Zm1,14a1.00115,1.00115,0,0,1-1,1H6a1.00115,1.00115,0,0,1-1-1V9H19ZM19,8H5V6A1.00115,1.00115,0,0,1,6,5H8V6H9V5h6V6h1V5h2a1.00115,1.00115,0,0,1,1,1Zm-3.99994,6.52515h-2.5L12.5,17.00006,11.5,17V14.52515H9V13.52509h2.50006L11.5,11l1,.00006v2.525H15Z"/><text x="0" y="39" fill="#000000" font-size="5px" font-weight="bold" font-family="'Helvetica Neue', Helvetica, Arial-Unicode, Arial, Sans-serif">Created by Sophia Bai</text><text x="0" y="44" fill="#000000" font-size="5px" font-weight="bold" font-family="'Helvetica Neue', Helvetica, Arial-Unicode, Arial, Sans-serif">from the Noun Project</text></svg>