<svg xmlns="http://www.w3.org/2000/svg" xmlns:xlink="http://www.w3.org/1999/xlink" xml:space="preserve" version="1.1" style="shape-rendering:geometricPrecision;text-rendering:geometricPrecision;image-rendering:optimizeQuality;" viewBox="0 0 847 1058.75" x="0px" y="0px" fill-rule="evenodd" clip-rule="evenodd"><defs><style type="text/css">
   
    .fil0 {fill:black;fill-rule:nonzero}
   
  </style></defs><g><path class="fil0" d="M366 610c-4,4 -9,8 -13,11 -4,2 -9,5 -14,6l-115 30 0 0c-6,2 -12,2 -16,1l0 -1c-5,-1 -9,-3 -12,-6 -3,-4 -5,-7 -6,-12l0 0c-2,-6 -2,-13 0,-21l28 -107 0 0c2,-6 5,-12 8,-17 3,-5 7,-10 11,-14l0 -1 277 -277c10,-9 22,-14 35,-14l0 0c12,0 25,5 34,14l61 61c9,10 14,22 14,35l0 0c0,12 -5,25 -14,34l-277 277 0 0 -1 1zm-99 -127l97 96 264 -263c5,-5 7,-12 7,-18l0 0c0,-7 -2,-14 -7,-19l-61 -60c-5,-5 -12,-8 -18,-8l0 0c-7,0 -13,3 -18,8l-264 264zm80 113l-96 -97c-2,2 -4,5 -5,7 -3,3 -4,7 -5,11l0 0 -28 107c-1,4 -2,7 -1,9l0 0c0,1 0,2 1,2 0,0 0,0 1,0l0 0c1,0 2,0 4,0l0 0 115 -30c3,-1 5,-2 8,-4 2,-1 4,-3 6,-5z"/></g><text x="0" y="862" fill="#000000" font-size="5px" font-weight="bold" font-family="'Helvetica Neue', Helvetica, Arial-Unicode, Arial, Sans-serif">Created by Bismillah</text><text x="0" y="867" fill="#000000" font-size="5px" font-weight="bold" font-family="'Helvetica Neue', Helvetica, Arial-Unicode, Arial, Sans-serif">from the Noun Project</text></svg>