<?xml version="1.0" encoding="UTF-8" standalone="no"?>
<svg
   xmlns:dc="http://purl.org/dc/elements/1.1/"
   xmlns:cc="http://creativecommons.org/ns#"
   xmlns:rdf="http://www.w3.org/1999/02/22-rdf-syntax-ns#"
   xmlns:svg="http://www.w3.org/2000/svg"
   xmlns="http://www.w3.org/2000/svg"
   xmlns:sodipodi="http://sodipodi.sourceforge.net/DTD/sodipodi-0.dtd"
   xmlns:inkscape="http://www.inkscape.org/namespaces/inkscape"
   viewBox="0 0 24 30"
   enable-background="new 0 0 24 24"
   x="0px"
   y="0px"
   version="1.1"
   id="svg10"
   sodipodi:docname="noun_add-event_534761.svg"
   inkscape:version="0.92.5 (0.92.5+68)">
  <metadata
     id="metadata16">
    <rdf:RDF>
      <cc:Work
         rdf:about="">
        <dc:format>image/svg+xml</dc:format>
        <dc:type
           rdf:resource="http://purl.org/dc/dcmitype/StillImage" />
      </cc:Work>
    </rdf:RDF>
  </metadata>
  <defs
     id="defs14" />
  <sodipodi:namedview
     pagecolor="#ffffff"
     bordercolor="#666666"
     borderopacity="1"
     objecttolerance="10"
     gridtolerance="10"
     guidetolerance="10"
     inkscape:pageopacity="0"
     inkscape:pageshadow="2"
     inkscape:window-width="1328"
     inkscape:window-height="943"
     id="namedview12"
     showgrid="false"
     inkscape:zoom="15.733333"
     inkscape:cx="20.861206"
     inkscape:cy="27.952222"
     inkscape:window-x="0"
     inkscape:window-y="0"
     inkscape:window-maximized="0"
     inkscape:current-layer="svg10" />
  <path
     inkscape:connector-curvature="0"
     id="path2"
     d="M 22.011,24 H 1.989 C 0.893,24 0,23.107 0,22.011 V 3.989 C 0,2.893 0.893,2 1.989,2 H 22.01 C 23.107,2 24,2.893 24,3.989 V 22.01 C 24,23.107 23.107,24 22.011,24 Z m 0,-2 v 1 z M 22,3.989 1.989,4 2,22.011 22,22 Z M 23,10 H 1 C 0.448,10 0,9.552 0,9 0,8.448 0.448,8 1,8 h 22 c 0.553,0 1,0.448 1,1 0,0.552 -0.447,1 -1,1 z M 18,6 C 17.447,6 17,5.552 17,5 V 1 c 0,-0.552 0.447,-1 1,-1 0.553,0 1,0.448 1,1 v 4 c 0,0.552 -0.447,1 -1,1 z M 6,6 C 5.448,6 5,5.552 5,5 V 1 C 5,0.448 5.448,0 6,0 6.552,0 7,0.448 7,1 V 5 C 7,5.552 6.552,6 6,6 Z m 6,14 c -0.552,0 -1,-0.447 -1,-1 v -6 c 0,-0.552 0.448,-1 1,-1 0.552,0 1,0.448 1,1 v 6 c 0,0.553 -0.448,1 -1,1 z m 3,-3 H 9 C 8.448,17 8,16.553 8,16 8,15.447 8.448,15 9,15 h 6 c 0.553,0 1,0.447 1,1 0,0.553 -0.447,1 -1,1 z" />
</svg>
