<?xml version="1.0" encoding="UTF-8" standalone="no"?>
<svg
   xmlns:dc="http://purl.org/dc/elements/1.1/"
   xmlns:cc="http://creativecommons.org/ns#"
   xmlns:rdf="http://www.w3.org/1999/02/22-rdf-syntax-ns#"
   xmlns:svg="http://www.w3.org/2000/svg"
   xmlns="http://www.w3.org/2000/svg"
   xmlns:sodipodi="http://sodipodi.sourceforge.net/DTD/sodipodi-0.dtd"
   xmlns:inkscape="http://www.inkscape.org/namespaces/inkscape"
   version="1.1"
   x="0px"
   y="0px"
   viewBox="0 0 96 120"
   enable-background="new 0 0 96 96"
   xml:space="preserve"
   id="svg8"
   sodipodi:docname="start.svg"
   inkscape:version="0.92.5 (0.92.5+68)"><metadata
     id="metadata14"><rdf:RDF><cc:Work
         rdf:about=""><dc:format>image/svg+xml</dc:format><dc:type
           rdf:resource="http://purl.org/dc/dcmitype/StillImage" /><dc:title></dc:title></cc:Work></rdf:RDF></metadata><defs
     id="defs12" /><sodipodi:namedview
     pagecolor="#ffffff"
     bordercolor="#666666"
     borderopacity="1"
     objecttolerance="10"
     gridtolerance="10"
     guidetolerance="10"
     inkscape:pageopacity="0"
     inkscape:pageshadow="2"
     inkscape:window-width="640"
     inkscape:window-height="480"
     id="namedview10"
     showgrid="false"
     inkscape:zoom="1.9666667"
     inkscape:cx="48"
     inkscape:cy="60"
     inkscape:window-x="0"
     inkscape:window-y="0"
     inkscape:window-maximized="0"
     inkscape:current-layer="svg8" /><path
     d="M91.996,44H16.672l13.74-16.408c1.416-1.692,1.192-4.216-0.5-5.636c-1.696-1.416-4.216-1.196-5.636,0.5L8,41.9V24  c0-2.208-1.792-4-4-4s-4,1.792-4,4v48c0,2.208,1.792,4,4,4s4-1.792,4-4V54.488l16.304,19.088c0.792,0.92,1.916,1.404,3.044,1.404  c0.916,0,1.844-0.316,2.596-0.957c1.68-1.432,1.88-3.959,0.444-5.64L16.4,52.004H92c2.208,0,4-1.792,4-4  C95.996,45.792,94.204,44,91.996,44z"
     id="path2" /></svg>