<?xml version="1.0" encoding="UTF-8" standalone="no"?>
<svg
   xmlns:dc="http://purl.org/dc/elements/1.1/"
   xmlns:cc="http://creativecommons.org/ns#"
   xmlns:rdf="http://www.w3.org/1999/02/22-rdf-syntax-ns#"
   xmlns:svg="http://www.w3.org/2000/svg"
   xmlns="http://www.w3.org/2000/svg"
   xmlns:sodipodi="http://sodipodi.sourceforge.net/DTD/sodipodi-0.dtd"
   xmlns:inkscape="http://www.inkscape.org/namespaces/inkscape"
   viewBox="0 0 24 30"
   x="0px"
   y="0px"
   version="1.1"
   id="svg10"
   sodipodi:docname="stats.svg"
   inkscape:version="0.92.5 (0.92.5+68)">
  <metadata
     id="metadata16">
    <rdf:RDF>
      <cc:Work
         rdf:about="">
        <dc:format>image/svg+xml</dc:format>
        <dc:type
           rdf:resource="http://purl.org/dc/dcmitype/StillImage" />
        <dc:title>stats,statistics,line,graph</dc:title>
      </cc:Work>
    </rdf:RDF>
  </metadata>
  <defs
     id="defs14" />
  <sodipodi:namedview
     pagecolor="#ffffff"
     bordercolor="#666666"
     borderopacity="1"
     objecttolerance="10"
     gridtolerance="10"
     guidetolerance="10"
     inkscape:pageopacity="0"
     inkscape:pageshadow="2"
     inkscape:window-width="1549"
     inkscape:window-height="950"
     id="namedview12"
     showgrid="false"
     inkscape:zoom="7.8666667"
     inkscape:cx="12"
     inkscape:cy="15"
     inkscape:window-x="0"
     inkscape:window-y="0"
     inkscape:window-maximized="0"
     inkscape:current-layer="svg10" />
  <title
     id="title2">stats,statistics,line,graph</title>
  <path
     d="M20,6a2,2,0,0,0-2,2,2,2,0,0,0,.07.51l-4.56,4.56a1.79,1.79,0,0,0-1,0l-1.56-1.56A2,2,0,0,0,11,11a2,2,0,0,0-4,0,2,2,0,0,0,.07.51L4.51,14.07A2,2,0,0,0,4,14a2,2,0,1,0,2,2,2,2,0,0,0-.07-.51l2.56-2.56a1.79,1.79,0,0,0,1,0l1.56,1.56A2,2,0,0,0,11,15a2,2,0,0,0,4,0,2,2,0,0,0-.07-.51l4.56-4.56A2,2,0,0,0,20,10a2,2,0,0,0,0-4Z"
     id="path4" />
</svg>
