<svg xmlns="http://www.w3.org/2000/svg" xmlns:xlink="http://www.w3.org/1999/xlink" version="1.1" x="0px" y="0px" viewBox="0 0 1024 1280" style="enable-background:new 0 0 1024 1024;" xml:space="preserve"><g><g><g><path d="M768,256c9,9,17.6,18.4,25.6,28.2c2.2,2.6,4.3,5.3,6.4,7.9c3.5,4.4-4.5-6-1.2-1.5     c0.9,1.2,1.7,2.3,2.6,3.5c3.8,5.2,7.6,10.5,11.1,15.8c13.7,20.6,25.4,42.4,35,65.2c-1-2.4-2-4.8-3-7.2     c13.4,32,22.5,65.6,27.1,99.9c-0.4-2.7-0.7-5.3-1.1-8c4.5,34.6,4.5,69.6,0,104.2c0.4-2.7,0.7-5.3,1.1-8     c-4.6,34.3-13.7,67.9-27.1,99.9c1-2.4,2-4.8,3-7.2c-7.5,17.7-16.2,34.9-26.2,51.3c-5.2,8.5-10.7,16.9-16.5,25     c-1.3,1.8-2.5,3.5-3.8,5.2c-0.7,1-1.4,1.9-2.2,2.9c-2.7,3.7,2-2.6,2.1-2.6c-3.1,4.3-6.6,8.4-10,12.4     c-12.9,15.4-27.1,29.7-42.2,43c-3.7,3.2-7.4,6.3-11.1,9.4c-1.9,1.5-3.8,3-5.7,4.5c-1.5,1.2-4.5,3.1,2.6-2     c-1.2,0.8-2.3,1.7-3.5,2.6c-8,6-16.3,11.7-24.8,17c-18.3,11.6-37.5,21.5-57.4,30c2.4-1,4.8-2,7.2-3c-32,13.4-65.6,22.5-99.9,27.1     c2.7-0.4,5.3-0.7,8-1.1c-34.6,4.5-69.6,4.5-104.2,0c2.7,0.4,5.3,0.7,8,1.1c-34.3-4.6-67.9-13.7-99.9-27.1c2.4,1,4.8,2,7.2,3     c-17.7-7.5-34.9-16.2-51.3-26.2c-8.5-5.2-16.9-10.7-25-16.5c-1.8-1.3-3.5-2.5-5.2-3.8c-1-0.7-1.9-1.4-2.9-2.2     c-3.7-2.7,2.6,2,2.6,2.1c-4.3-3.1-8.4-6.6-12.4-10c-15.4-12.9-29.7-27.1-43-42.2c-3.2-3.7-6.3-7.4-9.4-11.1     c-1.5-1.9-3-3.8-4.5-5.7c-1.2-1.5-3.1-4.5,2,2.6c-0.8-1.2-1.7-2.3-2.6-3.5c-6-8-11.7-16.3-17-24.8c-11.6-18.3-21.5-37.5-30-57.4     c1,2.4,2,4.8,3,7.2c-13.4-32-22.5-65.6-27.1-99.9c0.4,2.7,0.7,5.3,1.1,8c-4.5-34.6-4.5-69.6,0-104.2c-0.4,2.7-0.7,5.3-1.1,8     c4.6-34.3,13.7-67.9,27.1-99.9c-1,2.4-2,4.8-3,7.2c7.5-17.7,16.2-34.9,26.2-51.3c5.2-8.5,10.7-16.9,16.5-25     c1.3-1.8,2.5-3.5,3.8-5.2c0.7-1,1.4-1.9,2.2-2.9c2.7-3.7-2,2.6-2.1,2.6c3.1-4.3,6.6-8.4,10-12.4c12.9-15.4,27.1-29.7,42.2-43     c3.7-3.2,7.4-6.3,11.1-9.4c1.9-1.5,3.8-3,5.7-4.5c1.5-1.2,4.5-3.1-2.6,2c1.2-0.8,2.3-1.7,3.5-2.6c8-6,16.3-11.7,24.8-17     c18.3-11.6,37.5-21.5,57.4-30c-2.4,1-4.8,2-7.2,3c32-13.4,65.6-22.5,99.9-27.1c-2.7,0.4-5.3,0.7-8,1.1c34.6-4.5,69.6-4.5,104.2,0     c-2.7-0.4-5.3-0.7-8-1.1c34.3,4.6,67.9,13.7,99.9,27.1c-2.4-1-4.8-2-7.2-3c22.8,9.6,44.6,21.3,65.2,35c5.2,3.4,10.3,7,15.3,10.7     c1.4,1,2.7,2,4,3c4.1,3.1-5.8-4.6-1.5-1.2c2.5,1.9,4.9,3.9,7.4,5.9C749.2,238.1,758.8,246.9,768,256c11.1,11.1,31.5,12,42.4,0     c11-12,11.9-30.6,0-42.4c-61.1-60.8-140.9-103.1-226.1-117.2c-41.3-6.8-82.9-8.3-124.4-2.9c-44.6,5.8-87,17.9-127.9,36.9     c-78.9,36.5-145.9,99.6-188.3,175.4c-41.2,73.8-60.1,160.5-51.9,244.7c4.2,43.3,14.4,85.1,31.3,125.2     c17.3,41,40.6,78.4,69.5,112.2c56.3,65.8,133.9,113.4,218,134c81.6,19.9,169.7,15.6,248.4-14.2c84-31.8,155.9-88.9,205.7-163.8     c46.8-70.5,71.1-156.1,69.2-240.7c-1.9-84.9-29.5-169.5-79.8-238.1c-13.3-18.2-27.8-35.4-43.7-51.4c-11.1-11.1-31.5-11.9-42.4,0     C757,225.6,756.1,244.1,768,256z"/></g></g><g><g><path d="M675.8,384.8c-27,27-54.1,54.1-81.1,81.1c-43.1,43.1-86.2,86.2-129.3,129.3c-9.9,9.9-19.8,19.8-29.7,29.7     c14.1,0,28.3,0,42.4,0c-14.4-14.4-28.8-28.8-43.2-43.3c-23-23-45.9-46-68.9-69.1c-5.3-5.3-10.6-10.7-15.9-16     c-11.1-11.1-31.5-11.9-42.4,0c-11,12-11.8,30.6,0,42.4c14.4,14.4,28.8,28.8,43.2,43.3c23,23,45.9,46,68.9,69.1     c5.3,5.3,10.6,10.7,15.9,16c11.4,11.5,31,11.5,42.4,0c27-27,54.1-54.1,81.1-81.1c43.1-43.1,86.2-86.2,129.3-129.3     c9.9-9.9,19.8-19.8,29.7-29.7c11.1-11.1,11.9-31.5,0-42.4C706.2,373.8,687.7,372.9,675.8,384.8L675.8,384.8z"/></g></g></g><text x="0" y="1039" fill="#000000" font-size="5px" font-weight="bold" font-family="'Helvetica Neue', Helvetica, Arial-Unicode, Arial, Sans-serif">Created by shashank singh</text><text x="0" y="1044" fill="#000000" font-size="5px" font-weight="bold" font-family="'Helvetica Neue', Helvetica, Arial-Unicode, Arial, Sans-serif">from the Noun Project</text></svg>