<svg xmlns="http://www.w3.org/2000/svg" xmlns:xlink="http://www.w3.org/1999/xlink" version="1.1" x="0px" y="0px" viewBox="0 0 100 125" enable-background="new 0 0 100 100" xml:space="preserve"><path d="M50,10.917c-21.584,0-39.083,17.499-39.083,39.083S28.416,89.083,50,89.083S89.083,71.584,89.083,50  S71.584,10.917,50,10.917z M67.045,62.802c1.172,1.172,1.172,3.071,0,4.243c-0.586,0.586-1.354,0.879-2.121,0.879  s-1.535-0.293-2.121-0.878L50,54.243L37.197,67.044c-0.586,0.585-1.354,0.878-2.121,0.878s-1.535-0.293-2.121-0.879  c-1.172-1.171-1.172-3.071,0-4.243L45.757,50L32.955,37.198c-1.172-1.172-1.172-3.071,0-4.243c1.172-1.172,3.07-1.171,4.242,0  L50,45.757l12.803-12.803c1.172-1.171,3.07-1.171,4.242,0c1.172,1.171,1.172,3.071,0,4.243L54.242,50L67.045,62.802z"/><text x="0" y="115" fill="#000000" font-size="5px" font-weight="bold" font-family="'Helvetica Neue', Helvetica, Arial-Unicode, Arial, Sans-serif">Created by Linseed Studio</text><text x="0" y="120" fill="#000000" font-size="5px" font-weight="bold" font-family="'Helvetica Neue', Helvetica, Arial-Unicode, Arial, Sans-serif">from the Noun Project</text></svg>