<svg xmlns="http://www.w3.org/2000/svg" xmlns:xlink="http://www.w3.org/1999/xlink" version="1.1" x="0px" y="0px" viewBox="0 0 1024 1280" style="enable-background:new 0 0 1024 1024;" xml:space="preserve"><g><g><g><path d="M760.9,263.1c12.1,12.1,23.3,24.9,33.8,38.4c-2.1-2.7-4.2-5.4-6.3-8.1c20.4,26.7,37.4,55.8,50.5,86.7     c-1.3-3.2-2.7-6.4-4-9.6c13.4,32,22.5,65.6,27.1,99.9c-0.5-3.5-1-7.1-1.4-10.6c4.5,34.6,4.5,69.6,0,104.2c0.5-3.5,1-7.1,1.4-10.6     c-4.6,34.3-13.7,67.9-27.1,99.9c1.3-3.2,2.7-6.4,4-9.6c-13.1,30.9-30,60.1-50.5,86.7c2.1-2.7,4.2-5.4,6.3-8.1     c-20.9,27-45.2,51.3-72.2,72.2c2.7-2.1,5.4-4.2,8.1-6.3c-26.7,20.4-55.8,37.4-86.7,50.5c3.2-1.3,6.4-2.7,9.6-4     c-32,13.4-65.6,22.5-99.9,27.1c3.5-0.5,7.1-1,10.6-1.4c-34.6,4.5-69.6,4.5-104.2,0c3.5,0.5,7.1,1,10.6,1.4     c-34.3-4.6-67.9-13.7-99.9-27.1c3.2,1.3,6.4,2.7,9.6,4c-30.9-13.1-60.1-30-86.7-50.5c2.7,2.1,5.4,4.2,8.1,6.3     c-27-20.9-51.3-45.2-72.2-72.2c2.1,2.7,4.2,5.4,6.3,8.1c-20.4-26.7-37.4-55.8-50.5-86.7c1.3,3.2,2.7,6.4,4,9.6     c-13.4-32-22.5-65.6-27.1-99.9c0.5,3.5,1,7.1,1.4,10.6c-4.5-34.6-4.5-69.6,0-104.2c-0.5,3.5-1,7.1-1.4,10.6     c4.6-34.3,13.7-67.9,27.1-99.9c-1.3,3.2-2.7,6.4-4,9.6c13.1-30.9,30-60.1,50.5-86.7c-2.1,2.7-4.2,5.4-6.3,8.1     c20.9-27,45.2-51.3,72.2-72.2c-2.7,2.1-5.4,4.2-8.1,6.3c26.7-20.4,55.8-37.4,86.7-50.5c-3.2,1.3-6.4,2.7-9.6,4     c32-13.4,65.6-22.5,99.9-27.1c-3.5,0.5-7.1,1-10.6,1.4c34.6-4.5,69.6-4.5,104.2,0c-3.5-0.5-7.1-1-10.6-1.4     c34.3,4.6,67.9,13.7,99.9,27.1c-3.2-1.3-6.4-2.7-9.6-4c30.9,13.1,60.1,30,86.7,50.5c-2.7-2.1-5.4-4.2-8.1-6.3     C736,239.8,748.8,251,760.9,263.1c14.8,14.8,41.9,15.9,56.6,0c14.6-15.9,15.8-40.8,0-56.6C755.3,144.6,673.8,101.1,587,86.7     c-42.2-7-84.6-8.8-127.1-3.3c-23.2,3-46.1,7.1-68.6,13.7c-22,6.4-43.5,14.9-64.3,24.5c-80.3,37.2-148.8,101.9-191.9,179     c-42,75.2-61.7,163.9-53.2,249.8c4.4,44.7,14.7,87.6,32.1,129c17.8,42.2,41.7,80.5,71.6,115.4c57.3,67,136.8,115.6,222.4,136.5     c83.3,20.3,173.4,16.3,253.8-14.2c21.6-8.2,42.7-17.6,62.8-29c20.7-11.7,39.9-25.4,58.5-40.1c35.3-27.9,65.5-62,90.3-99.3     c47.7-71.8,72.5-159.5,70.5-245.7c-2-86.5-29.8-173.2-81.2-243.1c-13.9-18.8-28.7-36.9-45.2-53.4c-14.8-14.8-42-15.9-56.6,0     C746.2,222.5,745.1,247.3,760.9,263.1z"/></g></g><g><g><path d="M658.7,377.7c-26,26-51.9,51.9-77.9,77.9c-41.3,41.3-82.7,82.7-124,124c-9.4,9.4-18.8,18.8-28.2,28.2     c18.9,0,37.7,0,56.6,0c-34.5-34.6-69-69.2-103.5-103.8c-4.8-4.9-9.7-9.7-14.5-14.6c-14.8-14.8-42-15.9-56.6,0     c-14.7,16-15.8,40.7,0,56.6c34.5,34.6,69,69.2,103.5,103.8c4.8,4.9,9.7,9.7,14.5,14.6c15.3,15.3,41.3,15.3,56.6,0     c26-26,51.9-51.9,77.9-77.9c41.3-41.3,82.7-82.7,124-124c9.4-9.4,18.8-18.8,28.2-28.2c14.8-14.8,15.9-42,0-56.6     C699.3,363.1,674.5,361.9,658.7,377.7L658.7,377.7z"/></g></g></g><text x="0" y="1039" fill="#000000" font-size="5px" font-weight="bold" font-family="'Helvetica Neue', Helvetica, Arial-Unicode, Arial, Sans-serif">Created by shashank singh</text><text x="0" y="1044" fill="#000000" font-size="5px" font-weight="bold" font-family="'Helvetica Neue', Helvetica, Arial-Unicode, Arial, Sans-serif">from the Noun Project</text></svg>