<?xml version="1.0" encoding="UTF-8" standalone="no"?>
<svg
   xmlns:dc="http://purl.org/dc/elements/1.1/"
   xmlns:cc="http://creativecommons.org/ns#"
   xmlns:rdf="http://www.w3.org/1999/02/22-rdf-syntax-ns#"
   xmlns:svg="http://www.w3.org/2000/svg"
   xmlns="http://www.w3.org/2000/svg"
   width="100"
   height="100"
   viewBox="0 0 100 100"
   id="svg4157"
   version="1.1">
  <defs
     id="defs4159" />
  <metadata
     id="metadata4162">
    <rdf:RDF>
      <cc:Work
         rdf:about="">
        <dc:format>image/svg+xml</dc:format>
        <dc:type
           rdf:resource="http://purl.org/dc/dcmitype/StillImage" />
        <dc:title></dc:title>
      </cc:Work>
    </rdf:RDF>
  </metadata>
  <g
     style="stroke:#000000;stroke-opacity:1;fill:#000000;fill-opacity:1"
     id="layer1"
     transform="translate(0,2.2107222e-5)">
    <ellipse        style="opacity:1;fill:#000000;fill-opacity:1;fill-rule:nonzero;stroke:#000000;stroke-width:2.0;stroke-linecap:round;stroke-linejoin:bevel;stroke-miterlimit:4;stroke-dasharray:none;stroke-dashoffset:0;stroke-opacity:1"
       id="path4705"
       cx="50"
       cy="50"
       rx="49"
       ry="49" />
  </g>
  <path
     style="fill:#ffffff;fill-opacity:1"
     d="m 55.594835,50.000023 10.14033,-10.140331 c 1.538901,-1.538901 1.538901,-4.055934 0,-5.594835 -1.538901,-1.538901 -4.055934,-1.538901 -5.594836,0 L 50,44.405188 39.859671,34.264857 c -1.538902,-1.538901 -4.055935,-1.538901 -5.594836,0 -1.538901,1.538901 -1.538901,4.055934 0,5.594835 l 10.14033,10.140331 -10.14033,10.14033 c -1.538901,1.538901 -1.538901,4.055934 0,5.594835 1.538901,1.538901 4.055934,1.538901 5.594836,0 L 50,55.594858 60.140329,65.735188 c 1.538902,1.538901 4.055935,1.538901 5.594836,0 1.538901,-1.538901 1.538901,-4.055934 0,-5.594835 l -10.14033,-10.14033 z"
     id="path10331" />
</svg>
