<?xml version="1.0" encoding="UTF-8" standalone="no"?>
<svg
   xmlns:dc="http://purl.org/dc/elements/1.1/"
   xmlns:cc="http://creativecommons.org/ns#"
   xmlns:rdf="http://www.w3.org/1999/02/22-rdf-syntax-ns#"
   xmlns:svg="http://www.w3.org/2000/svg"
   xmlns="http://www.w3.org/2000/svg"
   width="100"
   height="100"
   viewBox="0 0 100 100"
   id="svg4157"
   version="1.1">
  <defs
     id="defs4159" />
  <metadata
     id="metadata4162">
    <rdf:RDF>
      <cc:Work
         rdf:about="">
        <dc:format>image/svg+xml</dc:format>
        <dc:type
           rdf:resource="http://purl.org/dc/dcmitype/StillImage" />
        <dc:title></dc:title>
      </cc:Work>
    </rdf:RDF>
  </metadata>
  <g
     id="layer1"
     transform="translate(0,2.2107222e-5)">
    <ellipse        style="opacity:1;fill:none;fill-opacity:1;fill-rule:nonzero;stroke:#000000;stroke-width:2.0;stroke-linecap:round;stroke-linejoin:bevel;stroke-miterlimit:4;stroke-dasharray:none;stroke-dashoffset:0;stroke-opacity:1"
       id="path4705"
       cx="50"
       cy="50"
       rx="49"
       ry="49" />
  </g>
  <g
     transform="matrix(0.10416011,0,0,0.10416011,-3.4328332,-4.2762781)"
     id="g9532">
    <path
       id="path9534"
       d="m 658.7,377.7 c -26,26 -51.9,51.9 -77.9,77.9 -41.3,41.3 -82.7,82.7 -124,124 -9.4,9.4 -18.8,18.8 -28.2,28.2 18.9,0 37.7,0 56.6,0 -34.5,-34.6 -69,-69.2 -103.5,-103.8 -4.8,-4.9 -9.7,-9.7 -14.5,-14.6 -14.8,-14.8 -42,-15.9 -56.6,0 -14.7,16 -15.8,40.7 0,56.6 34.5,34.6 69,69.2 103.5,103.8 4.8,4.9 9.7,9.7 14.5,14.6 15.3,15.3 41.3,15.3 56.6,0 26,-26 51.9,-51.9 77.9,-77.9 41.3,-41.3 82.7,-82.7 124,-124 9.4,-9.4 18.8,-18.8 28.2,-28.2 14.8,-14.8 15.9,-42 0,-56.6 -16,-14.6 -40.8,-15.8 -56.6,0 l 0,0 z" />
  </g>
</svg>
