<?xml version="1.0" encoding="UTF-8" standalone="no"?>
<svg
   xmlns:dc="http://purl.org/dc/elements/1.1/"
   xmlns:cc="http://creativecommons.org/ns#"
   xmlns:rdf="http://www.w3.org/1999/02/22-rdf-syntax-ns#"
   xmlns:svg="http://www.w3.org/2000/svg"
   xmlns="http://www.w3.org/2000/svg"
   xmlns:sodipodi="http://sodipodi.sourceforge.net/DTD/sodipodi-0.dtd"
   xmlns:inkscape="http://www.inkscape.org/namespaces/inkscape"
   xml:space="preserve"
   version="1.1"
   style="shape-rendering:geometricPrecision;text-rendering:geometricPrecision;image-rendering:optimizeQuality;"
   viewBox="0 0 847 1058.75"
   x="0px"
   y="0px"
   fill-rule="evenodd"
   clip-rule="evenodd"
   id="svg14"
   sodipodi:docname="edit.svg"
   inkscape:version="0.92.5 (0.92.5+68)"><metadata
     id="metadata18"><rdf:RDF><cc:Work
         rdf:about=""><dc:format>image/svg+xml</dc:format><dc:type
           rdf:resource="http://purl.org/dc/dcmitype/StillImage" /><dc:title></dc:title></cc:Work></rdf:RDF></metadata><sodipodi:namedview
     pagecolor="#ffffff"
     bordercolor="#666666"
     borderopacity="1"
     objecttolerance="10"
     gridtolerance="10"
     guidetolerance="10"
     inkscape:pageopacity="0"
     inkscape:pageshadow="2"
     inkscape:window-width="1415"
     inkscape:window-height="947"
     id="namedview16"
     showgrid="false"
     inkscape:zoom="0.44580874"
     inkscape:cx="731.36761"
     inkscape:cy="354.30703"
     inkscape:window-x="0"
     inkscape:window-y="0"
     inkscape:window-maximized="0"
     inkscape:current-layer="svg14" /><defs
     id="defs4"><style
       type="text/css"
       id="style2">
   
    .fil0 {fill:black;fill-rule:nonzero}
   
  </style></defs><g
     id="g8"><path
       class="fil0"
       d="M366 610c-4,4 -9,8 -13,11 -4,2 -9,5 -14,6l-115 30 0 0c-6,2 -12,2 -16,1l0 -1c-5,-1 -9,-3 -12,-6 -3,-4 -5,-7 -6,-12l0 0c-2,-6 -2,-13 0,-21l28 -107 0 0c2,-6 5,-12 8,-17 3,-5 7,-10 11,-14l0 -1 277 -277c10,-9 22,-14 35,-14l0 0c12,0 25,5 34,14l61 61c9,10 14,22 14,35l0 0c0,12 -5,25 -14,34l-277 277 0 0 -1 1zm-99 -127l97 96 264 -263c5,-5 7,-12 7,-18l0 0c0,-7 -2,-14 -7,-19l-61 -60c-5,-5 -12,-8 -18,-8l0 0c-7,0 -13,3 -18,8l-264 264zm80 113l-96 -97c-2,2 -4,5 -5,7 -3,3 -4,7 -5,11l0 0 -28 107c-1,4 -2,7 -1,9l0 0c0,1 0,2 1,2 0,0 0,0 1,0l0 0c1,0 2,0 4,0l0 0 115 -30c3,-1 5,-2 8,-4 2,-1 4,-3 6,-5z"
       id="path6" /></g></svg>