<?xml version="1.0" encoding="UTF-8" standalone="no"?>
<svg
   xmlns:dc="http://purl.org/dc/elements/1.1/"
   xmlns:cc="http://creativecommons.org/ns#"
   xmlns:rdf="http://www.w3.org/1999/02/22-rdf-syntax-ns#"
   xmlns:svg="http://www.w3.org/2000/svg"
   xmlns="http://www.w3.org/2000/svg"
   xmlns:sodipodi="http://sodipodi.sourceforge.net/DTD/sodipodi-0.dtd"
   xmlns:inkscape="http://www.inkscape.org/namespaces/inkscape"
   version="1.1"
   x="0px"
   y="0px"
   viewBox="0 0 96 120"
   enable-background="new 0 0 96 96"
   xml:space="preserve"
   id="svg22"
   sodipodi:docname="end.svg"
   inkscape:version="0.92.5 (0.92.5+68)"><metadata
     id="metadata28"><rdf:RDF><cc:Work
         rdf:about=""><dc:format>image/svg+xml</dc:format><dc:type
           rdf:resource="http://purl.org/dc/dcmitype/StillImage" /><dc:title></dc:title></cc:Work></rdf:RDF></metadata><defs
     id="defs26" /><sodipodi:namedview
     pagecolor="#ffffff"
     bordercolor="#666666"
     borderopacity="1"
     objecttolerance="10"
     gridtolerance="10"
     guidetolerance="10"
     inkscape:pageopacity="0"
     inkscape:pageshadow="2"
     inkscape:window-width="744"
     inkscape:window-height="480"
     id="namedview24"
     showgrid="false"
     inkscape:zoom="1.9666667"
     inkscape:cx="48"
     inkscape:cy="60"
     inkscape:window-x="814"
     inkscape:window-y="243"
     inkscape:window-maximized="0"
     inkscape:current-layer="svg22" /><path
     d="M92,19.996c-2.208,0-4,1.792-4,4v13.32l-12.436-14.86c-1.42-1.696-3.944-1.92-5.641-0.5c-1.688,1.42-1.916,3.944-0.5,5.636  L83.164,44H4c-2.208,0-4,1.792-4,4s1.792,4,4,4h79.436L69.443,68.384c-1.432,1.681-1.235,4.204,0.445,5.64  c0.752,0.645,1.676,0.953,2.592,0.953c1.131,0,2.252-0.477,3.047-1.404L88,58.977V72c0,2.212,1.792,4,4,4s4-1.788,4-4V24  C96,21.788,94.208,19.996,92,19.996L92,19.996z"
     id="path16" /></svg>