<svg xmlns="http://www.w3.org/2000/svg" xmlns:xlink="http://www.w3.org/1999/xlink" version="1.1" x="0px" y="0px" viewBox="0 0 100 125" style="enable-background:new 0 0 100 100;" xml:space="preserve"><g><path d="M75,83.4l-7.3-14.5c-0.8-1.6-2.4-2.5-4.1-2.5H36.6c-1.8,0-3.3,1-4.1,2.5l-7.3,14.5c-0.4,0.7-0.1,1.6,0.7,2   c0.7,0.4,1.6,0.1,2-0.7l1-2c0,0,0.1,0,0.1,0h42.2c0,0,0.1,0,0.1,0l1,2c0.3,0.5,0.8,0.8,1.3,0.8c0.2,0,0.5-0.1,0.7-0.2   C75.1,85,75.4,84.1,75,83.4z M36.6,69.3h27.1c0.6,0,1.2,0.3,1.4,0.9l1.5,3H33.6l1.5-3C35.4,69.7,35.9,69.3,36.6,69.3z M30.3,79.7   l1.8-3.6H68l1.8,3.6H30.3z"/><path d="M42.7,62.7h14.7c7.7,0,14-6.3,14-14V28.3c0-7.7-6.3-14-14-14H42.7c-7.7,0-14,6.3-14,14v20.4C28.7,56.5,35,62.7,42.7,62.7z    M31.7,28.3c0-6.1,4.9-11,11-11h14.7c6.1,0,11,4.9,11,11v20.4c0,6.1-4.9,11-11,11H42.7c-6.1,0-11-4.9-11-11V28.3z"/><path d="M40.3,43.5H60c2.7,0,4.8-2.2,4.8-4.8v-9.3c0-4.5-3.6-8.1-8.1-8.1H43.6c-4.5,0-8.1,3.6-8.1,8.1v9.3   C35.5,41.3,37.7,43.5,40.3,43.5z M38.5,29.4c0-2.8,2.3-5.1,5.1-5.1h13.2c2.8,0,5.1,2.3,5.1,5.1v9.3c0,1-0.8,1.8-1.8,1.8H40.3   c-1,0-1.8-0.8-1.8-1.8V29.4z"/><path d="M41.6,46.3c-2.6,0-4.7,2.1-4.7,4.7c0,2.6,2.1,4.7,4.7,4.7c2.6,0,4.7-2.1,4.7-4.7C46.3,48.4,44.2,46.3,41.6,46.3z    M41.6,53.1c-1.1,0-2-0.9-2-2c0-1.1,0.9-2,2-2c1.1,0,2,0.9,2,2C43.6,52.2,42.7,53.1,41.6,53.1z"/><path d="M58.8,46.3c-2.6,0-4.7,2.1-4.7,4.7c0,2.6,2.1,4.7,4.7,4.7c2.6,0,4.7-2.1,4.7-4.7C63.5,48.4,61.4,46.3,58.8,46.3z    M58.8,53.1c-1.1,0-2-0.9-2-2c0-1.1,0.9-2,2-2s2,0.9,2,2C60.8,52.2,59.9,53.1,58.8,53.1z"/></g><text x="0" y="115" fill="#000000" font-size="5px" font-weight="bold" font-family="'Helvetica Neue', Helvetica, Arial-Unicode, Arial, Sans-serif">Created by Artem  Kovyazin</text><text x="0" y="120" fill="#000000" font-size="5px" font-weight="bold" font-family="'Helvetica Neue', Helvetica, Arial-Unicode, Arial, Sans-serif">from the Noun Project</text></svg>