<svg xmlns="http://www.w3.org/2000/svg" xmlns:xlink="http://www.w3.org/1999/xlink" version="1.1" x="0px" y="0px" viewBox="0 0 100 125" style="enable-background:new 0 0 100 100;" xml:space="preserve"><g><path d="M78.1,25.6l-2.7-2.7c-2.2-2.2-5.1-3.4-8.3-3.4s-6.1,1.2-8.3,3.4L24,57.8c-2.2,2.2-3.4,5.1-3.4,8.3c0,3.1,1.2,6.1,3.4,8.3   l2.7,2.7c2.3,2.3,5.3,3.4,8.3,3.4c3,0,6-1.1,8.3-3.4l34.9-34.9c2.2-2.2,3.4-5.1,3.4-8.3C81.6,30.8,80.3,27.8,78.1,25.6z M51.3,64.8   l-15-15l14.6-14.6l15,15L51.3,64.8z M41.1,75c-3.4,3.4-8.9,3.4-12.3,0l-2.7-2.7c-1.6-1.6-2.5-3.8-2.5-6.1c0-2.3,0.9-4.5,2.5-6.1   l8.1-8.1l15,15L41.1,75z M76,40L68,48.1l-15-15L61,25c1.6-1.6,3.8-2.5,6.1-2.5s4.5,0.9,6.1,2.5l2.7,2.7c1.6,1.6,2.5,3.8,2.5,6.1   C78.6,36.2,77.7,38.4,76,40z"/><ellipse transform="matrix(0.7071 -0.7071 0.7071 0.7071 -15.08 48.6135)" cx="51.1" cy="42.5" rx="1.7" ry="1.7"/><ellipse transform="matrix(0.7071 -0.7071 0.7071 0.7071 -16.614 52.317)" cx="54.8" cy="46.2" rx="1.7" ry="1.7"/><ellipse transform="matrix(0.7071 -0.7071 0.7071 0.7071 -18.1482 56.0196)" cx="58.5" cy="49.9" rx="1.7" ry="1.7"/><ellipse transform="matrix(0.7071 -0.7071 0.7071 0.7071 -18.8666 47.0442)" cx="47.4" cy="46.3" rx="1.7" ry="1.7"/><ellipse transform="matrix(0.7071 -0.7071 0.7071 0.7071 -20.4006 50.7495)" cx="51.1" cy="50" rx="1.7" ry="1.7"/><ellipse transform="matrix(0.7071 -0.7071 0.7071 0.7071 -21.9346 54.4521)" cx="54.8" cy="53.7" rx="1.7" ry="1.7"/><ellipse transform="matrix(0.7071 -0.7071 0.7071 0.7071 -22.6531 45.4775)" cx="43.6" cy="50.1" rx="1.7" ry="1.7"/><ellipse transform="matrix(0.7071 -0.7071 0.7071 0.7071 -24.1871 49.1793)" cx="47.3" cy="53.8" rx="1.7" ry="1.7"/><ellipse transform="matrix(0.7071 -0.7071 0.7071 0.7071 -25.7212 52.8837)" cx="51" cy="57.5" rx="1.7" ry="1.7"/></g><text x="0" y="115" fill="#000000" font-size="5px" font-weight="bold" font-family="'Helvetica Neue', Helvetica, Arial-Unicode, Arial, Sans-serif">Created by Artem  Kovyazin</text><text x="0" y="120" fill="#000000" font-size="5px" font-weight="bold" font-family="'Helvetica Neue', Helvetica, Arial-Unicode, Arial, Sans-serif">from the Noun Project</text></svg>