<svg xmlns="http://www.w3.org/2000/svg" xmlns:xlink="http://www.w3.org/1999/xlink" version="1.1" preserveAspectRatio="none" x="0px" y="0px" viewBox="0 0 90 112.5"><defs><g id="a"><path fill="#000000" stroke="none" d=" M 44.85 17.95 Q 44.45 17.55 42.3 15.75 39.65 13.5 37.1 11.55 29.2 5.5 26.8 5.6 26.25 5.55 25.65 5.9 25.4 6.05 25.15 6.1 20.5 2.05 18.8 2.1 17.5 2.1 16.7 3.2 16.1 4.05 16.1 5.2 16.1 6.3 16.5 7.4 16.8 8.3 17.65 9.25 17.45 9.45 17.35 9.7 16.95 10.5 16.95 11.55 16.9 12.85 17.6 14.35 17.55 14.35 17.5 14.35 16.5 14.75 16.1 15.45 15.7 16 15.5 17.7 15.25 19.25 16.85 24.65 16.25 26 15.8 29.5 15.55 31.3 15.4 33.45 15.3 35.1 15.3 35.6 15.3 38.55 16.25 41.4 17 43.65 18.6 46.4 19.5 47.95 21.55 51.2 L 21.55 51.15 Q 23.35 54.1 24.4 56.4 25.1 57.95 26.65 62.2 28.2 66.3 29.6 69.4 31 72.6 34.95 75.6 37.9 77.9 43 78.8 44.2 79.8 44.95 81.05 45.25 81.55 45.6 82.3 45.75 82.7 46.05 83.5 46.4 84.35 46.6 84.7 47 85.4 47.5 85.8 48.75 86.85 51.55 86.85 54 86.9 57.7 83.8 59 82.7 60.05 81.5 60.3 81.2 60.55 80.95 62.65 82.7 64.35 84.7 64.4 84.85 64.5 84.95 64.7 85.15 64.95 85.15 L 65.45 85.15 Q 66.55 85.2 70.45 82.05 71.9 80.9 73.25 79.7 74.55 78.5 75.05 77.9 76.4 76.4 77.5 72.5 77.9 70.95 78.15 69.5 78.45 68.05 78.45 67.2 78.45 66.5 78.4 66.4 78.4 66.1 78.35 65.9 78.35 65.7 78.3 65.5 78.15 65.3 77.95 65.2 73 63.5 71.45 60.25 69.9 56.9 69.6 54 69.35 50.9 68.6 46.75 67.9 42.5 66.35 40.05 64.9 37.8 64.1 36 63.2 34.15 62 32.6 60.85 31.05 59.9 29.85 58.95 28.65 58.05 27.35 57.2 26 56.35 23.95 55.5 21.85 55.05 20.6 54.6 19.4 54.25 18.2 53.7 16.6 51.9 16.6 50.25 16.6 49.05 18.2 47.95 19.6 47.85 21.2 47.85 21.3 47.85 21.45 46.1 19.2 44.85 17.95 M 47.95 23.65 Q 48.25 24.1 48.65 24.7 49.1 25.4 49.3 25.7 49.45 25.95 49.55 26 49.6 26.05 49.65 26.05 50.7 27.6 52.1 29.65 L 52.05 29.65 Q 53.6 31.9 54.55 33.25 54.7 33.45 54.95 33.5 55.2 33.55 55.4 33.4 55.6 33.25 55.65 33 55.7 32.75 55.55 32.55 54.65 31.2 53.1 28.95 51.65 26.8 50.55 25.2 L 50.55 25.15 50.5 25.15 Q 50.4 25 50.3 24.85 50.1 24.5 49.7 23.75 49 22.5 49.05 21.25 49.15 20.05 50 18.95 50.85 17.9 51.9 17.85 52.8 17.8 53.05 18.6 53.45 19.8 53.9 21.05 54.35 22.3 55.2 24.45 L 55.2 24.4 Q 56.1 26.65 57 28.05 57.95 29.4 58.9 30.6 59.85 31.8 61 33.35 62.15 34.8 62.95 36.55 63.8 38.35 65.3 40.75 66.7 43 67.4 46.95 68.1 51.1 68.4 54.1 68.65 57.25 70.35 60.8 71.95 64.35 77.15 66.25 77.15 66.35 77.2 66.5 77.2 66.55 77.2 67.2 77.2 67.95 76.95 69.25 76.7 70.7 76.3 72.15 75.3 75.7 74.1 77.1 73.65 77.65 72.4 78.75 71.1 79.95 69.7 81.1 66.3 83.8 65.45 83.9 L 65.3 83.9 Q 63.3 81.55 60.8 79.6 L 60.75 79.6 Q 59.7 78.75 58.5 77.95 54.6 75.4 51.7 73.1 48.8 70.8 47.45 69.7 43.25 66.15 39.55 61.1 37.15 57.75 34.1 52.4 33.1 50.6 32.3 48.3 31.85 46.85 31.15 44 30.4 41.1 29.95 39.7 29.15 37.3 27.95 35.25 26.75 33.15 25.3 31.35 23.85 29.6 21.7 26.45 19.65 23.5 19.65 20.6 19.65 19.8 19.95 18.9 20.2 18.25 20.55 18.15 21.05 18.25 23.45 21.4 26.15 24.95 28.45 27.3 30.7 29.5 31.35 30.6 32 31.7 33.5 34.45 34.95 37.25 35.75 38.5 35.85 38.7 36.1 38.8 36.35 38.85 36.6 38.7 36.8 38.6 36.85 38.35 36.9 38.1 36.8 37.85 36.05 36.65 34.6 33.9 33.1 31.05 32.4 29.95 31.7 28.8 29.35 26.4 27.05 24.15 24.45 20.65 21.65 17 20.6 16.9 20.4 16.6 19.95 15.9 L 19.95 15.85 Q 19.4 15.05 19.1 14.5 18.2 12.9 18.15 11.55 18.15 10.8 18.45 10.3 18.55 10.05 18.7 9.95 18.8 9.95 18.9 9.85 18.95 9.85 19 9.8 19.05 9.8 19.1 9.8 20.1 9.85 21.65 11.25 23 12.45 25 14.9 26.15 16.3 28.4 19.15 L 28.45 19.15 Q 30.4 21.55 31.5 22.5 35.95 26.25 40 32.15 41.85 34.85 43 36.9 43.1 37.15 43.35 37.2 43.6 37.3 43.85 37.15 44.05 37.05 44.15 36.8 44.2 36.55 44.1 36.35 42.95 34.2 41.05 31.45 36.85 25.35 32.3 21.55 31.25 20.65 29.4 18.4 27.15 15.55 25.95 14.1 23.85 11.55 22.5 10.3 20.45 8.5 19.1 8.55 18.9 8.55 18.7 8.6 17.95 7.8 17.65 7 17.35 6.1 17.35 5.2 17.35 4.5 17.75 3.95 L 17.75 3.9 Q 18.1 3.35 18.8 3.35 20.35 3.45 25.15 7.75 25.2 7.8 25.25 7.85 26.2 8.7 27.3 9.75 29.4 11.75 32 14.4 33.3 15.7 34.4 16.85 34.45 16.85 34.45 16.9 40.65 22.5 45.45 30.4 45.8 31 48.15 35.05 48.75 36.15 49.15 36.6 49.3 36.8 49.55 36.8 49.8 36.85 50 36.7 50.2 36.5 50.25 36.25 50.25 36 50.1 35.8 49.75 35.4 49.2 34.45 L 49.2 34.4 Q 46.85 30.35 46.5 29.75 41.6 21.7 35.3 15.95 L 35.3 16 Q 34.2 14.85 32.9 13.55 30.25 10.85 28.15 8.85 27.15 7.85 26.2 7 L 26.25 7 Q 26.55 6.85 26.8 6.8 29 6.9 36.35 12.55 38.85 14.45 41.5 16.7 43.55 18.4 44 18.85 45.6 20.45 47.95 23.65 M 16.75 17.85 Q 16.9 16.55 17.15 16.1 17.4 15.75 17.85 15.55 L 18.25 15.55 Q 18.55 16 18.9 16.55 19.25 17.05 19.45 17.35 19.05 17.75 18.8 18.55 18.4 19.65 18.4 20.6 18.4 22.1 18.9 23.65 18.3 23.6 17.9 23.7 16.6 19.2 16.75 17.85 M 18.1 25 Q 18.3 24.85 19 24.9 19.75 25.05 20.35 27.45 20.9 29.85 20.35 32.1 L 20.3 32.15 Q 20.2 32.5 19.65 34 19.55 34.25 19.65 34.5 19.75 34.7 20 34.8 20.25 34.9 20.45 34.8 20.6 34.75 20.7 34.65 20.9 35.5 21.25 36.3 L 21.25 36.25 Q 21.9 37.9 22.3 39.05 22.7 40.35 24 42.2 25.15 43.9 26.55 44.75 26.75 44.85 27 44.8 27.25 44.75 27.4 44.5 27.55 44.3 27.45 44.05 27.4 43.8 27.2 43.65 26 42.95 25 41.5 23.85 39.8 23.45 38.7 23.1 37.45 22.4 35.8 21.75 34.25 21.55 32.35 22 30.6 21.8 28.8 23.25 30.85 24.35 32.15 25.75 33.85 26.9 35.85 28.05 37.8 28.75 40.05 29.2 41.45 29.95 44.3 30.65 47.2 31.15 48.7 31.95 51.15 33 53 36.1 58.45 38.55 61.8 42.35 67 46.65 70.65 48 71.75 50.95 74.1 53.9 76.4 57.8 79 58.7 79.6 59.55 80.2 59.35 80.4 59.15 80.7 58.15 81.8 56.9 82.85 53.65 85.6 51.55 85.65 49.3 85.65 48.3 84.85 47.95 84.55 47.7 84.1 47.5 83.8 47.2 83.05 46.9 82.25 46.7 81.8 46.4 81 46 80.4 45.6 79.75 45.1 79.15 45.8 79.2 46.5 79.3 46.75 79.3 46.95 79.15 47.15 78.95 47.2 78.7 47.2 78.45 47.05 78.25 46.85 78.05 46.6 78.05 44.9 77.9 43.4 77.65 43.4 77.6 43.35 77.6 38.5 76.75 35.7 74.65 32.05 71.85 30.7 68.9 29.35 65.85 27.85 61.75 26.25 57.45 25.55 55.9 24.45 53.55 22.6 50.5 20.6 47.3 19.65 45.75 18.15 43.15 17.4 41 16.55 38.35 16.55 35.6 16.55 35.1 16.65 33.55 16.8 31.45 17 29.7 17.45 26.15 18.1 25 Z"/></g></defs><g transform="matrix( 1, 0, 0, 1, 0,0) "><use xlink:href="#a"/></g><text x="0" y="105" fill="#000000" font-size="5px" font-weight="bold" font-family="'Helvetica Neue', Helvetica, Arial-Unicode, Arial, Sans-serif">Created by Cristiano Zoucas</text><text x="0" y="110" fill="#000000" font-size="5px" font-weight="bold" font-family="'Helvetica Neue', Helvetica, Arial-Unicode, Arial, Sans-serif">from the Noun Project</text></svg>