<svg xmlns="http://www.w3.org/2000/svg" xmlns:xlink="http://www.w3.org/1999/xlink" version="1.1" x="0px" y="0px" viewBox="0 0 512 640" enable-background="new 0 0 512 512" xml:space="preserve"><g><path d="M374,151c2.762,0,5-2.239,5-5s-2.238-5-5-5h-11H191v-1.677c0-1.431,0.302-2.842,0.302-4.202   c0-21.021-17.131-38.122-38.151-38.122c-20.881,0-37.956,16.938-38.132,37.796C115.016,134.864,115,134.932,115,135v199   c0,0.022,0,0.044,0,0.067c0,0.021,0,0.04,0,0.055c0,21.021,16.979,38.122,38,38.122c0.021,0,0.04-0.001,0.061-0.001   s0.04,0.001,0.061,0.001c3.357,0,6.613-0.44,9.717-1.259c0.056,0.001,0.106,0.016,0.162,0.016h200h11c2.762,0,5-2.239,5-5   s-2.238-5-5-5h-6v-32h6c2.762,0,5-2.239,5-5s-2.238-5-5-5h-6v-35h6c2.762,0,5-2.239,5-5s-2.238-5-5-5h-6v-37h6c2.762,0,5-2.239,5-5   s-2.238-5-5-5h-6v-34h6c2.762,0,5-2.239,5-5s-2.238-5-5-5h-6v-32H374z M191.054,180h116.971   C310.022,192.885,320,203.116,333,205.254v102.163c-13,2.114-22.604,12.042-24.855,24.583H191.24l-0.052-42h10.684   c7.614,9.269,18.195,14.532,29.392,14.532c26.205,0,42.188-17.451,53.857-30.193c6.083-6.642,11.829-12.916,15.879-12.916   c2.762,0,5-2.239,5-5s-2.238-5-5-5c-4.26,0-10.567-6.57-17.246-13.525c-11.971-12.467-28.364-29.541-52.49-29.541   c-11.154,0-21.737,5.304-29.394,14.642h-10.764L191.054,180z M157.396,361.918c-0.204,0.032-0.412,0.052-0.617,0.079   c-0.263,0.034-0.523,0.073-0.789,0.1c-0.943,0.096-1.9,0.146-2.869,0.146c-0.484,0-0.966-0.012-1.445-0.037   c-0.033-0.002-0.067-0.006-0.102-0.008c-0.443-0.024-0.885-0.056-1.322-0.101c-0.146-0.015-0.288-0.038-0.433-0.055   c-0.325-0.039-0.651-0.075-0.974-0.124c-0.178-0.027-0.354-0.064-0.531-0.095c-0.283-0.049-0.569-0.095-0.85-0.152   c-0.166-0.034-0.328-0.077-0.492-0.114c-0.291-0.065-0.582-0.127-0.869-0.201c-0.113-0.029-0.225-0.065-0.338-0.096   c-0.333-0.09-0.666-0.181-0.994-0.283c-0.146-0.045-0.29-0.099-0.436-0.147c-0.291-0.096-0.583-0.189-0.87-0.295   c-0.134-0.049-0.265-0.105-0.397-0.157c-0.294-0.113-0.59-0.225-0.879-0.347c-0.113-0.048-0.222-0.102-0.334-0.151   c-0.306-0.134-0.611-0.268-0.911-0.413c-0.11-0.054-0.218-0.113-0.327-0.168c-0.297-0.148-0.594-0.295-0.885-0.453   c-0.127-0.07-0.251-0.146-0.377-0.217c-0.268-0.151-0.537-0.3-0.799-0.46c-0.14-0.084-0.273-0.176-0.411-0.263   c-0.244-0.154-0.49-0.307-0.729-0.468c-0.133-0.089-0.26-0.186-0.391-0.277c-0.238-0.167-0.479-0.333-0.713-0.507   c-0.124-0.093-0.243-0.193-0.366-0.288c-0.233-0.181-0.468-0.359-0.696-0.547c-0.121-0.1-0.236-0.206-0.355-0.308   c-0.223-0.19-0.447-0.379-0.664-0.576c-0.119-0.108-0.232-0.222-0.35-0.332c-0.211-0.198-0.423-0.394-0.628-0.599   c-0.123-0.123-0.239-0.252-0.36-0.378c-0.191-0.198-0.385-0.394-0.57-0.598c-0.121-0.133-0.235-0.272-0.354-0.408   c-0.179-0.203-0.359-0.404-0.531-0.612c-0.115-0.14-0.225-0.286-0.337-0.428c-0.167-0.21-0.337-0.418-0.498-0.633   c-0.12-0.161-0.233-0.329-0.351-0.492c-0.146-0.203-0.294-0.402-0.434-0.609c-0.114-0.168-0.221-0.343-0.331-0.514   c-0.134-0.208-0.272-0.415-0.401-0.626c-0.104-0.17-0.199-0.346-0.3-0.519c-0.127-0.219-0.257-0.435-0.378-0.658   c-0.1-0.183-0.191-0.371-0.287-0.556c-0.112-0.218-0.229-0.434-0.335-0.655c-0.092-0.189-0.174-0.382-0.261-0.574   c-0.102-0.223-0.208-0.445-0.305-0.671c-0.082-0.194-0.155-0.392-0.232-0.588c-0.092-0.228-0.187-0.455-0.271-0.686   c-0.075-0.205-0.141-0.414-0.211-0.62c-0.078-0.228-0.16-0.455-0.232-0.685c-0.066-0.213-0.123-0.43-0.185-0.645   c-0.065-0.229-0.136-0.455-0.195-0.686c-0.059-0.225-0.106-0.453-0.159-0.68c-0.052-0.226-0.109-0.45-0.156-0.678   c-0.047-0.229-0.084-0.461-0.125-0.691c-0.042-0.23-0.088-0.459-0.124-0.691c-0.036-0.23-0.06-0.464-0.09-0.696   c-0.03-0.236-0.065-0.471-0.091-0.708c-0.023-0.229-0.036-0.462-0.054-0.693c-0.019-0.244-0.044-0.487-0.056-0.732   c-0.012-0.227-0.013-0.457-0.02-0.686c-0.007-0.254-0.019-0.508-0.02-0.764c0.002-0.046,0.002-0.092,0.003-0.126   c0.007-1.864,0.196-3.686,0.55-5.449c-0.004,0.185-0.014,0.367-0.014,0.553c0,15.209,12.373,27.582,27.582,27.582   s27.582-12.373,27.582-27.582c0-0.188-0.011-0.373-0.014-0.559c0.355,1.769,0.424,3.596,0.43,5.467L181,334.133   c0,0.018,0,0.035,0,0.052c0,0.62,0.086,1.232,0.045,1.843c-0.012,0.166,0.042,0.322,0.027,0.494   c-0.004,0.049,0.024,0.099,0.02,0.147c-0.056,0.618-0.113,1.23-0.207,1.837c-0.027,0.173-0.056,0.344-0.086,0.516   c-0.008,0.045-0.012,0.091-0.021,0.136c-0.069,0.391-0.148,0.777-0.234,1.163c-0.003,0.014-0.005,0.027-0.008,0.041   c-0.061,0.264-0.116,0.529-0.183,0.791c-0.051,0.195-0.111,0.386-0.165,0.58c-0.041,0.145-0.081,0.291-0.124,0.435   c-0.033,0.11-0.062,0.222-0.096,0.332c-0.053,0.167-0.113,0.331-0.168,0.496c-0.089,0.267-0.175,0.535-0.271,0.798   c-0.053,0.144-0.113,0.285-0.169,0.428c-0.109,0.284-0.217,0.568-0.335,0.847c-0.058,0.134-0.121,0.264-0.181,0.397   c-0.126,0.284-0.25,0.569-0.385,0.849c-0.046,0.096-0.099,0.189-0.146,0.285c-0.155,0.312-0.311,0.623-0.477,0.928   c-0.038,0.068-0.08,0.134-0.117,0.203c-0.182,0.328-0.366,0.654-0.561,0.973c-0.049,0.08-0.102,0.156-0.151,0.235   c-0.19,0.305-0.381,0.609-0.582,0.906c-0.032,0.047-0.067,0.092-0.1,0.14c-0.224,0.325-0.45,0.647-0.687,0.963   c-0.02,0.027-0.042,0.053-0.062,0.08c-0.251,0.333-0.508,0.661-0.772,0.981c-0.028,0.034-0.058,0.065-0.086,0.099   c-0.261,0.312-0.525,0.62-0.799,0.921c-0.026,0.029-0.056,0.057-0.082,0.086c-0.277,0.302-0.56,0.6-0.85,0.89   c-0.011,0.011-0.022,0.021-0.034,0.032c-0.308,0.307-0.621,0.607-0.943,0.899c-0.005,0.005-0.011,0.009-0.016,0.014   c-0.328,0.297-0.663,0.587-1.005,0.87c-0.009,0.007-0.017,0.013-0.025,0.02c-0.339,0.279-0.685,0.551-1.036,0.814   c-0.027,0.02-0.056,0.038-0.082,0.058c-0.335,0.249-0.675,0.492-1.021,0.726c-0.032,0.022-0.066,0.042-0.1,0.064   c-0.343,0.229-0.688,0.453-1.041,0.667c-0.014,0.008-0.027,0.016-0.041,0.024c-0.373,0.226-0.752,0.444-1.136,0.653   c-0.038,0.021-0.077,0.039-0.116,0.06c-0.361,0.194-0.726,0.383-1.096,0.562c-0.022,0.011-0.046,0.02-0.068,0.03   c-0.2,0.096-0.404,0.184-0.607,0.275c-0.2,0.089-0.396,0.185-0.599,0.269c-0.042,0.018-0.084,0.032-0.125,0.049   c-0.237,0.099-0.478,0.191-0.718,0.283c-0.421,0.161-0.846,0.314-1.277,0.456c-0.145,0.048-0.287,0.101-0.432,0.146   c-0.035,0.011-0.07,0.019-0.105,0.03c-0.405,0.125-0.814,0.243-1.228,0.349c-0.091,0.023-0.185,0.042-0.276,0.064   c-0.358,0.089-0.719,0.176-1.083,0.25c-0.021,0.004-0.044,0.007-0.065,0.012C158.277,361.771,157.84,361.851,157.396,361.918z    M153.121,311.54c9.694,0,17.582,7.887,17.582,17.582s-7.888,17.582-17.582,17.582s-17.582-7.887-17.582-17.582   S143.427,311.54,153.121,311.54z M191.119,233h13.202c1.597,0,3.098-0.763,4.039-2.053c5.838-8,14.186-12.589,22.903-12.589   c19.864,0,33.955,14.675,45.277,26.466c4.3,4.479,8.306,8.651,12.31,11.692c-3.65,2.931-7.249,6.86-11.104,11.069   c-10.995,12.005-24.68,26.947-46.483,26.947c-8.769,0-17.116-4.549-22.903-12.479c-0.941-1.29-2.442-2.053-4.039-2.053h-13.144   L191.119,233z M125,135.171c0.002-0.051,0.003-0.102,0.003-0.153C125.06,119.569,137.673,107,153.121,107   c15.507,0,28.122,12.615,28.122,28.122c0,1.08-0.066,2.169-0.204,3.332c-0.023,0.197-0.059,0.396-0.059,0.594l0.02,35.957   c0,0.001,0,0.001,0,0.002l0.188,133.375C174.215,300.777,164.216,296,153.109,296c-11.123,0-21.135,4.79-28.109,12.414V135.171z    M185.978,353.421c2.059-3.492,3.58-7.335,4.442-11.421h122.254c2.736,0,4.964-2.199,5-4.936C317.816,326.001,326.935,317,338,317   c1.326,0,2.598-0.527,3.535-1.464c0.938-0.938,1.465-2.209,1.465-3.536V200.666c0-2.762-2.238-5-5-5   c-11.213,0-20.334-9.122-20.332-20.374l0.005-0.204c0.023-1.341-0.492-2.636-1.433-3.593c-0.939-0.957-2.225-1.496-3.566-1.496   H191.017l0.002-19H358v210H180.218C182.474,358.73,184.398,356.18,185.978,353.421z"/><path d="M389,151h3c2.762,0,5-2.239,5-5s-2.238-5-5-5h-3c-2.762,0-5,2.239-5,5S386.238,151,389,151z"/><path d="M392,183h-3c-2.762,0-5,2.239-5,5s2.238,5,5,5h3c2.762,0,5-2.239,5-5S394.762,183,392,183z"/><path d="M392,227h-3c-2.762,0-5,2.239-5,5s2.238,5,5,5h3c2.762,0,5-2.239,5-5S394.762,227,392,227z"/><path d="M392,274h-3c-2.762,0-5,2.239-5,5s2.238,5,5,5h3c2.762,0,5-2.239,5-5S394.762,274,392,274z"/><path d="M392,319h-3c-2.762,0-5,2.239-5,5s2.238,5,5,5h3c2.762,0,5-2.239,5-5S394.762,319,392,319z"/><path d="M392,361h-3c-2.762,0-5,2.239-5,5s2.238,5,5,5h3c2.762,0,5-2.239,5-5S394.762,361,392,361z"/></g><text x="0" y="527" fill="#000000" font-size="5px" font-weight="bold" font-family="'Helvetica Neue', Helvetica, Arial-Unicode, Arial, Sans-serif">Created by diambergerak studio</text><text x="0" y="532" fill="#000000" font-size="5px" font-weight="bold" font-family="'Helvetica Neue', Helvetica, Arial-Unicode, Arial, Sans-serif">from the Noun Project</text></svg>