<svg xmlns="http://www.w3.org/2000/svg" xmlns:xlink="http://www.w3.org/1999/xlink" version="1.1" x="0px" y="0px" viewBox="0 0 50 62.5" enable-background="new 0 0 50 50" xml:space="preserve"><g><path d="M49.2,2.3C46,0.7,41.2-0.5,37.7,0.8c-2.2,0.8-3.6,3-3.3,5.3C18,22.9,25,14.5,0.7,46.6c-1.5,2,1.3,4.3,3,2.6   C31.8,20.6,24.5,28.8,39,10.1c1.7,0,3.3-1,4.2-2.6c0.8-1.5,2.7-4.2,5.7-3.7c0,0,0.1,0,0.1,0c0,0,0,0,0,0   C49.9,3.7,50.1,2.5,49.2,2.3z M2.5,48.1c-0.5,0.5-1-0.2-0.7-0.6l17.5-23l3.5,3L2.5,48.1z M23.9,26.5l-3.6-3.2   c0.8-1.1,0.6-0.8,1.5-1.8l3.8,3.3C24.6,25.8,24.8,25.5,23.9,26.5z M26.5,23.7l-3.8-3.3c1.1-1.2,0.1-0.1,12.2-12.7   c0.5,0.9,1.4,1.7,2.5,2.1C26.6,23.6,27.6,22.4,26.5,23.7z M41.9,6.7c-1.6,2.9-5.4,2.1-6-0.5c-0.3-1.5,0.4-3.4,2.3-4   c2.4-0.8,5.4-0.4,7.9,0.4C43.9,3.5,42.6,5.4,41.9,6.7z"/></g><text x="0" y="65" fill="#000000" font-size="5px" font-weight="bold" font-family="'Helvetica Neue', Helvetica, Arial-Unicode, Arial, Sans-serif">Created by Vectors Market</text><text x="0" y="70" fill="#000000" font-size="5px" font-weight="bold" font-family="'Helvetica Neue', Helvetica, Arial-Unicode, Arial, Sans-serif">from the Noun Project</text></svg>