<svg xmlns="http://www.w3.org/2000/svg" xmlns:xlink="http://www.w3.org/1999/xlink" version="1.1" x="0px" y="0px" viewBox="0 0 100 125" enable-background="new 0 0 100 100" xml:space="preserve"><path d="M49.999,5.315c-24.678,0-44.684,20.006-44.684,44.684c0,24.679,20.006,44.686,44.684,44.686  c24.679,0,44.686-20.007,44.686-44.686C94.685,25.321,74.678,5.315,49.999,5.315z M50,72.935c-12.459,0-22.56-10.101-22.56-22.56  c0-12.459,10.101-22.559,22.56-22.559s22.56,10.1,22.56,22.559C72.56,62.834,62.459,72.935,50,72.935z"/><g><path d="M41.017,51.842c0.718-1.289,1.77-2.259,3.153-2.91c-1.372-0.911-2.264-1.897-2.676-2.959   c-0.411-1.061-0.617-2.054-0.617-2.979c0-2.057,0.776-3.812,2.329-5.264c1.553-1.452,3.745-2.178,6.577-2.178   s5.024,0.726,6.577,2.178c1.553,1.452,2.329,3.207,2.329,5.264c0,0.925-0.205,1.917-0.615,2.979   c-0.41,1.062-1.299,1.982-2.666,2.764c1.399,0.781,2.453,1.816,3.159,3.105s1.06,2.728,1.06,4.316c0,2.383-0.883,4.411-2.649,6.084   c-1.766,1.673-4.232,2.51-7.399,2.51s-5.565-0.836-7.195-2.51c-1.629-1.673-2.443-3.701-2.443-6.084   C39.939,54.57,40.299,53.131,41.017,51.842z M46.805,59.029c0.723,0.769,1.722,1.152,2.998,1.152s2.275-0.384,2.998-1.152   c0.723-0.768,1.084-1.849,1.084-3.242c0-1.445-0.368-2.542-1.104-3.291c-0.735-0.749-1.729-1.123-2.979-1.123   s-2.243,0.375-2.979,1.123c-0.735,0.749-1.104,1.846-1.104,3.291C45.721,57.181,46.082,58.261,46.805,59.029z M47.158,46.139   c0.634,0.651,1.512,0.977,2.635,0.977c1.136,0,2.014-0.325,2.634-0.977c0.62-0.651,0.931-1.491,0.931-2.52   c0-1.12-0.311-1.995-0.931-2.627c-0.62-0.631-1.498-0.947-2.634-0.947c-1.123,0-2.001,0.316-2.635,0.947   c-0.633,0.632-0.949,1.507-0.949,2.627C46.209,44.648,46.525,45.488,47.158,46.139z"/></g><text x="0" y="115" fill="#000000" font-size="5px" font-weight="bold" font-family="'Helvetica Neue', Helvetica, Arial-Unicode, Arial, Sans-serif">Created by Massimiliano Mauro</text><text x="0" y="120" fill="#000000" font-size="5px" font-weight="bold" font-family="'Helvetica Neue', Helvetica, Arial-Unicode, Arial, Sans-serif">from the Noun Project</text></svg>