<svg xmlns="http://www.w3.org/2000/svg" xmlns:xlink="http://www.w3.org/1999/xlink" version="1.1" x="0px" y="0px" viewBox="0 0 100 125" style="enable-background:new 0 0 100 100;" xml:space="preserve"><path d="M58,76.5h-7.2V54c2.9-0.3,5.6-1.6,7.6-3.8c2.2-2.4,3.2-5.7,2.8-9l-2.2-18.6c-0.1-0.5-0.5-0.9-1-0.9H41.6  c-0.5,0-0.9,0.4-1,0.9l-2.2,18.6c-0.4,3.3,0.6,6.5,2.8,9c2,2.2,4.7,3.5,7.6,3.8v22.5h-7.2c-0.6,0-1,0.4-1,1s0.4,1,1,1H58  c0.6,0,1-0.4,1-1S58.6,76.5,58,76.5z M42.5,23.8H57l2,16.5c0,0-0.1,0-0.1,0H40.5L42.5,23.8z M42.7,48.9c-1.6-1.8-2.5-4.2-2.4-6.6  h18.6c0.1,0,0.2,0,0.3-0.1c0.1,2.4-0.7,4.8-2.4,6.7c-1.8,2-4.4,3.2-7.1,3.2C47,52,44.5,50.9,42.7,48.9z"/><text x="0" y="115" fill="#000000" font-size="5px" font-weight="bold" font-family="'Helvetica Neue', Helvetica, Arial-Unicode, Arial, Sans-serif">Created by Artem  Kovyazin</text><text x="0" y="120" fill="#000000" font-size="5px" font-weight="bold" font-family="'Helvetica Neue', Helvetica, Arial-Unicode, Arial, Sans-serif">from the Noun Project</text></svg>