<svg xmlns="http://www.w3.org/2000/svg" xmlns:xlink="http://www.w3.org/1999/xlink" version="1.1" x="0px" y="0px" viewBox="0 0 100 125" enable-background="new 0 0 100 100" xml:space="preserve"><path d="M94.205,66.997c-0.373-0.091-0.934-0.271-1.623-0.409c-1.385-0.301-3.332-0.607-5.609-0.743  c-2.279-0.143-4.887-0.096-7.625,0.16c-2.738,0.261-5.598,0.778-8.408,1.483c-2.809,0.719-5.57,1.625-8.1,2.703  c-0.775,0.33-1.52,0.676-2.25,1.025c0.459-0.389,0.918-0.779,1.383-1.197c1.246-1.133,2.537-2.342,3.803-3.645  c2.547-2.598,5.047-5.532,7.373-8.598c2.312-3.075,4.459-6.277,6.268-9.434c1.803-3.16,3.312-6.24,4.441-9.006  c1.137-2.76,1.904-5.194,2.365-6.958c0.244-0.872,0.369-1.607,0.484-2.086c0.102-0.488,0.137-0.763,0.137-0.763  s-0.256,0.109-0.697,0.339c-0.432,0.24-1.104,0.56-1.879,1.029c-1.57,0.921-3.705,2.322-6.055,4.163  c-2.357,1.835-4.914,4.123-7.467,6.716c-2.549,2.595-5.049,5.528-7.383,8.588c-2.322,3.07-4.471,6.27-6.279,9.425  c-0.764,1.315-1.447,2.622-2.094,3.897c0.576-2.649,1.082-5.522,1.455-8.55c0.545-4.348,0.805-8.985,0.809-13.623  c-0.016-4.637-0.279-9.273-0.828-13.621c-0.537-4.348-1.342-8.404-2.242-11.882c-0.898-3.478-1.91-6.376-2.734-8.405  C50.635,5.58,50,4.42,50,4.42s-0.635,1.159-1.449,3.188c-0.823,2.029-1.834,4.927-2.734,8.405s-1.705,7.535-2.242,11.882  c-0.551,4.347-0.814,8.984-0.827,13.621c0.002,4.638,0.264,9.275,0.809,13.623c0.372,3.028,0.88,5.902,1.456,8.552  c-0.648-1.276-1.332-2.584-2.095-3.899c-1.81-3.155-3.958-6.355-6.28-9.425c-2.332-3.061-4.834-5.994-7.382-8.588  c-2.554-2.593-5.109-4.88-7.468-6.716c-2.35-1.841-4.483-3.242-6.055-4.163c-0.774-0.469-1.447-0.789-1.879-1.029  c-0.443-0.23-0.697-0.339-0.697-0.339s0.036,0.274,0.139,0.763c0.113,0.479,0.24,1.214,0.482,2.086  c0.461,1.763,1.23,4.197,2.367,6.958c1.127,2.766,2.637,5.847,4.44,9.006c1.808,3.157,3.953,6.359,6.268,9.434  c2.326,3.065,4.825,6,7.372,8.598c1.266,1.303,2.559,2.512,3.803,3.645c0.467,0.418,0.925,0.809,1.384,1.197  c-0.729-0.35-1.475-0.695-2.251-1.025c-2.53-1.078-5.289-1.984-8.098-2.703c-2.813-0.705-5.672-1.223-8.411-1.483  c-2.737-0.256-5.343-0.303-7.624-0.16c-2.277,0.136-4.225,0.442-5.609,0.743c-0.69,0.139-1.25,0.318-1.623,0.409  c-0.377,0.104-0.584,0.181-0.584,0.181s0.146,0.166,0.427,0.438c0.284,0.259,0.69,0.686,1.229,1.135  c1.073,0.926,2.637,2.127,4.574,3.334c1.934,1.215,4.244,2.42,6.773,3.502c2.53,1.08,5.29,1.992,8.096,2.717  c2.811,0.713,5.669,1.234,8.406,1.496c1.79,0.172,3.512,0.24,5.133,0.234c-1.876,0.717-3.811,1.623-5.648,2.701  c-1.753,1.014-3.42,2.17-4.917,3.369c-1.497,1.197-2.815,2.455-3.884,3.637c-1.069,1.18-1.891,2.285-2.436,3.111  c-0.54,0.834-0.812,1.373-0.812,1.373s0.603,0.031,1.593-0.021c0.989-0.061,2.357-0.223,3.912-0.562  c1.557-0.338,3.303-0.855,5.088-1.559c1.785-0.701,3.619-1.572,5.368-2.586c3.513-2.01,6.675-4.619,8.805-6.996  c0.564-0.623,1.056-1.223,1.476-1.775c0.047,0.262,0.095,0.541,0.145,0.846c0.128,0.795,0.247,1.729,0.341,2.734  c0.078,1.006,0.149,2.086,0.124,3.158c0.001,1.08-0.098,2.15-0.258,3.146c-0.053,0.508-0.213,0.963-0.307,1.42  c-0.103,0.457-0.29,0.848-0.416,1.238c-0.129,0.389-0.346,0.691-0.488,0.992c-0.141,0.307-0.322,0.531-0.473,0.719  c-0.299,0.383-0.469,0.602-0.469,0.602s0.21-0.184,0.574-0.504c0.188-0.162,0.419-0.357,0.619-0.637  c0.201-0.275,0.491-0.557,0.698-0.928c0.204-0.369,0.483-0.756,0.68-1.203c0.187-0.449,0.449-0.914,0.603-1.424  c0.367-1.008,0.688-2.115,0.9-3.236c0.24-1.121,0.383-2.256,0.5-3.322c0.104-1.066,0.166-2.068,0.189-2.926  c0.012-0.355,0.018-0.68,0.02-0.98c0.469,0.633,1.031,1.336,1.705,2.08c2.129,2.377,5.291,4.988,8.805,6.996  c1.75,1.014,3.582,1.885,5.367,2.586c1.785,0.703,3.531,1.221,5.088,1.559c1.557,0.34,2.924,0.502,3.912,0.562  c0.99,0.053,1.594,0.021,1.594,0.021s-0.271-0.539-0.811-1.373c-0.545-0.826-1.367-1.932-2.438-3.111  c-1.066-1.182-2.385-2.439-3.883-3.637c-1.496-1.199-3.164-2.355-4.916-3.369c-1.84-1.078-3.773-1.984-5.65-2.701  c1.621,0.006,3.344-0.062,5.133-0.234c2.738-0.262,5.596-0.783,8.406-1.496c2.807-0.725,5.566-1.637,8.096-2.717  c2.527-1.082,4.84-2.287,6.773-3.502c1.936-1.207,3.5-2.408,4.574-3.334c0.539-0.449,0.945-0.876,1.23-1.135  c0.281-0.271,0.426-0.438,0.426-0.438S94.582,67.102,94.205,66.997z M50.049,78.684l-0.182,0.025c0.045-0.014,0.1-0.029,0.133-0.041  C50.012,78.674,50.036,78.68,50.049,78.684z"/><text x="0" y="115" fill="#000000" font-size="5px" font-weight="bold" font-family="'Helvetica Neue', Helvetica, Arial-Unicode, Arial, Sans-serif">Created by Randomhero</text><text x="0" y="120" fill="#000000" font-size="5px" font-weight="bold" font-family="'Helvetica Neue', Helvetica, Arial-Unicode, Arial, Sans-serif">from the Noun Project</text></svg>