<svg xmlns="http://www.w3.org/2000/svg" xmlns:xlink="http://www.w3.org/1999/xlink" version="1.1" x="0px" y="0px" viewBox="0 0 100 125" enable-background="new 0 0 100 100" xml:space="preserve"><g><path d="M51.54,15.021c-0.754-0.754-1.758-1.169-2.828-1.169c-0.731,0-1.425,0.207-2.035,0.57   c-2.513-2.382-5.787-3.699-9.277-3.699c-3.46,0-6.709,1.297-9.214,3.642c-0.986-0.829-2.209-1.303-3.517-1.303   c-0.581,0-1.139,0.113-1.676,0.285L17.246,7.6c-1.037-1.037-2.419-1.609-3.891-1.609S10.501,6.562,9.464,7.6l-7.832,7.832v4.242   l9.953-9.953c0.939-0.941,2.598-0.942,3.54,0l5.302,5.302l-1.415,1.414l-3.18-3.18c-1.319-1.321-3.633-1.322-4.954,0l-9.246,9.246   v4.242l11.367-11.367c0.127-0.127,0.277-0.146,0.355-0.146c0.079,0,0.229,0.019,0.356,0.146l3.625,3.625   c-0.564,1.771-0.213,3.757,1.057,5.24c-4.188,5.203-3.939,12.807,0.729,17.733c-0.363,0.61-0.57,1.304-0.57,2.035   c0,1.071,0.415,2.075,1.169,2.828c0.754,0.754,1.758,1.169,2.828,1.169c1.071,0,2.075-0.415,2.828-1.169L51.54,20.678   C53.1,19.119,53.1,16.581,51.54,15.021z M26.046,16.473l-5.584,5.585c-0.641-0.972-0.534-2.295,0.319-3.148l2.118-2.117   c0.471-0.471,1.1-0.73,1.77-0.73C25.167,16.062,25.642,16.207,26.046,16.473z M21.488,25.274l8.484-8.485   c1.978-1.977,4.615-3.066,7.427-3.066c2.643,0,5.123,0.972,7.055,2.729L21.15,39.754C17.409,35.637,17.514,29.249,21.488,25.274z    M49.419,18.557L23.255,44.719c-0.372,0.375-1.037,0.378-1.413-0.001c-0.188-0.187-0.29-0.437-0.29-0.706   c0-0.269,0.103-0.52,0.29-0.707l26.163-26.163c0.188-0.188,0.438-0.29,0.707-0.29s0.52,0.103,0.707,0.29   C49.809,17.533,49.809,18.167,49.419,18.557z"/><rect x="45.358" y="42.158" transform="matrix(-0.7071 -0.7071 0.7071 -0.7071 51.6811 108.7234)" width="6.001" height="3"/><rect x="38.994" y="35.795" transform="matrix(-0.7071 -0.7071 0.7071 -0.7071 45.3173 93.3599)" width="5.999" height="3"/><rect x="59.586" y="53.385" transform="matrix(0.7071 -0.7071 0.7071 0.7071 -21.9792 59.7089)" width="3" height="6.001"/><rect x="51.722" y="48.522" transform="matrix(-0.7071 -0.7071 0.7071 -0.7071 58.0493 124.0863)" width="5.999" height="3"/><rect x="64.45" y="61.25" transform="matrix(0.7071 0.7071 -0.7071 0.7071 64.1264 -29.3147)" width="5.999" height="3"/><rect x="70.813" y="67.613" transform="matrix(0.7072 0.707 -0.707 0.7072 70.4782 -31.9505)" width="6" height="3"/><rect x="77.323" y="73.624" transform="matrix(-0.7071 -0.7071 0.7071 -0.7071 83.1478 184.689)" width="5.002" height="3"/><rect x="65.419" y="72.928" transform="matrix(0.7527 -0.6583 0.6583 0.7527 -33.4382 62.8281)" width="2.999" height="6"/><rect x="46.148" y="54.102" transform="matrix(0.6581 0.753 -0.753 0.6581 58.6711 -17.9944)" width="6" height="2.999"/><rect x="69.842" y="81.203" transform="matrix(-0.6581 -0.753 0.753 -0.6581 58.5052 191.9746)" width="6" height="2.999"/><rect x="52.071" y="60.877" transform="matrix(0.6582 0.7529 -0.7529 0.6582 65.7879 -20.139)" width="6" height="2.999"/><rect x="40.225" y="47.326" transform="matrix(0.6582 0.7528 -0.7528 0.6582 51.5292 -15.853)" width="6" height="2.999"/><rect x="34.301" y="40.551" transform="matrix(-0.6582 -0.7528 0.7528 -0.6582 30.1974 97.8106)" width="6" height="2.999"/><rect x="57.995" y="67.653" transform="matrix(0.6582 0.7529 -0.7529 0.6582 72.914 -22.2828)" width="6" height="2.999"/><rect x="41.709" y="58.563" transform="matrix(0.8094 -0.5873 0.5873 0.8094 -27.9193 37.1141)" width="3" height="5.999"/><rect x="57.565" y="80.416" transform="matrix(0.8094 -0.5873 0.5873 0.8094 -37.7315 50.5926)" width="3" height="5.999"/><rect x="52.28" y="73.131" transform="matrix(0.8094 -0.5873 0.5873 0.8094 -34.461 46.0998)" width="3" height="6.001"/><rect x="61.349" y="89.2" transform="matrix(-0.5872 -0.8095 0.8095 -0.5872 28.7146 196.0451)" width="6.001" height="3"/><rect x="36.424" y="51.278" transform="matrix(0.8094 -0.5872 0.5872 0.8094 -24.646 32.6131)" width="2.999" height="6.001"/><rect x="31.139" y="43.994" transform="matrix(0.8094 -0.5873 0.5873 0.8094 -21.3782 28.1285)" width="3" height="6"/><rect x="46.994" y="65.848" transform="matrix(0.8094 -0.5873 0.5873 0.8094 -31.1904 41.607)" width="3" height="5.999"/><rect x="50.184" y="37.367" transform="matrix(-0.7528 -0.6582 0.6582 -0.7528 67.6379 103.1337)" width="6" height="2.999"/><rect x="43.409" y="31.443" transform="matrix(-0.7528 -0.6582 0.6582 -0.7528 59.6612 88.2906)" width="6" height="2.999"/><rect x="56.96" y="43.29" transform="matrix(0.7529 0.6581 -0.6581 0.7529 44.2951 -28.3941)" width="5.999" height="2.999"/><rect x="77.286" y="61.061" transform="matrix(-0.7528 -0.6582 0.6582 -0.7528 99.5455 162.5038)" width="6" height="2.999"/><rect x="84.061" y="66.985" transform="matrix(-0.7528 -0.6582 0.6582 -0.7528 107.5222 177.347)" width="6" height="2.999"/><rect x="63.735" y="49.213" transform="matrix(0.7528 0.6582 -0.6582 0.7528 49.8727 -31.3906)" width="5.999" height="2.999"/><rect x="70.51" y="55.137" transform="matrix(-0.7528 -0.6582 0.6582 -0.7528 91.5689 147.6607)" width="6" height="2.999"/><rect x="84.774" y="53.206" transform="matrix(-0.8094 -0.5872 0.5872 -0.8094 126.6934 150.5303)" width="6" height="3"/><rect x="93.559" y="56.991" transform="matrix(0.5873 -0.8094 0.8094 0.5873 -9.3252 101.6937)" width="3" height="6"/><rect x="77.49" y="47.922" transform="matrix(-0.8094 -0.5872 0.5872 -0.8094 116.6225 136.6882)" width="6" height="2.999"/><rect x="62.921" y="37.352" transform="matrix(0.8094 0.5873 -0.5873 0.8094 35.3861 -31.3097)" width="5.999" height="3"/><rect x="70.206" y="42.637" transform="matrix(0.8095 0.5871 -0.5871 0.8095 39.8607 -34.573)" width="5.999" height="3"/><rect x="55.636" y="32.067" transform="matrix(0.8094 0.5872 -0.5872 0.8094 30.8873 -28.0362)" width="6" height="3"/><rect x="48.352" y="26.782" transform="matrix(-0.8094 -0.5872 0.5872 -0.8094 76.3087 81.3294)" width="6" height="3"/></g><text x="0" y="115" fill="#000000" font-size="5px" font-weight="bold" font-family="'Helvetica Neue', Helvetica, Arial-Unicode, Arial, Sans-serif">Created by Nikita Kozin</text><text x="0" y="120" fill="#000000" font-size="5px" font-weight="bold" font-family="'Helvetica Neue', Helvetica, Arial-Unicode, Arial, Sans-serif">from the Noun Project</text></svg>