<svg xmlns="http://www.w3.org/2000/svg" xmlns:xlink="http://www.w3.org/1999/xlink" version="1.1" x="0px" y="0px" viewBox="0 0 100 125" style="enable-background:new 0 0 100 100;" xml:space="preserve"><style type="text/css">
	.st0{fill:none;}
</style><rect x="38.4" y="-0.7" class="st0" width="2.1" height="1.8"/><rect x="38.4" y="3.9" class="st0" width="2.1" height="1.8"/><g><path d="M71,20c-0.3,0-0.5,0-0.8,0c-0.2,0-0.5,0-0.7,0c-3.9-8.8-12.8-15-23.1-15c-14,0-25.3,11.3-25.3,25.3c0,0,0,0,0,0   c-6.5,1.4-11.4,7.2-11.4,14.1c0,7.9,6.5,14.4,14.4,14.4h47.4c0.8,0,1.6-0.1,2.4-0.2c9.4-1.3,16.7-9.4,16.7-19.2   C90.4,28.7,81.7,20,71,20z M73.1,54.5c0,0-0.1,0-0.1,0c-0.6,0.1-1.1,0.1-1.7,0.1H24c-5.6,0-10.1-4.5-10.1-10.1   c0-4.8,3.4-8.9,8.1-9.9c2-0.4,3.4-2.2,3.4-4.2c0,0,0-0.1,0-0.1c0-11.6,9.4-21,21-21c7.9,0,15.1,4.5,18.7,11.5   c-9,2.6-15.6,10.9-15.6,20.7c0,1.2,1,2.1,2.1,2.1c1.2,0,2.1-1,2.1-2.1c0-9.1,7-16.5,15.9-17.2c0.1,0,0.1,0,0.2,0c0.2,0,0.4,0,0.6,0   c0.2,0,0.4,0,0.6,0c8.4,0,15.2,6.8,15.2,15.2C86.1,46.9,80.5,53.4,73.1,54.5z"/><path d="M49.1,78.3c-0.1-0.5-0.6-0.8-1.1-0.6l-4.4,1.2v-4.3c0-0.5-0.4-0.9-0.9-0.9h-0.2c-0.5,0-0.9,0.4-0.9,0.9v4.3l-4.3-1.2   c-0.5-0.1-1,0.2-1.1,0.6l-0.1,0.2c-0.1,0.5,0.2,1,0.6,1.1l4.1,1.1L37.5,84c-0.3,0.3-0.3,0.9,0,1.3l0.2,0.2c0.3,0.3,0.9,0.3,1.3,0   l3.6-3.6l3.6,3.6c0.3,0.3,0.9,0.3,1.3,0l0.2-0.2c0.3-0.3,0.3-0.9,0-1.3l-3.3-3.3l4.2-1.1c0.5-0.1,0.8-0.6,0.6-1.1L49.1,78.3z"/><path d="M63.8,87.9c-0.1-0.5-0.6-0.8-1.1-0.6l-4.4,1.2v-4.3c0-0.5-0.4-0.9-0.9-0.9h-0.2c-0.5,0-0.9,0.4-0.9,0.9v4.3L52,87.2   c-0.5-0.1-1,0.2-1.1,0.6l-0.1,0.2c-0.1,0.5,0.2,1,0.6,1.1l4.1,1.1l-3.3,3.3c-0.3,0.3-0.3,0.9,0,1.3l0.2,0.2c0.3,0.3,0.9,0.3,1.3,0   l3.6-3.6l3.6,3.6c0.3,0.3,0.9,0.3,1.3,0l0.2-0.2c0.3-0.3,0.3-0.9,0-1.3L59,90.3l4.2-1.1c0.5-0.1,0.8-0.6,0.6-1.1L63.8,87.9z"/><path d="M63.8,68.8c-0.1-0.5-0.6-0.8-1.1-0.6l-4.4,1.2l0-4.3c0-0.5-0.4-0.9-0.9-0.9l-0.2,0c-0.5,0-0.9,0.4-0.9,0.9l0,4.3L52,68.1   c-0.5-0.1-1,0.2-1.1,0.6l-0.1,0.2c-0.1,0.5,0.2,1,0.6,1.1l4.1,1.1l-3.3,3.3c-0.4,0.3-0.4,0.9,0,1.3l0.2,0.2c0.3,0.4,0.9,0.4,1.3,0   l3.6-3.5l3.6,3.6c0.3,0.4,0.9,0.4,1.3,0l0.2-0.2c0.4-0.3,0.4-0.9,0-1.3L59,71.2l4.2-1.1c0.5-0.1,0.8-0.6,0.6-1.1L63.8,68.8z"/></g><text x="0" y="115" fill="#000000" font-size="5px" font-weight="bold" font-family="'Helvetica Neue', Helvetica, Arial-Unicode, Arial, Sans-serif">Created by niedzwiedz</text><text x="0" y="120" fill="#000000" font-size="5px" font-weight="bold" font-family="'Helvetica Neue', Helvetica, Arial-Unicode, Arial, Sans-serif">from the Noun Project</text></svg>