<svg xmlns="http://www.w3.org/2000/svg" xmlns:xlink="http://www.w3.org/1999/xlink" version="1.1" x="0px" y="0px" viewBox="0 0 100 125" style="enable-background:new 0 0 100 100;" xml:space="preserve"><path d="M70.8,65.5L70.8,65.5c0-0.2-1.2-14.8-19.7-14.8c-18.8,0-19.7,14.7-19.7,14.9v4.3c0,1.2,1,2.2,2.2,2.2h35  c1.2,0,2.2-1,2.2-2.2L70.8,65.5z"/><path d="M50.6,47.1c5.4,0,9.8-4.8,9.8-10.8S56,25.5,50.6,25.5c-5.4,0-9.8,4.8-9.8,10.8S45.2,47.1,50.6,47.1z"/><path d="M50,0.8C22.9,0.8,0.9,22.9,0.9,50c0,8.6,2.3,17.1,6.6,24.6l0.2,0.3L3.3,89.9c-0.6,1.9,0,4,1.4,5.4  c1.4,1.4,3.5,2,5.4,1.4l15.2-4.3l0.3,0.2c7.4,4.2,15.8,6.5,24.4,6.5c27.1,0,49.1-22,49.1-49.1S77.1,0.8,50,0.8z M50,95.3  c-8.3,0-16.4-2.3-23.5-6.5l-0.7-0.4L9,93.1c-0.6,0.2-1.3,0-1.7-0.4c-0.4-0.4-0.6-1.1-0.4-1.7l4.8-16.7l-0.4-0.7  C7,66.5,4.7,58.3,4.7,50C4.7,25,25,4.6,50,4.6S95.3,25,95.3,50C95.3,75,75,95.3,50,95.3z"/><text x="0" y="115" fill="#000000" font-size="5px" font-weight="bold" font-family="'Helvetica Neue', Helvetica, Arial-Unicode, Arial, Sans-serif">Created by Thomas' designs</text><text x="0" y="120" fill="#000000" font-size="5px" font-weight="bold" font-family="'Helvetica Neue', Helvetica, Arial-Unicode, Arial, Sans-serif">from the Noun Project</text></svg>