<svg xmlns="http://www.w3.org/2000/svg" xmlns:xlink="http://www.w3.org/1999/xlink" version="1.1" x="0px" y="0px" viewBox="0 0 64 80" style="enable-background:new 0 0 64 64;" xml:space="preserve"><path d="M49,21c3.343,0,9-1.264,9-6c0-5-6.307-5-9-5H39c-0.553,0-1,0.448-1,1C38,14.124,43.318,21,49,21z M49,12c4.201,0,7,0.51,7,3  c0,3.164-4.579,4-7,4c-3.934,0-7.831-4.447-8.781-7H49z"/><path d="M6,49h52c2.677,0,4.076-2.296,4.076-4.565C62.076,42.231,60.677,40,58,40H12.5C7.813,40,4,36.187,4,31.5S7.813,23,12.5,23  h3.551c0.52,8.356,7.465,15,15.949,15c7.119,0,13.35-4.701,15.338-11.498c1.779-0.609,3.616-1.079,5.397-1.534  C57.707,23.697,62,22.599,62,19v-8c0-2.757-2.243-5-5-5H42V5.083C42,3.383,40.617,2,38.917,2h-5.834C31.383,2,30,3.383,30,5.083  v1.055C22.447,7.087,16.529,13.312,16.051,21H12.5C6.71,21,2,25.71,2,31.5S6.71,42,12.5,42H58c1.533,0,2.076,1.312,2.076,2.435  C60.076,45.322,59.643,47,58,47H6c-1.237,0-2.324,0.531-3.062,1.496c-0.623,0.814-0.966,1.891-0.966,3.029  C1.972,53.749,3.355,56,6,56h33v1c0,0.552,0.447,1,1,1h6c0.553,0,1-0.448,1-1v-1h2.586l4.707,4.707  c0.739,0.739,1.745,1.121,2.841,1.121c0.665,0,1.362-0.14,2.054-0.427C60.896,60.694,62,59.359,62,58c0-2.393-1.558-4-3.877-4v2  C58.824,56,60,56.26,60,58c0,0.442-0.59,1.145-1.577,1.554c-0.841,0.348-1.993,0.461-2.716-0.261L52.414,56H56v-2h-5v-1h-2v1h-2v-1  c0-0.552-0.447-1-1-1h-6c-0.553,0-1,0.448-1,1v1H6c-1.602,0-2.028-1.556-2.028-2.475C3.972,50.587,4.398,49,6,49z M32,5.083  C32,4.486,32.486,4,33.083,4h5.834C39.514,4,40,4.486,40,5.083V6h-8V5.083z M32,8h9h16c1.654,0,3,1.346,3,3v8  c0,2.046-3.596,2.966-7.76,4.03c-1.99,0.509-4.048,1.035-6.066,1.761c-0.312,0.112-0.548,0.372-0.63,0.692  C43.956,31.676,38.386,36,32,36c-7.72,0-14-6.28-14-14S24.28,8,32,8z M41,54h4v2h-4V54z"/><text x="0" y="79" fill="#000000" font-size="5px" font-weight="bold" font-family="'Helvetica Neue', Helvetica, Arial-Unicode, Arial, Sans-serif">Created by Becris</text><text x="0" y="84" fill="#000000" font-size="5px" font-weight="bold" font-family="'Helvetica Neue', Helvetica, Arial-Unicode, Arial, Sans-serif">from the Noun Project</text></svg>