<svg xmlns="http://www.w3.org/2000/svg" xmlns:xlink="http://www.w3.org/1999/xlink" version="1.1" viewBox="0 0 96 120" x="0px" y="0px"><path d="M87.288 71.96c-0.024 0.008-0.048 0.008-0.080 0h-78.484c-0.724 0-1.376-0.384-1.74-1-0.36-0.616-0.36-1.384 0-2l39.248-67.984c0.716-1.236 2.752-1.236 3.46 0l39.008 67.568c0.36 0.368 0.58 0.868 0.58 1.42 0.008 1.1-0.888 1.996-1.992 1.996zM12.192 67.96h71.556l-35.78-61.98-35.776 61.98z" fill="#000000"/><path d="M47.968 95.944c-0.72 0-1.376-0.384-1.736-1l-39.244-67.98c-0.36-0.616-0.36-1.384 0-2 0.36-0.62 1.012-1 1.736-1h78.488c0.712 0 1.376 0.384 1.728 1 0.36 0.616 0.36 1.384 0 2l-39.244 67.984c-0.356 0.616-1.012 0.996-1.728 0.996zM12.192 27.964l35.772 61.984 35.776-61.984h-71.548z" fill="#000000"/><text x="0" y="111" fill="#000000" font-size="5px" font-weight="bold" font-family="'Helvetica Neue', Helvetica, Arial-Unicode, Arial, Sans-serif">Created by iconsmind.com</text><text x="0" y="116" fill="#000000" font-size="5px" font-weight="bold" font-family="'Helvetica Neue', Helvetica, Arial-Unicode, Arial, Sans-serif">from the Noun Project</text></svg>