<svg xmlns:ns="http://ns.adobe.com/SaveForWeb/1.0/" xmlns:dc="http://purl.org/dc/elements/1.1/" xmlns:cc="http://creativecommons.org/ns#" xmlns:rdf="http://www.w3.org/1999/02/22-rdf-syntax-ns#" xmlns:svg="http://www.w3.org/2000/svg" xmlns="http://www.w3.org/2000/svg" xmlns:sodipodi="http://sodipodi.sourceforge.net/DTD/sodipodi-0.dtd" xmlns:inkscape="http://www.inkscape.org/namespaces/inkscape" version="1.1" x="0px" y="0px" viewBox="0 0 24 30" enable-background="new 0 0 100 100" xml:space="preserve"><metadata><ns:sfw><ns:slices/><ns:sliceSourceBounds height="85.5" width="55.857" x="22.071" y="5" bottomLeftOrigin="true"/><ns:optimizationSettings><ns:targetSettings fileFormat="GIFFormat" targetSettingsID="0"><ns:GIFFormat transparency="true" ditherPercent="100" webShiftPercent="0" ditherAlgorithm="diffusion" reductionAlgorithm="selective" autoReduce="false" rolloverMasterPalette="false" matteColor="#FFFFFF" includeCaption="false" numColors="256" interlaced="false" noMatteColor="false" lossy="0"><ns:colorTable isExact="false"/><ns:lockedColors/><ns:colorShiftEntries/></ns:GIFFormat></ns:targetSettings></ns:optimizationSettings></ns:sfw></metadata><path style="color:#000000;font-style:normal;font-variant:normal;font-weight:normal;font-stretch:normal;font-size:medium;line-height:normal;font-family:sans-serif;font-variant-ligatures:normal;font-variant-position:normal;font-variant-caps:normal;font-variant-numeric:normal;font-variant-alternates:normal;font-feature-settings:normal;text-indent:0;text-align:start;text-decoration:none;text-decoration-line:none;text-decoration-style:solid;text-decoration-color:#000000;letter-spacing:normal;word-spacing:normal;text-transform:none;writing-mode:lr-tb;direction:ltr;text-orientation:mixed;dominant-baseline:auto;baseline-shift:baseline;text-anchor:start;white-space:normal;shape-padding:0;clip-rule:nonzero;display:inline;overflow:visible;visibility:visible;opacity:1;isolation:auto;mix-blend-mode:normal;color-interpolation:sRGB;color-interpolation-filters:linearRGB;solid-color:#000000;solid-opacity:1;vector-effect:none;fill:#000000;fill-opacity:1;fill-rule:nonzero;stroke:none;stroke-width:0.99997634;stroke-linecap:round;stroke-linejoin:round;stroke-miterlimit:4;stroke-dasharray:none;stroke-dashoffset:0;stroke-opacity:1;color-rendering:auto;image-rendering:auto;shape-rendering:auto;text-rendering:auto;enable-background:accumulate" d="M 9.4277344 3.7109375 C 8.5397021 3.7654669 7.590883 4.0306004 6.5898438 4.2988281 C 5.2551246 4.656465 4.0030941 4.9718307 3.0976562 5.6621094 C 2.6449374 6.0072487 2.2828849 6.4683182 2.1132812 7.0449219 C 1.9436777 7.6215255 1.9653902 8.287982 2.171875 9.0585938 L 3.3945312 13.625 C 4.2204703 16.707447 7.2678744 18.611381 10.212891 17.822266 C 10.309248 17.796447 10.40052 17.761306 10.494141 17.730469 C 11.139285 19.208243 12.384586 20.38523 14.015625 20.822266 C 16.960571 21.611362 20.008049 19.707436 20.833984 16.625 L 22.058594 12.058594 C 22.265078 11.287985 22.284826 10.619555 22.115234 10.042969 C 21.945639 9.4663825 21.583562 9.0072421 21.130859 8.6621094 C 20.225454 7.9718439 18.975335 7.6564625 17.640625 7.2988281 C 16.638987 7.0304401 15.688326 6.7736198 14.800781 6.7148438 C 14.171047 6.6731408 13.552973 6.7516477 13.011719 7.0175781 L 12.796875 6.2109375 C 12.59039 5.4403257 12.273074 4.8520516 11.837891 4.4375 C 11.402708 4.0229484 10.859558 3.8069149 10.294922 3.734375 C 10.012604 3.6981051 9.7237451 3.692761 9.4277344 3.7109375 z M 9.4941406 4.7148438 C 9.7391388 4.6970889 9.9652037 4.6985598 10.167969 4.7246094 C 10.573499 4.7767084 10.880175 4.9065646 11.148438 5.1621094 C 11.4167 5.4176542 11.656471 5.8227913 11.830078 6.4707031 L 13.054688 11.037109 C 13.749116 13.628756 12.344883 16.215123 9.9550781 16.855469 C 7.5652733 17.495816 5.0557578 15.958835 4.3613281 13.367188 L 3.1367188 8.8007812 C 2.9631112 8.1528696 2.9677157 7.6816116 3.0722656 7.3261719 C 3.1768156 6.9707322 3.3799286 6.7049155 3.7050781 6.4570312 C 4.3553772 5.9612627 5.5169184 5.6207654 6.8496094 5.2636719 C 7.8491275 4.9958517 8.7591461 4.7681084 9.4941406 4.7148438 z M 14.220703 7.7070312 C 14.379061 7.6968645 14.550232 7.6987429 14.734375 7.7109375 C 15.470948 7.7597155 16.380744 7.9956918 17.380859 8.2636719 C 18.713541 8.6207629 19.875074 8.9612413 20.525391 9.4570312 C 20.850549 9.7049263 21.051695 9.9707025 21.15625 10.326172 C 21.260805 10.681641 21.265408 11.152844 21.091797 11.800781 L 19.869141 16.367188 C 19.174684 18.958935 16.665227 20.495824 14.275391 19.855469 C 12.951164 19.500643 11.940877 18.550944 11.410156 17.330078 C 12.139918 16.921311 12.753668 16.349771 13.21875 15.667969 C 13.611561 16.306138 14.245677 16.806039 15.035156 17.017578 C 16.185562 17.325829 17.365814 16.953008 18.087891 16.126953 A 0.50040158 0.50040158 0 1 0 17.333984 15.46875 C 16.870271 15.999239 16.08615 16.262791 15.294922 16.050781 C 14.503115 15.838618 13.954206 15.21728 13.818359 14.525391 C 14.16052 13.650643 14.29528 12.680064 14.185547 11.691406 L 15.103516 11.935547 A 0.49993531 0.49993531 0 1 0 15.361328 10.970703 L 14.154297 10.646484 A 0.49993531 0.49993531 0 0 0 14.005859 10.628906 A 0.49993531 0.49993531 0 0 0 13.980469 10.630859 L 13.279297 8.0136719 C 13.541248 7.8331266 13.844198 7.7312032 14.220703 7.7070312 z M 8.9960938 7.9492188 A 0.50003817 0.50003817 0 0 0 8.7597656 8.8925781 L 10.273438 9.7109375 A 0.50003817 0.50003817 0 1 0 10.748047 8.8320312 L 9.234375 8.0136719 A 0.50003817 0.50003817 0 0 0 8.9960938 7.9492188 z M 6.5546875 8.5957031 A 0.50003817 0.50003817 0 0 0 6.15625 8.8378906 L 5.2558594 10.302734 A 0.50029851 0.50029851 0 1 0 6.1074219 10.828125 L 7.0078125 9.3632812 A 0.50003817 0.50003817 0 0 0 6.5546875 8.5957031 z M 17.628906 11.599609 A 0.49993531 0.49993531 0 0 0 17.517578 12.583984 L 18.724609 12.90625 A 0.49993531 0.49993531 0 1 0 18.984375 11.941406 L 17.777344 11.617188 A 0.49993531 0.49993531 0 0 0 17.628906 11.599609 z M 9.4394531 11.611328 C 9.1559297 11.607002 8.8657363 11.641685 8.578125 11.71875 C 7.4268407 12.027236 6.5904677 12.940099 6.3789062 14.017578 A 0.50044706 0.50044706 0 0 0 7.3613281 14.208984 C 7.4971685 13.517152 8.0441562 12.895751 8.8359375 12.683594 C 9.62714 12.471592 10.41327 12.735184 10.876953 13.265625 A 0.50003817 0.50003817 0 1 0 11.628906 12.607422 C 11.087328 11.987867 10.290024 11.624307 9.4394531 11.611328 z "/><text x="0" y="39" fill="#000000" font-size="5px" font-weight="bold" font-family="'Helvetica Neue', Helvetica, Arial-Unicode, Arial, Sans-serif">Created by Juan Carlos Altamirano</text><text x="0" y="44" fill="#000000" font-size="5px" font-weight="bold" font-family="'Helvetica Neue', Helvetica, Arial-Unicode, Arial, Sans-serif">from the Noun Project</text></svg>