<svg xmlns="http://www.w3.org/2000/svg" xmlns:xlink="http://www.w3.org/1999/xlink" version="1.1" x="0px" y="0px" viewBox="0 0 100 125" enable-background="new 0 0 100 100" xml:space="preserve"><g><path d="M73.684,36.223c-0.005-0.038-0.008-0.079-0.014-0.115c-0.704-4.903-5.657-9.348-12.604-11.531   c0.904-2.368,0.986-5.129,0.117-7.967C59.686,11.72,57.006,8.5,52.228,5.843c-0.493-0.275-0.961-0.504-1.433-0.701   c-0.478-0.199-1.014-0.199-1.491,0c-0.472,0.197-0.94,0.426-1.428,0.699c-4.811,2.674-7.496,5.913-8.978,10.829   c-0.851,2.821-0.767,5.558,0.126,7.904c-7.107,2.212-12.122,6.685-12.75,11.593c-0.081,0.637-0.104,1.419,0.03,2.297v42.391   c0,5.267,4.661,11.595,17.742,13.559c2.542,0.383,4.899,0.578,7.124,0.578c5.655,0,10.452-1.262,15.238-3.912l0,0   c2.737-1.514,7.281-4.819,7.373-10.058c0.002-0.036,0.011-0.071,0.011-0.108V36.838C73.792,36.622,73.749,36.417,73.684,36.223z    M42.605,17.789c1.179-3.914,3.251-6.395,7.155-8.565c0.099-0.055,0.195-0.107,0.29-0.157c0.096,0.051,0.194,0.103,0.293,0.159   c3.877,2.155,5.945,4.622,7.137,8.517c0.339,1.108,1.054,4.28-0.733,6.832c-0.06,0.072-0.114,0.147-0.164,0.229   c-0.502,0.65-1.17,1.255-2.071,1.764c-0.021,0.012-0.042,0.023-0.061,0.037c-0.009,0.004-0.018,0.009-0.027,0.015   c-3.271,1.809-5.478,1.808-8.756-0.004c-0.959-0.526-1.682-1.187-2.219-1.926c-0.002-0.002-0.003-0.005-0.005-0.008   C41.96,22.631,41.948,19.965,42.605,17.789z M41.168,27.976c0.746,0.786,1.621,1.475,2.633,2.029   c1.511,0.836,2.926,1.38,4.312,1.646v5.391c0,1.069,0.867,1.936,1.936,1.936c1.069,0,1.936-0.867,1.936-1.936v-5.391   c1.386-0.266,2.802-0.811,4.312-1.646c0.026-0.014,0.052-0.029,0.078-0.045c0.014-0.007,0.028-0.015,0.042-0.023   c0.961-0.543,1.794-1.208,2.508-1.961c5.892,1.605,10.405,5.149,10.912,8.681c0.466,3.248-2.627,5.695-5.305,7.177   c-7.697,4.257-20.455,4.383-28.44,0.28c-3.423-1.759-5.465-3.846-5.916-5.997v-1.125c0-0.141-0.017-0.278-0.046-0.411   C30.641,33.045,35.096,29.605,41.168,27.976z M64.534,87.694C64.534,87.694,64.534,87.694,64.534,87.694   C64.533,87.695,64.533,87.695,64.534,87.694c-5.941,3.288-11.708,4.127-19.911,2.892c-5.366-0.805-14.446-3.762-14.446-9.73V44.821   c1.084,0.932,2.433,1.855,4.146,2.736c4.46,2.292,10.094,3.432,15.723,3.432c5.918,0,11.83-1.261,16.362-3.768   c1.424-0.788,2.573-1.606,3.513-2.43v36.025C69.953,84.317,66.165,86.792,64.534,87.694z"/></g><text x="0" y="115" fill="#000000" font-size="5px" font-weight="bold" font-family="'Helvetica Neue', Helvetica, Arial-Unicode, Arial, Sans-serif">Created by Emily L</text><text x="0" y="120" fill="#000000" font-size="5px" font-weight="bold" font-family="'Helvetica Neue', Helvetica, Arial-Unicode, Arial, Sans-serif">from the Noun Project</text></svg>