<svg xmlns="http://www.w3.org/2000/svg" xmlns:xlink="http://www.w3.org/1999/xlink" version="1.1" x="0px" y="0px" viewBox="0 0 100 125" style="enable-background:new 0 0 100 100;" xml:space="preserve"><g><path d="M72.3222656,9H27.6777344c-3.1123047,0-5.644043,2.5317383-5.644043,5.644043v11.3857422   c0,3.1123047,2.5317383,5.6445313,5.644043,5.6445313h15.7041016v52.7075195C43.3818359,88.03125,46.3505859,91,50,91   s6.6181641-2.96875,6.6181641-6.6181641V31.6743164h15.7041016c3.1123047,0,5.644043-2.5322266,5.644043-5.6445313V14.644043   C77.9663086,11.5317383,75.4345703,9,72.3222656,9z M54.6181641,84.3818359C54.6181641,86.9282227,52.5463867,89,50,89   s-4.6181641-2.0717773-4.6181641-4.6181641V31.6743164h9.2363281V84.3818359z M75.9663086,26.0297852   c0,2.0097656-1.6347656,3.6445313-3.644043,3.6445313H55.6181641H44.3818359H27.6777344   c-2.0092773,0-3.644043-1.6347656-3.644043-3.6445313V14.644043c0-2.0092773,1.6347656-3.644043,3.644043-3.644043h44.6445313   c2.0092773,0,3.644043,1.6347656,3.644043,3.644043V26.0297852z"/><path d="M70.1748047,15.3393555H29.8251953c-0.5522461,0-1,0.4477539-1,1v3.9975586v3.9980469c0,0.5522461,0.4477539,1,1,1   h40.3496094c0.5522461,0,1-0.4477539,1-1v-3.9980469v-3.9975586   C71.1748047,15.7871094,70.7270508,15.3393555,70.1748047,15.3393555z M30.8251953,17.3393555h38.3496094v1.9975586H30.8251953   V17.3393555z M69.1748047,23.3349609H30.8251953v-1.9980469h38.3496094V23.3349609z"/></g><text x="0" y="115" fill="#000000" font-size="5px" font-weight="bold" font-family="'Helvetica Neue', Helvetica, Arial-Unicode, Arial, Sans-serif">Created by Edwin Prayogi M</text><text x="0" y="120" fill="#000000" font-size="5px" font-weight="bold" font-family="'Helvetica Neue', Helvetica, Arial-Unicode, Arial, Sans-serif">from the Noun Project</text></svg>