<svg xmlns="http://www.w3.org/2000/svg" data-name="Layer 1" viewBox="0 0 100 125" x="0px" y="0px"><title>45 all</title><path d="M89,60.69H18.5a10.5,10.5,0,0,0,0,21H89a3,3,0,0,0,3-3v-15A3,3,0,0,0,89,60.69Zm-10.5,4v13h-45v-13ZM12,71.19a6.51,6.51,0,0,1,6.5-6.5h11v13h-11A6.51,6.51,0,0,1,12,71.19Zm76,6.5H82.5v-13H88Z"/><path d="M80.32,38.49c-1.64,1.09-3.9,2.58-3.9,5.64s2.25,4.55,3.9,5.64,2.1,1.47,2.1,2.3a2,2,0,0,0,4,0c0-3.06-2.25-4.55-3.9-5.64s-2.1-1.47-2.1-2.3.61-1.31,2.1-2.3,3.9-2.58,3.9-5.64-2.25-4.55-3.9-5.63-2.1-1.47-2.1-2.3.61-1.31,2.1-2.3,3.9-2.58,3.9-5.64a2,2,0,1,0-4,0c0,.83-.61,1.31-2.1,2.3s-3.9,2.58-3.9,5.64,2.25,4.55,3.9,5.63,2.1,1.47,2.1,2.3S81.82,37.5,80.32,38.49Z"/><text x="0" y="115" fill="#000000" font-size="5px" font-weight="bold" font-family="'Helvetica Neue', Helvetica, Arial-Unicode, Arial, Sans-serif">Created by Guru</text><text x="0" y="120" fill="#000000" font-size="5px" font-weight="bold" font-family="'Helvetica Neue', Helvetica, Arial-Unicode, Arial, Sans-serif">from the Noun Project</text></svg>