<svg xmlns="http://www.w3.org/2000/svg" xmlns:xlink="http://www.w3.org/1999/xlink" version="1.1" x="0px" y="0px" viewBox="0 0 100 125" enable-background="new 0 0 100 100" xml:space="preserve"><path d="M58.279,14.652l0.72-3.947c0.148-0.815-0.393-1.597-1.207-1.744c-0.814-0.148-1.596,0.392-1.744,1.207v-0.001l-0.719,3.943  c-2.107-0.314-4.204-0.477-6.275-0.477c-9.388,0.001-18.251,3.131-25.324,8.545c-7.074,5.411-12.365,13.119-14.585,22.25  c-0.162,0.669,0.153,1.365,0.764,1.684s1.362,0.18,1.818-0.336c2.175-2.461,5.391-3.971,8.862-3.97c0.72,0,1.449,0.063,2.184,0.198  l0.271-1.475l-0.27,1.476c4.766,0.867,8.33,4.398,9.408,8.683c0.144,0.569,0.608,1.004,1.188,1.109  c0.578,0.105,1.166-0.139,1.5-0.621c2.932-4.234,7.902-6.906,13.323-6.904c0.537,0,1.078,0.031,1.622,0.084l-1.412,7.742  l-5.659,31.049c-6.862,0.039-13.219,0.543-18.487,1.396c-2.746,0.444-5.197,0.98-7.289,1.601c-2.092,0.623-3.82,1.317-5.156,2.145  c-0.704,0.438-0.92,1.361-0.483,2.065s1.362,0.921,2.065,0.483l0,0c0.976-0.609,2.499-1.248,4.428-1.817  c5.801-1.726,15.215-2.885,25.781-2.88c7.049,0,13.574,0.509,18.869,1.365c2.646,0.428,4.984,0.943,6.914,1.516  c1.929,0.569,3.451,1.208,4.427,1.818c0.704,0.437,1.628,0.221,2.065-0.482s0.223-1.629-0.481-2.066  c-1.337-0.828-3.064-1.523-5.157-2.146c-5.835-1.726-14.551-2.839-24.447-2.986l5.563-30.521l1.408-7.72  c5.768,1.627,10.029,6.166,11.389,11.598c0.143,0.57,0.606,1.006,1.186,1.111c0.578,0.105,1.166-0.137,1.502-0.62  c2.128-3.067,5.736-5.005,9.674-5.003c0.722,0,1.453,0.063,2.189,0.199h0.003c4.288,0.78,7.597,3.719,9.006,7.426  c0.244,0.645,0.899,1.039,1.583,0.957c0.684-0.083,1.225-0.624,1.309-1.307c0.198-1.619,0.295-3.232,0.295-4.83  C90.895,35.663,77.502,18.895,58.279,14.652z M23.313,39.053L23.313,39.053c-0.917-0.168-1.828-0.248-2.725-0.248  c-2.552,0.001-4.984,0.665-7.12,1.829c2.491-6.476,6.728-11.974,12.083-16.074c6.418-4.911,14.434-7.794,22.943-7.914  c-0.157,0.114-0.315,0.224-0.471,0.345c-3.368,2.627-6.463,6.85-9.137,12.199c-2.328,4.671-4.32,10.209-5.775,16.306  C30.956,42.237,27.499,39.818,23.313,39.053z M51.743,41.596h0.003c-1.194-0.22-2.383-0.324-3.553-0.324  c-4.456,0.002-8.654,1.525-11.976,4.147c1.943-7.819,4.796-14.612,7.998-19.558c1.824-2.822,3.762-5.037,5.649-6.503  c1.894-1.472,3.694-2.171,5.31-2.167c0.337,0,0.67,0.029,1.002,0.09c1.289,0.237,2.478,0.915,3.609,2.1  c1.691,1.771,3.157,4.699,4.152,8.477c1,3.775,1.547,8.381,1.545,13.483c0.001,2.956-0.185,6.081-0.564,9.31  C62.162,46.073,57.478,42.641,51.743,41.596z M79.242,49.25h0.003c-0.92-0.169-1.834-0.249-2.732-0.248  c-3.217,0-6.25,1.045-8.725,2.84c0.462-3.637,0.695-7.164,0.696-10.501c-0.004-7.089-0.996-13.331-2.905-18.087  c-0.578-1.434-1.254-2.717-2.011-3.863c14.536,5.711,24.215,19.551,24.323,34.792C85.745,51.698,82.751,49.889,79.242,49.25z"/><text x="0" y="115" fill="#000000" font-size="5px" font-weight="bold" font-family="'Helvetica Neue', Helvetica, Arial-Unicode, Arial, Sans-serif">Created by Tomas Knopp</text><text x="0" y="120" fill="#000000" font-size="5px" font-weight="bold" font-family="'Helvetica Neue', Helvetica, Arial-Unicode, Arial, Sans-serif">from the Noun Project</text></svg>