<svg xmlns="http://www.w3.org/2000/svg" xmlns:xlink="http://www.w3.org/1999/xlink" version="1.1" viewBox="0 0 60 75" x="0px" y="0px"><g fill="#000000"><path d="M11.0332,44.5798l5.74439e-08,-6.50928e-11c-0.265266,0.000300589 -0.51971,-0.105148 -0.707,-0.293l-9.93558,-9.93552l-8.16355e-09,-8.15945e-09c-0.390482,-0.390285 -0.390641,-1.02322 -0.000355583,-1.4137c0.000118503,-0.000118563 0.000237036,-0.000237096 0.000355599,-0.000355599l29.8061,-29.8061l-5.88708e-07,5.87562e-07c3.13716,-3.13106 8.21855,-3.12611 11.3496,0.0110511c3.12675,3.13284 3.12675,8.20572 1.17512e-06,11.3386l-29.8062,29.8062l3.11705e-08,-3.12614e-08c-0.187302,0.187848 -0.441758,0.293287 -0.70703,0.29297Zm-8.52148,-10.9355l8.52148,8.52148l29.0991,-29.0991l1.31464e-07,-1.31756e-07c2.35053,-2.35575 2.3463,-6.17095 -0.0094517,-8.52148c-2.35206,-2.34685 -6.15997,-2.34685 -8.51203,2.62928e-07Z" transform="translate(16.103, -0.780466)"/><path d="M11.0326,12.0326l5.74439e-08,-6.5091e-11c-0.265266,0.000300589 -0.51971,-0.105148 -0.707,-0.293l-9.93509,-9.93503l-4.21563e-09,-4.21563e-09c-0.390482,-0.390482 -0.390482,-1.02358 8.43125e-09,-1.41406c0.390482,-0.390482 1.02358,-0.390482 1.41406,8.43125e-09l9.93506,9.93506l-7.81875e-09,-7.8211e-09c0.390465,0.390583 0.39037,1.02375 -0.000213485,1.41421c-0.187475,0.187419 -0.441696,0.29273 -0.706786,0.292786Z" transform="translate(45.1998, 2.67007)"/><path d="M5.03662,18.3939l-4.82456e-08,8.6537e-11c-0.531471,0.000953172 -1.04141,-0.209912 -1.417,-0.58594l-2.83837,-2.83838l-2.00344e-07,-2.00778e-07c-0.781251,-0.782945 -0.781251,-2.05055 4.00322e-07,-2.8335l11.3545,-11.355l-8.22774e-09,8.20744e-09c0.782821,-0.78089 2.04991,-0.781109 2.833,-0.000490017l2.83936,2.83936l2.96174e-08,2.97037e-08c0.780648,0.782921 0.780867,2.04981 0.000489941,2.833l-11.3555,11.355l2.83965e-08,-2.84331e-08c-0.375446,0.375931 -0.885196,0.586791 -1.4165,0.58594Zm8.51856,-16.1987l-11.3599,11.355l2.83984,2.84521l11.3589,-11.356Z" transform="translate(25.6479, 15.7628)"/><path d="M4.01256,8.02293l-1.35049e-07,2.88125e-11c-2.21534,0.000472623 -4.01161,-1.79503 -4.01209,-4.01037c-0.000472623,-2.21534 1.79503,-4.01161 4.01037,-4.01209c2.21534,-0.000472623 4.01161,1.79503 4.01209,4.01037c0.00022698,1.06393 -0.422235,2.08437 -1.17443,2.8368v0l1.95956e-07,-1.97156e-07c-0.750326,0.754919 -1.77157,1.17815 -2.83594,1.17529Zm0,-6.021l6.59004e-08,4.67075e-11c-1.10998,-0.000786727 -2.01044,0.898393 -2.01122,2.00837c-0.000378392,0.533867 0.211667,1.04595 0.589354,1.42326l-3.43338e-08,-3.27841e-08c0.795677,0.759763 2.04807,0.759763 2.84375,7.33998e-08v0l1.6446e-08,-1.64287e-08c0.785277,-0.78445 0.785948,-2.05697 0.00149749,-2.84224c-0.377332,-0.37773 -0.889458,-0.589794 -1.42337,-0.589396Z" transform="translate(42.2848, 9.69094)"/><path d="M3.93654,20.4516l-2.56982e-08,-6.87095e-12c-0.265192,-7.09203e-05 -0.519499,-0.105463 -0.707,-0.293l-2.8389,-2.83884l-8.16356e-09,-8.15945e-09c-0.390482,-0.390285 -0.390641,-1.02322 -0.000355583,-1.4137c0.000118503,-0.000118563 0.000237036,-0.000237096 0.000355599,-0.000355599l2.83887,-2.83838l-4.54042e-07,4.59161e-07c3.1997,-3.23578 5.1134,-7.5248 5.38428,-12.0674l-6.91003e-12,-3.56898e-06c-8.33852e-08,-0.552235 0.447675,-0.99991 0.99991,-0.99991c0.265217,-4.00466e-08 0.519569,0.105367 0.707093,0.292916l9.93555,9.93555l-6.58373e-09,-6.59772e-09c0.390258,0.391087 0.389586,1.02449 -0.00150088,1.41475c-0.186799,0.186404 -0.439686,0.291446 -0.703579,0.29225l-7.18391e-07,4.44567e-08c-4.54067,0.280994 -8.82692,2.19314 -12.0693,5.38428l-2.83838,2.83887l1.25598e-09,-1.25607e-09c-0.187508,0.187522 -0.441816,0.292897 -0.707002,0.292956Zm-1.4248,-3.83887l1.4248,1.4248l2.13135,-2.13184l-1.12959e-06,1.12024e-06c3.07077,-3.04534 7.01505,-5.0569 11.2832,-5.75438l-2.76709,-2.7666v0l-4.186,-4.18652l1.42711e-07,-8.73299e-07c-0.697488,4.26816 -2.70905,8.21243 -5.75439,11.2832Z" transform="translate(7.5869, 31.8639)"/><path d="M3.00791,12.6197l1.69445e-07,-8.07887e-11c-1.66022,0.000791584 -3.00674,-1.34444 -3.00753,-3.00467c-0.000380508,-0.798056 0.316593,-1.56351 0.881063,-2.12766l7.09717,-7.09668l-2.67557e-10,2.6769e-10c0.390285,-0.390482 1.02322,-0.390641 1.4137,-0.0003556c0.000118563,0.000118503 0.000237096,0.000237036 0.000355599,0.000355599l2.83887,2.83887l3.06376e-08,3.06222e-08c0.390482,0.390286 0.390641,1.02322 0.000355538,1.4137c-0.000118503,0.000118563 -0.000237036,0.000237096 -0.000355599,0.000355599l-7.09668,7.09668l1.30631e-07,-1.30691e-07c-0.563921,0.564178 -1.32926,0.880614 -2.12695,0.8794Zm5.67773,-10.1079l-6.38965,6.38964l6.01129e-08,-5.97974e-08c-0.394417,0.392346 -0.396096,1.03014 -0.00374931,1.42456c0.392346,0.394417 1.03014,0.396096 1.42456,0.00374931c0.00133323,-0.00132623 0.00266274,-0.00265618 0.00398851,-0.00398986l6.38965,-6.38916Z" transform="translate(-0.00107329, 47.3789)"/></g><text x="0" y="75" fill="#000000" font-size="5px" font-weight="bold" font-family="'Helvetica Neue', Helvetica, Arial-Unicode, Arial, Sans-serif">Created by Creaticca Creative Agency</text><text x="0" y="80" fill="#000000" font-size="5px" font-weight="bold" font-family="'Helvetica Neue', Helvetica, Arial-Unicode, Arial, Sans-serif">from the Noun Project</text></svg>