<svg xmlns="http://www.w3.org/2000/svg" viewBox="0 0 64 80" x="0px" y="0px"><path d="M50,23a12.084,12.084,0,0,0-1.433.086A10.029,10.029,0,0,0,39,16a9.839,9.839,0,0,0-3.216.537A12.992,12.992,0,0,0,11,22a12.8,12.8,0,0,0,.39,3.126A11,11,0,0,0,13,47a1,1,0,0,0,0-2,8.994,8.994,0,0,1-.267-17.985,1,1,0,0,0,.912-1.335,10.989,10.989,0,0,1,20.658-7.5,1,1,0,0,0,1.357.56A7.924,7.924,0,0,1,39,18a8.016,8.016,0,0,1,7.841,6.415,1,1,0,0,0,1.178.783A10,10,0,1,1,50,45H49a1,1,0,0,0,0,2h1a12,12,0,0,0,0-24Z"/><path d="M41,55a5.006,5.006,0,0,0,5-5c0-3.174-3.709-9.756-4.132-10.5a1.04,1.04,0,0,0-1.736,0C39.709,40.244,36,46.826,36,50A5.006,5.006,0,0,0,41,55Zm0-12.906c1.262,2.417,3,6.138,3,7.906a3,3,0,0,1-6,0C38,48.232,39.738,44.511,41,42.094Z"/><path d="M30.132,29.5C29.709,30.244,26,36.826,26,40a5,5,0,0,0,10,0c0-3.174-3.709-9.756-4.132-10.5A1.04,1.04,0,0,0,30.132,29.5ZM31,43a3,3,0,0,1-3-3c0-1.768,1.738-5.489,3-7.906,1.262,2.417,3,6.138,3,7.906A3,3,0,0,1,31,43Z"/><path d="M26,52c0-3.174-3.709-9.756-4.132-10.5a1.04,1.04,0,0,0-1.736,0C19.709,42.244,16,48.826,16,52a5,5,0,0,0,10,0Zm-8,0c0-1.768,1.738-5.489,3-7.906,1.262,2.417,3,6.138,3,7.906a3,3,0,0,1-6,0Z"/><text x="0" y="79" fill="#000000" font-size="5px" font-weight="bold" font-family="'Helvetica Neue', Helvetica, Arial-Unicode, Arial, Sans-serif">Created by iconixar</text><text x="0" y="84" fill="#000000" font-size="5px" font-weight="bold" font-family="'Helvetica Neue', Helvetica, Arial-Unicode, Arial, Sans-serif">from the Noun Project</text></svg>