<svg xmlns="http://www.w3.org/2000/svg" viewBox="0 0 26.458333 33.0729175" x="0px" y="0px"><path d="m13.21702 272.12925a.79380982.79381067 0 0 0 -.781326.8051v3.69271a.79380982.79381067 0 1 0 1.587461 0v-3.69271a.79380982.79381067 0 0 0 -.806135-.8051zm-7.6587713 3.17751a.79380982.79381067 0 0 0 -.552928 1.36268l2.614248 2.61424a.7938302.79383105 0 1 0 1.122902-1.12239l-2.614249-2.61424a.79380982.79381067 0 0 0 -.569973-.24029zm15.3180663 0a.79380982.79381067 0 0 0 -.545692.24029l-2.614761 2.61477a.79380982.79381067 0 1 0 1.122386 1.12238l2.614762-2.61476a.79380982.79381067 0 0 0 -.576695-1.36268zm-7.646891 3.17234c-2.913031 0-5.2915343 2.37849-5.2915343 5.29154s2.3785033 5.29154 5.2915343 5.29154c2.913034 0 5.291538-2.37849 5.291538-5.29154s-2.378504-5.29154-5.291538-5.29154zm0 1.58746c2.055106 0 3.704077 1.64897 3.704077 3.70408 0 2.0551-1.648971 3.70408-3.704077 3.70408s-3.7040743-1.64898-3.7040743-3.70408c0-2.05511 1.6489683-3.70408 3.7040743-3.70408zm-10.8367973 2.91035a.79380982.79381067 0 1 0 0 1.58746h3.693225a.79380982.79381067 0 1 0 0-1.58746zm17.9803723 0a.79380982.79381067 0 1 0 0 1.58746h3.692708a.79380982.79381067 0 1 0 0-1.58746zm-12.2072233 5.0404a.79380982.79381067 0 0 0 -.545689.24029l-2.614766 2.61476a.79382993.79383078 0 1 0 1.122901 1.12239l2.614249-2.61476a.79380982.79381067 0 0 0 -.576695-1.36268zm10.1035273 0a.79380982.79381067 0 0 0 -.552925 1.36318l2.614245 2.61426a.79380982.79381067 0 1 0 1.122387-1.12239l-2.614246-2.61426a.79380982.79381067 0 0 0 -.569461-.24079zm-5.052283 2.09233a.79380982.79381067 0 0 0 -.781326.80511v3.6927a.79380982.79381067 0 1 0 1.587461 0v-3.6927a.79380982.79381067 0 0 0 -.806135-.80511z" fill-rule="evenodd" transform="translate(0 -270.54165)"/><text x="0" y="41.458334" fill="#000000" font-size="5px" font-weight="bold" font-family="'Helvetica Neue', Helvetica, Arial-Unicode, Arial, Sans-serif">Created by ArtWorkLeaf</text><text x="0" y="46.458334" fill="#000000" font-size="5px" font-weight="bold" font-family="'Helvetica Neue', Helvetica, Arial-Unicode, Arial, Sans-serif">from the Noun Project</text></svg>