<svg xmlns="http://www.w3.org/2000/svg" xmlns:xlink="http://www.w3.org/1999/xlink" version="1.1" x="0px" y="0px" viewBox="0 0 100 125" style="enable-background:new 0 0 100 100;" xml:space="preserve"><path d="M92.0024414,16.1308594l-8.0517578-8.0517578c-0.5625-0.5625-1.5585938-0.5625-2.1210938,0L70.0400391,19.8691406  c-0.3295898,0.3291016-0.4873047,0.7929688-0.4267578,1.2548828c0.3476562,2.6660156-2.0566406,5.140625-2.8027344,5.8369141  C66.4003906,27.3447266,65.9902344,27.7285156,65.59375,28.125L45.8678589,47.8504639l-1.7194214-1.7196045  c-1.2109375-1.2099609-3.1831055-1.2099609-4.3959961,0.0009766l-2.1269531,2.1269531  c-0.5193481,0.5193481-0.8173828,1.1919556-0.8833008,1.9140015c-0.0003662,0.001709-0.0011597,0.0032349-0.0014648,0.0049438  c-0.1899414,0.9941406-0.9677734,3.8447266-2.2861328,5.2089844L9.7104492,75.9052734  c-2.1894531,1.8710938-3.5102539,4.59375-3.6230469,7.4716797s0.9907227,5.6972656,3.0273438,7.7333984  c1.9414062,1.9414062,4.5932617,3.0351562,7.3305664,3.0351562c0.1333008,0,0.2675781-0.0029297,0.4018555-0.0078125  c2.8779297-0.1132812,5.6015625-1.4335938,7.4868164-3.640625l20.5043945-24.7265625  c1.3647461-1.3183594,4.2148438-2.0957031,5.2084961-2.2861328c0.0016479-0.0003052,0.0031128-0.0010986,0.0047607-0.0014038  c0.7219238-0.0657349,1.3950806-0.3638916,1.9136963-0.8833618l2.1279297-2.1269531  c0.5869141-0.5878906,0.9101562-1.3681641,0.9101562-2.1982422c0-0.8310547-0.3232422-1.6113281-0.9106445-2.1982422  l-1.8622437-1.8624268l19.7250366-19.7254639c0.3979492-0.3974609,0.7827148-0.8085938,1.1645508-1.21875  c0.6958008-0.7451172,3.1767578-3.1523438,5.8378906-2.8017578c0.4643555,0.0634766,0.925293-0.0966797,1.2543945-0.4267578  l11.7900391-11.7890625c0.28125-0.28125,0.4394531-0.6630859,0.4394531-1.0605469S92.2836914,16.4121094,92.0024414,16.1308594z   M42.6713867,63.6943359c-0.0332031,0.0332031-0.0644531,0.0673828-0.0942383,0.1035156L22.0385742,88.5654297  c-1.3486328,1.5791016-3.234375,2.4931641-5.309082,2.5742188c-2.0654297,0.0839844-4.0253906-0.6816406-5.4936523-2.1503906  s-2.2319336-3.4199219-2.1508789-5.4951172c0.081543-2.0742188,0.9956055-3.9589844,2.5571289-5.2939453l24.7856445-20.5527344  c0.0356445-0.0292969,0.0703125-0.0605469,0.1030273-0.09375c1.0291748-1.0291748,1.7576904-2.4514771,2.2562256-3.7355347  l7.6203003,7.6199341C45.1230469,61.9365845,43.7006226,62.6651001,42.6713867,63.6943359z M51.9716797,58.3515625  L49.84375,60.4785156c-0.0361328,0.0371094-0.1171875,0.0371094-0.1533203,0h-0.0004883l-9.9433594-9.9433594  c-0.0361328-0.0361328-0.0371094-0.1171875-0.0004883-0.1542969l2.1269531-2.1269531  c0.0214844-0.0214844,0.0498047-0.0322266,0.0776367-0.0322266c0.0283203,0,0.0561523,0.0107422,0.0771484,0.03125  l9.9443359,9.9453125C52.0083008,58.234375,52.0073242,58.3154297,51.9716797,58.3515625z M78.5761719,27.4345703  c-3.6484375-0.0742188-6.5205078,2.5791016-7.6499023,3.7890625c-0.3588867,0.3857422-0.7182617,0.7695312-1.0913086,1.1425781  L50.1095581,52.0925293l-2.1207275-2.1209106l19.7260132-19.7255249c0.3730469-0.3730469,0.7587891-0.7333984,1.1435547-1.0927734  c1.2089844-1.1279297,3.8686523-4.0292969,3.7880859-7.6484375l10.2436523-10.2441406l5.9301758,5.9306641L78.5761719,27.4345703z"/><text x="0" y="115" fill="#000000" font-size="5px" font-weight="bold" font-family="'Helvetica Neue', Helvetica, Arial-Unicode, Arial, Sans-serif">Created by Artem  Kovyazin</text><text x="0" y="120" fill="#000000" font-size="5px" font-weight="bold" font-family="'Helvetica Neue', Helvetica, Arial-Unicode, Arial, Sans-serif">from the Noun Project</text></svg>