<svg xmlns="http://www.w3.org/2000/svg" xmlns:xlink="http://www.w3.org/1999/xlink" version="1.1" x="0px" y="0px" viewBox="0 0 100 125" enable-background="new 0 0 100 100" xml:space="preserve"><g><path d="M82.467,72.046c-1.959,1.573-4.078,2.943-6.3,4.071c-5.109,2.594-10.581,3.909-16.265,3.909   c-13.643,0-25.95-7.55-32.12-19.705c-4.354-8.569-5.108-18.323-2.125-27.461c2.983-9.14,9.348-16.569,17.917-20.921   c2.234-1.131,4.592-2.034,7.009-2.684c1.054-0.283,1.74-1.301,1.604-2.384c-0.134-1.084-1.047-1.904-2.139-1.921L49.35,4.944   c-7.038,0-13.794,1.62-20.083,4.812c-10.578,5.372-18.431,14.54-22.112,25.818c-3.682,11.277-2.751,23.314,2.62,33.891   C17.389,84.464,32.577,93.78,49.409,93.78c7.02,0,13.771-1.621,20.071-4.82c6.421-3.26,12.003-8.079,16.146-13.94   c0.63-0.893,0.508-2.112-0.288-2.86C84.54,71.41,83.316,71.363,82.467,72.046z"/><path d="M94.646,30.296c-0.194-0.583-0.733-0.981-1.347-0.999l-13.946-0.362l-4.729-13.299c-0.208-0.581-0.756-0.97-1.372-0.971   c-0.003,0-0.003,0-0.006,0c-0.613,0-1.163,0.385-1.372,0.962l-4.812,13.27L53.113,29.18c-0.615,0.013-1.155,0.409-1.354,0.991   c-0.197,0.582-0.009,1.225,0.471,1.608l10.997,8.802L59.335,53.83c-0.175,0.588,0.038,1.221,0.53,1.586   c0.492,0.363,1.158,0.382,1.671,0.047l11.616-7.621l11.57,7.689c0.245,0.163,0.528,0.244,0.808,0.244   c0.305,0,0.607-0.095,0.864-0.282c0.493-0.361,0.71-0.993,0.539-1.582l-3.811-13.271l11.043-8.737   C94.648,31.522,94.839,30.879,94.646,30.296z"/></g><text x="0" y="115" fill="#000000" font-size="5px" font-weight="bold" font-family="'Helvetica Neue', Helvetica, Arial-Unicode, Arial, Sans-serif">Created by Cédric Villain</text><text x="0" y="120" fill="#000000" font-size="5px" font-weight="bold" font-family="'Helvetica Neue', Helvetica, Arial-Unicode, Arial, Sans-serif">from the Noun Project</text></svg>