<svg xmlns="http://www.w3.org/2000/svg" xmlns:xlink="http://www.w3.org/1999/xlink" version="1.1" x="0px" y="0px" viewBox="0 0 100 125" enable-background="new 0 0 100 100" xml:space="preserve"><path d="M61.269,39.109c-1.607-1.995-2.523-4.4-2.653-7.003l-0.852-10.298h0.187c0.388,0,0.757-0.164,1.018-0.45  c0.261-0.287,0.388-0.67,0.351-1.056l-0.394-4.109c-0.213-2.224-2.059-3.9-4.292-3.9h-9.267c-2.233,0-4.079,1.677-4.292,3.9  l-0.394,4.109c-0.037,0.386,0.09,0.769,0.351,1.056c0.261,0.287,0.63,0.45,1.018,0.45h0.187L41.38,32.151  c-0.126,2.558-1.042,4.963-2.649,6.958c-2.111,2.618-3.273,5.912-3.273,9.275V81.63c0,3.352,2.727,6.078,6.078,6.078h16.927  c3.352,0,6.078-2.727,6.078-6.078v-3.27V51.654v-3.27C64.542,45.021,63.379,41.727,61.269,39.109z M43.812,16.455  c0.077-0.806,0.746-1.413,1.555-1.413h9.267c0.809,0,1.478,0.607,1.555,1.413l0.25,2.603h-0.167H43.729h-0.167L43.812,16.455z   M58.463,84.958H41.537c-1.835,0-3.328-1.493-3.328-3.328V48.384c0-2.738,0.946-5.419,2.664-7.55c1.974-2.45,3.1-5.406,3.251-8.502  l0.872-10.525h10.009l0.868,10.479c0.155,3.142,1.281,6.098,3.255,8.548c1.718,2.131,2.664,4.812,2.664,7.55v1.895H44.697  c-0.759,0-1.375,0.616-1.375,1.375V78.36c0,0.76,0.616,1.375,1.375,1.375h17.095v1.895C61.792,83.465,60.298,84.958,58.463,84.958z   M61.792,76.985h-15.72V53.029h15.72V76.985z"/><text x="0" y="115" fill="#000000" font-size="5px" font-weight="bold" font-family="'Helvetica Neue', Helvetica, Arial-Unicode, Arial, Sans-serif">Created by Nathan Driskell</text><text x="0" y="120" fill="#000000" font-size="5px" font-weight="bold" font-family="'Helvetica Neue', Helvetica, Arial-Unicode, Arial, Sans-serif">from the Noun Project</text></svg>