<svg xmlns="http://www.w3.org/2000/svg" xmlns:xlink="http://www.w3.org/1999/xlink" version="1.1" x="0px" y="0px" viewBox="0 0 100 125" enable-background="new 0 0 100 100" xml:space="preserve"><g display="none"><rect x="-850.375" y="-368.38" display="inline" fill-rule="evenodd" clip-rule="evenodd" fill="#000000" width="1219.935" height="495.59"/></g><g><g><path d="M79.071,10.847c-6.51,0-12.519,3.552-15.706,9.167c-4.146-1.471-8.466-2.216-12.867-2.216c-0.002,0-0.004,0-0.008,0    c-4.4,0-8.722,0.745-12.868,2.216c-3.187-5.616-9.195-9.167-15.706-9.167c-9.961,0-18.065,8.104-18.065,18.065    c0,6.621,3.635,12.679,9.38,15.832c-1.06,3.078-1.734,6.265-2.01,9.484c-0.859,8.934,1.989,17.512,8.023,24.154    c7.268,8.001,18.658,12.589,31.25,12.589c0.001,0,0.001,0,0.002,0c12.59,0,23.978-4.588,31.245-12.587    c6.035-6.643,8.886-15.221,8.027-24.139c-0.276-3.234-0.951-6.423-2.011-9.501c5.744-3.153,9.38-9.21,9.38-15.832    C97.138,18.951,89.033,10.847,79.071,10.847z M85.045,42.423l-1.433,0.634l0.565,1.461c1.245,3.219,2.024,6.585,2.318,10.024    c0.77,8.001-1.783,15.683-7.187,21.631c-6.646,7.316-17.149,11.512-28.815,11.511c-11.668,0-22.171-4.196-28.817-11.512    c-5.403-5.948-7.955-13.63-7.184-21.647c0.293-3.421,1.072-6.788,2.317-10.007l0.565-1.461l-1.433-0.634    c-5.35-2.369-8.806-7.672-8.806-13.511c0-8.149,6.629-14.779,14.778-14.779c5.745,0,11.014,3.384,13.421,8.622l0.652,1.417    l1.449-0.578c4.181-1.666,8.572-2.51,13.053-2.51c0.003,0,0.003,0,0.007,0c4.479,0,8.871,0.845,13.051,2.51l1.449,0.578    l0.652-1.417c2.408-5.237,7.677-8.622,13.421-8.622c8.149,0,14.779,6.63,14.779,14.779C93.851,34.75,90.395,40.054,85.045,42.423z    "/><path d="M21.916,22.233c-3.683,0-6.68,2.996-6.68,6.68c0,3.683,2.996,6.68,6.68,6.68c3.683,0,6.68-2.996,6.68-6.68    C28.596,25.229,25.599,22.233,21.916,22.233z"/><path d="M79.072,22.233c-3.683,0-6.68,2.996-6.68,6.68c0,3.683,2.996,6.68,6.68,6.68c3.683,0,6.68-2.996,6.68-6.68    C85.751,25.229,82.755,22.233,79.072,22.233z"/><path d="M50.494,47.307c-10.115,0-18.345,8.229-18.345,18.344s8.229,18.344,18.345,18.344s18.345-8.229,18.345-18.344    S60.609,47.307,50.494,47.307z M50.494,80.709c-8.303,0-15.058-6.755-15.058-15.058s6.755-15.058,15.058-15.058    s15.058,6.755,15.058,15.058S58.797,80.709,50.494,80.709z"/><circle cx="50.494" cy="61.371" r="6.753"/></g></g><text x="0" y="115" fill="#000000" font-size="5px" font-weight="bold" font-family="'Helvetica Neue', Helvetica, Arial-Unicode, Arial, Sans-serif">Created by Oksana Latysheva</text><text x="0" y="120" fill="#000000" font-size="5px" font-weight="bold" font-family="'Helvetica Neue', Helvetica, Arial-Unicode, Arial, Sans-serif">from the Noun Project</text></svg>