<svg xmlns="http://www.w3.org/2000/svg" xmlns:xlink="http://www.w3.org/1999/xlink" version="1.1" x="0px" y="0px" viewBox="0 0 100 125" enable-background="new 0 0 100 100" xml:space="preserve"><g transform="translate(0.000000,1246.000000) scale(0.100000,-0.100000)"><path d="M729.7,12372.2c-3.5-1.3-5.9-4.9-5.5-8.8c0.6-5.8,4.3-7.9,13.9-7.9c3.5,0,9.6-0.4,13.6-0.7c45.4-4.6,86.7-24.1,118.9-56.2   c15.6-15.6,27.3-31.9,36.8-51.1c12.2-24.8,18.3-48,19.8-76.6c0.4-6.5,1-12.4,1.4-13.1c1.4-2.7,4.3-4.3,7.5-4.3   c2.5,0,3.6,0.4,5.8,2.4l2.6,2.5l-0.1,9.9c-0.8,50.4-22.4,101.9-58.8,139.4c-36.3,37.7-87.9,61.9-137.5,64.4   c-4.1,0.2-9.3,0.5-11.7,0.7C734.1,12372.9,731.1,12372.7,729.7,12372.2z"/><path d="M727.1,12328.5c-5-4.2-4.1-11.8,1.7-14.2c1.3-0.6,4.5-1,7.3-1c12,0,31-3.2,43.5-7.4c22.6-7.5,42-19.3,59-35.8   c12.7-12.3,21.4-24.1,29.4-39.8c10.1-19.8,15.1-38.4,16.4-62.3c0.5-9.3,1.3-11.8,4.5-13.4c4.5-2.3,9.6-0.6,11.8,3.8   c1,2.1,1.1,3.9,0.7,11.5c-1.8,35.8-15.1,70.4-37.6,98c-6.5,8-20.9,22-28.3,27.6c-28.3,21.3-61.3,33.2-95.2,34.5l-11,0.4   L727.1,12328.5z"/><path d="M728.9,12285.4c-5.3-2.8-5.5-11.7-0.4-14.5c0.8-0.4,6-1.2,11.5-1.7c17.1-1.5,28-4.4,41.8-11.3   c20.3-10.1,37.2-26.7,47.7-46.7c7.5-14.4,11-27.2,12-43.3c0.3-5.1,0.9-9.9,1.4-10.8c1.2-2.2,4.9-4.4,7.5-4.4c3.1,0,6.7,2.5,7.9,5.5   c0.9,2.3,1,3.8,0.3,12c-1.6,17.6-5.9,33.1-13.5,47.9c-19.4,37.8-55.9,62.8-98.8,67.7C737.4,12286.8,731.1,12286.6,728.9,12285.4z"/><path d="M689,12231.2c-14.6-2.7-27.9-8-39.5-15.5c-6.8-4.5-19-16.5-207.6-203.9l-200.3-199.1l-2.1,0.8c-1.1,0.4-4.7,0.8-8.1,0.9   c-7.4,0.1-11.8-1.3-17.5-5.6c-2.3-1.6-17.8-16.8-34.6-33.5c-35.5-35.7-34.6-34.3-34.5-46.7c0-13.3-6.4-5.8,71.4-83.3   c62.4-62.2,68.4-68,72.6-70c8.4-4.1,19.8-3.4,27.6,1.5c4.7,3,66.1,64.5,67.8,67.9c3.6,7.2,4.5,13.9,2.7,20.8l-1,3.9l199.5,198.1   c156.5,155.6,200.3,199.3,203.5,203.8c8.8,12.7,15.4,28.4,17.8,42.9c1.6,9.2,1.6,23.9,0,33.1c-2.4,14.6-9.1,30.6-17.8,42.8   c-5.5,7.5-16.1,18.1-23.9,23.7c-10.8,7.5-24.5,13.4-38.6,16.6C718.7,12232.2,696.7,12232.7,689,12231.2z M719.5,12214.4   c22.2-3.8,41.3-15.3,54.7-33.3c10.8-14.6,16.4-31.6,16.4-50.1c0-17.6-4.5-32.1-14.7-47.9c-3.4-5.3-27-29-202.2-202.9l-198.4-196.9   l-60,59.6l-60,59.6l198.7,197.6c179.5,178.3,199.4,197.9,205.2,201.6c6.7,4.3,15.6,8.4,22.4,10.4   C693.1,12215.4,708.1,12216.3,719.5,12214.4z M237.7,11795.5c1.3-0.9,31.5-30.5,67-65.9c55.7-55.5,64.6-64.6,65.3-67.1   c1-3.7,1-4.9-0.3-8c-1.3-3.2-59.6-61.5-63.5-63.6c-2.9-1.5-6.5-1.7-9.6-0.6c-2.7,1-133.2,130.6-134.4,133.5s-1.3,6,0.1,9.2   c0.8,1.8,10.5,12,30.3,31.7c16.1,16,30.1,29.8,31.2,30.5C228,11798.4,233.4,11798.4,237.7,11795.5z"/><path d="M629.6,12139.5c-0.8-0.4-74.8-73.6-164.4-162.8c-154.3-153.4-163.1-162.4-163.5-165.1c-0.7-5.5,3-9.4,9.1-9.4h3   l163.4,162.5c176.2,175.2,166.1,164.6,163.8,169.9c-0.6,1.3-1.7,2.9-2.5,3.7C636.9,12139.7,631.7,12140.4,629.6,12139.5z"/><path d="M664.6,12102.7c-2.1-0.8-324.6-321.2-326.1-323.9c-3.3-6.2,1.6-13.2,8.4-12.3c2.7,0.4,11.7,9.2,165.6,162.2   c111.2,110.6,162.9,162.5,163.4,163.9c1,2.8-0.4,7-2.8,8.9C670.9,12103.1,666.9,12103.7,664.6,12102.7z"/><path d="M701.8,12066.3c-3.5-2.3-326.6-324.1-327.1-325.9c-1.8-6.3,4.2-12.5,10.5-10.6c3.2,0.9,327.9,323.7,329,327.1   C716.6,12063.8,708,12070.3,701.8,12066.3z"/></g><text x="0" y="115" fill="#000000" font-size="5px" font-weight="bold" font-family="'Helvetica Neue', Helvetica, Arial-Unicode, Arial, Sans-serif">Created by misirlou</text><text x="0" y="120" fill="#000000" font-size="5px" font-weight="bold" font-family="'Helvetica Neue', Helvetica, Arial-Unicode, Arial, Sans-serif">from the Noun Project</text></svg>