<svg xmlns="http://www.w3.org/2000/svg" xmlns:xlink="http://www.w3.org/1999/xlink" version="1.1" x="0px" y="0px" viewBox="0 0 100 125" style="enable-background:new 0 0 100 100;" xml:space="preserve"><style type="text/css">
	.st0{fill:none;stroke:#000000;stroke-width:2;stroke-linecap:round;stroke-linejoin:round;stroke-miterlimit:10;}
</style><path d="M72.857,55.377c11.918-12.082,11.461-20.132,11.005-22.401l2.308-2.309c1.267-1.267,1.267-3.327,0-4.594L73.329,13.231  c-1.266-1.268-3.328-1.268-4.594,0l-2.31,2.31c-2.27-0.455-10.318-0.914-22.4,11.004L28.817,11.338c-1-1-2.329-1.552-3.744-1.552  c-1.414,0-2.744,0.552-3.744,1.552l-9.995,9.995c-1,1-1.552,2.33-1.552,3.744c0,1.415,0.552,2.744,1.552,3.744L71.06,88.548  c1.032,1.032,2.388,1.548,3.744,1.548c1.355,0,2.712-0.516,3.744-1.548l9.995-9.996c2.064-2.064,2.064-5.424,0-7.488L72.857,55.377z   M53.569,68.229l14.655-14.656l4.9,4.9L58.469,73.129L53.569,68.229z M32.522,47.181l14.656-14.655l19.633,19.633L52.155,66.815  L32.522,47.181z M26.208,40.868l14.655-14.656l4.9,4.9L31.108,45.767L26.208,40.868z M70.149,14.646  c0.486-0.486,1.279-0.486,1.766,0l12.842,12.842c0.486,0.487,0.486,1.279,0,1.766l-2.003,2.004L68.146,16.649L70.149,14.646z   M66.211,17.543l15.655,15.654c0.304,1.221,1.49,8.689-10.422,20.767L45.439,27.959C57.4,16.167,64.968,17.254,66.211,17.543z   M11.782,25.077c0-0.88,0.344-1.707,0.966-2.33l9.995-9.995c1.246-1.245,3.417-1.244,4.66,0l12.046,12.046L24.794,39.454  L12.748,27.407C12.126,26.785,11.782,25.958,11.782,25.077z M87.129,77.138l-9.995,9.996c-1.285,1.283-3.375,1.283-4.66,0  L59.883,74.543l14.656-14.655l12.59,12.59C88.414,73.763,88.414,75.853,87.129,77.138z"/><text x="0" y="115" fill="#000000" font-size="5px" font-weight="bold" font-family="'Helvetica Neue', Helvetica, Arial-Unicode, Arial, Sans-serif">Created by Made</text><text x="0" y="120" fill="#000000" font-size="5px" font-weight="bold" font-family="'Helvetica Neue', Helvetica, Arial-Unicode, Arial, Sans-serif">from the Noun Project</text></svg>