<svg xmlns="http://www.w3.org/2000/svg" xmlns:xlink="http://www.w3.org/1999/xlink" version="1.1" x="0px" y="0px" viewBox="0 0 100 125" enable-background="new 0 0 100 100" xml:space="preserve"><g><path d="M82.6,35C80.1,28.5,72.9,22,64.1,22l-0.2,0c-6.9,0.1-12.9,2.9-15,4c-3.2-0.8-7.6-2.5-8.6-4.1c-1.8-2.7-2.3-6.2-2.3-6.2   c0-0.3-0.2-0.7-0.4-0.9c-0.8-1.1-3.1-3-6.1-3c-0.7,0-1.5,0.1-2.2,0.3c-5,1.5-5.6,6.2-5.6,6.4c0,0.3,0,0.5,0.1,0.8l1.5,5.2   c0.9,2.9,3.1,8.4,8.3,11.6c2.6,1.6,4.6,2.7,5.9,3.4c-0.5,1.2-0.9,3-0.9,5c0.1,4.3-0.6,6.9-2,8.4c-0.9,0.9-1.6,1.1-3.2,1.5   c-1.3,0.3-3,0.8-5.4,1.8c-5.9,2.5-9.3,5.6-11.4,15.4c-2.3,10.4-2,11.4-1.8,12c0.4,1.1,3,4.1,6.8,4.5c0.2,0,0.4,0,0.6,0c0,0,0,0,0,0   c3.8,0,6.2-3.4,6.3-3.6c0.2-0.3,0.3-0.6,0.3-0.9c0,0,0.2-1.6,1-5.4c0.6-2.7,1.8-5,2.5-5.6c0.4,0.2,1,0.6,1.4,0.9   c2.7,1.7,7.1,4.6,13.4,4.7c0.3,0,0.7,0,1,0c4.8,0,21.3-1,30.4-14C85.8,53.9,85.4,42.3,82.6,35z M75.1,62.1   c-8,11.4-22.8,12.3-27.1,12.3c-0.3,0-0.6,0-0.9,0c-5.2-0.1-8.9-2.5-11.4-4.1c-1.5-1-2.6-1.6-3.7-1.6c-0.2,0-0.4,0-0.6,0.1   c-3.2,0.8-5.1,6.1-5.7,8.9c-0.6,2.7-0.8,4.3-0.9,5.1c-0.5,0.5-1.6,1.6-2.9,1.5C20.2,84,19,83,18.5,82.4c0-0.8,0.3-3.2,1.8-9.9   c1.8-8.3,4.2-10.5,9.1-12.6c2.1-0.9,3.7-1.3,4.9-1.7c1.9-0.5,3.4-0.9,5-2.6c0.6,0.2,1,0.6,1.7,1.3c1.1,1.1,2.7,2.6,5.5,2.6   s4.4-1.5,5.5-2.6c1-1,1.5-1.4,2.8-1.4c1.2,0,1.8,0.5,2.8,1.4c1.1,1.1,2.7,2.6,5.5,2.6c2.9,0,4.4-1.5,5.5-2.6c1-1,1.5-1.4,2.8-1.4   s1.8,0.5,2.8,1.4c0.7,0.7,1.5,1.5,2.8,2C76.5,60,75.8,61,75.1,62.1z M78.7,55.3c-0.6-0.2-1-0.6-1.7-1.3c-1.1-1.1-2.7-2.6-5.5-2.6   S67.1,53,66,54c-1,1-1.5,1.4-2.8,1.4c-1.2,0-1.8-0.5-2.8-1.4c-1.1-1.1-2.7-2.6-5.5-2.6c-2.9,0-4.4,1.5-5.5,2.6   c-1,1-1.5,1.4-2.8,1.4c-1.2,0-1.8-0.5-2.8-1.4c-0.6-0.6-1.4-1.3-2.4-1.8c0.9-2.5,1.1-5.4,1-7.8c0-2.7,1.2-4.7,1.2-4.8   c0.3-0.5,0.4-1.1,0.2-1.7c-0.2-0.6-0.6-1-1.2-1.3c0,0-2.8-1.1-7.3-3.9c-4.2-2.6-6-7.4-6.6-9.4l-1.4-4.7c0.2-0.7,0.8-2.2,2.7-2.7   c0.4-0.1,0.7-0.2,1.1-0.2c1.2,0,2.2,0.7,2.6,1.1c0.3,1.3,1,4.5,2.9,7.2c2.4,3.6,10.2,5.6,11.8,5.9c0.5,0.1,1,0,1.5-0.2   c0.1,0,6.5-3.8,13.7-3.9l0.2,0c7,0,12.8,5.4,14.8,10.5C80.7,41.3,81.3,48.2,78.7,55.3z"/></g><text x="0" y="115" fill="#000000" font-size="5px" font-weight="bold" font-family="'Helvetica Neue', Helvetica, Arial-Unicode, Arial, Sans-serif">Created by Lane F. Kinkade</text><text x="0" y="120" fill="#000000" font-size="5px" font-weight="bold" font-family="'Helvetica Neue', Helvetica, Arial-Unicode, Arial, Sans-serif">from the Noun Project</text></svg>