<svg xmlns:dc="http://purl.org/dc/elements/1.1/" xmlns:cc="http://creativecommons.org/ns#" xmlns:rdf="http://www.w3.org/1999/02/22-rdf-syntax-ns#" xmlns:svg="http://www.w3.org/2000/svg" xmlns="http://www.w3.org/2000/svg" xmlns:sodipodi="http://sodipodi.sourceforge.net/DTD/sodipodi-0.dtd" xmlns:inkscape="http://www.inkscape.org/namespaces/inkscape" version="1.1" x="0px" y="0px" viewBox="0 0 100 125" enable-background="new 0 0 100 100" xml:space="preserve"><g><text xml:space="preserve" style="letter-spacing:2.18000007px;word-spacing:0px;" x="19.283113" y="-6.5645738" font-size="14px" font-style="normal" font-variant="normal" font-weight="normal" font-stretch="normal" line-height="125%" fill="#000000" fill-opacity="1" stroke="none" font-family="Telephasic BRK"><tspan x="19.283113" y="-6.5645738" style="letter-spacing:2.18000007px;" font-style="normal" font-variant="normal" font-weight="normal" font-stretch="normal" fill="#ff0000" fill-opacity="1" font-family="Coolvetica">UNIONS!!!</tspan></text><g transform="translate(4.329468,1.7599361)"><path style="text-indent:0;text-transform:none;direction:ltr;block-progression:tb;baseline-shift:baseline;color:#000000;enable-background:accumulate;" d="M 44.8125 12.78125 C 38.033241 12.78125 32.461809 17.931236 31.65625 24.5 C 31.5157 24.4936 31.392617 24.4375 31.25 24.4375 C 25.756347 24.4375 21.28125 28.953304 21.28125 34.4375 C 21.28125 35.392805 21.46492 36.315824 21.71875 37.1875 C 18.458057 38.833061 16.15625 42.087659 16.15625 45.96875 C 16.15625 51.452946 20.631347 55.96875 26.125 55.96875 C 26.325465 55.96875 26.519265 55.91771 26.71875 55.90625 C 28.345955 59.213287 31.611641 61.5625 35.53125 61.5625 C 36.989038 61.5625 38.342417 61.159195 39.59375 60.59375 C 39.89232 60.905012 40.197013 61.196954 40.53125 61.46875 C 41.53846 65.752252 43.467172 71.180838 43.21875 73.8125 C 42.8767 77.43602 42.743862 79.789327 39.5625 84 A 2.0001999 2.0001999 0 1 0 42.75 86.40625 C 46.384898 81.595303 46.84419 77.82436 47.1875 74.1875 C 47.510135 70.769658 46.282604 66.901159 45.28125 63.59375 C 45.744008 63.662164 46.235495 63.6875 46.71875 63.6875 C 49.671329 63.6875 52.354605 62.397961 54.1875 60.34375 C 54.906984 60.907935 55.682965 61.392674 56.53125 61.75 C 54.543159 66.66852 53.894353 72.232731 54.96875 76.5625 C 55.973278 80.6107 56.554472 82.510414 59.65625 86.4375 A 2.0009763 2.0009763 0 1 0 62.78125 83.9375 C 59.864448 80.244606 59.851222 79.65381 58.84375 75.59375 C 58.029026 72.310454 58.658028 66.81888 60.5625 62.5 C 62.755226 62.462055 64.788532 61.925276 66.40625 60.71875 C 67.377883 59.994087 68.098574 59.001179 68.65625 57.875 C 70.010983 58.554362 71.456816 59.03125 73.0625 59.03125 C 75.966748 59.03125 78.57569 57.566057 80.46875 55.53125 C 82.36181 53.496443 83.625 50.832181 83.625 48 C 83.625 45.95183 82.877809 44.147665 81.8125 42.5625 C 83.020831 40.704659 83.84375 38.578236 83.84375 36.21875 C 83.84375 29.748806 78.571421 24.4375 72.09375 24.4375 C 71.267125 24.4375 70.557414 24.741461 69.78125 24.90625 C 68.379982 21.078471 64.825343 18.25 60.53125 18.25 C 58.922211 18.25 57.492308 18.756573 56.15625 19.4375 C 53.841387 15.505657 49.68845 12.78125 44.8125 12.78125 z M 44.8125 16.78125 C 48.831626 16.78125 52.214849 19.333751 53.53125 22.875 L 54.53125 25.53125 L 56.71875 23.6875 C 57.779572 22.791868 59.070395 22.25 60.53125 22.25 C 63.569822 22.25 66.069653 24.523547 66.46875 27.4375 L 66.8125 29.96875 L 69.1875 29.03125 C 70.092293 28.666776 71.078743 28.4375 72.09375 28.4375 C 76.401159 28.4375 79.84375 31.903614 79.84375 36.21875 C 79.84375 38.171666 79.163911 39.928474 78 41.28125 L 76.84375 42.65625 L 78.0625 43.96875 C 79.057273 45.04241 79.625 46.420782 79.625 48 C 79.625 49.573919 78.818725 51.428622 77.53125 52.8125 C 76.243775 54.196378 74.564352 55.03125 73.0625 55.03125 C 71.462403 55.03125 70.035883 54.440613 68.96875 53.4375 L 66.25 50.84375 L 65.625 54.5625 C 65.382304 56.052784 64.845212 56.924181 64.03125 57.53125 C 63.217288 58.138319 61.988969 58.5 60.3125 58.5 C 58.315893 58.5 56.586549 57.540938 55.5 56.0625 L 53.5625 53.4375 L 52.09375 56.375 C 51.118844 58.342158 49.086167 59.6875 46.71875 59.6875 C 44.615759 59.6875 42.857124 58.653904 41.78125 57.03125 L 40.65625 55.3125 L 38.96875 56.5 C 37.997812 57.175701 36.798329 57.5625 35.53125 57.5625 C 32.794313 57.5625 30.532092 55.710807 29.8125 53.21875 L 29.28125 51.4375 L 27.46875 51.84375 C 27.062078 51.93399 26.579128 51.96875 26.125 51.96875 C 22.806453 51.96875 20.15625 49.296754 20.15625 45.96875 C 20.15625 43.132204 22.133811 40.78904 24.75 40.15625 L 27.25 39.5625 L 26.03125 37.28125 C 25.563835 36.420816 25.28125 35.470965 25.28125 34.4375 C 25.28125 31.109496 27.931453 28.4375 31.25 28.4375 C 31.823061 28.4375 32.408754 28.552308 32.96875 28.71875 L 35.71875 29.53125 L 35.53125 26.65625 C 35.51619 26.404993 35.5 26.225261 35.5 26.09375 C 35.5 20.927271 39.646021 16.78125 44.8125 16.78125 z " transform="translate(-4.329468,-1.7599361)" fill="#000000" fill-opacity="0.98039216" stroke="none" marker="none" visibility="visible" display="inline" overflow="visible"/></g></g><text x="0" y="115" fill="#000000" font-size="5px" font-weight="bold" font-family="'Helvetica Neue', Helvetica, Arial-Unicode, Arial, Sans-serif">Created by Nherwin Ardona</text><text x="0" y="120" fill="#000000" font-size="5px" font-weight="bold" font-family="'Helvetica Neue', Helvetica, Arial-Unicode, Arial, Sans-serif">from the Noun Project</text></svg>