<svg xmlns="http://www.w3.org/2000/svg" data-name="Capa 1" viewBox="0 0 512 640" x="0px" y="0px"><title>3</title><path d="M256,512C152.64,512,68.55,427.91,68.55,324.55c0-96.64,154.21-294.7,171.79-317a19.95,19.95,0,0,1,31.31,0c17.59,22.27,171.79,220.32,171.79,317C443.45,427.91,359.37,512,256,512Zm0-459.34c-52.19,69.23-147.55,208.78-147.55,271.89,0,81.35,66.19,147.54,147.55,147.54s147.55-66.18,147.55-147.54C403.55,261.44,308.19,121.89,256,52.66Z"/><path d="M256,432.21a20,20,0,0,1,0-39.91,67.82,67.82,0,0,0,67.75-67.73,20,20,0,0,1,39.91,0A107.78,107.78,0,0,1,256,432.21Z"/><text x="0" y="527" fill="#000000" font-size="5px" font-weight="bold" font-family="'Helvetica Neue', Helvetica, Arial-Unicode, Arial, Sans-serif">Created by Baboon designs</text><text x="0" y="532" fill="#000000" font-size="5px" font-weight="bold" font-family="'Helvetica Neue', Helvetica, Arial-Unicode, Arial, Sans-serif">from the Noun Project</text></svg>