<svg xmlns:dc="http://purl.org/dc/elements/1.1/" xmlns:cc="http://creativecommons.org/ns#" xmlns:rdf="http://www.w3.org/1999/02/22-rdf-syntax-ns#" xmlns:svg="http://www.w3.org/2000/svg" xmlns="http://www.w3.org/2000/svg" xmlns:sodipodi="http://sodipodi.sourceforge.net/DTD/sodipodi-0.dtd" xmlns:inkscape="http://www.inkscape.org/namespaces/inkscape" version="1.1" x="0px" y="0px" viewBox="0 0 100 125"><g transform="translate(0,-952.36218)"><path style="text-indent:0;text-transform:none;direction:ltr;block-progression:tb;baseline-shift:baseline;color:#000000;enable-background:accumulate;" d="M 17.8125,982.36438 A 2.0001996,2.0000897 0 0 0 16,984.36427 l 0,4.99972 -4,0 c -3.2894047,0 -6,2.71045 -6,5.99967 l 0,13.99924 c 0,3.2892 2.7105953,5.9997 6,5.9997 l 4,0 0,4.9997 a 2.0001996,2.0000897 0 0 0 2,1.9999 l 10,0 a 2.0001996,2.0000897 0 0 0 2,-1.9999 l 0,-15.9991 40,0 0,15.9991 a 2.0001996,2.0000897 0 0 0 2,1.9999 l 10,0 a 2.0001996,2.0000897 0 0 0 2,-1.9999 l 0,-4.9997 4,0 c 3.289404,0 6,-2.7105 6,-5.9997 l 0,-13.99924 c 0,-3.28922 -2.710596,-5.99967 -6,-5.99967 l -4,0 0,-4.99972 a 2.0001996,2.0000897 0 0 0 -1.8125,-1.99989 2.0001996,2.0000897 0 0 0 -0.1875,0 l -10,0 a 2.0001996,2.0000897 0 0 0 -2,1.99989 l 0,15.99913 -40,0 0,-15.99913 a 2.0001996,2.0000897 0 0 0 -2,-1.99989 l -10,0 a 2.0001996,2.0000897 0 0 0 -0.1875,0 z m 2.1875,3.99978 6,0 0,15.37414 a 2.0021961,2.0020861 0 0 0 0,1.2812 l 0,15.3429 -6,0 0,-31.99824 z m 54,0 6,0 0,31.99824 -6,0 0,-15.6241 a 2.0001999,2.00009 0 0 0 0,-0.5938 l 0,-15.78034 z m -62,6.99961 4,0 0,17.99903 -4,0 c -1.142593,0 -2,-0.8574 -2,-1.9999 l 0,-13.99924 c 0,-1.14253 0.857407,-1.99989 2,-1.99989 z m 72,0 4,0 c 1.142592,0 2,0.85736 2,1.99989 l 0,13.99924 c 0,1.1425 -0.857408,1.9999 -2,1.9999 l -4,0 0,-17.99903 z" fill="#000000" fill-opacity="1" stroke="none" marker="none" visibility="visible" display="inline" overflow="visible"/></g><text x="0" y="115" fill="#000000" font-size="5px" font-weight="bold" font-family="'Helvetica Neue', Helvetica, Arial-Unicode, Arial, Sans-serif">Created by joeartcon</text><text x="0" y="120" fill="#000000" font-size="5px" font-weight="bold" font-family="'Helvetica Neue', Helvetica, Arial-Unicode, Arial, Sans-serif">from the Noun Project</text></svg>