<svg xmlns="http://www.w3.org/2000/svg" viewBox="0 0 64 80" x="0px" y="0px"><g data-name="line expand (outline)"><path d="M23.731,62c.217,0,.435,0,.654-.012a17.064,17.064,0,0,0,13.106-7l.626,2.056A6.963,6.963,0,0,0,44.813,62h1.112a6.962,6.962,0,0,0,6.7-4.959l2.986-9.8a30.66,30.66,0,0,0,1.1-4.689,30.319,30.319,0,0,0-1.546-14.673l.011,0-.147-.358a30.443,30.443,0,0,0-2.983-5.852l-.128-.2-.008,0c-.192-.289-.383-.578-.586-.861l-.123-.739c-.1-.6-.158-1.2-.217-1.8q-.065-.657-.1-1.317-.027-.525-.032-1.05-.006-.7.023-1.392a26.4,26.4,0,0,1,.46-4.035l.076-.268a6.28,6.28,0,1,0-12.077,0l.058.19a26.621,26.621,0,0,1,.478,4.171q.027.646.022,1.3,0,.553-.032,1.107c-.022.432-.052.862-.094,1.292-.06.6-.118,1.2-.218,1.8l-.123.74c-.2.283-.393.572-.585.86h-.009l-.135.212a30.5,30.5,0,0,0-2.986,5.868l-.136.332.01,0a30.2,30.2,0,0,0-1.142,3.928A16.994,16.994,0,1,0,23.731,62ZM41.952,5.7a4.28,4.28,0,0,1,7.532,3.754l-.095.347a28.93,28.93,0,0,0-.432,3,40.788,40.788,0,0,1-7.179,0,29.585,29.585,0,0,0-.447-3.081l-.077-.269A4.246,4.246,0,0,1,41.952,5.7Zm6.976,12.121a40.86,40.86,0,0,1-7.117,0c0-.021,0-.042,0-.063q.114-1.427.087-2.861c0-.021,0-.042,0-.063a42.7,42.7,0,0,0,6.934,0c0,.007,0,.014,0,.021a28.3,28.3,0,0,0,.088,2.911C48.926,17.787,48.926,17.806,48.928,17.824Zm-7.75,3.764.139-.191.2-1.2c.022-.133.037-.266.057-.4,1.261.112,2.527.184,3.794.184s2.533-.072,3.8-.184c.02.133.035.267.057.4l.2,1.2.139.191c.035.048.066.1.1.145a40.769,40.769,0,0,1-8.583,0C41.112,21.685,41.144,21.636,41.178,21.588Zm-1.345,2.038a42.665,42.665,0,0,0,11.073,0,28.542,28.542,0,0,1,1.463,2.765,40.48,40.48,0,0,1-14,0A28.438,28.438,0,0,1,39.833,23.626Zm-2.261,4.64a42.66,42.66,0,0,0,7.8.735,42.665,42.665,0,0,0,7.8-.735,28.308,28.308,0,0,1,1.556,14.006A28.7,28.7,0,0,1,53.7,46.657l-2.987,9.8A4.972,4.972,0,0,1,45.925,60H44.813a4.975,4.975,0,0,1-4.783-3.542l-2.987-9.8a28.68,28.68,0,0,1-1.027-4.385A28.308,28.308,0,0,1,37.572,28.266Zm-14.4,1.745a15.018,15.018,0,0,1,10.856,4.1A29.114,29.114,0,0,0,35.13,47.24l1.6,5.248A15,15,0,1,1,23.169,30.011Z"/><path d="M23.738,43.5c.045,0,.089,0,.134,0a3.5,3.5,0,1,0-3.631-3.365h0A3.505,3.505,0,0,0,23.738,43.5Zm-.056-5a1.5,1.5,0,0,1,1.556,1.442A1.5,1.5,0,0,1,23.8,41.5a1.48,1.48,0,0,1-1.556-1.442A1.5,1.5,0,0,1,23.682,38.5Z"/><path d="M19.736,52c.038,0,.077,0,.117,0a3.009,3.009,0,1,0-.117,0ZM19.7,48a1.009,1.009,0,0,1,1.037.961A1,1,0,0,1,19.777,50a1,1,0,1,1-.076-2Z"/><path d="M24.741,49.114h0a3,3,0,0,0,3,2.886c.038,0,.077,0,.117,0a3,3,0,0,0,1.925-5.2,2.94,2.94,0,0,0-2.153-.8A3.005,3.005,0,0,0,24.741,49.114ZM27.7,48a1.022,1.022,0,0,1,.718.266,1,1,0,1,1-1.679.772A1,1,0,0,1,27.7,48Z"/></g><text x="0" y="79" fill="#000000" font-size="5px" font-weight="bold" font-family="'Helvetica Neue', Helvetica, Arial-Unicode, Arial, Sans-serif">Created by supalerk laipawat</text><text x="0" y="84" fill="#000000" font-size="5px" font-weight="bold" font-family="'Helvetica Neue', Helvetica, Arial-Unicode, Arial, Sans-serif">from the Noun Project</text></svg>