<svg xmlns="http://www.w3.org/2000/svg" xmlns:xlink="http://www.w3.org/1999/xlink" version="1.1" x="0px" y="0px" viewBox="0 0 100 125" style="enable-background:new 0 0 100 100;" xml:space="preserve"><g><path d="M90.7451324,58.7459183l-13.8808594-39.456543c-0.1826172-0.5214844-0.7519531-0.7944336-1.2753906-0.6113281   l-6.5202637,2.2938232l-1.6574707-4.7122803c-0.0878906-0.25-0.2714844-0.4550781-0.5107422-0.5698242   c-0.2402344-0.1147461-0.515625-0.128418-0.7646484-0.0415039L9.6689644,35.5130081   c-0.5205078,0.1831055-0.7949219,0.7543945-0.6113281,1.2753906l15.2763672,43.4238281   c0.5556641,1.5805664,1.6943359,2.8505859,3.2060547,3.5756836c0.8603516,0.4121094,1.7822266,0.6201172,2.7089844,0.6201172   c0.7011719,0,1.4052734-0.1191406,2.0869141-0.3588867l55.6660118-19.5830078   C90.3349762,63.6453323,91.5654449,61.0794144,90.7451324,58.7459183z M31.6718941,82.1624222   c-1.0761719,0.3793945-2.2363281,0.315918-3.2666016-0.1782227c-1.0302734-0.4936523-1.8056641-1.3588867-2.1845703-2.4355469   l-14.9443359-42.480957l54.5800743-19.2006855l1.3250732,3.7686768L20.0976753,38.1995316   c-0.25,0.0878906-0.4550781,0.2719727-0.5693359,0.5107422c-0.0576172,0.1196289-0.0900879,0.24823-0.097168,0.3781738   c-0.0070801,0.1298828,0.0112305,0.2612305,0.0551758,0.3864746l13.8193359,39.2807617   C33.7939644,80.1453323,33.0615425,81.6736526,31.6718941,82.1624222z M87.3379059,62.5794144L35.2851753,80.8914261   c0.0041504-0.0145874,0.005127-0.0300293,0.0090332-0.0446777c0.0125732-0.046936,0.017334-0.0955811,0.0285645-0.1429443   c0.0512695-0.2181396,0.0874023-0.4393921,0.1069336-0.6645508c0.0075684-0.086731,0.0098877-0.1730347,0.0125732-0.260437   c0.0062256-0.1995239-0.0018311-0.399353-0.0218506-0.6008911c-0.0083008-0.0841064-0.0134277-0.1671753-0.0263672-0.2513428   c-0.043457-0.2792969-0.1046143-0.5584106-0.2016602-0.8344727L21.7050972,39.7542191l47.0839806-16.5634785   c0.0002441-0.000061,0.0002441-0.0001831,0.0004883-0.0002441l6.5200195-2.2937012l13.5488281,38.5126953   C89.3125153,60.7024612,88.6308746,62.1248245,87.3379059,62.5794144z"/><path d="M61.0761909,45.4270706c0.1445313,0.4111328,0.53125,0.668457,0.9433594,0.668457   c0.1103516,0,0.2216797-0.0185547,0.3320313-0.0571289l12.8779259-4.5302734   c0.5205078-0.1831055,0.7949219-0.7543945,0.6113281-1.2753906l-4.5302734-12.8779316   c-0.1835938-0.5209961-0.7529297-0.7939453-1.2753906-0.6113281l-12.8789024,4.5302734   c-0.25,0.0878906-0.4550781,0.2719727-0.5693359,0.5112305c-0.1152344,0.2387714-0.1298828,0.5136738-0.0419922,0.7641621   L61.0761909,45.4270706z M69.7558746,28.962225l3.8662109,10.9912128l-10.9912071,3.8662109l-3.8671875-10.9912109   L69.7558746,28.962225z"/><path d="M50.319355,56.0877151c-0.1835938-0.5209961-0.7529297-0.7939453-1.2753906-0.6113281l-12.8779297,4.5302734   c-0.5205078,0.1831055-0.7949219,0.7543945-0.6113281,1.2753906l4.5302734,12.878418   c0.0878906,0.25,0.2714844,0.4550781,0.5107422,0.5698242c0.1367188,0.0649414,0.2841797,0.0981445,0.4326172,0.0981445   c0.1123047,0,0.2246094-0.019043,0.3320313-0.0566406l12.8779297-4.5307617   c0.5205078-0.1831055,0.7949219-0.7543945,0.6113281-1.2753906L50.319355,56.0877151z M41.6396675,72.5530472L37.7734566,61.561348   l10.9912109-3.8662109l3.8662109,10.9912109L41.6396675,72.5530472z"/><path d="M47.9648628,35.5672073c-0.1826172-0.5209961-0.7519531-0.7924805-1.2753906-0.6113281l-17.2070313,6.0532227   c-0.5205078,0.1831055-0.7949219,0.7543945-0.6113281,1.2753906c0.1445313,0.4111328,0.53125,0.668457,0.9433594,0.668457   c0.1103516,0,0.2216797-0.0185547,0.3320313-0.0571289l17.2070313-6.0532227   C47.8740425,36.6594925,48.1484566,36.0882034,47.9648628,35.5672073z"/><path d="M49.475605,39.8596878c-0.1835938-0.5214844-0.7529297-0.7944336-1.2753906-0.6113281l-17.2070313,6.0537109   c-0.5205078,0.1831055-0.7949219,0.7543945-0.6113281,1.2753906c0.1445313,0.4111328,0.53125,0.668457,0.9433594,0.668457   c0.1103516,0,0.2216797-0.0185547,0.3320313-0.0571289l17.2070313-6.0537109   C49.3847847,40.951973,49.6591988,40.3806839,49.475605,39.8596878z"/><path d="M50.9853706,44.1526566c-0.1835938-0.5214844-0.7529297-0.7944336-1.2753906-0.6113281l-17.2070313,6.0532227   c-0.5205078,0.1831055-0.7949219,0.7543945-0.6113281,1.2753906c0.1445313,0.4111328,0.53125,0.668457,0.9433594,0.668457   c0.1103516,0,0.2216797-0.0185547,0.3320313-0.0571289l17.2070313-6.0532227   C50.8945503,45.2449417,51.1689644,44.6736526,50.9853706,44.1526566z"/><path d="M52.4951363,48.445137c-0.1835938-0.5209961-0.7529297-0.7939453-1.2753906-0.6113281l-17.2070313,6.0537109   c-0.5205078,0.1831055-0.7949219,0.7543945-0.6113281,1.2753906c0.1445313,0.4111328,0.53125,0.668457,0.9433594,0.668457   c0.1103516,0,0.2216797-0.0185547,0.3320313-0.0571289l17.2070313-6.0537109   C52.4043159,49.5374222,52.67873,48.9661331,52.4951363,48.445137z"/><path d="M78.0576324,46.5349808c-0.1835938-0.5209961-0.7519531-0.793457-1.2753906-0.6113281l-20.8359337,7.3295898   c-0.5205078,0.1831055-0.7949219,0.7543945-0.6113281,1.2753906c0.1445313,0.4111328,0.53125,0.668457,0.9433594,0.668457   c0.1103516,0,0.2216797-0.0185547,0.3320313-0.0571289l20.8359337-7.3295898   C77.9668121,47.6272659,78.2412262,47.0559769,78.0576324,46.5349808z"/><path d="M79.5468903,50.7669144c-0.1835938-0.5209961-0.7529297-0.7924805-1.2753906-0.6113281l-20.8359337,7.3295898   c-0.5205078,0.1831055-0.7949219,0.7543945-0.6113281,1.2753906c0.1445313,0.4111328,0.53125,0.668457,0.9433594,0.668457   c0.1103516,0,0.2216797-0.0185547,0.3320313-0.0571289l20.8359337-7.3295898   C79.4560699,51.8591995,79.730484,51.2879105,79.5468903,50.7669144z"/><path d="M81.0351715,54.9983597c-0.1835938-0.5209961-0.7519531-0.793457-1.2753906-0.6113281l-20.8359337,7.3300781   c-0.5205078,0.1831055-0.7949219,0.7543945-0.6113281,1.2753906c0.1445313,0.4111328,0.53125,0.668457,0.9433594,0.668457   c0.1103516,0,0.2216797-0.0185547,0.3320313-0.0571289l20.8359337-7.3300781   C80.9443512,56.0906448,81.2187653,55.5193558,81.0351715,54.9983597z"/><path d="M81.2480621,58.6189651L60.413105,65.9490433c-0.5205078,0.1831055-0.7949219,0.7543945-0.6113281,1.2753906   c0.1445313,0.4111328,0.53125,0.668457,0.9433594,0.668457c0.1103516,0,0.2216797-0.0185547,0.3320313-0.0571289   l20.8349571-7.3300781c0.5205078-0.1831055,0.7949219-0.7543945,0.6113281-1.2753906   C82.3408356,58.7092972,81.7714996,58.4378128,81.2480621,58.6189651z"/></g><text x="0" y="115" fill="#000000" font-size="5px" font-weight="bold" font-family="'Helvetica Neue', Helvetica, Arial-Unicode, Arial, Sans-serif">Created by Edwin Prayogi M</text><text x="0" y="120" fill="#000000" font-size="5px" font-weight="bold" font-family="'Helvetica Neue', Helvetica, Arial-Unicode, Arial, Sans-serif">from the Noun Project</text></svg>