<svg xmlns="http://www.w3.org/2000/svg" xmlns:xlink="http://www.w3.org/1999/xlink" xml:space="preserve" version="1.1" style="shape-rendering:geometricPrecision;text-rendering:geometricPrecision;image-rendering:optimizeQuality;" viewBox="0 0 266 150" x="0px" y="0px" fill-rule="evenodd" clip-rule="evenodd"><defs><style type="text/css">
   
    .fil0 {fill:black;fill-rule:nonzero}
   
  </style></defs><g><path class="fil0" d="M7 44c0,19 22,31 39,35 2,0 3,2 2,4l-7 19 21 -20c0,-1 2,-1 3,-1 21,0 58,-11 58,-37 0,-49 -116,-49 -116,0zm123 0c0,31 -40,44 -64,44l-31 31c-3,3 -7,0 -6,-4l11 -30c-19,-5 -40,-19 -40,-41 0,-59 130,-59 130,0z"/><path class="fil0" d="M259 44c0,19 -22,31 -38,35 -2,0 -4,2 -3,4l7 19 -21 -20c0,-1 -1,-1 -3,-1 -21,0 -57,-11 -57,-37 0,-49 115,-49 115,0zm-123 0c0,31 40,44 64,44l31 31c3,3 8,0 6,-4l-11 -30c19,-5 40,-19 40,-41 0,-59 -130,-59 -130,0z"/></g><text x="0" y="135" fill="#000000" font-size="5px" font-weight="bold" font-family="'Helvetica Neue', Helvetica, Arial-Unicode, Arial, Sans-serif">Created by abdul karim</text><text x="0" y="140" fill="#000000" font-size="5px" font-weight="bold" font-family="'Helvetica Neue', Helvetica, Arial-Unicode, Arial, Sans-serif">from the Noun Project</text></svg>