<svg xmlns="http://www.w3.org/2000/svg" xmlns:xlink="http://www.w3.org/1999/xlink" version="1.1" x="0px" y="0px" viewBox="0 0 52 65" enable-background="new 0 0 52 52" xml:space="preserve"><g><g><path d="M12.7685547,32.9230957c2.5234375-1.7421875,5.5390625-1.7421875,8.0644531,0    c0.2843628,0.196228,0.5787964,0.3533936,0.8720093,0.5151367c0.0506592,0.031311,0.0959473,0.0679321,0.1521606,0.0899048    C23.1866455,34.230896,24.5912476,34.59729,26,34.5969238c1.7744141,0,3.5498047-0.5581055,5.1669922-1.6738281    c2.5263672-1.7431641,5.5410156-1.7412109,8.0654297,0c3.2333984,2.2304688,7.0996094,2.2324219,10.3349609,0    c0.4550781-0.3134766,0.5693359-0.9365234,0.2558594-1.3911133c-0.3144531-0.4550781-0.9365234-0.5698242-1.390625-0.2553711    c-2.5244141,1.7402344-5.5390625,1.7421875-8.0654297,0c-0.8522339-0.5884399-1.7493286-1.0117188-2.6660156-1.289978V9.4587402    c0-2.6650391-2.1679688-4.8334961-4.8330078-4.8334961h-3.0878906c-0.5527344,0-1,0.4477539-1,1s0.4472656,1,1,1h3.0878906    c1.5624924,0,2.8330078,1.2709961,2.8330078,2.8334961v1.6230469H23.2197266V9.4587402    c0-2.6650391-2.1679688-4.8334961-4.8330078-4.8334961h-3.0878906c-0.5527344,0-1,0.4477539-1,1s0.4472656,1,1,1h3.0878906    c1.5625,0,2.8330078,1.2709961,2.8330078,2.8334961v21.3762207c-3.0725098-1.7523193-6.595459-1.6233521-9.5869141,0.4416504    c-2.5263672,1.7421875-5.5410156,1.7402344-8.0654297,0c-0.4541016-0.3144531-1.0771484-0.199707-1.390625,0.2553711    c-0.3134766,0.4545898-0.1992188,1.0776367,0.2558594,1.3911133C5.6679688,35.1550293,9.5332031,35.1535645,12.7685547,32.9230957    z M35.7011719,23.8596191H23.2197266V19.470459h12.4814453V23.8596191z M30.0322266,31.2766113    c-2.1203003,1.4627075-4.5817871,1.6807251-6.8125,0.6873169v-6.1043091h12.4814453v3.7817993    C33.7597656,29.5262451,31.8016357,30.0552368,30.0322266,31.2766113z M35.7011719,13.0817871v4.3886719H23.2197266v-4.3886719    H35.7011719z"/></g><g><path d="M48.4326172,37.6652832c-2.5263672,1.7426758-5.5410156,1.7416992-8.0654297,0    c-3.2353516-2.2324219-7.1005859-2.2314453-10.3359375,0c-2.5234375,1.7421875-5.5380859,1.7421875-8.0634766,0    c-3.2353516-2.230957-7.0996094-2.2319336-10.3349609,0c-2.5244141,1.7416992-5.5390625,1.7426758-8.0654297,0    c-0.4541016-0.3149414-1.0771484-0.1992188-1.390625,0.2553711s-0.1992188,1.0776367,0.2558594,1.3911133    c3.2353516,2.2324219,7.1015625,2.2314453,10.3349609,0c2.5253906-1.7421875,5.5410156-1.7412109,8.0644531,0    C22.4501953,40.4279785,24.2246094,40.986084,26,40.986084c1.7744141,0,3.5498047-0.5581055,5.1669922-1.6743164    c2.5244141-1.7407227,5.5390625-1.7416992,8.0654297,0c3.234375,2.2324219,7.1005859,2.2314453,10.3349609,0    c0.4550781-0.3134766,0.5693359-0.9365234,0.2558594-1.3911133    C49.5087891,37.4660645,48.8867188,37.3503418,48.4326172,37.6652832z"/></g><g><path d="M48.4326172,44.0544434c-2.5244141,1.7407227-5.5390625,1.7416992-8.0654297,0    c-3.2353516-2.2333984-7.1015625-2.2319336-10.3349609,0c-2.5253906,1.7421875-5.5390625,1.7421875-8.0644531,0    c-3.2353516-2.2314453-7.0996094-2.2333984-10.3349609,0c-2.5263672,1.7416992-5.5410156,1.7407227-8.0654297,0    c-0.4541016-0.3144531-1.0771484-0.199707-1.390625,0.2553711c-0.3134766,0.4545898-0.1992188,1.0776367,0.2558594,1.3911133    c3.2353516,2.2314453,7.1005859,2.2304688,10.3359375,0c2.5234375-1.7421875,5.5390625-1.7421875,8.0644531,0    C22.4501953,46.8171387,24.2246094,47.3752441,26,47.3747559c1.7744141,0,3.5498047-0.5581055,5.1669922-1.6738281    c2.5263672-1.7426758,5.5410156-1.7416992,8.0654297,0c3.2333984,2.230957,7.0996094,2.2319336,10.3349609,0    c0.4550781-0.3134766,0.5693359-0.9365234,0.2558594-1.3911133    C49.5087891,43.8547363,48.8867188,43.7399902,48.4326172,44.0544434z"/></g></g><text x="0" y="67" fill="#000000" font-size="5px" font-weight="bold" font-family="'Helvetica Neue', Helvetica, Arial-Unicode, Arial, Sans-serif">Created by Dinosoft Labs</text><text x="0" y="72" fill="#000000" font-size="5px" font-weight="bold" font-family="'Helvetica Neue', Helvetica, Arial-Unicode, Arial, Sans-serif">from the Noun Project</text></svg>