<svg xmlns="http://www.w3.org/2000/svg" xmlns:xlink="http://www.w3.org/1999/xlink" version="1.1" x="0px" y="0px" viewBox="-658 943.25 100 125" enable-background="new -658 943.25 100 100" xml:space="preserve"><path d="M-602,995.748v-23.169c0-3.215-2.615-5.831-5.831-5.831h-0.339c-3.215,0-5.831,2.616-5.831,5.831v23.169  c0,0.553,0.448,1,1,1v3.003c-0.552,0-1,0.447-1,1s0.448,1,1,1h1h3v1.612c0,1.11,0.367,2.211,1.033,3.099  c0.939,1.252,0.812,3.03-0.295,4.138l-0.146,0.146c-1.679,1.678-1.999,4.272-0.777,6.309l1.327,2.212  c0.188,0.312,0.519,0.485,0.858,0.485c0.175,0,0.353-0.046,0.514-0.143c0.474-0.284,0.627-0.898,0.343-1.372l-1.327-2.212  c-0.748-1.247-0.553-2.837,0.478-3.866l0.146-0.146c1.806-1.805,2.012-4.707,0.479-6.75c-0.408-0.545-0.633-1.219-0.633-1.899  v-1.612h3h1c0.553,0,1-0.447,1-1s-0.447-1-1-1v-3.003C-602.447,996.748-602,996.301-602,995.748z M-612,972.579  c0-1.826,1.287-3.353,3-3.734v3.603c0,0.552,0.448,1,1,1s1-0.448,1-1v-3.603c1.713,0.381,3,1.908,3,3.734v22.169h-8V972.579z   M-605,999.751h-6v-3.003h6V999.751z"/><text x="-658" y="1058.25" fill="#000000" font-size="5px" font-weight="bold" font-family="'Helvetica Neue', Helvetica, Arial-Unicode, Arial, Sans-serif">Created by Marthy</text><text x="-658" y="1063.25" fill="#000000" font-size="5px" font-weight="bold" font-family="'Helvetica Neue', Helvetica, Arial-Unicode, Arial, Sans-serif">from the Noun Project</text></svg>