<svg xmlns="http://www.w3.org/2000/svg" xmlns:xlink="http://www.w3.org/1999/xlink" version="1.1" x="0px" y="0px" viewBox="0 0 100 125" enable-background="new 0 0 100 100" xml:space="preserve"><path d="M81.012,78.459L76.544,28.14c-0.089-1.004-0.93-1.774-1.938-1.774h-9.393C65.192,17.994,58.377,11.188,50,11.188  c-8.377,0-15.192,6.805-15.213,15.178h-9.393c-1.008,0-1.849,0.77-1.938,1.774l-4.468,50.319c-0.005,0.057-0.008,0.115-0.008,0.172  c0,5.613,5.161,10.18,11.505,10.18h39.03c6.344,0,11.505-4.567,11.505-10.18C81.02,78.574,81.017,78.517,81.012,78.459z M50,15.08  c6.231,0,11.301,5.059,11.321,11.286H38.679C38.699,20.14,43.769,15.08,50,15.08z M69.515,84.92h-39.03  c-4.166,0-7.561-2.778-7.612-6.209l4.302-48.453h7.61v6.744c0,1.075,0.871,1.946,1.946,1.946c1.075,0,1.946-0.871,1.946-1.946  v-6.744h22.645v6.744c0,1.075,0.871,1.946,1.946,1.946s1.946-0.871,1.946-1.946v-6.744h7.61l4.303,48.453  C77.076,82.142,73.681,84.92,69.515,84.92z"/><text x="0" y="115" fill="#000000" font-size="5px" font-weight="bold" font-family="'Helvetica Neue', Helvetica, Arial-Unicode, Arial, Sans-serif">Created by Gregor Cresnar</text><text x="0" y="120" fill="#000000" font-size="5px" font-weight="bold" font-family="'Helvetica Neue', Helvetica, Arial-Unicode, Arial, Sans-serif">from the Noun Project</text></svg>