<svg xmlns="http://www.w3.org/2000/svg" xmlns:xlink="http://www.w3.org/1999/xlink" version="1.1" x="0px" y="0px" viewBox="0 0 100 125" style="enable-background:new 0 0 100 100;" xml:space="preserve"><g><g><path d="M79.8,62.4H16.2c-0.8,0-1.5,0.7-1.5,1.5v9.4c0,0.8,0.7,1.5,1.5,1.5h63.6c0.8,0,1.5-0.7,1.5-1.5v-9.4    C81.3,63.1,80.7,62.4,79.8,62.4z M17.7,65.4h53.7v6.4H17.7V65.4z M78.3,71.8h-3.9v-6.4h3.9V71.8z"/><path d="M78.8,45.8c-0.1-2.8-1.7-5.4-4.1-6.8c0.2-0.9,0.3-1.7,0.3-2.6c0-6.2-5.1-11.3-11.3-11.3s-11.3,5.1-11.3,11.3    c0,5.7,4.1,10.4,9.7,11.2c0.6,3.7,3.6,6.6,7.4,7c0.5,3.9,3.8,6.9,7.8,6.9c4.4,0,7.9-3.5,7.9-7.9C85.3,49.8,82.5,46.5,78.8,45.8z     M77.4,58.5c-2.7,0-4.9-2.2-4.9-4.9c0-0.6-0.4-1.1-0.9-1.4c-0.3-0.3-0.7-0.5-1.1-0.5c-3,0-5.4-2.4-5.4-5.4c0,0,0-0.1,0-0.1    c0-0.8-0.6-1.5-1.5-1.5c-4.5-0.1-8.1-3.8-8.1-8.3c0-4.6,3.7-8.3,8.3-8.3s8.3,3.7,8.3,8.3c0,0.9-0.2,1.9-0.5,2.8    c-0.3,0.8,0.1,1.6,0.9,1.9c2.1,0.8,3.5,2.8,3.5,5c0,0.2,0,0.3,0.1,0.5c0,0.1-0.1,0.3-0.1,0.5c0,0.8,0.7,1.5,1.5,1.5    c2.7,0,4.9,2.2,4.9,4.9C82.3,56.3,80.1,58.5,77.4,58.5z"/></g></g><text x="0" y="115" fill="#000000" font-size="5px" font-weight="bold" font-family="'Helvetica Neue', Helvetica, Arial-Unicode, Arial, Sans-serif">Created by Bestdesignmarket</text><text x="0" y="120" fill="#000000" font-size="5px" font-weight="bold" font-family="'Helvetica Neue', Helvetica, Arial-Unicode, Arial, Sans-serif">from the Noun Project</text></svg>