<svg xmlns="http://www.w3.org/2000/svg" xmlns:xlink="http://www.w3.org/1999/xlink" version="1.1" x="0px" y="0px" viewBox="0 0 100 125" style="enable-background:new 0 0 100 100;" xml:space="preserve"><g><path d="M84.9,25.4H15.1c-2.5,0-4.5,2-4.5,4.5V70c0,2.5,2,4.5,4.5,4.5h69.8c2.5,0,4.5-2,4.5-4.5V30C89.4,27.5,87.4,25.4,84.9,25.4z    M86.4,70c0,0.8-0.7,1.5-1.5,1.5H15.1c-0.8,0-1.5-0.7-1.5-1.5V30c0-0.8,0.7-1.5,1.5-1.5h69.8c0.8,0,1.5,0.7,1.5,1.5V70z"/><path d="M34.8,41.8c-0.6-0.6-1.5-0.6-2.1,0l-5.3,5.3l-5.3-5.3c-0.6-0.6-1.5-0.6-2.1,0c-0.6,0.6-0.6,1.5,0,2.1l5.3,5.3L20,54.6   c-0.6,0.6-0.6,1.5,0,2.1c0.3,0.3,0.7,0.4,1.1,0.4s0.8-0.1,1.1-0.4l5.3-5.3l5.3,5.3c0.3,0.3,0.7,0.4,1.1,0.4s0.8-0.1,1.1-0.4   c0.6-0.6,0.6-1.5,0-2.1l-5.3-5.3l5.3-5.3C35.4,43.4,35.4,42.4,34.8,41.8z"/><path d="M57.4,41.8c-0.6-0.6-1.5-0.6-2.1,0L50,47.1l-5.3-5.3c-0.6-0.6-1.5-0.6-2.1,0c-0.6,0.6-0.6,1.5,0,2.1l5.3,5.3l-5.3,5.3   c-0.6,0.6-0.6,1.5,0,2.1c0.3,0.3,0.7,0.4,1.1,0.4s0.8-0.1,1.1-0.4l5.3-5.3l5.3,5.3c0.3,0.3,0.7,0.4,1.1,0.4s0.8-0.1,1.1-0.4   c0.6-0.6,0.6-1.5,0-2.1l-5.3-5.3l5.3-5.3C58,43.4,58,42.4,57.4,41.8z"/><path d="M80,41.8c-0.6-0.6-1.5-0.6-2.1,0l-5.3,5.3l-5.3-5.3c-0.6-0.6-1.5-0.6-2.1,0c-0.6,0.6-0.6,1.5,0,2.1l5.3,5.3l-5.3,5.3   c-0.6,0.6-0.6,1.5,0,2.1c0.3,0.3,0.7,0.4,1.1,0.4c0.4,0,0.8-0.1,1.1-0.4l5.3-5.3l5.3,5.3c0.3,0.3,0.7,0.4,1.1,0.4   c0.4,0,0.8-0.1,1.1-0.4c0.6-0.6,0.6-1.5,0-2.1l-5.3-5.3L80,44C80.6,43.4,80.6,42.4,80,41.8z"/></g><text x="0" y="115" fill="#000000" font-size="5px" font-weight="bold" font-family="'Helvetica Neue', Helvetica, Arial-Unicode, Arial, Sans-serif">Created by mikicon</text><text x="0" y="120" fill="#000000" font-size="5px" font-weight="bold" font-family="'Helvetica Neue', Helvetica, Arial-Unicode, Arial, Sans-serif">from the Noun Project</text></svg>