<svg xmlns="http://www.w3.org/2000/svg" xmlns:xlink="http://www.w3.org/1999/xlink" version="1.1" x="0px" y="0px" viewBox="0 0 100 125" enable-background="new 0 0 100 100" xml:space="preserve"><g><path d="M20.826,61.955c4.803,0,9.316-1.869,12.711-5.266l23.151-23.148c7.002-7.01,7.003-18.417,0-25.43   c-3.396-3.393-7.911-5.264-12.713-5.263c-4.803,0-9.32,1.869-12.718,5.263L8.111,31.261C1.099,38.27,1.097,49.678,8.107,56.694   C11.506,60.086,16.022,61.956,20.826,61.955L20.826,61.955z M22.869,20.745l10.508-10.512c2.832-2.829,6.596-4.386,10.598-4.386   c4.002,0,7.764,1.558,10.59,4.386C60.4,16.074,60.4,25.58,54.566,31.421L44.053,41.934L22.869,20.745z M10.233,33.383   l10.515-10.517l21.184,21.188L31.416,54.568c-2.828,2.831-6.588,4.387-10.589,4.387c-4.003,0-7.767-1.556-10.598-4.385   C4.388,48.727,4.389,39.224,10.233,33.383z M91.436,31.607c-3.495-3.473-8.307-5.623-13.611-5.623   c-10.654,0-19.322,8.669-19.322,19.322c0,5.296,2.143,10.097,5.604,13.59c0.02,0.023,0.027,0.055,0.051,0.078   c0.023,0.022,0.054,0.029,0.078,0.052c3.493,3.462,8.295,5.605,13.59,5.604c10.656,0,19.325-8.669,19.324-19.323   c0-5.305-2.15-10.115-5.622-13.61c-0.017-0.016-0.021-0.038-0.036-0.055C91.474,31.627,91.451,31.621,91.436,31.607z    M61.502,45.307c-0.001-9,7.322-16.322,16.323-16.322c3.961,0,7.596,1.42,10.425,3.774L65.277,55.733   C62.923,52.902,61.502,49.269,61.502,45.307z M94.149,45.308c-0.001,9.001-7.323,16.323-16.324,16.324   c-3.963-0.001-7.597-1.421-10.428-3.778l22.976-22.973C92.729,37.71,94.149,41.347,94.149,45.308z M45.304,58.505   c-10.654,0.001-19.323,8.668-19.323,19.322c0,5.295,2.143,10.096,5.604,13.591c0.02,0.022,0.028,0.053,0.051,0.077   c0.023,0.022,0.053,0.029,0.078,0.051c3.493,3.463,8.295,5.605,13.59,5.604c10.656,0.001,19.325-8.668,19.325-19.322   c0-5.305-2.15-10.115-5.623-13.61c-0.016-0.016-0.02-0.038-0.037-0.055c-0.016-0.017-0.037-0.021-0.055-0.034   C55.42,60.655,50.609,58.505,45.304,58.505z M28.981,77.827c0-9,7.323-16.322,16.323-16.322c3.961,0,7.596,1.42,10.425,3.775   L32.757,88.255C30.403,85.423,28.981,81.79,28.981,77.827z M61.629,77.827c0,9.002-7.323,16.324-16.325,16.324   c-3.962,0-7.596-1.42-10.427-3.777l22.976-22.973C60.207,70.231,61.628,73.866,61.629,77.827z"/></g><text x="0" y="115" fill="#000000" font-size="5px" font-weight="bold" font-family="'Helvetica Neue', Helvetica, Arial-Unicode, Arial, Sans-serif">Created by Sergey Demushkin</text><text x="0" y="120" fill="#000000" font-size="5px" font-weight="bold" font-family="'Helvetica Neue', Helvetica, Arial-Unicode, Arial, Sans-serif">from the Noun Project</text></svg>