<svg xmlns="http://www.w3.org/2000/svg" xmlns:xlink="http://www.w3.org/1999/xlink" version="1.1" x="0px" y="0px" viewBox="0 0 56.7 70.875" style="enable-background:new 0 0 56.7 56.7;" xml:space="preserve"><style type="text/css">
	.st0{fill:none;}
</style><path class="st0" d="M44.4,25.3V13.8h-4.9v2c0,0.7-0.5,1.4-1.2,1.7c-0.7,0.3-1.5,0.1-2-0.5l-8.5-9.4L5.3,32.8h4.3  c1.2,0,2.1,0.9,2.1,2v14.3h32.4V34.8c0-1.1,0.9-2,2.1-2h4.3l-5.7-6.3C44.6,26.2,44.4,25.8,44.4,25.3z"/><path d="M48.2,24.7V14c0-2.1-1.4-3.5-3.5-3.5h-5c-1.3,0-2.3,0.5-2.9,1.4l-5.9-6.6c-0.6-0.7-1.6-1.1-2.6-1.1c-1,0-1.9,0.4-2.6,1.1  L2.9,31c-0.8,0.9-1,2.3-0.5,3.4c0.5,1.1,1.7,1.9,3,1.9h3.4v13c0,1.8,1.5,3.2,3.3,3.2h32.5c1.8,0,3.3-1.4,3.3-3.2v-13h3.4  c1.3,0,2.5-0.7,3-1.9c0.5-1.1,0.3-2.5-0.5-3.4L48.2,24.7z M46.4,32.8c-1.1,0-2.1,0.9-2.1,2v14.2H12.4V34.8c0-1.1-0.9-2-2.1-2H6  L28.3,7.9l8.3,9.3c0.5,0.5,1.3,0.7,2,0.5c0.7-0.3,1.2-0.9,1.2-1.6v-2h4.8v11.4c0,0.4,0.2,0.8,0.4,1.2l5.6,6.2H46.4z"/><text x="0" y="71.7" fill="#000000" font-size="5px" font-weight="bold" font-family="'Helvetica Neue', Helvetica, Arial-Unicode, Arial, Sans-serif">Created by Grace Reeves</text><text x="0" y="76.7" fill="#000000" font-size="5px" font-weight="bold" font-family="'Helvetica Neue', Helvetica, Arial-Unicode, Arial, Sans-serif">from the Noun Project</text></svg>