<svg xmlns="http://www.w3.org/2000/svg" xmlns:xlink="http://www.w3.org/1999/xlink" version="1.1" x="0px" y="0px" viewBox="0 0 100 125" style="enable-background:new 0 0 100 100;" xml:space="preserve"><path d="M37.912,83.771c11.979,0,21.725-9.746,21.725-21.725s-9.746-21.725-21.725-21.725s-21.724,9.746-21.724,21.725  S25.934,83.771,37.912,83.771z M57.637,62.047c0,10.538-8.314,19.148-18.725,19.674V42.373  C49.322,42.899,57.637,51.508,57.637,62.047z M36.912,42.373v39.348c-10.41-0.526-18.724-9.135-18.724-19.674  S26.502,42.899,36.912,42.373z"/><path d="M10,62.047c0,15.391,12.521,27.913,27.912,27.913c15.392,0,27.913-12.521,27.913-27.913c0-12.156-7.814-22.516-18.68-26.336  h17.671c0.553,0,1-0.448,1-1v-2.068c0-5.455-4.438-9.892-9.893-9.892H19.892c-5.454,0-9.892,4.438-9.892,9.892v2.068  c0,0.552,0.447,1,1,1h17.68C17.814,39.531,10,49.891,10,62.047z M12,32.642c0-4.352,3.54-7.892,7.892-7.892h36.032  c4.352,0,7.893,3.541,7.893,7.892v1.068H12V32.642z M37.912,36.134c14.288,0,25.913,11.625,25.913,25.913S52.2,87.959,37.912,87.959  S12,76.335,12,62.047S23.624,36.134,37.912,36.134z"/><path d="M89.907,17.165c-0.125-0.269-3.128-6.518-12.345-7.068c-0.063-0.013-0.13-0.02-0.197-0.02h-0.21  c-0.067,0-0.134,0.007-0.197,0.02c-9.217,0.55-12.22,6.799-12.345,7.068c-0.148,0.321-0.117,0.697,0.084,0.988l6.487,9.419h-0.287  c-0.553,0-1,0.448-1,1v5.958c0,0.552,0.447,1,1,1h1.149l0.981,50.312C73.068,88.135,74.968,90,77.261,90  c2.292,0,4.191-1.865,4.233-4.156l0.981-50.313h1.149c0.553,0,1-0.448,1-1v-5.958c0-0.552-0.447-1-1-1h-0.287l6.487-9.419  C90.024,17.862,90.056,17.486,89.907,17.165z M79.494,85.806C79.473,87.016,78.471,88,77.261,88s-2.213-0.984-2.234-2.195  l-0.981-50.274h6.429L79.494,85.806z M82.624,33.531H71.896v-3.958h10.728V33.531z M80.926,27.548  c-0.005,0.008-0.006,0.017-0.011,0.025h-7.31c-0.005-0.008-0.005-0.017-0.011-0.025L66.696,17.53  c0.846-1.359,3.781-5.107,10.564-5.447c6.786,0.34,9.721,4.092,10.563,5.447L80.926,27.548z"/><text x="0" y="115" fill="#000000" font-size="5px" font-weight="bold" font-family="'Helvetica Neue', Helvetica, Arial-Unicode, Arial, Sans-serif">Created by Made by Made</text><text x="0" y="120" fill="#000000" font-size="5px" font-weight="bold" font-family="'Helvetica Neue', Helvetica, Arial-Unicode, Arial, Sans-serif">from the Noun Project</text></svg>