<svg xmlns="http://www.w3.org/2000/svg" xmlns:xlink="http://www.w3.org/1999/xlink" version="1.1" x="0px" y="0px" viewBox="0 0 100 125" style="enable-background:new 0 0 100 100;" xml:space="preserve"><path d="M20.245,20.101c1.675,0.916,3.044,2.285,3.961,3.961l1.011,1.847c0.175,0.32,0.512,0.52,0.877,0.52s0.702-0.199,0.877-0.521  l1.01-1.847c0.916-1.675,2.286-3.044,3.961-3.96l1.847-1.01c0.321-0.175,0.521-0.512,0.521-0.877s-0.199-0.702-0.521-0.877  l-1.847-1.01c-1.675-0.916-3.045-2.285-3.961-3.96l-1.01-1.847C26.796,10.199,26.459,10,26.094,10s-0.702,0.199-0.877,0.52  l-1.011,1.848c-0.917,1.675-2.286,3.044-3.961,3.96l-1.847,1.01c-0.321,0.175-0.521,0.512-0.521,0.877s0.199,0.702,0.521,0.877  L20.245,20.101z M21.204,18.081c2.012-1.1,3.656-2.743,4.756-4.754l0.134-0.243l0.133,0.242c1.1,2.012,2.744,3.655,4.756,4.755  l0.242,0.133l-0.242,0.133c-2.012,1.1-3.656,2.743-4.756,4.755l-0.133,0.242l-0.134-0.242c-1.1-2.012-2.744-3.655-4.756-4.755  l-0.242-0.133L21.204,18.081z"/><path d="M72.646,22.225c2.15,1.177,3.909,2.936,5.086,5.087l1.271,2.323c0.175,0.32,0.512,0.52,0.877,0.52s0.702-0.199,0.877-0.521  l1.271-2.322c1.178-2.152,2.937-3.911,5.087-5.087l2.323-1.271c0.321-0.175,0.521-0.512,0.521-0.877s-0.199-0.702-0.521-0.877  l-2.323-1.271c-2.15-1.175-3.909-2.934-5.087-5.085l-1.271-2.323C80.583,10.199,80.246,10,79.881,10s-0.702,0.199-0.877,0.52  l-1.271,2.324c-1.177,2.15-2.936,3.909-5.086,5.085l-2.324,1.271c-0.321,0.176-0.521,0.513-0.521,0.878s0.199,0.702,0.521,0.878  L72.646,22.225z M73.605,19.684c2.487-1.359,4.521-3.394,5.881-5.88l0.395-0.72l0.394,0.72c1.361,2.488,3.396,4.521,5.882,5.88  l0.719,0.394l-0.719,0.393c-2.486,1.359-4.521,3.393-5.882,5.882l-0.394,0.719l-0.395-0.719c-1.359-2.487-3.394-4.521-5.881-5.882  l-0.719-0.393L73.605,19.684z"/><path d="M74.979,68.906c0,2.971,2.412,5.388,5.378,5.388s5.379-2.417,5.379-5.388s-2.413-5.388-5.379-5.388  S74.979,65.936,74.979,68.906z M83.735,68.906c0,1.868-1.516,3.388-3.379,3.388c-1.862,0-3.378-1.52-3.378-3.388  s1.516-3.388,3.378-3.388C82.22,65.519,83.735,67.038,83.735,68.906z"/><path d="M52.483,10.001c-2.966,0-5.378,2.417-5.378,5.388s2.412,5.388,5.378,5.388s5.379-2.417,5.379-5.388  S55.449,10.001,52.483,10.001z M52.483,18.776c-1.862,0-3.378-1.52-3.378-3.388s1.516-3.388,3.378-3.388  c1.863,0,3.379,1.52,3.379,3.388S54.347,18.776,52.483,18.776z"/><path d="M75.979,52.031c2.966,0,5.378-2.417,5.378-5.389c0-2.971-2.412-5.387-5.378-5.387S70.6,43.672,70.6,46.643  C70.6,49.614,73.013,52.031,75.979,52.031z M75.979,43.256c1.862,0,3.378,1.52,3.378,3.387c0,1.868-1.516,3.389-3.378,3.389  c-1.863,0-3.379-1.521-3.379-3.389C72.6,44.775,74.115,43.256,75.979,43.256z"/><path d="M10.293,89.709c0.191,0.19,0.447,0.292,0.707,0.292c0.132,0,0.264-0.025,0.39-0.079l59.72-25.245  c0.306-0.129,0.528-0.402,0.592-0.729s-0.039-0.663-0.273-0.898L36.899,28.448c-0.235-0.236-0.573-0.34-0.899-0.275  c-0.327,0.063-0.601,0.286-0.73,0.594L10.078,88.613C9.921,88.988,10.006,89.421,10.293,89.709z M36.535,30.915l32.429,32.497  l-5.586,2.361c-2.004-1.702-4.031-1.71-5.857-1.691c-1.795,0.01-3.351,0.029-4.923-1.543c-1.572-1.571-1.559-3.124-1.543-4.922  c0.018-1.964,0.037-4.188-2.128-6.354c-2.164-2.163-4.393-2.144-6.352-2.125c-1.801,0.017-3.351,0.03-4.921-1.54  c-1.568-1.568-1.554-3.119-1.537-4.915c0.019-1.903,0.022-4.051-1.948-6.15L36.535,30.915z M33.289,38.626  c0.841,1.278,0.843,2.577,0.83,4.038c-0.02,1.963-0.041,4.187,2.122,6.349c2.164,2.164,4.388,2.148,6.353,2.126  c1.792-0.02,3.35-0.031,4.92,1.539c1.572,1.571,1.559,3.124,1.543,4.922c-0.018,1.964-0.037,4.188,2.128,6.354  s4.382,2.148,6.354,2.128c1.32-0.009,2.512-0.016,3.677,0.606l-48.34,20.435L33.289,38.626z"/><path d="M56.272,37.832c0.179,0.131,0.385,0.193,0.59,0.193c0.308,0,0.611-0.142,0.807-0.409c0.315-0.431,7.709-10.742,5.675-26.741  c-0.069-0.548-0.565-0.929-1.118-0.866c-0.548,0.07-0.936,0.57-0.866,1.118c1.93,15.173-5.232,25.209-5.305,25.309  C55.729,36.882,55.827,37.507,56.272,37.832z"/><path d="M61.912,43.007c0.197,0.247,0.488,0.376,0.782,0.376c0.219,0,0.438-0.071,0.623-0.219c0.11-0.089,11.328-8.844,25.282-3.274  c0.513,0.205,1.094-0.045,1.3-0.558c0.205-0.514-0.045-1.095-0.558-1.3c-15.024-5.996-26.778,3.175-27.272,3.569  C61.638,41.945,61.567,42.574,61.912,43.007z"/><path d="M43.167,30.503c0.075,0.018,0.15,0.026,0.225,0.026c0.455,0,0.867-0.312,0.974-0.775c0.096-0.414,2.265-10.22-4.435-16.151  c-0.412-0.363-1.044-0.327-1.412,0.086c-0.366,0.414-0.327,1.046,0.086,1.412c5.8,5.135,3.832,14.115,3.812,14.205  C42.293,29.844,42.629,30.38,43.167,30.503z"/><path d="M88.185,61.304c0.195,0.274,0.503,0.421,0.816,0.421c0.2,0,0.402-0.06,0.578-0.185c0.45-0.319,0.556-0.944,0.236-1.395  c-5.575-7.852-17.513-4.298-18.019-4.144c-0.527,0.162-0.824,0.722-0.662,1.25c0.161,0.526,0.714,0.826,1.25,0.662  C72.493,57.88,83.437,54.614,88.185,61.304z"/><text x="0" y="115" fill="#000000" font-size="5px" font-weight="bold" font-family="'Helvetica Neue', Helvetica, Arial-Unicode, Arial, Sans-serif">Created by Made by Made</text><text x="0" y="120" fill="#000000" font-size="5px" font-weight="bold" font-family="'Helvetica Neue', Helvetica, Arial-Unicode, Arial, Sans-serif">from the Noun Project</text></svg>