<svg xmlns="http://www.w3.org/2000/svg" xmlns:xlink="http://www.w3.org/1999/xlink" version="1.1" x="0px" y="0px" viewBox="0 0 100 125" enable-background="new 0 0 100 100" xml:space="preserve"><path d="M42.327,50.38c-0.554,0.554-0.554,1.45-0.001,2.003c0.554,0.554,1.451,0.555,2.005,0.001  c0.554-0.555,0.553-1.451-0.001-2.005C43.777,49.826,42.881,49.825,42.327,50.38z M47.926,55.978  c-0.555,0.554-0.554,1.451-0.002,2.004c0.555,0.553,1.451,0.554,2.006,0c0.553-0.554,0.553-1.451-0.002-2.005  C49.376,55.425,48.479,55.424,47.926,55.978z M40.017,63.887c-0.554,0.554-0.554,1.45-0.001,2.003  c0.554,0.554,1.451,0.555,2.005,0.001s0.554-1.451-0.001-2.005C41.467,63.333,40.57,63.333,40.017,63.887z M41.018,56.979  c-0.554,0.554-0.553,1.45,0,2.003c0.553,0.554,1.45,0.555,2.004,0.001c0.555-0.554,0.553-1.451,0-2.005  C42.469,56.425,41.571,56.425,41.018,56.979z M34.418,58.288c-0.554,0.554-0.553,1.451,0,2.003c0.553,0.554,1.451,0.555,2.004,0.001  c0.555-0.554,0.553-1.451,0-2.005C35.869,57.735,34.973,57.734,34.418,58.288z M49.928,42.161c-0.554,0.554-0.553,1.451,0,2.005  c0.553,0.553,1.45,0.554,2.004-0.001c0.554-0.554,0.553-1.45,0-2.003C51.379,41.608,50.481,41.607,49.928,42.161z M63.435,39.851  c-0.554,0.555-0.554,1.451,0.001,2.005c0.553,0.553,1.449,0.554,2.003-0.001c0.554-0.554,0.554-1.45,0.001-2.003  C64.885,39.298,63.988,39.297,63.435,39.851z M48.926,49.069c-0.553,0.554-0.553,1.451,0.002,2.005  c0.552,0.553,1.449,0.553,2.002-0.001c0.555-0.554,0.554-1.45,0.002-2.003C50.377,48.517,49.48,48.516,48.926,49.069z M68.121,31.88  c-2.992-2.992-6.491-4.64-9.853-4.64c-2.198,0-4.224,0.727-5.701,2.047c-1.729,1.545-2.862,3.034-3.772,4.485  c-1.121-0.039-2.044-0.133-2.855-0.224c-3.274-0.365-4.889-0.36-8.82,3.57c-3.932,3.933-3.936,5.545-3.57,8.819  c0.092,0.816,0.19,1.727,0.23,2.854c-1.453,0.91-2.944,2.045-4.492,3.776c-2.965,3.317-3.063,9.896,2.592,15.551  c2.992,2.992,6.491,4.641,9.852,4.641c2.199,0,4.225-0.728,5.702-2.049c1.731-1.547,2.866-3.039,3.776-4.491  c1.125,0.039,2.035,0.138,2.852,0.229c0.764,0.085,1.437,0.15,2.07,0.15c2.082,0,3.734-0.706,6.748-3.721  c3.933-3.933,3.937-5.545,3.57-8.819c-0.091-0.816-0.189-1.727-0.229-2.853c1.453-0.91,2.944-2.044,4.492-3.776  C73.678,44.113,73.775,37.535,68.121,31.88z M39.24,39.24c3.077-3.076,3.709-3.007,6.365-2.71c0.454,0.051,0.963,0.105,1.531,0.151  c-1.037,1.888-2.182,3.849-4.393,6.062c-2.213,2.212-4.174,3.357-6.063,4.395c-0.046-0.568-0.1-1.078-0.15-1.532  C36.234,42.949,36.164,42.318,39.24,39.24z M60.758,60.758c-3.076,3.076-3.707,3.006-6.364,2.71  c-0.454-0.051-0.964-0.105-1.529-0.152c1.036-1.887,2.182-3.848,4.393-6.059c2.212-2.212,4.172-3.357,6.06-4.395  c0.047,0.568,0.102,1.076,0.152,1.53C63.765,57.049,63.836,57.68,60.758,60.758z M68.477,45.432  c-2.084,2.331-3.961,3.356-6.136,4.544c-2.113,1.154-4.508,2.463-7.206,5.16c-2.695,2.697-4.003,5.091-5.156,7.203  c-1.188,2.175-2.215,4.053-4.545,6.136c-0.928,0.828-2.242,1.285-3.703,1.285c-2.559,0-5.305-1.336-7.73-3.762  c-4.353-4.354-4.524-9.139-2.476-11.431c2.083-2.331,3.961-3.356,6.136-4.545c2.113-1.153,4.508-2.462,7.205-5.158  c2.695-2.697,4.003-5.092,5.156-7.204c1.188-2.175,2.214-4.054,4.545-6.136c0.927-0.828,2.242-1.284,3.702-1.284  c2.56,0,5.306,1.335,7.731,3.761C70.352,38.354,70.523,43.14,68.477,45.432z M57.836,34.253c-0.553,0.554-0.553,1.451,0.001,2.005  c0.553,0.552,1.45,0.553,2.003-0.001c0.555-0.554,0.554-1.451,0.001-2.004C59.287,33.7,58.391,33.699,57.836,34.253z M55.525,47.76  c-0.553,0.554-0.553,1.45,0.001,2.005c0.553,0.552,1.45,0.553,2.003-0.001c0.555-0.554,0.554-1.451,0.001-2.003  C56.977,47.206,56.08,47.206,55.525,47.76z M56.835,41.161c-0.554,0.554-0.554,1.45,0.001,2.004c0.553,0.553,1.449,0.554,2.003,0  s0.554-1.451,0.001-2.004C58.285,40.607,57.389,40.607,56.835,41.161z"/><text x="0" y="115" fill="#000000" font-size="5px" font-weight="bold" font-family="'Helvetica Neue', Helvetica, Arial-Unicode, Arial, Sans-serif">Created by Sergey Demushkin</text><text x="0" y="120" fill="#000000" font-size="5px" font-weight="bold" font-family="'Helvetica Neue', Helvetica, Arial-Unicode, Arial, Sans-serif">from the Noun Project</text></svg>