<svg xmlns="http://www.w3.org/2000/svg" xmlns:xlink="http://www.w3.org/1999/xlink" version="1.1" x="0px" y="0px" viewBox="0 0 100 125" style="enable-background:new 0 0 100 100;" xml:space="preserve"><style type="text/css">
	.st0{fill:none;stroke:#000000;stroke-width:2;stroke-linecap:round;stroke-linejoin:round;stroke-miterlimit:10;}
</style><path d="M25.5,47.1h16.3V87c0,1.5,1.2,2.7,2.7,2.7h11.7c1.5,0,2.7-1.2,2.7-2.7V47.1h16.3c1.5,0,2.7-1.2,2.7-2.7V32.7  c0-1.5-1.2-2.7-2.7-2.7H59V13.8c0-1.5-1.2-2.7-2.7-2.7H44.6c-1.5,0-2.7,1.2-2.7,2.7V30H25.5c-1.5,0-2.7,1.2-2.7,2.7v11.7  C22.8,45.9,24,47.1,25.5,47.1z M24.8,32.7c0-0.4,0.3-0.7,0.7-0.7h17.3c0.6,0,1-0.4,1-1V13.8c0-0.4,0.3-0.7,0.7-0.7h11.7  c0.4,0,0.7,0.3,0.7,0.7V31c0,0.6,0.4,1,1,1h17.3c0.4,0,0.7,0.3,0.7,0.7v11.7c0,0.4-0.3,0.7-0.7,0.7H58c-0.6,0-1,0.4-1,1V87  c0,0.4-0.3,0.7-0.7,0.7H44.6c-0.4,0-0.7-0.3-0.7-0.7V46.1c0-0.6-0.4-1-1-1H25.5c-0.4,0-0.7-0.3-0.7-0.7V32.7z"/><text x="0" y="115" fill="#000000" font-size="5px" font-weight="bold" font-family="'Helvetica Neue', Helvetica, Arial-Unicode, Arial, Sans-serif">Created by Made</text><text x="0" y="120" fill="#000000" font-size="5px" font-weight="bold" font-family="'Helvetica Neue', Helvetica, Arial-Unicode, Arial, Sans-serif">from the Noun Project</text></svg>