<svg xmlns="http://www.w3.org/2000/svg" data-name="Layer 1" viewBox="0 0 512 640" x="0px" y="0px"><title>5</title><path d="M251.19,44.05c97.87,1.33,179.68,34.65,247.5,101.68,14.05,13.89,17.26,30.58,8.27,42.09-9.17,11.74-27.39,13.05-43.83,2.76a83.53,83.53,0,0,1-13.08-10.41C342,77.15,176.28,73.8,63.69,172.55c-10.9,9.56-22.81,16.09-37.74,15.07-10.44-.71-18.84-5.19-23.54-14.91-4.82-10-1.94-19.11,4.35-27.36a72.73,72.73,0,0,1,9.44-9.77C83.81,74.92,163.47,45.56,251.19,44.05Z"/><path d="M258.15,157.85c67.42,1.36,123.18,26.89,172.77,67.73,6.22,5.12,10.63,12.07,13.58,19.65,3.75,9.62,4.37,19.3-2.87,27.64-7.42,8.53-17.35,9.95-27.83,7.6-11.26-2.52-19.93-9.48-28.36-17-67.23-60.18-166.94-64.34-238-10-6.37,4.87-12.21,10.43-18.25,15.72-9.27,8.11-19.69,13.17-32.36,12.16-16.5-1.31-26.08-15.24-21.55-31.08a45.18,45.18,0,0,1,13.26-21C137.09,184.67,193.49,158.8,258.15,157.85Z"/><path d="M270.73,276.42A130.3,130.3,0,0,1,362.88,317c8.49,8.87,14.35,18.87,11,32-4.24,16.73-24.36,24.57-38.37,11.59-43.6-40.4-104.25-40.7-150.48-2.31-12.9,10.71-21.18,11.59-31.49,3.33s-12.81-22.24-5.95-35c3.7-6.88,9.11-12.3,15.11-17.2C189.18,287.85,223.33,276.35,270.73,276.42Z"/><path d="M302.63,425.77A42.22,42.22,0,0,1,260,467.95c-24.3-.12-43.08-19.15-42.68-43.28,0.41-25.07,19.42-44,43.78-43.5C284.58,381.61,302.83,401.19,302.63,425.77Z"/><text x="0" y="527" fill="#000000" font-size="5px" font-weight="bold" font-family="'Helvetica Neue', Helvetica, Arial-Unicode, Arial, Sans-serif">Created by Baboon designs</text><text x="0" y="532" fill="#000000" font-size="5px" font-weight="bold" font-family="'Helvetica Neue', Helvetica, Arial-Unicode, Arial, Sans-serif">from the Noun Project</text></svg>