<svg xmlns="http://www.w3.org/2000/svg" xmlns:xlink="http://www.w3.org/1999/xlink" version="1.1" x="0px" y="0px" viewBox="0 0 100 125" enable-background="new 0 0 100 100" xml:space="preserve"><g><path fill="#000000" d="M78.605,48.242c5.105,0,9.26-4.155,9.26-9.261c0-5.108-4.154-9.264-9.26-9.264   c-5.107,0-9.264,4.155-9.264,9.264C69.342,44.087,73.498,48.242,78.605,48.242z"/><path fill="#000000" d="M82.059,50.823h-6.91c-1.211,0-3.107,2.453-5.096,6.013c0.418,0.901,0.809,1.77,1.162,2.579   c3.631,8.273,6.471,16.868,7.797,23.265H94.6c0.18,0,0.367-0.046,0.531-0.382c0.162-0.339,0.248-0.867,0.248-1.566   C95.377,72.626,85.668,50.823,82.059,50.823z"/><path fill="#000000" d="M21.426,48.242c5.106,0,9.26-4.155,9.26-9.261c0-5.108-4.153-9.264-9.26-9.264   c-5.108,0-9.265,4.155-9.265,9.264C12.161,44.087,16.317,48.242,21.426,48.242z"/><path fill="#000000" d="M24.88,50.823h-6.91c-3.618,0-13.348,21.808-13.348,29.916c0,0.697,0.084,1.223,0.249,1.562   c0.161,0.332,0.349,0.378,0.526,0.378h15.607c1.503-7.213,4.898-17.218,8.934-25.896C27.964,53.252,26.083,50.823,24.88,50.823z"/><path fill="#000000" d="M50.002,37.147c8.498,0,15.41-6.915,15.41-15.414c0-8.5-6.912-15.414-15.41-15.414   c-8.5,0-15.417,6.914-15.417,15.414c0,4.111,1.604,7.979,4.52,10.894C42.021,35.542,45.891,37.147,50.002,37.147z"/><path fill="#000000" d="M55.502,40.955H44.544c-6.661,0-21.892,35.86-21.892,48.164c0,1.234,0.153,2.148,0.468,2.797   c0.326,0.668,0.827,1.008,1.489,1.008h50.775c0.674,0,1.162-0.332,1.496-1.016c0.309-0.641,0.467-1.583,0.467-2.801   C77.346,76.808,62.145,40.955,55.502,40.955z"/></g><text x="0" y="115" fill="#000000" font-size="5px" font-weight="bold" font-family="'Helvetica Neue', Helvetica, Arial-Unicode, Arial, Sans-serif">Created by Dávid Gladiš</text><text x="0" y="120" fill="#000000" font-size="5px" font-weight="bold" font-family="'Helvetica Neue', Helvetica, Arial-Unicode, Arial, Sans-serif">from the Noun Project</text></svg>