<svg xmlns="http://www.w3.org/2000/svg" data-name="Ebene 1" viewBox="0 0 48 60" x="0px" y="0px"><defs><style>.cls-1{fill:#fff;opacity:0;}</style></defs><title>Icon</title><path d="M43,13H41V11a1.0067,1.0067,0,0,0-.65-.94C32.95,7.29,25.67993,9.39,24,9.94c-8.14-2.89-16.01,0-16.35.12A1.0067,1.0067,0,0,0,7,11v2H5a1.00291,1.00291,0,0,0-1,1V40a1.00291,1.00291,0,0,0,1,1H43a1.00291,1.00291,0,0,0,1-1V14A1.00291,1.00291,0,0,0,43,13Zm-4-1.29V35.64a26.09767,26.09767,0,0,0-14-.03V11.72A24.5111,24.5111,0,0,1,39,11.71ZM9,11.73a24.39574,24.39574,0,0,1,14-.02v23.9a26.09767,26.09767,0,0,0-14,.03ZM42,39H6V15H7V37a1.0053,1.0053,0,0,0,1.35.94c.08-.03,7.76-2.83,15.3,0a.12624.12624,0,0,0,.05994.01.20226.20226,0,0,0,.11011.03.81857.81857,0,0,0,.35986,0,.47244.47244,0,0,0,.16016-.04H24.35c7.54-2.83,15.22009-.03,15.3,0A1.0053,1.0053,0,0,0,41,37V15h1Z"/><rect class="cls-1" width="48" height="48"/><text x="0" y="63" fill="#000000" font-size="5px" font-weight="bold" font-family="'Helvetica Neue', Helvetica, Arial-Unicode, Arial, Sans-serif">Created by Laurin Kraan</text><text x="0" y="68" fill="#000000" font-size="5px" font-weight="bold" font-family="'Helvetica Neue', Helvetica, Arial-Unicode, Arial, Sans-serif">from the Noun Project</text></svg>