<svg xmlns="http://www.w3.org/2000/svg" xmlns:xlink="http://www.w3.org/1999/xlink" version="1.1" x="0px" y="0px" viewBox="0 0 32 40" enable-background="new 0 0 32 32" xml:space="preserve"><g display="none"><path display="inline" d="M30,16h-8c-1.105,0-2,0.895-2,2v12c0,1.104,0.895,2,2,2h8c1.105,0,2-0.896,2-2V18   C32,16.895,31.105,16,30,16z M16,0H2C0.895,0,0,0.895,0,2v28c0,1.104,0.895,2,2,2h14c1.105,0,2-0.896,2-2V2C18,0.895,17.105,0,16,0   z M30,0h-8c-1.105,0-2,0.895-2,2v10c0,1.104,0.895,2,2,2h8c1.105,0,2-0.896,2-2V2C32,0.895,31.105,0,30,0z"/></g><g display="none"><g display="inline"><path d="M9.318,13.562l1.023,1.023l4.244-4.243L13.563,9.32c0.871-2.465,0.344-5.313-1.627-7.285    c-1.971-1.971-4.82-2.496-7.283-1.627L8.4,4.158c0.781,0.779,0.781,2.045,0,2.828L6.986,8.4c-0.781,0.781-2.047,0.781-2.828,0    L0.41,4.652c-0.871,2.463-0.344,5.312,1.627,7.283S6.855,14.434,9.318,13.562z"/><path d="M22.68,13.561c2.465,0.871,5.312,0.345,7.285-1.626c1.971-1.971,2.496-4.82,1.627-7.284l-3.75,3.748    c-0.779,0.781-2.045,0.782-2.828,0L23.6,6.985c-0.781-0.781-0.781-2.047,0-2.828l3.748-3.748c-2.463-0.87-5.312-0.344-7.283,1.627    c-1.971,1.971-2.498,4.818-1.627,7.282L9.32,18.436c-2.465-0.871-5.315-0.344-7.285,1.627s-2.496,4.82-1.627,7.284l3.75-3.749    c0.779-0.78,2.045-0.781,2.828,0L8.4,25.014c0.781,0.781,0.781,2.047,0,2.828L4.652,31.59c2.463,0.87,5.312,0.344,7.283-1.627    s2.498-4.819,1.627-7.283L22.68,13.561z"/><path d="M22.68,18.437l-1.024-1.023l-4.242,4.242l1.024,1.023c-0.871,2.465-0.344,5.315,1.627,7.285s4.82,2.496,7.283,1.627    l-3.748-3.75c-0.781-0.779-0.781-2.045,0-2.828l1.414-1.414c0.781-0.781,2.047-0.781,2.828,0l3.748,3.748    c0.871-2.463,0.344-5.312-1.627-7.283S25.145,17.566,22.68,18.437z"/></g></g><g><path fill-rule="evenodd" clip-rule="evenodd" d="M27.313,4.688c-3.125-3.125-8.188-3.125-11.313,0L4.687,16   c-3.125,3.125-3.125,8.19,0,11.312c3.123,3.125,8.187,3.125,11.312,0L27.313,16C30.438,12.875,30.438,7.811,27.313,4.688z    M14.585,25.899c-2.344,2.344-6.143,2.344-8.484,0c-2.344-2.342-2.344-6.141,0-8.484L7.515,16l0,0l4.242-4.242l8.485,8.484   L14.585,25.899z"/></g><text x="0" y="47" fill="#000000" font-size="5px" font-weight="bold" font-family="'Helvetica Neue', Helvetica, Arial-Unicode, Arial, Sans-serif">Created by Noe Araujo</text><text x="0" y="52" fill="#000000" font-size="5px" font-weight="bold" font-family="'Helvetica Neue', Helvetica, Arial-Unicode, Arial, Sans-serif">from the Noun Project</text></svg>