<svg xmlns="http://www.w3.org/2000/svg" xmlns:xlink="http://www.w3.org/1999/xlink" version="1.1" x="0px" y="0px" viewBox="0 0 100 125" enable-background="new 0 0 100 100" xml:space="preserve"><g><path d="M42.522,37.535c-0.593,0.593-0.593,1.556,0,2.15c0.595,0.591,1.555,0.593,2.15,0c0.593-0.594,0.593-1.557,0-2.15   C44.078,36.942,43.117,36.942,42.522,37.535z"/><path d="M40.329,6.037h0.323v13.831h3.349V6.037H56v13.831h3.349V6.037h0.322c1.645,0,2.979-1.333,2.979-2.979   s-1.334-2.977-2.979-2.977H40.329c-1.644,0-2.977,1.332-2.977,2.977S38.685,6.037,40.329,6.037z"/><path d="M29.873,95.894c0,2.224,1.803,4.025,4.025,4.025c2.224,0,4.025-1.802,4.025-4.025v-2.562h-8.05V95.894z"/><path d="M62.075,95.894c0,2.224,1.803,4.025,4.026,4.025s4.025-1.802,4.025-4.025v-2.562h-8.052V95.894z"/><path d="M68.622,21.799H56.249H43.751H31.376c-4.616,0-8.373,3.756-8.373,8.373v35.337h53.992V30.172   C76.996,25.555,73.242,21.799,68.622,21.799z M52.131,56.39L37.923,42.183l1.624-7.624l7.625-1.623l14.208,14.207L52.131,56.39z"/><path d="M23.004,82.987c0,4.616,3.757,8.374,8.373,8.374h12.375h12.498h12.373c4.62,0,8.374-3.758,8.374-8.374V69.309H23.004   V82.987z"/></g><text x="0" y="115" fill="#000000" font-size="5px" font-weight="bold" font-family="'Helvetica Neue', Helvetica, Arial-Unicode, Arial, Sans-serif">Created by Diego Naive</text><text x="0" y="120" fill="#000000" font-size="5px" font-weight="bold" font-family="'Helvetica Neue', Helvetica, Arial-Unicode, Arial, Sans-serif">from the Noun Project</text></svg>