<svg xmlns="http://www.w3.org/2000/svg" xmlns:xlink="http://www.w3.org/1999/xlink" version="1.1" x="0px" y="0px" viewBox="0 0 100 125" enable-background="new 0 0 100 100" xml:space="preserve"><g><path fill="none" d="M80.015,47.808c5.524,0,10.02-4.496,10.02-10.021c0-5.527-4.495-10.024-10.02-10.024   c-5.527,0-10.024,4.497-10.024,10.024C69.99,43.312,74.487,47.808,80.015,47.808z"/><path fill="#000000" d="M80.015,49.808c6.628,0,12.02-5.393,12.02-12.021c0-6.63-5.392-12.024-12.02-12.024   c-6.63,0-12.024,5.394-12.024,12.024C67.99,44.415,73.385,49.808,80.015,49.808z M80.015,27.763c5.524,0,10.02,4.497,10.02,10.024   c0,5.525-4.495,10.021-10.02,10.021c-5.527,0-10.024-4.496-10.024-10.021C69.99,32.259,74.487,27.763,80.015,27.763z"/><path fill="none" d="M83.639,52.007h-7.25c-1.098,0-3.186,2.121-5.723,6.639c4.274,9.204,7.916,19.863,9.493,27.395h16.638   c0.236,0,0.579-0.06,0.83-0.572c0.191-0.397,0.29-0.996,0.29-1.775c0-3.635-2.334-11.59-5.548-18.916   C88.52,56.003,85.145,52.007,83.639,52.007z"/><path fill="#000000" d="M83.639,50.007h-7.25c-2.041,0-4.438,2.632-6.758,6.465c-4.602-9.421-9.778-16.818-13.858-16.818H44.276   c-4.089,0-9.276,7.398-13.887,16.822c-2.316-3.835-4.709-6.469-6.747-6.469h-7.25C9.991,50.007,0.083,75.84,0.083,83.7   c0,1.099,0.161,1.965,0.493,2.646C1.098,87.423,2.055,88.04,3.2,88.04h16.261c-0.297,1.729-0.459,3.239-0.459,4.453   c0,1.65,0.236,2.939,0.723,3.941c0.73,1.496,2.054,2.354,3.634,2.354h53.276c1.581,0,2.908-0.859,3.642-2.362   c0.485-1.005,0.722-2.296,0.722-3.945c0-1.211-0.161-2.717-0.457-4.44h16.256c1.144,0,2.101-0.617,2.629-1.698   c0.331-0.686,0.491-1.552,0.491-2.649C99.916,75.834,90.025,50.007,83.639,50.007z M97.627,85.468   c-0.251,0.513-0.594,0.572-0.83,0.572H80.159c-1.577-7.531-5.219-18.19-9.493-27.395c2.537-4.518,4.625-6.639,5.723-6.639h7.25   c1.506,0,4.881,3.996,8.73,12.77c3.214,7.326,5.548,15.281,5.548,18.916C97.917,84.472,97.818,85.07,97.627,85.468z M78.998,92.48   c0,1.342-0.171,2.348-0.521,3.072c-0.4,0.819-1.021,1.235-1.843,1.235H23.358c-0.82,0-1.438-0.414-1.835-1.229   c-0.351-0.723-0.521-1.726-0.521-3.066c0-5.838,3.727-18.555,8.861-30.236c5.501-12.516,11.158-20.604,14.413-20.604h11.497   c3.244,0,8.889,8.085,14.379,20.598C75.276,73.931,78.997,86.645,78.998,92.48z M2.375,85.472   c-0.193-0.397-0.292-0.993-0.292-1.771c0-3.637,2.337-11.594,5.557-18.92c3.857-8.776,7.241-12.773,8.752-12.773h7.25   c1.094,0,3.178,2.122,5.71,6.643c-4.281,9.201-7.928,19.857-9.509,27.391H3.2C2.964,86.04,2.622,85.981,2.375,85.472z"/><path fill="none" d="M20.019,47.808c5.525,0,10.02-4.496,10.02-10.021c0-5.527-4.495-10.024-10.02-10.024   c-5.527,0-10.024,4.497-10.024,10.024C9.994,43.312,14.491,47.808,20.019,47.808z"/><path fill="#000000" d="M20.019,49.808c6.627,0,12.02-5.393,12.02-12.021c0-6.63-5.392-12.024-12.02-12.024   c-6.63,0-12.024,5.394-12.024,12.024C7.994,44.415,13.388,49.808,20.019,49.808z M20.019,27.763c5.525,0,10.02,4.497,10.02,10.024   c0,5.525-4.495,10.021-10.02,10.021c-5.527,0-10.024-4.496-10.024-10.021C9.994,32.259,14.491,27.763,20.019,27.763z"/><path fill="none" d="M19.844,86.04c1.581-7.533,5.228-18.189,9.509-27.391c-2.533-4.521-4.616-6.643-5.71-6.643h-7.25   c-1.511,0-4.895,3.997-8.752,12.773C4.42,72.106,2.083,80.063,2.083,83.7c0,0.778,0.098,1.374,0.292,1.771   c0.247,0.51,0.589,0.568,0.825,0.568H19.844z"/><path fill="none" d="M38.377,31.334c3.116,3.115,7.253,4.831,11.648,4.831c9.083,0,16.473-7.392,16.473-16.478   c0-9.085-7.39-16.477-16.473-16.477c-9.086,0-16.479,7.391-16.479,16.477C33.546,24.083,35.261,28.219,38.377,31.334z"/><path fill="#000000" d="M50.025,38.166c10.186,0,18.473-8.289,18.473-18.478c0-10.188-8.287-18.477-18.473-18.477   c-10.189,0-18.479,8.289-18.479,18.477c-0.001,4.929,1.923,9.567,5.417,13.061S45.096,38.166,50.025,38.166z M50.025,3.211   c9.083,0,16.473,7.391,16.473,16.477c0,9.086-7.39,16.478-16.473,16.478c-4.396,0-8.532-1.716-11.648-4.831   c-3.116-3.115-4.831-7.251-4.831-11.646C33.546,10.603,40.939,3.211,50.025,3.211z"/><path fill="none" d="M70.151,62.251c-5.49-12.513-11.135-20.598-14.379-20.598H44.276c-3.255,0-8.912,8.087-14.413,20.604   c-5.134,11.682-8.861,24.398-8.861,30.236c0,1.341,0.17,2.344,0.521,3.066c0.397,0.814,1.015,1.229,1.835,1.229h53.276   c0.822,0,1.442-0.416,1.843-1.235c0.35-0.725,0.521-1.73,0.521-3.072C78.997,86.645,75.276,73.931,70.151,62.251z"/></g><text x="0" y="115" fill="#000000" font-size="5px" font-weight="bold" font-family="'Helvetica Neue', Helvetica, Arial-Unicode, Arial, Sans-serif">Created by Dávid Gladiš</text><text x="0" y="120" fill="#000000" font-size="5px" font-weight="bold" font-family="'Helvetica Neue', Helvetica, Arial-Unicode, Arial, Sans-serif">from the Noun Project</text></svg>