<svg xmlns="http://www.w3.org/2000/svg" xmlns:xlink="http://www.w3.org/1999/xlink" version="1.1" x="0px" y="0px" viewBox="0 0 100 125" enable-background="new 0 0 100 100" xml:space="preserve"><path d="M89.988,18.902H10.012C7.248,18.902,5,21.15,5,23.914v52.172c0,2.764,2.248,5.012,5.012,5.012h79.977  c2.764,0,5.012-2.248,5.012-5.012V23.914C95,21.15,92.752,18.902,89.988,18.902z M10.012,21.517h79.977  c1.29,0,2.342,1.023,2.393,2.301L52.033,56.96c-1.083,0.89-2.983,0.89-4.066,0L7.619,23.817C7.67,22.54,8.723,21.517,10.012,21.517z   M7.614,27.196L35.375,50L7.614,72.804V27.196z M89.988,78.483H10.012c-1.29,0-2.342-1.023-2.393-2.301l29.815-24.491l8.873,7.288  c1.035,0.851,2.363,1.275,3.692,1.275s2.657-0.425,3.692-1.275l8.872-7.288l29.816,24.491C92.33,77.46,91.278,78.483,89.988,78.483z   M92.386,72.804L64.624,50l27.762-22.804V72.804z"/><text x="0" y="115" fill="#000000" font-size="5px" font-weight="bold" font-family="'Helvetica Neue', Helvetica, Arial-Unicode, Arial, Sans-serif">Created by Alexander Wiefel</text><text x="0" y="120" fill="#000000" font-size="5px" font-weight="bold" font-family="'Helvetica Neue', Helvetica, Arial-Unicode, Arial, Sans-serif">from the Noun Project</text></svg>