<svg xmlns="http://www.w3.org/2000/svg" xmlns:xlink="http://www.w3.org/1999/xlink" version="1.2" baseProfile="tiny" x="0px" y="0px" viewBox="0 0 100 125" xml:space="preserve"><g><path d="M94.46,63.858L84.353,30.63C82.418,24.271,76.651,20,70,20H30c-6.651,0-12.418,4.271-14.353,10.63L5.539,63.858   C5.182,65.036,5,66.261,5,67.5C5,74.393,10.607,80,17.5,80c4.825,0,9.268-2.822,11.319-7.191L34.834,60h30.331l6.015,12.809   C73.232,77.178,77.675,80,82.5,80C89.393,80,95,74.393,95,67.5C95,66.261,94.818,65.036,94.46,63.858L94.46,63.858z M82.5,75   c-2.896,0-5.562-1.694-6.794-4.316l-6.69-14.246C68.604,55.561,67.723,55,66.753,55H33.247c-0.969,0-1.851,0.561-2.263,1.438   l-6.69,14.246C23.062,73.306,20.396,75,17.5,75c-4.136,0-7.5-3.364-7.5-7.5c0-0.746,0.109-1.481,0.323-2.187l10.108-33.229   C21.72,27.848,25.565,25,30,25h40c4.435,0,8.28,2.848,9.569,7.085l10.107,33.229C89.891,66.019,90,66.754,90,67.5   C90,71.636,86.636,75,82.5,75z"/><path d="M37.5,37.5H35V35c0-1.381-1.119-2.5-2.5-2.5S30,33.619,30,35v2.5h-2.5c-1.381,0-2.5,1.119-2.5,2.5s1.119,2.5,2.5,2.5H30V45   c0,1.381,1.119,2.5,2.5,2.5S35,46.381,35,45v-2.5h2.5c1.381,0,2.5-1.119,2.5-2.5S38.881,37.5,37.5,37.5z"/><path d="M73.618,35.264c-1.234-0.619-2.737-0.117-3.354,1.118l-2.5,5c-0.618,1.235-0.117,2.736,1.118,3.354   c0.359,0.18,0.74,0.265,1.116,0.265c0.917,0,1.8-0.507,2.238-1.383l2.5-5C75.354,37.383,74.853,35.882,73.618,35.264z"/><path d="M63.618,35.264c-1.236-0.619-2.737-0.117-3.354,1.118l-2.5,5c-0.618,1.235-0.117,2.736,1.118,3.354   c0.359,0.18,0.74,0.265,1.116,0.265c0.917,0,1.8-0.507,2.238-1.383l2.5-5C65.354,37.383,64.853,35.882,63.618,35.264z"/></g><text x="0" y="115" fill="#000000" font-size="5px" font-weight="bold" font-family="'Helvetica Neue', Helvetica, Arial-Unicode, Arial, Sans-serif">Created by Arthur Shlain</text><text x="0" y="120" fill="#000000" font-size="5px" font-weight="bold" font-family="'Helvetica Neue', Helvetica, Arial-Unicode, Arial, Sans-serif">from the Noun Project</text></svg>