<svg xmlns="http://www.w3.org/2000/svg" xmlns:xlink="http://www.w3.org/1999/xlink" version="1.2" baseProfile="tiny" x="0px" y="0px" viewBox="0 0 100 125" xml:space="preserve"><path d="M69.51,25.048l-25,5c-1.169,0.234-2.01,1.26-2.01,2.452v25.478c-0.568-0.155-1.167-0.259-1.796-0.299   c-2.311-0.15-4.855,0.497-7.147,1.82s-4.121,3.199-5.15,5.28c-1.178,2.383-1.203,4.876-0.068,6.84   c1.134,1.964,3.306,3.189,5.958,3.36c0.22,0.014,0.44,0.021,0.663,0.021c2.132,0,4.409-0.643,6.484-1.841   c2.292-1.323,4.121-3.199,5.15-5.28c0.767-1.551,1.036-3.147,0.824-4.616c0.049-0.195,0.082-0.396,0.082-0.606V44.5   c0.162,0,0.326-0.016,0.49-0.049L67.5,40.55v12.429c-0.568-0.155-1.167-0.259-1.796-0.299c-2.315-0.148-4.855,0.497-7.147,1.82   c-2.292,1.323-4.121,3.199-5.15,5.28c-1.178,2.383-1.203,4.876-0.068,6.84c1.134,1.964,3.306,3.189,5.958,3.36   c0.22,0.014,0.44,0.021,0.663,0.021c2.132,0,4.409-0.643,6.484-1.841c2.292-1.323,4.121-3.199,5.15-5.28   c0.767-1.551,1.036-3.147,0.824-4.616c0.049-0.195,0.082-0.396,0.082-0.606V27.5c0-0.749-0.336-1.458-0.915-1.934   C71.006,25.093,70.246,24.904,69.51,25.048z M42.111,65.663c-0.588,1.189-1.742,2.343-3.168,3.166   c-1.426,0.823-3.014,1.244-4.325,1.161c-0.452-0.029-1.547-0.172-1.95-0.871c-0.403-0.698,0.02-1.717,0.221-2.123   c0.588-1.189,1.743-2.343,3.168-3.167c1.305-0.753,2.735-1.171,3.984-1.171c0.115,0,0.229,0.004,0.341,0.011   c0.452,0.029,1.547,0.172,1.95,0.871C42.735,64.237,42.313,65.256,42.111,65.663z M67.111,60.663   c-0.588,1.189-1.742,2.343-3.168,3.166c-1.425,0.823-3.012,1.247-4.325,1.161c-0.452-0.029-1.547-0.172-1.95-0.871   c-0.403-0.698,0.02-1.717,0.221-2.123c0.588-1.189,1.743-2.343,3.168-3.167c1.305-0.753,2.735-1.171,3.984-1.171   c0.115,0,0.229,0.004,0.341,0.011c0.452,0.029,1.547,0.172,1.95,0.871C67.735,59.237,67.313,60.256,67.111,60.663z M67.5,35.501   c-0.162,0-0.326,0.015-0.49,0.047L47.5,39.45v-4.901l20-4V35.501z"/><path d="M50,5C25.187,5,5,25.187,5,50s20.187,45,45,45s45-20.187,45-45S74.813,5,50,5z M50,90c-22.056,0-40-17.944-40-40   s17.944-40,40-40s40,17.944,40,40S72.056,90,50,90z"/><text x="0" y="115" fill="#000000" font-size="5px" font-weight="bold" font-family="'Helvetica Neue', Helvetica, Arial-Unicode, Arial, Sans-serif">Created by Arthur Shlain</text><text x="0" y="120" fill="#000000" font-size="5px" font-weight="bold" font-family="'Helvetica Neue', Helvetica, Arial-Unicode, Arial, Sans-serif">from the Noun Project</text></svg>