<svg xmlns="http://www.w3.org/2000/svg" xmlns:xlink="http://www.w3.org/1999/xlink" version="1.1" x="0px" y="0px" viewBox="0 0 64 80" enable-background="new 0 0 64 64" xml:space="preserve"><g><path d="M56,12H8c-1.104,0-2,0.896-2,2v30c0,1.104,0.896,2,2,2h22v2h-6c-1.104,0-2,0.896-2,2s0.896,2,2,2h16c1.104,0,2-0.896,2-2   s-0.896-2-2-2h-6v-2h22c1.104,0,2-0.896,2-2V14C58,12.896,57.104,12,56,12z M54,42H10V16h44V42z"/></g><text x="0" y="79" fill="#000000" font-size="5px" font-weight="bold" font-family="'Helvetica Neue', Helvetica, Arial-Unicode, Arial, Sans-serif">Created by Ralf Schmitzer</text><text x="0" y="84" fill="#000000" font-size="5px" font-weight="bold" font-family="'Helvetica Neue', Helvetica, Arial-Unicode, Arial, Sans-serif">from the Noun Project</text></svg>