<svg xmlns="http://www.w3.org/2000/svg" xmlns:xlink="http://www.w3.org/1999/xlink" version="1.1" x="0px" y="0px" viewBox="0 0 90 82.10625" enable-background="new 0 0 90 65.685" xml:space="preserve"><g><path d="M86.933,18.429H76.497c0.358-0.503,0.575-1.114,0.578-1.777v-1.298c-0.003-0.99-0.479-1.862-1.208-2.423   c0.729-0.561,1.205-1.432,1.208-2.421V9.211c-0.003-0.989-0.479-1.861-1.208-2.423c0.729-0.561,1.205-1.431,1.208-2.421V3.069   C77.072,1.375,75.7,0.002,74.006,0H15.992c-1.691,0.002-3.064,1.375-3.066,3.069v1.298c0.001,0.99,0.479,1.86,1.208,2.421   c-0.729,0.562-1.207,1.434-1.208,2.423v1.298c0.001,0.99,0.479,1.861,1.208,2.421c-0.729,0.561-1.207,1.433-1.208,2.423v1.298   c0.001,0.664,0.218,1.274,0.577,1.777H3.068C1.374,18.431,0.002,19.805,0,21.497v0.087c0.002,1.692,1.374,3.065,3.068,3.069h0.288   l6.351,30.184c1.155,5.812,4.867,10.841,10.966,10.849h24.314h0.026h24.313c6.099-0.008,9.812-5.036,10.967-10.854l6.351-30.179   h0.289c1.689-0.003,3.065-1.377,3.067-3.069v-0.087C89.999,19.805,88.623,18.431,86.933,18.429z M14.215,4.368V3.069   c0.003-0.974,0.807-1.777,1.777-1.777h58.015c0.973,0,1.774,0.803,1.776,1.777v1.298c-0.002,0.971-0.804,1.774-1.776,1.774H15.992   C15.021,6.142,14.218,5.338,14.215,4.368z M14.215,10.509V9.211c0.003-0.974,0.807-1.775,1.777-1.777h58.015   c0.973,0.002,1.774,0.804,1.776,1.777v1.298c-0.002,0.971-0.804,1.774-1.776,1.777H15.992   C15.021,12.284,14.218,11.48,14.215,10.509z M14.215,16.651v-1.298c0.003-0.974,0.807-1.774,1.777-1.777h58.015   c0.973,0.003,1.774,0.803,1.776,1.777v1.298c-0.002,0.974-0.804,1.774-1.776,1.777H15.992   C15.021,18.426,14.218,17.625,14.215,16.651z M79.028,54.571c-1.141,5.519-4.433,9.828-9.701,9.823H45.013h-0.026H20.672   c-5.268,0.005-8.562-4.305-9.701-9.818L4.676,24.653H85.32L79.028,54.571z M88.708,21.584c-0.003,0.973-0.805,1.774-1.775,1.777   H3.068c-0.972-0.002-1.776-0.804-1.776-1.777v-0.087c0-0.972,0.804-1.774,1.776-1.777H45l29.007,0.001   c0.005,0,0.008-0.001,0.013-0.001h12.914c0.971,0.003,1.772,0.805,1.775,1.777V21.584z"/><path d="M19.546,59.441c1.601-0.003,2.903-1.302,2.906-2.906v-7.751c-0.002-1.604-1.305-2.904-2.906-2.904   c-1.604,0-2.904,1.302-2.907,2.904v7.751C16.642,58.139,17.942,59.438,19.546,59.441z M17.929,48.784   c0.002-0.886,0.731-1.612,1.617-1.615c0.883,0.003,1.611,0.731,1.614,1.615v7.751c-0.002,0.883-0.731,1.612-1.614,1.615   c-0.886-0.003-1.614-0.73-1.617-1.615V48.784z"/><path d="M26.819,45.879c-1.604,0-2.907,1.302-2.907,2.904v7.751c0,1.604,1.303,2.903,2.907,2.906   c1.601-0.003,2.903-1.302,2.903-2.906v-7.751C29.722,47.179,28.419,45.879,26.819,45.879z M28.432,56.535   c-0.002,0.883-0.73,1.612-1.613,1.615c-0.886-0.003-1.614-0.73-1.618-1.615v-7.751c0.003-0.886,0.732-1.612,1.618-1.615   c0.883,0.003,1.611,0.731,1.613,1.615V56.535z"/><path d="M34.091,45.879c-1.604,0-2.907,1.302-2.907,2.904v7.751c0,1.604,1.304,2.903,2.907,2.906   c1.601-0.003,2.903-1.302,2.903-2.906v-7.751C36.995,47.181,35.692,45.879,34.091,45.879z M35.706,56.535   c-0.003,0.885-0.73,1.612-1.614,1.615c-0.886-0.003-1.614-0.73-1.616-1.615v-7.751c0.002-0.886,0.73-1.612,1.616-1.615   c0.884,0.003,1.611,0.729,1.614,1.615V56.535z"/><path d="M41.365,45.879c-1.604,0-2.904,1.302-2.907,2.904v7.751c0.003,1.604,1.304,2.903,2.907,2.906   c1.601-0.003,2.903-1.302,2.906-2.906v-7.751C44.268,47.179,42.965,45.879,41.365,45.879z M42.979,56.535   c-0.003,0.883-0.732,1.612-1.614,1.615c-0.886-0.003-1.614-0.73-1.616-1.615v-7.751c0.002-0.886,0.73-1.612,1.616-1.615   c0.882,0.003,1.611,0.731,1.614,1.615V56.535z"/><path d="M48.637,45.879c-1.604,0-2.904,1.302-2.906,2.904v7.751c0.002,1.604,1.303,2.903,2.906,2.906   c1.601-0.003,2.903-1.302,2.906-2.906v-7.751C51.541,47.179,50.238,45.879,48.637,45.879z M50.251,56.535   c-0.003,0.883-0.731,1.612-1.614,1.615c-0.886-0.003-1.614-0.73-1.616-1.615v-7.751c0.002-0.886,0.73-1.612,1.616-1.615   c0.883,0.003,1.611,0.731,1.614,1.615V56.535z"/><path d="M55.911,45.879c-1.604,0-2.906,1.302-2.906,2.904v7.751c0,1.604,1.303,2.903,2.906,2.906   c1.601-0.003,2.903-1.302,2.903-2.906v-7.751C58.814,47.181,57.511,45.879,55.911,45.879z M57.524,56.535   c-0.002,0.885-0.73,1.612-1.613,1.615c-0.887-0.003-1.614-0.73-1.617-1.615v-7.751c0.003-0.886,0.73-1.612,1.617-1.615   c0.883,0.003,1.611,0.729,1.613,1.615V56.535z"/><path d="M63.181,59.441c1.602-0.003,2.903-1.302,2.906-2.906v-7.751c-0.003-1.603-1.305-2.904-2.906-2.904   c-1.603,0-2.904,1.3-2.907,2.904v7.751C60.277,58.139,61.579,59.438,63.181,59.441z M61.566,48.784   c0.002-0.884,0.734-1.612,1.615-1.615c0.885,0.003,1.611,0.729,1.616,1.615v7.751c-0.005,0.885-0.731,1.612-1.616,1.615   c-0.881-0.003-1.613-0.732-1.615-1.615V48.784z"/><path d="M70.455,45.879c-1.602,0-2.907,1.302-2.907,2.904v7.751c0,1.604,1.306,2.903,2.907,2.906   c1.603-0.003,2.903-1.302,2.903-2.906v-7.751C73.358,47.181,72.057,45.879,70.455,45.879z M72.07,56.535   c-0.003,0.885-0.732,1.612-1.615,1.615c-0.886-0.003-1.612-0.73-1.614-1.615v-7.751c0.002-0.886,0.729-1.612,1.614-1.615   c0.883,0.003,1.612,0.729,1.615,1.615V56.535z"/><path d="M19.544,42.112c1.604-0.003,2.904-1.304,2.907-2.907v-7.75c-0.002-1.603-1.303-2.905-2.907-2.907   c-1.603,0.002-2.904,1.304-2.904,2.907v7.75C16.64,40.808,17.941,42.109,19.544,42.112z M17.931,31.455   c0.002-0.887,0.729-1.614,1.614-1.617c0.883,0.003,1.614,0.732,1.617,1.617v7.75c-0.002,0.884-0.733,1.614-1.617,1.614   c-0.884,0-1.611-0.73-1.614-1.614V31.455z"/><path d="M26.819,42.112c1.601-0.003,2.901-1.304,2.906-2.907l-0.002-7.75c-0.003-1.603-1.304-2.905-2.904-2.907   c-1.604,0.002-2.905,1.304-2.907,2.907v7.75C23.914,40.808,25.215,42.109,26.819,42.112z M26.819,29.838   c0.881,0.003,1.611,0.732,1.613,1.617v7.75c-0.002,0.884-0.732,1.614-1.613,1.614c-0.884,0-1.614-0.73-1.614-1.614l-0.003-7.75   C25.205,30.568,25.932,29.841,26.819,29.838z"/><path d="M34.09,42.112c1.604-0.003,2.904-1.304,2.906-2.907v-7.75c-0.002-1.603-1.303-2.905-2.906-2.907   c-1.604,0.002-2.904,1.304-2.908,2.907v7.75C31.186,40.808,32.487,42.109,34.09,42.112z M32.476,31.455   c0-0.887,0.729-1.614,1.614-1.617c0.885,0.003,1.613,0.73,1.613,1.617v7.75c0,0.884-0.729,1.614-1.613,1.614   s-1.614-0.73-1.614-1.614V31.455z"/><path d="M41.365,42.112c1.601-0.003,2.904-1.304,2.907-2.907l-0.003-7.75c0-1.603-1.304-2.905-2.904-2.907   c-1.604,0.002-2.905,1.304-2.907,2.907v7.75C38.459,40.808,39.761,42.109,41.365,42.112z M41.365,29.838   c0.884,0.003,1.611,0.732,1.614,1.617v7.75c-0.003,0.884-0.733,1.614-1.614,1.614c-0.885,0-1.614-0.73-1.614-1.614l-0.002-7.75   C39.75,30.568,40.48,29.841,41.365,29.838z"/><path d="M48.635,42.112c1.604-0.003,2.905-1.304,2.907-2.907l-0.002-7.75c0-1.603-1.304-2.905-2.905-2.907   c-1.603,0.002-2.904,1.304-2.906,2.907v7.75C45.731,40.808,47.033,42.109,48.635,42.112z M48.635,29.838   c0.885,0.003,1.612,0.73,1.615,1.617v7.75c-0.003,0.884-0.73,1.614-1.615,1.614c-0.883,0-1.613-0.73-1.613-1.614l-0.003-7.75   C47.022,30.571,47.752,29.841,48.635,29.838z"/><path d="M55.91,42.111c1.604-0.003,2.904-1.305,2.907-2.905l-0.003-7.751c0-1.604-1.301-2.905-2.904-2.908   c-1.604,0.002-2.905,1.304-2.907,2.908v7.751C53.004,40.806,54.305,42.108,55.91,42.111z M54.294,31.455   c0-0.885,0.73-1.615,1.615-1.615s1.611,0.73,1.614,1.615v7.751c-0.003,0.882-0.729,1.612-1.614,1.614   c-0.885-0.002-1.615-0.732-1.615-1.614V31.455z"/><path d="M63.181,42.111c1.602,0,2.903-1.303,2.906-2.905l-0.003-7.751c0-1.603-1.302-2.905-2.903-2.907   c-1.603,0.002-2.904,1.302-2.907,2.907v7.751C60.277,40.808,61.579,42.108,63.181,42.111z M61.566,31.455   c0.002-0.885,0.732-1.613,1.615-1.616c0.885,0.003,1.611,0.731,1.614,1.616v7.751c-0.003,0.882-0.731,1.613-1.614,1.613   s-1.613-0.731-1.615-1.613V31.455z"/><path d="M70.452,42.111c1.605-0.003,2.906-1.304,2.912-2.906l-0.006-7.75c0-1.603-1.301-2.906-2.906-2.906   c-1.599,0-2.901,1.303-2.904,2.906v7.75C67.55,40.807,68.85,42.108,70.452,42.111z M68.84,31.455   c0.002-0.886,0.729-1.614,1.611-1.617c0.886,0.003,1.615,0.731,1.618,1.617v7.75c-0.003,0.885-0.732,1.613-1.618,1.615   c-0.88-0.002-1.609-0.73-1.611-1.615V31.455z"/></g><text x="0" y="80.685" fill="#000000" font-size="5px" font-weight="bold" font-family="'Helvetica Neue', Helvetica, Arial-Unicode, Arial, Sans-serif">Created by Star and Anchor Design</text><text x="0" y="85.685" fill="#000000" font-size="5px" font-weight="bold" font-family="'Helvetica Neue', Helvetica, Arial-Unicode, Arial, Sans-serif">from the Noun Project</text></svg>