<svg xmlns="http://www.w3.org/2000/svg" viewBox="0 0 100 125" x="0px" y="0px"><title>Ecommerce RTE</title><g data-name="Layer 2"><path d="M50,89.5A39.5,39.5,0,1,0,10.5,50,39.50078,39.50078,0,0,0,50,89.5ZM25.6048,25.6048A34.49993,34.49993,0,1,1,15.49994,50,34.38058,34.38058,0,0,1,25.6048,25.6048Z"/><path d="M31.26367,52.146H47.14551V69.44482a2.5,2.5,0,0,0,5,0V52.146h17.2998a2.5,2.5,0,0,0,0-5H52.14551V31.26318a2.5,2.5,0,0,0-5,0V47.146H31.26367a2.5,2.5,0,0,0,0,5Z"/></g><text x="0" y="115" fill="#000000" font-size="5px" font-weight="bold" font-family="'Helvetica Neue', Helvetica, Arial-Unicode, Arial, Sans-serif">Created by Anthony Ledoux</text><text x="0" y="120" fill="#000000" font-size="5px" font-weight="bold" font-family="'Helvetica Neue', Helvetica, Arial-Unicode, Arial, Sans-serif">from the Noun Project</text></svg>