<svg xmlns="http://www.w3.org/2000/svg" xmlns:xlink="http://www.w3.org/1999/xlink" version="1.1" x="0px" y="0px" viewBox="0 0 64 80" enable-background="new 0 0 64 64" xml:space="preserve"><g><g><path d="M52,19H41v-3c0-4.962-4.037-9-9-9c-4.962,0-9,4.038-9,9v3H12c-2.757,0-5,2.243-5,5v28c0,2.757,2.243,5,5,5h40    c2.757,0,5-2.243,5-5V24C57,21.243,54.757,19,52,19z M9,30.949c5.268-0.478,9.472-4.681,9.949-9.949h26.102    c0.478,5.268,4.682,9.472,9.949,9.949v14.102c-5.268,0.478-9.472,4.682-9.949,9.949H18.949c-0.478-5.268-4.681-9.472-9.949-9.949    V30.949z M55,24v4.941c-4.165-0.463-7.479-3.777-7.941-7.941H52C53.654,21,55,22.346,55,24z M25,16c0-3.86,3.14-7,7-7    c3.859,0,7,3.14,7,7v3H25V16z M12,21h4.941c-0.463,4.164-3.777,7.478-7.941,7.941V24C9,22.346,10.346,21,12,21z M9,52v-4.941    c4.164,0.463,7.478,3.776,7.941,7.941H12C10.346,55,9,53.654,9,52z M52,55h-4.941c0.463-4.165,3.776-7.479,7.941-7.941V52    C55,53.654,53.654,55,52,55z"/><path d="M39,41c0,2.206,1.794,4,4,4s4-1.794,4-4s-1.794-4-4-4S39,38.794,39,41z M45,41c0,1.103-0.897,2-2,2s-2-0.897-2-2    s0.897-2,2-2S45,39.897,45,41z"/><path d="M20.624,46.009c0.084,0.251,0.264,0.459,0.501,0.578c0.14,0.07,0.293,0.105,0.447,0.105c0.106,0,0.213-0.017,0.316-0.052    l11.384-3.795c0.251-0.083,0.459-0.264,0.578-0.501c0.118-0.237,0.138-0.512,0.054-0.764l-2.529-7.589    c-0.174-0.523-0.739-0.809-1.265-0.632l-11.384,3.794c-0.251,0.083-0.459,0.264-0.578,0.501s-0.138,0.512-0.054,0.764    L20.624,46.009z M29.795,35.573l1.897,5.691l-9.487,3.163l-1.897-5.692L29.795,35.573z"/><path d="M36,33h6c0.553,0,1-0.448,1-1v-6c0-0.552-0.447-1-1-1h-6c-0.553,0-1,0.448-1,1v6C35,32.552,35.447,33,36,33z M37,27h4v4    h-4V27z"/></g></g><text x="0" y="79" fill="#000000" font-size="5px" font-weight="bold" font-family="'Helvetica Neue', Helvetica, Arial-Unicode, Arial, Sans-serif">Created by Ralf Schmitzer</text><text x="0" y="84" fill="#000000" font-size="5px" font-weight="bold" font-family="'Helvetica Neue', Helvetica, Arial-Unicode, Arial, Sans-serif">from the Noun Project</text></svg>