<svg xmlns="http://www.w3.org/2000/svg" xmlns:xlink="http://www.w3.org/1999/xlink" version="1.1" x="0px" y="0px" viewBox="0 0 24.07 30" style="enable-background:new 0 0 24.07 24;" xml:space="preserve"><title>icon112</title><polygon points="4.06,0.04 0.05,0.04 0.05,4.02 5.06,4.02 "/><polygon points="11.37,4.02 10.37,0.04 6.36,0.04 7.36,4.02 "/><polygon points="17.77,4.02 16.76,0.04 12.76,0.04 13.76,4.02 "/><polygon points="19.06,0.04 20.07,4.02 24.07,4.02 24.07,0.04 "/><path d="M0.03,22c0,1.1,0.9,2,2,2h19.9c1.1,0,2-0.9,2-2V6H0.03V22z M9.55,10.74L15.96,15l-6.41,4.24V10.74z"/><text x="0" y="39" fill="#000000" font-size="5px" font-weight="bold" font-family="'Helvetica Neue', Helvetica, Arial-Unicode, Arial, Sans-serif">Created by Iconographer</text><text x="0" y="44" fill="#000000" font-size="5px" font-weight="bold" font-family="'Helvetica Neue', Helvetica, Arial-Unicode, Arial, Sans-serif">from the Noun Project</text></svg>