<svg xmlns="http://www.w3.org/2000/svg" xmlns:xlink="http://www.w3.org/1999/xlink" viewBox="0 0 100 125" version="1.1" x="0px" y="0px"><title>Artboard 1 Copy 18</title><desc>Created with Sketch.</desc><g stroke="none" stroke-width="1" fill="none" fill-rule="evenodd"><g fill="#000000"><g transform="translate(13.000000, 0.000000)"><path d="M66.9971,18 L7.0031,18 C5.9051,18 5.1081,18.889 5.2421,19.986 L14.7581,98.014 C14.8911,99.107 15.8971,100 17.0051,100 L56.9951,100 C58.1011,100 59.1081,99.111 59.2421,98.014 L68.7581,19.986 C68.8911,18.893 68.1031,18 66.9971,18 M64.4821,22 L55.4581,96 L18.5421,96 L9.5181,22 L64.4821,22"/><path d="M72.002,8 L1.999,8 C0.896,8 0,8.898 0,10.006 L0,19.994 C0,21.103 0.895,22 1.999,22 L72.002,22 C73.105,22 74,21.102 74,19.994 L74,10.006 C74,8.897 73.106,8 72.002,8 L72.002,8 Z M4,18 L70,18 L70,12 L4,12 L4,18 Z"/><path d="M61.9375,0 L12.0625,0 C10.9555,0 9.7775,0.852 9.4215,1.901 L6.6445,10.099 C6.2855,11.156 6.8925,12 7.9925,12 L66.0075,12 C67.0995,12 67.7115,11.149 67.3555,10.099 L64.5795,1.901 C64.2205,0.844 63.0405,0 61.9375,0 M61.0665,4 L62.4215,8 L11.5785,8 L12.9335,4 L61.0665,4"/></g></g></g><text x="0" y="115" fill="#000000" font-size="5px" font-weight="bold" font-family="'Helvetica Neue', Helvetica, Arial-Unicode, Arial, Sans-serif">Created by Nikita Tcherednikov</text><text x="0" y="120" fill="#000000" font-size="5px" font-weight="bold" font-family="'Helvetica Neue', Helvetica, Arial-Unicode, Arial, Sans-serif">from the Noun Project</text></svg>