<svg xmlns="http://www.w3.org/2000/svg" xmlns:xlink="http://www.w3.org/1999/xlink" version="1.1" x="0px" y="0px" viewBox="0 0 100 125" style="enable-background:new 0 0 100 100;" xml:space="preserve"><g><path d="M83.8608398,9H16.1391602c-2.9868164,0-5.4165039,2.4296875-5.4165039,5.4165039v15.2226563v55.9443359   C10.7226563,88.5703125,13.1523438,91,16.1391602,91h67.7216797c2.9868164,0,5.4165039-2.4296875,5.4165039-5.4165039V29.6391602   V14.4165039C89.2773438,11.4296875,86.8476563,9,83.8608398,9z M12.7226563,14.4165039   C12.7226563,12.5327148,14.2553711,11,16.1391602,11h67.7216797c1.8837891,0,3.4165039,1.5327148,3.4165039,3.4165039v14.2226563   H12.7226563V14.4165039z M87.2773438,85.5834961C87.2773438,87.4672852,85.7446289,89,83.8608398,89H16.1391602   c-1.8837891,0-3.4165039-1.5327148-3.4165039-3.4165039V30.6391602h74.5546875V85.5834961z"/><path d="M32.3334961,15.0166016H19.8198242c-0.5522461,0-1,0.4477539-1,1v7.6064453c0,0.5522461,0.4477539,1,1,1h12.5136719   c0.5522461,0,1-0.4477539,1-1v-7.6064453C33.3334961,15.4643555,32.8857422,15.0166016,32.3334961,15.0166016z    M31.3334961,22.6230469H20.8198242v-5.6064453h10.5136719V22.6230469z"/><path d="M44.2338867,16.1206055c-2.0395508,0-3.6992188,1.659668-3.6992188,3.6992188s1.659668,3.6987305,3.6992188,3.6987305   s3.6992188-1.6591797,3.6992188-3.6987305S46.2734375,16.1206055,44.2338867,16.1206055z M44.2338867,21.5185547   c-0.9370117,0-1.6992188-0.762207-1.6992188-1.6987305c0-0.9370117,0.762207-1.6992188,1.6992188-1.6992188   s1.6992188,0.762207,1.6992188,1.6992188C45.9331055,20.7563477,45.1708984,21.5185547,44.2338867,21.5185547z"/><path d="M55.9204102,16.1206055c-2.0395508,0-3.6992188,1.659668-3.6992188,3.6992188s1.659668,3.6987305,3.6992188,3.6987305   s3.6992188-1.6591797,3.6992188-3.6987305S57.9599609,16.1206055,55.9204102,16.1206055z M55.9204102,21.5185547   c-0.9370117,0-1.6992188-0.762207-1.6992188-1.6987305c0-0.9370117,0.762207-1.6992188,1.6992188-1.6992188   s1.6992188,0.762207,1.6992188,1.6992188C57.6196289,20.7563477,56.8574219,21.5185547,55.9204102,21.5185547z"/><path d="M67.6069336,16.1206055c-2.0395508,0-3.6987305,1.659668-3.6987305,3.6992188s1.6591797,3.6987305,3.6987305,3.6987305   s3.6992188-1.6591797,3.6992188-3.6987305S69.6464844,16.1206055,67.6069336,16.1206055z M67.6069336,21.5185547   c-0.9365234,0-1.6987305-0.762207-1.6987305-1.6987305c0-0.9370117,0.762207-1.6992188,1.6987305-1.6992188   c0.9370117,0,1.6992188,0.762207,1.6992188,1.6992188C69.3061523,20.7563477,68.5439453,21.5185547,67.6069336,21.5185547z"/><path d="M50,82.5864258c8.4731445,0,16.1962891-4.6606445,20.1557617-12.1635742   c0.0001831-0.0003662,0.0001221-0.0007935,0.0003052-0.0011597c1.7126465-3.2223511,2.6178589-6.8908081,2.6178589-10.6091919   c0-3.7086182-0.9052124-7.3721924-2.6178589-10.5945435c-0.0001831-0.0003662-0.0001221-0.0007935-0.0003052-0.0011597   C66.1967773,41.7138672,58.4736328,37.0532227,50,37.0532227c-12.5576172,0-22.7739258,10.2099609-22.7739258,22.7592773   C27.2260742,72.3701172,37.4423828,82.5864258,50,82.5864258z M62.2538452,65.8230591   C59.9663696,70.4855347,55.2174683,73.4755859,50,73.4755859c-7.5258789,0-13.6484375-6.1293945-13.6484375-13.6630859   c0-7.5258789,6.1225586-13.6484375,13.6484375-13.6484375c5.2177734,0,9.9661255,2.9899902,12.2537231,7.6522217   c-1.1175537,1.8162842-1.711731,3.8751221-1.711731,5.9962158C60.5419922,61.9431763,61.1370239,64.0080566,62.2538452,65.8230591z    M68.7636719,68.7435913c-0.0030518-0.0011597-0.0062866-0.0018921-0.0093384-0.0029907   c-0.4182129-0.1543579-0.8197632-0.3447266-1.2095337-0.5552368c-0.0571289-0.0308228-0.1154785-0.0593262-0.171936-0.0913086   c-0.3703003-0.210022-0.7243042-0.4467773-1.0626221-0.7046509c-0.05896-0.0449219-0.1172485-0.0908203-0.1752319-0.137146   c-0.3342285-0.2674561-0.6526489-0.5552368-0.9486694-0.8670654c-0.0397339-0.0418701-0.0766602-0.0865479-0.1156616-0.1292114   c-0.3049927-0.333374-0.5930176-0.6843872-0.8494873-1.0621338c-1.0986328-1.5991211-1.6791992-3.4599609-1.6791992-5.3813477   c0-1.9121094,0.5805664-3.7680664,1.6826172-5.371582c0.2536621-0.3738403,0.5392456-0.7210083,0.8410034-1.0515137   c0.0425415-0.0465698,0.0828247-0.0953979,0.1262207-0.1410522c0.2930298-0.3082275,0.6083374-0.5928955,0.9391479-0.8578491   c0.0609741-0.0488281,0.1222534-0.0971069,0.1843872-0.1443481c0.3364868-0.2559814,0.6882935-0.491272,1.0564575-0.7000732   c0.0578003-0.0327759,0.1176147-0.0620117,0.1761475-0.0935669c0.3887329-0.2096558,0.7891846-0.3994751,1.2061768-0.5534058   c0.003479-0.0012817,0.0071411-0.0020752,0.0105591-0.0033569c1.3336792,2.7727051,2.0092163,5.7677612,2.0092163,8.916748   C70.7739258,62.9229736,70.0806274,65.992981,68.7636719,68.7435913z M50,39.0532227   c7.3334961,0,14.0517578,3.828125,17.8056641,10.0664063c-0.0635986,0.0252075-0.1224976,0.0596924-0.1855469,0.0860596   c-0.0878906,0.0366821-0.1749878,0.0734863-0.2618408,0.1123657c-0.1824951,0.081604-0.3616943,0.1685181-0.5392456,0.2593994   c-0.1177368,0.0602417-0.234375,0.1213989-0.3497925,0.1856689c-0.1184082,0.0658569-0.2374878,0.1300659-0.3533936,0.2000732   c-0.0656738,0.0396729-0.1276855,0.0841064-0.1925049,0.125061c-0.0670776,0.0422974-0.1332397,0.0858154-0.1994019,0.1295166   c-0.0858765,0.0567017-0.1743164,0.1089478-0.258606,0.1679688c-0.2025757,0.1418457-0.3964844,0.2949219-0.5894165,0.449585   c-0.0604858,0.0485229-0.1231079,0.0932617-0.1826172,0.1429443c-0.0504761,0.0421753-0.1020508,0.0826416-0.1517944,0.1256714   c-0.0562134,0.048645-0.107605,0.1026001-0.1628418,0.1523438c-0.237854,0.2141113-0.467041,0.4373169-0.6865234,0.6712646   c-0.0353394,0.0376587-0.0757446,0.0699463-0.1105957,0.1080933C60.8115234,47.206543,55.6411133,44.1640625,50,44.1640625   c-8.628418,0-15.6484375,7.0200195-15.6484375,15.6484375c0,8.6367188,7.0200195,15.6630859,15.6484375,15.6630859   c5.640625,0,10.8115234-3.0424805,13.581543-7.871582c0.0367432,0.0402222,0.0793457,0.0743408,0.1166382,0.1140137   c0.2147827,0.2285767,0.4390869,0.4465332,0.6712646,0.6560669c0.0588989,0.0531616,0.1136475,0.1106567,0.173584,0.1625366   c0.048645,0.0421143,0.0991821,0.081543,0.1484985,0.1228027c0.0613403,0.0512695,0.1258545,0.0974121,0.1882324,0.1473999   c0.1921387,0.1539307,0.3851929,0.3064575,0.586792,0.4476318c0.0823975,0.0576782,0.1688843,0.1087036,0.2528076,0.1642456   c0.0681763,0.045166,0.1364746,0.0899658,0.2056274,0.133606c0.0641479,0.0405273,0.1254272,0.0844116,0.1903076,0.1236572   c0.1176147,0.0710449,0.2384644,0.1362305,0.3587036,0.203064c0.1118774,0.0621948,0.2247314,0.12146,0.3387451,0.1798706   c0.1803589,0.0923462,0.3623047,0.1807251,0.5476685,0.2636108c0.0872803,0.0390015,0.1748657,0.0757446,0.2631836,0.1125488   c0.0618896,0.0258179,0.1196899,0.0597534,0.1820679,0.0844727C64.0517578,76.7583008,57.3334961,80.5864258,50,80.5864258   c-11.4545898,0-20.7739258-9.3193359-20.7739258-20.7739258C29.2260742,48.3657227,38.5454102,39.0532227,50,39.0532227z"/></g><text x="0" y="115" fill="#000000" font-size="5px" font-weight="bold" font-family="'Helvetica Neue', Helvetica, Arial-Unicode, Arial, Sans-serif">Created by Edwin Prayogi M</text><text x="0" y="120" fill="#000000" font-size="5px" font-weight="bold" font-family="'Helvetica Neue', Helvetica, Arial-Unicode, Arial, Sans-serif">from the Noun Project</text></svg>