<svg xmlns="http://www.w3.org/2000/svg" xmlns:xlink="http://www.w3.org/1999/xlink" version="1.1" x="0px" y="0px" viewBox="0 0 100 125" style="enable-background:new 0 0 100 100;" xml:space="preserve"><style type="text/css">
	.st0{fill:none;stroke:#000000;stroke-width:2;stroke-linecap:round;stroke-linejoin:round;stroke-miterlimit:10;}
	.st1{fill:none;stroke:#000000;stroke-width:2;stroke-linecap:round;stroke-linejoin:round;}
	.st2{fill:none;stroke:#000000;stroke-width:2;stroke-linecap:round;stroke-linejoin:round;stroke-dasharray:4.0506,4.0506;}
	.st3{fill:none;stroke:#000000;stroke-width:2;stroke-miterlimit:10;}
</style><path d="M70.5,42.2c-6.3,1.5-12.9,5.4-18.1,10.6c-4.9,4.9-8.6,11.8-10,18.8c-1.3,6.7-0.4,12.4,2.4,15.2c2,2,5.3,3,9.4,3  c1.8,0,3.8-0.2,5.8-0.6c7-1.4,13.8-5,18.8-10C84,74,87.9,67.4,89.4,61.1c1.6-6.7,0.6-12.3-3-15.9C82.8,41.6,77.2,40.6,70.5,42.2z   M88,53.6L78,43.6c2.9,0.3,5.3,1.3,7,3.1C86.7,48.4,87.7,50.8,88,53.6z M71.3,44.1c1.3-0.3,2.6-0.5,3.8-0.6l13,13  c-0.1,1.2-0.3,2.5-0.6,3.8L71.3,44.1z M43.8,77.8l10,10c-3.3-0.1-6-0.9-7.5-2.4C44.7,83.9,43.9,81.2,43.8,77.8z M59.6,87.2  c-1.1,0.2-2.1,0.4-3.1,0.5L43.9,75.1c0.1-1,0.2-2.1,0.5-3.1c0-0.2,0.1-0.4,0.2-0.6l15.8,15.8C60.1,87.1,59.8,87.2,59.6,87.2z   M77.4,77.8c-4,4-9.3,7.1-14.9,8.7L45.1,69.1c1.6-5.6,4.7-10.9,8.7-14.9c4.4-4.4,9.9-7.8,15.2-9.5l17.8,17.8  C85.2,67.9,81.8,73.4,77.4,77.8z"/><path d="M75.9,55.7c-0.4-0.4-1-0.4-1.4,0l-2.4,2.4l-2.2-2.2c-0.4-0.4-1-0.4-1.4,0s-0.4,1,0,1.4l2.2,2.2l-1.8,1.8l-2.2-2.2  c-0.4-0.4-1-0.4-1.4,0s-0.4,1,0,1.4l2.2,2.2l-1.8,1.8l-2.2-2.2c-0.4-0.4-1-0.4-1.4,0s-0.4,1,0,1.4l2.2,2.2l-1.8,1.8l-2.2-2.2  c-0.4-0.4-1-0.4-1.4,0s-0.4,1,0,1.4l2.2,2.2l-1.8,1.8l-2.2-2.2c-0.4-0.4-1-0.4-1.4,0s-0.4,1,0,1.4l2.2,2.2l-2.4,2.4  c-0.4,0.4-0.4,1,0,1.4c0.2,0.2,0.5,0.3,0.7,0.3s0.5-0.1,0.7-0.3l2.4-2.4l2.2,2.2c0.2,0.2,0.5,0.3,0.7,0.3s0.5-0.1,0.7-0.3  c0.4-0.4,0.4-1,0-1.4l-2.2-2.2l1.8-1.8l2.2,2.2c0.2,0.2,0.5,0.3,0.7,0.3s0.5-0.1,0.7-0.3c0.4-0.4,0.4-1,0-1.4l-2.2-2.2l1.8-1.8  l2.2,2.2c0.2,0.2,0.5,0.3,0.7,0.3s0.5-0.1,0.7-0.3c0.4-0.4,0.4-1,0-1.4L67,66l1.8-1.8l2.2,2.2c0.2,0.2,0.5,0.3,0.7,0.3  s0.5-0.1,0.7-0.3c0.4-0.4,0.4-1,0-1.4l-2.2-2.2l1.8-1.8l2.2,2.2c0.2,0.2,0.5,0.3,0.7,0.3s0.5-0.1,0.7-0.3c0.4-0.4,0.4-1,0-1.4  l-2.2-2.2l2.4-2.4C76.3,56.8,76.3,56.1,75.9,55.7z"/><path d="M73.6,12.3c-7.1,0-12.8,5.8-12.8,12.8S66.5,38,73.6,38c7.1,0,12.8-5.8,12.8-12.8S80.7,12.3,73.6,12.3z M80.3,16.6  c-1.9,1.6-4.3,2.4-6.7,2.4c-2.5,0-4.8-0.9-6.7-2.4c1.9-1.5,4.2-2.4,6.7-2.4C76.1,14.3,78.5,15.2,80.3,16.6z M67,33.7  c1.9-1.5,4.2-2.3,6.6-2.3c2.4,0,4.7,0.8,6.6,2.3c-1.8,1.4-4.1,2.2-6.6,2.2C71.1,36,68.9,35.1,67,33.7z M81.6,32.4  c-2.3-1.9-5.1-2.9-8-2.9c-3,0-5.8,1-8,2.9c-1.7-1.9-2.8-4.5-2.8-7.2c0-2.7,1-5.2,2.7-7.1c2.3,1.9,5.2,3,8.2,3c3,0,5.9-1.1,8.2-3  c1.7,1.9,2.7,4.4,2.7,7.1C84.4,27.9,83.4,30.4,81.6,32.4z"/><path d="M16.5,63.4c-2.4,2.4-3.8,5.6-3.8,9.1c0,3.4,1.3,6.7,3.8,9.1c2.5,2.5,5.8,3.8,9.1,3.8c3.3,0,6.6-1.3,9.1-3.8  c2.4-2.4,3.8-5.6,3.8-9.1c0-3.4-1.3-6.7-3.8-9.1c-2.4-2.4-5.6-3.8-9.1-3.8C22.1,59.7,18.9,61,16.5,63.4z M14.8,73.9  c2.4,0.3,4.6,1.3,6.3,3c1.7,1.7,2.7,3.9,3,6.3c-2.3-0.3-4.5-1.3-6.2-3.1C16.2,78.5,15.1,76.3,14.8,73.9z M33.2,80.2  c-2,2-4.5,3-7.1,3.1c-0.3-2.9-1.5-5.7-3.6-7.8c-2.1-2.1-4.8-3.4-7.8-3.6c0.1-2.7,1.2-5.2,3.1-7.1c1.9-1.9,4.3-3,6.9-3.1  c0.2,3,1.5,5.8,3.6,7.9c2.1,2.1,4.9,3.4,7.9,3.6C36.2,75.9,35.1,78.3,33.2,80.2z M36.3,71.2c-2.4-0.2-4.7-1.3-6.5-3  c-1.7-1.7-2.8-4-3-6.5c2.4,0.3,4.7,1.3,6.4,3.1C35,66.6,36,68.8,36.3,71.2z"/><path d="M50.5,16.8c-9.2-9.2-24.2-9.2-33.4,0C7.8,26,7.8,41,17,50.3c4.6,4.6,10.7,6.9,16.7,6.9c6.1,0,12.1-2.3,16.7-6.9  C59.7,41,59.7,26,50.5,16.8z M12.2,35.1c5.6-0.5,10.9-2.8,15.1-6.6l5.1,5.1L17.8,48.1C14.4,44.4,12.5,39.8,12.2,35.1z M55.3,32  c-5.6,0.5-10.9,2.8-15.1,6.6l-5.1-5.1L49.7,19C53.1,22.7,55,27.3,55.3,32z M33.8,32.1L28.7,27c3.8-4.1,6.2-9.4,6.6-15.1  c4.7,0.3,9.3,2.2,13,5.6L33.8,32.1z M27.3,25.6l-8.1-8.1c4-3.6,9-5.5,14.1-5.6C32.8,17,30.7,21.8,27.3,25.6z M33.8,35l5.1,5.1  c-3.8,4.1-6.2,9.4-6.6,15.1c-4.7-0.3-9.3-2.2-13-5.6L33.8,35z M40.3,41.5l8.1,8.1c-4,3.6-9,5.5-14.1,5.6  C34.7,50,36.8,45.2,40.3,41.5z M41.7,40c3.8-3.5,8.6-5.6,13.7-6c-0.1,5.1-2,10.1-5.6,14.1L41.7,40z M17.8,19l8.1,8.1  c-3.8,3.5-8.6,5.6-13.7,6C12.3,28,14.2,23,17.8,19z"/><text x="0" y="115" fill="#000000" font-size="5px" font-weight="bold" font-family="'Helvetica Neue', Helvetica, Arial-Unicode, Arial, Sans-serif">Created by Made by Made</text><text x="0" y="120" fill="#000000" font-size="5px" font-weight="bold" font-family="'Helvetica Neue', Helvetica, Arial-Unicode, Arial, Sans-serif">from the Noun Project</text></svg>