<svg xmlns="http://www.w3.org/2000/svg" viewBox="0 0 150 187.5" x="0px" y="0px"><title>Artboard 26 copy 19</title><g data-name="Layer 7"><path d="M122.48,59.91224,78.753,36.50621a7.93869,7.93869,0,0,0-7.50606,0l-43.72724,23.406A4.77161,4.77161,0,0,0,27.52,68.326l11.17707,5.98284V87.1996a7.93943,7.93943,0,0,0,4.19975,7.01149l4.87418,2.609v6.51942l-4.43251,7.67738a2.28,2.28,0,0,0,1.97457,3.42h8.09708a2.28,2.28,0,0,0,1.97457-3.42l-4.43259-7.67754V98.52283L71.247,109.386a7.93869,7.93869,0,0,0,7.50606,0l28.35042-15.1749a7.93943,7.93943,0,0,0,4.19975-7.01149V74.30871L122.48,68.326a4.77147,4.77147,0,0,0,0-8.41379ZM46.87384,111.25582l2.48781-4.3091,2.48781,4.3091ZM44.39795,91.40649a4.76364,4.76364,0,0,1-2.51973-4.2069V76.01165L47.771,79.16589V93.212Zm63.72414-4.2069a4.76364,4.76364,0,0,1-2.51973,4.2069l-28.35042,15.1749a4.76509,4.76509,0,0,1-4.50388,0L50.95216,94.91473v-14.046L71.247,91.73206a7.94808,7.94808,0,0,0,2.16247.76825v10.24386a1.59056,1.59056,0,1,0,3.18111,0V92.50031a7.94808,7.94808,0,0,0,2.16247-.76825l29.36906-15.72057Zm12.85679-21.67816-43.72693,23.406a4.76509,4.76509,0,0,1-4.50388,0L52.3955,78.03324,75.10065,66.16511A1.59072,1.59072,0,0,0,73.6269,63.3456L49.00221,76.21684,29.02112,65.52144a1.59049,1.59049,0,0,1,0-2.8046l43.72693-23.406a4.76509,4.76509,0,0,1,4.50388,0l43.72662,23.406a1.59035,1.59035,0,0,1,.00031,2.8046Z"/></g><text x="0" y="165" fill="#000000" font-size="5px" font-weight="bold" font-family="'Helvetica Neue', Helvetica, Arial-Unicode, Arial, Sans-serif">Created by Victoria</text><text x="0" y="170" fill="#000000" font-size="5px" font-weight="bold" font-family="'Helvetica Neue', Helvetica, Arial-Unicode, Arial, Sans-serif">from the Noun Project</text></svg>