<svg xmlns="http://www.w3.org/2000/svg" xmlns:xlink="http://www.w3.org/1999/xlink" version="1.1" x="0px" y="0px" viewBox="0 0 98.4 125" enable-background="new 0 0 98.4 100" xml:space="preserve"><path fill="#000000" d="M96.111,21.34H70.566l2.525-16.345l8.749,1.721c1.249,0.235,2.444-0.565,2.688-1.803  c0.243-1.24-0.563-2.445-1.804-2.688L71.637,0.043c-0.612-0.121-1.244,0.016-1.756,0.374c-0.51,0.357-0.852,0.907-0.948,1.524  L65.937,21.34H41.695c-1.265,0-2.288,1.023-2.288,2.289v9.356c0,1.265,1.023,2.289,2.288,2.289h1.964l0.608,6.025  c-3.075-0.505-6.583-0.793-10.597-0.793c-31.845,0-32.211,18.14-32.211,18.912c0,1.811,0.666,3.488,1.79,4.896  c-3.658,5.936-4.28,11.028-1.598,14.119c0.851,0.981,1.984,1.638,3.305,2.038c-0.228,1.7-0.252,3.694,0.168,5.812  c-1.471,1.015-2.443,2.742-2.443,4.699v3.368c0,3.115,2.456,5.649,5.473,5.649h51.024c2.791,0,5.074-2.17,5.41-4.954h21.446  c1.176,0,2.159-0.89,2.277-2.059l5.832-57.714h1.967c1.265,0,2.289-1.023,2.289-2.289v-9.356C98.4,22.363,97.376,21.34,96.111,21.34  z M43.983,25.917h49.84v4.78h-1.748H45.729h-1.745V25.917z M33.67,45.082c27.03,0,27.62,13.773,27.631,14.335  c0,2.364-2.867,4.362-6.262,4.362H12.297c-3.395,0-6.262-1.998-6.262-4.34C6.047,58.854,6.637,45.082,33.67,45.082z M6.876,67.111  c1.6,0.771,3.437,1.245,5.421,1.245H55.04c1.995,0,3.841-0.479,5.448-1.256c2.639,4.489,2.635,7.271,1.702,8.335  c-1.213,1.381-5.039,1.476-10.873-1.441c-4.925-2.46-8.648-0.5-11.643,1.08c-1.951,1.029-3.794,2.002-6.004,2.002  c-2.21,0-4.054-0.973-6.007-2.002c-2.994-1.578-6.713-3.538-11.643-1.08c-5.824,2.914-9.741,2.791-10.912,1.439  C4.114,74.287,4.359,71.333,6.876,67.111z M9.598,85.331c-0.319-1.649-0.272-3.218-0.071-4.536c2.539-0.271,5.421-1.146,8.541-2.706  c2.688-1.348,4.411-0.575,7.462,1.034c2.25,1.187,4.798,2.529,8.141,2.529c3.343,0,5.891-1.343,8.141-2.529  c3.048-1.604,4.767-2.385,7.459-1.034c3.152,1.575,6.026,2.46,8.545,2.732c0.198,1.323,0.243,2.876-0.074,4.51H9.598z   M59.179,95.423H8.154c-0.494,0-0.896-0.48-0.896-1.072v-3.368c0-0.592,0.402-1.074,0.896-1.074h51.024  c0.498,0,0.902,0.482,0.902,1.074v1.764c0,0.004-0.002,0.007-0.002,0.011c0,0.005,0.002,0.007,0.002,0.012v1.582  C60.081,94.942,59.677,95.423,59.179,95.423z M83.966,90.469H64.606c-0.154-1.741-1.053-3.263-2.394-4.186  c0.42-2.107,0.398-4.09,0.172-5.797c1.288-0.404,2.396-1.062,3.25-2.036c2.692-3.079,2.098-8.19-1.526-14.166  c1.11-1.403,1.77-3.07,1.77-4.867c0-0.621-0.252-12.469-16.904-17.086l-0.713-7.057h41.283L83.966,90.469z"/><text x="0" y="115" fill="#000000" font-size="5px" font-weight="bold" font-family="'Helvetica Neue', Helvetica, Arial-Unicode, Arial, Sans-serif">Created by Jaclyne Ooi</text><text x="0" y="120" fill="#000000" font-size="5px" font-weight="bold" font-family="'Helvetica Neue', Helvetica, Arial-Unicode, Arial, Sans-serif">from the Noun Project</text></svg>