<svg xmlns="http://www.w3.org/2000/svg" data-name="Layer 1" viewBox="0 0 64 80" x="0px" y="0px"><title>x</title><path d="M15.29,63.44a13.9,13.9,0,0,1-4.54-.73,7.59,7.59,0,0,1-3.32-13A15.47,15.47,0,0,1,15,45.38a17.72,17.72,0,0,1,2.13-.4V17.34A9.7,9.7,0,0,1,24.29,8L50.88.78A6.44,6.44,0,0,1,59,7V41.51a10.19,10.19,0,0,1-2.54,6.89,14.06,14.06,0,0,1-7.35,4.39,15.36,15.36,0,0,1-8.76-.19,8.08,8.08,0,0,1-5.53-5.48A8.06,8.06,0,0,1,37,39.65a15.36,15.36,0,0,1,7.59-4.37,16,16,0,0,1,2.13-.41V18.92L29.39,23.64v28a10.22,10.22,0,0,1-2.53,6.77,13.91,13.91,0,0,1-7.35,4.5A17,17,0,0,1,15.29,63.44ZM52.56,4a2.86,2.86,0,0,0-.77.1L25.2,11.35a6.22,6.22,0,0,0-4.58,6v30a1,1,0,0,1-1,1l-.72,0a13.41,13.41,0,0,0-3,.42A11.93,11.93,0,0,0,10,52.09a4.71,4.71,0,0,0-1.43,4.28,4.72,4.72,0,0,0,3.31,3.06,12.06,12.06,0,0,0,6.76.11,10.57,10.57,0,0,0,5.55-3.36,6.84,6.84,0,0,0,1.72-4.48V21.75a1,1,0,0,1,.74-1L49,14.73a1,1,0,0,1,1.27,1V37.19a1,1,0,0,1-1,1l-.71,0a13.43,13.43,0,0,0-3,.43A11.88,11.88,0,0,0,39.61,42a4.75,4.75,0,0,0-1.43,4.28,4.74,4.74,0,0,0,3.32,3.06,11.84,11.84,0,0,0,6.75.11,10.61,10.61,0,0,0,5.56-3.27,6.73,6.73,0,0,0,1.72-4.58V7a3,3,0,0,0-3-3Z"/><text x="0" y="79" fill="#000000" font-size="5px" font-weight="bold" font-family="'Helvetica Neue', Helvetica, Arial-Unicode, Arial, Sans-serif">Created by Arafat Uddin</text><text x="0" y="84" fill="#000000" font-size="5px" font-weight="bold" font-family="'Helvetica Neue', Helvetica, Arial-Unicode, Arial, Sans-serif">from the Noun Project</text></svg>