<svg xmlns="http://www.w3.org/2000/svg" viewBox="0 0 100 125" x="0px" y="0px"><title>Ecommerce RTE</title><g data-name="Layer 2"><path d="M82.31757,52.75989A21.5,21.5,0,0,0,51.91193,22.35431l.00213-.00214-1.91418,1.90955L48.08539,22.352l.0022.0022A21.49986,21.49986,0,0,0,17.68243,52.75989l.00476.00476,3.63965,3.62012-.00213-.00208L48.23486,83.21277a2.49636,2.49636,0,0,0,3.53028,0L78.67529,56.38269l-.00213.00208,3.63965-3.62012Zm-7.17041.07989-.00214.00208L50,77.912,24.855,52.84186l-.00214-.00208-3.63513-3.6156A16.49988,16.49988,0,1,1,44.55206,25.88983l.0022.0022,3.68018,3.6709a2.497,2.497,0,0,0,3.53118-.00012l3.67969-3.6709.00214-.00214A16.50007,16.50007,0,0,1,78.78229,49.22418Z"/></g><text x="0" y="115" fill="#000000" font-size="5px" font-weight="bold" font-family="'Helvetica Neue', Helvetica, Arial-Unicode, Arial, Sans-serif">Created by Anthony Ledoux</text><text x="0" y="120" fill="#000000" font-size="5px" font-weight="bold" font-family="'Helvetica Neue', Helvetica, Arial-Unicode, Arial, Sans-serif">from the Noun Project</text></svg>