<svg xmlns="http://www.w3.org/2000/svg" xmlns:xlink="http://www.w3.org/1999/xlink" version="1.1" x="0px" y="0px" viewBox="0 0 1024 1280" style="enable-background:new 0 0 1024 1024;" xml:space="preserve"><g><g><path d="M179,732c0,15.5-12.5,28-28,28h-34c-15.5,0-28-12.5-28-28V292c0-15.5,12.5-28,28-28h34    c15.5,0,28,12.5,28,28V732z"/><g><path d="M159,732.1c0,0.5,0,0.9,0,1.4c-0.2,1.8-0.1,1.8,0.1,0.1c0.1-0.4,0.1-0.9,0.2-1.3c-0.2,0.9-0.4,1.8-0.7,2.6     c-0.6,3.2,0-1.7,0.6-1.1c0.1,0.1-1,2-1.2,2.3c-0.2,0.4-0.5,0.7-0.7,1.1c-1,1.4-1,1.4,0,0.1c0.3-0.3,0.5-0.7,0.8-1     c-0.6,0.7-1.2,1.3-1.8,1.9c-2.1,2.4,0.9-1.4,1-0.6c0.1,0.3-3.1,1.9-3.3,2.1c-3.3,2.1,1.1-0.7,1.1-0.4c0,0.2-2.9,0.8-3.2,0.9     c-2.6,0.9,5,0,0.6-0.1c-0.5,0-1,0-1.4,0c-1.2,0-2.5,0-3.7,0c-10,0-20,0.2-29.9,0c-0.8,0-1.6-0.1-2.4-0.1c-2.7,0,4.6,1.5,0.6,0     c-0.4-0.1-2.4-0.8-2.6-0.8c0.5-0.2,4.1,2.3,1.1,0.4c-0.7-0.4-1.5-0.9-2.3-1.3c-3.4-1.8,1.5,2.2,0.4,0.3c-0.5-0.4-1-0.9-1.4-1.4     c-1.1-1.3-1.2-1.3-0.1,0c0.3,0.3,0.5,0.7,0.8,1c-0.5-0.7-1-1.4-1.4-2.2c-0.2-0.3-1.3-2.2-1.2-2.3c0.6-0.6,1.2,4.3,0.6,1.1     c-0.1-0.4-0.2-0.9-0.4-1.3c-0.3-1.8-0.4-1.8-0.1,0c0.1,0.4,0.1,0.9,0.2,1.3c-0.1-0.9-0.1-1.8-0.1-2.8c0,0,0,0,0,0     c0,0,0-0.1,0-0.1c0-1.9,0-3.7,0-5.6c0-28.7,0-57.3,0-86c0-47.1,0-94.2,0-141.3c0-45.5,0-90.9,0-136.4c0-23.2-0.2-46.4,0-69.7     c0-0.6,0-1.1,0-1.7c0.1-4.3-0.1,0.6-0.2,0.5c-0.1,0,0.7-2.8,0.7-2.6c0.9-3.9-0.3,1.3-0.6,1.1c-0.2-0.2,1.4-2.6,1.6-2.9     c1.9-3.7-0.2,0.7-0.4,0.4c0-0.1,1.9-2,1.8-1.9c2.6-3-0.9,1-1,0.6c-0.1-0.4,2.8-1.7,3.3-2.1c3.5-2.3-3.1,0.7-0.5,0.2     c0.3-0.1,3.2-1,3.2-0.9c0,0-5.1,0.3,0.2,0.2c1.3,0,2.7,0,4,0c5.6,0,11.3,0,16.9,0c4.2,0,8.5-0.1,12.7,0c0.6,0,3-0.2,3.1,0.1     c0.1,0.3-5.2-1.3-1.3,0c-0.2-0.1,2.6,0.7,2.6,0.8c0,0.4-4.1-2.5-0.6-0.1c0.3,0.2,2.8,1.5,2.8,1.7c-0.1,0.4-3.6-3.6-1-0.6     c0.5,0.4,0.9,0.9,1.4,1.4c1,1.1,0.6,0.6-1.1-1.5c0.1,0,1.2,1.9,1.4,2.2c0.2,0.4,0.4,0.8,0.6,1.1c0.8,1.6,0.8,1.6,0.1,0     c-0.2-0.4-0.3-0.8-0.5-1.2c0.3,0.8,0.6,1.7,0.8,2.6c0.7,1.9-0.7,1.9,0-1.3c-0.2,0.8,0.1,2.1,0.1,2.9c0,0.6,0,1.2,0,1.8     c0.1,25.1,0,50.1,0,75.2c0,45.9,0,91.9,0,137.8c0,46.6,0,93.2,0,139.9c0,27.1,0,54.2,0,81.4C159,729.5,159,730.8,159,732.1     c0,10.5,9.2,20.5,20,20c10.8-0.5,20-8.8,20-20c0-20.2,0-40.5,0-60.7c0-45.8,0-91.6,0-137.3c0-49,0-98,0-146.9     c0-29.8,0-59.6,0-89.4c0-1.8,0-3.7,0-5.5c-0.4-21.5-15-41.9-36.5-46.7c-11.5-2.6-24.1-1.4-35.7-1.4c-3.7,0-7.4-0.2-11.1,0     c-12.6,0.7-24.7,5.7-33.4,15c-8.8,9.3-13.1,21.5-13.2,34.2c0,2.9,0,5.7,0,8.6c0,12.8,0,25.5,0,38.3c0,43.9,0,87.8,0,131.7     c0,49.8,0,99.5,0,149.3c0,33.3,0,66.6,0,99.9c0,13,0,25.4,7.6,37c6.8,10.3,17.4,18.3,29.6,20.9c5.8,1.2,11.3,1.2,17.1,1.2     c9.9,0,20,0.6,29.8-0.1c25.7-1.9,45.3-22,45.9-47.9c0.3-10.5-9.4-20.5-20-20C167.9,712.6,159.3,720.9,159,732.1z"/></g></g><g><path d="M844,600.1c0,15.5-12.5,27.9-28,27.9H208c-15.5,0-28-12.5-28-27.9v-88c0-15.5,12.5-28.1,28-28.1h608    c15.5,0,28,12.6,28,28.1V600.1z"/><g><path d="M824,600.1c0,0.7-0.1,1.4-0.1,2.1c0,2.2,0.1-1.8,0.3-1.9c-0.2,0.2-0.6,2.2-0.7,2.6     c-0.3,1.5,0.3,1.5,0.1,0.1c-0.2-1.4,0.8-1.4-0.1,0c-0.3,0.6-0.7,1.1-1,1.7c-0.9,1.6-2,1.2-0.3,0.6c0.9-1.1,1-1.3,0.3-0.5     c-0.3,0.3-0.6,0.6-0.9,0.9c-0.1,0.1-1.4,1.4-1.4,1.3c-0.4-0.3,3.6-2,1.5-1.1c-0.6,0.2-3.7,2.6-4,2.3c-0.2-0.2,4-1.3,1.7-0.8     c-0.6,0.1-1.3,0.4-1.9,0.6c-1.9,0.6-0.6,0.7,0,0.1c1.8-0.2,1.7-0.2-0.1-0.1c-0.5,0-0.9,0-1.4,0c-0.5,0-1,0-1.5,0     c-3.9,0-7.8,0-11.7,0c-17.8,0-35.5,0-53.3,0c-27.6,0-55.1,0-82.7,0c-33.7,0-67.3,0-101,0c-35.5,0-71,0-106.5,0     c-33.6,0-67.1,0-100.7,0c-27.8,0-55.6,0-83.4,0c-17.8,0-35.7,0-53.5,0c-4,0-8,0-12,0c-0.6,0-1.1,0-1.7,0c-0.8,0-2-0.3-2.8-0.1     c2.8-0.7,3.4,0.7,1.3,0c-0.6-0.2-1.3-0.4-1.9-0.6c-2.3-0.4,1.9,0.6,1.7,0.8c-0.1,0.1-1.6-0.8-1.8-0.9c-0.7-0.4-1.5-1-2.2-1.4     c-1.9-0.9,2.2,2.4,1,0.7c-0.3-0.5-1-1-1.4-1.4c-1.2-1.1-1.2-0.4-0.1,0c1.2,0.4,0.8,1.4,0-0.1c-0.4-0.7-0.9-1.5-1.3-2.3     c-1.8-2.9,0.8,3.3,0-0.1c-0.1-0.6-0.3-1.3-0.5-2c-0.8-2.2,0.1,4.3,0.1,0.6c0-26.8,0-53.7,0-80.5c0-3.4,0-6.9,0-10.3     c0-3.7-1,3.3,0.1-0.1c0.2-0.6,0.4-1.3,0.6-1.9c0.5-2.5-2,3.2-0.5,1.1c0.7-1,1.5-2.3,2-3.4c1-2-0.9,1.7-1.1,1.5     c-0.1-0.1,1.7-1.7,1.8-1.9c2.6-3-0.9,1-1,0.6c0-0.1,1.5-1,1.6-1.1c0.6-0.3,1.2-0.6,1.7-1c1.4-0.9,1.4,0.1,0-0.1     c-0.4,0.2-0.8,0.3-1.2,0.5c0.6-0.2,1.3-0.4,1.9-0.6c0.4-0.1,1.7-0.2,2-0.5c-0.1,0.1-4.1,0.2-1.9,0.3c0.7,0,1.4-0.1,2.1-0.1     c2,0,4.1,0,6.1,0c14.8,0,29.5,0,44.3,0c25.5,0,51.1,0,76.6,0c32.6,0,65.2,0,97.8,0c35.4,0,70.8,0,106.1,0c34.4,0,68.8,0,103.2,0     c29.6,0,59.2,0,88.8,0c20.6,0,41.2,0,61.7,0c7.8,0,15.6-0.2,23.4,0c0.7,0,1.4,0.1,2.1,0.1c2.2,0-1.8-0.1-1.9-0.3     c0.2,0.3,1.6,0.4,2,0.5c0.2,0.1,0.4,0.1,0.6,0.2c1.7,0.6,1.7,0.6,0.1-0.1c-1.4,0.2-1.4-0.8,0,0.1c0.6,0.3,1.1,0.7,1.7,1     c0.1,0.1,1.7,1,1.6,1.1c-0.1,0.2-3.2-3.1-1-0.6c-0.1-0.1,1.8,1.8,1.8,1.9c-0.2,0.3-2.1-3.5-1.1-1.5c0.5,1.1,1.3,2.4,2,3.4     c1.5,2.1-1-3.6-0.5-1.1c0.1,0.6,0.4,1.3,0.6,1.9c0.2,0.7,0.3,2.8,0.1,0c-0.2-3.1-0.1,0.2,0,0.8c0.1,3.3,0,6.6,0,9.9     c0,16.2,0,32.4,0,48.6C824,579.9,824,590,824,600.1c0,10.5,9.2,20.5,20,20c10.8-0.5,20-8.8,20-20c0-27.1,0-54.1,0-81.2     c0-6,0-11.6-1.2-17.6c-3.5-16.9-17.5-31-34-35.5c-5.9-1.6-11.7-1.7-17.6-1.7c-14.4,0-28.8,0-43.3,0c-25.9,0-51.8,0-77.7,0     c-33.3,0-66.6,0-100,0c-36.2,0-72.4,0-108.7,0c-35,0-70.1,0-105.1,0c-29.7,0-59.3,0-89,0c-20.1,0-40.2,0-60.2,0     c-14.7,0-29.4-1.2-42.8,6.2c-15.1,8.4-24,24.7-24.3,41.8c-0.1,3.4,0,6.8,0,10.2c0,16.8,0,33.6,0,50.4c0,12.7-1.6,27,1.5,39.5     c5.4,21.6,25.7,35.8,47.5,35.9c11,0.1,22,0,33,0c23.5,0,47,0,70.5,0c31.8,0,63.6,0,95.4,0c36,0,72.1,0,108.1,0     c35.7,0,71.4,0,107.2,0c31.4,0,62.7,0,94.1,0c22.8,0,45.6,0,68.3,0c10,0,20,0.2,30,0c26.7-0.4,47.8-21.3,48.4-48     c0.3-10.5-9.4-20.5-20-20C832.9,580.6,824.3,588.9,824,600.1z"/></g></g><g><path d="M935,732c0,15.5-12.5,28-28,28h-34c-15.5,0-28-12.5-28-28V512c0-15.5,12.5-28,28-28h34    c15.5,0,28,12.5,28,28V732z"/><g><path d="M915,732.1c0,0.5,0,0.9,0,1.4c-0.2,2.3-0.1,1.8,0.2-1.2c0.2,0.1-0.8,2.9-0.9,3.2c-0.5,2.6,2.5-4.1,0.2-0.5     c-0.5,0.8-1.3,1.9-1.7,2.8c-0.8,2.1,3.3-3.1,0.3-0.5c-0.3,0.3-0.6,0.6-0.9,0.9c-1.6,1.4-1.3,1.2,1-0.6c0,0.1-2.3,1.5-2.2,1.4     c-0.8,0.4-1.5,0.9-2.3,1.2c2.6-1,3.1-1.3,1.7-0.8c-0.3,0.1-3.2,1-3.2,0.9c0.9-0.1,1.7-0.2,2.6-0.3c-0.9,0.1-1.8,0.1-2.8,0.1     c-0.3,0-0.6,0-0.9,0c-2.3,0-4.7,0-7,0c-6.6,0-13.2,0-19.8,0c-1.9,0-3.8,0-5.7,0c-0.7,0-1.3,0-2,0c-4.6,0.1,4.2,1.3-0.1-0.1     c-0.7-0.2-1.3-0.3-1.9-0.6c-1.4-0.5-0.9-0.2,1.7,0.8c-0.2,0.2-3.1-1.7-3.4-1.9c-3.4-1.9,1.2,0.6,0.9,0.8     c-0.1,0.1-2.8-2.7-2.8-2.8c0.4-0.5,2.3,3.7,0.8,0.9c-0.2-0.3-2.1-3.2-1.9-3.4c-0.1,0.1,1.5,4.4,0.4,0.4c-1.1-3.9-0.5,0.5-0.2,0.7     c-0.1,0-0.1-2.8-0.1-2.8c0-1,0-2,0-3c0-6.4,0-12.8,0-19.2c0-51.2,0-102.4,0-153.6c0-14.5-0.2-29.1,0-43.6c0-0.2,0-0.4,0-0.6     c0-0.5,0-0.9,0-1.4c0.2-1.8,0.1-1.8-0.1-0.1c-0.1,0.4-0.1,0.9-0.2,1.3c0.2-0.9,0.4-1.8,0.7-2.6c0.7-3.9-1.8,2.2-0.3,0.5     c0.4-0.4,1.8-4,2.4-3.9c-0.3,0-3,3.4-0.2,0.6c2.8-2.8-0.6-0.1-0.6,0.2c-0.1-0.4,3-1.9,3.3-2.1c2.7-1.7-1.1,1-1.1,0.4     c0-0.2,3.9-1.1,3.9-1.1c0.1,0.3-5.3,0.2-1.2,0.2c0.8,0,1.5,0,2.3,0c10.9-0.1,21.8-0.2,32.7,0c0.5,0,3-0.2,3.1,0.1     c0.2,0.4-5.2-1.4-1.3,0c0.4,0.1,0.9,0.2,1.3,0.4c2.1,0.7,1.7,0.5-1.1-0.6c0.1-0.1,2,1,2.3,1.2c0.4,0.2,0.7,0.5,1.1,0.7     c1.8,1.2,1.4,1-0.9-0.8c0.2-0.2,2,2.1,2.3,2.3c1,1.1,0.6,0.6-1.1-1.5c0.5,0.7,1,1.4,1.4,2.2c-0.1-0.1,1.3,2.2,1.2,2.3     c-0.3-0.8-0.7-1.6-1-2.3c0.3,0.8,0.6,1.7,0.8,2.6c1.5,4,0.1-3.3,0-0.6c0-0.3,0.1,3.3,0.1,2.1c0,0.3,0,0.6,0,0.8     c0,5.1,0,10.1,0,15.2c0,22.7,0,45.5,0,68.2c0,44.4,0,88.8,0,133.2C915,730.4,915,731.2,915,732.1c0,10.5,9.2,20.5,20,20     c10.8-0.5,20-8.8,20-20c0-41.5,0-83,0-124.5c0-25.3,0-50.5,0-75.8c0-6.1,0-12.2,0-18.3c-0.1-18.6-9.8-36.9-27.3-44.7     c-14.5-6.4-30.4-4.8-45.9-4.8c-7.1,0-14-0.2-20.9,1.5c-12.9,3.2-24.7,12.6-30.6,24.6c-7.8,16-5.3,36.3-5.3,53.7     c0,53.8,0,107.6,0,161.4c0,7.6,0,15.1,0,22.7c0,13.3,3.3,25.2,11.9,35.7c8.8,10.7,22.6,16.2,36.1,16.5c4.8,0.1,9.7,0,14.5,0     c6.2,0,12.4,0,18.6,0c12.2-0.1,23.1-4.1,32.4-11.9c10.6-8.9,16.2-22.4,16.5-36.1c0.3-10.5-9.4-20.5-20-20     C923.9,712.6,915.3,720.9,915,732.1z"/></g></g><g><path d="M390,456.1c0,15.5-12.5,27.9-28,27.9H254c-15.5,0-28-12.5-28-27.9v-28c0-15.5,12.5-28.1,28-28.1h108    c15.5,0,28,12.6,28,28.1V456.1z"/><g><path d="M370,456.1c0,0.7-0.1,1.4-0.1,2.1c0,2.2,0.1-1.8,0.3-1.9c-0.2,0.2-1.2,3.6-1.1,3.9     c-0.1-0.3,1.9-3.4,0.7-1.7c-0.4,0.5-0.6,1.2-0.9,1.7c-0.3,0.5-0.8,1.1-1.1,1.7c-0.9,1.9,2.4-2.2,0.7-1c-0.5,0.3-1,1-1.4,1.4     c-1.1,1.2-0.4,1.2,0,0.1c0.4-1.2,1.4-0.8-0.1,0c-0.6,0.3-1.1,0.7-1.7,1c-0.1,0.1-1.7,1-1.8,0.9c-0.2-0.2,4-1.3,1.7-0.8     c-0.6,0.1-1.3,0.4-1.9,0.6c-2.7,0.9,0.3-0.4,1.3,0c-2-0.7-6.8,0.1-8.9,0.1c-13.5,0-26.9,0-40.4,0c-15.5,0-31,0-46.4,0     c-4.4,0-8.7,0-13.1,0c-0.7,0-1.3,0-2,0c-0.7,0-1.4-0.1-2.1-0.1c-2.2,0,1.8,0.1,1.9,0.3c-0.2-0.2-3.6-1.2-3.9-1.1     c0.3-0.1,3.4,1.9,1.7,0.7c-0.5-0.4-1.2-0.6-1.7-0.9c-0.5-0.3-1.1-0.8-1.7-1.1c-1.9-0.9,2.2,2.4,1,0.7c-0.3-0.5-1-1-1.4-1.4     c-1.2-1.1-1.2-0.4-0.1,0c1.2,0.4,0.8,1.4,0-0.1c-0.3-0.6-0.7-1.1-1-1.7c-0.1-0.1-1-1.7-0.9-1.8c0.2-0.2,1.3,4,0.8,1.7     c-0.1-0.6-0.4-1.3-0.6-1.9c-0.9-2.7,0.4,0.3,0,1.3c0.5-1.5-0.1-5.5-0.1-7.2c0-7.3,0-14.5,0-21.8c0-0.6,0-1.2,0-1.8     c0-0.7,0.1-1.4,0.1-2.1c0-2.2-0.1,1.8-0.3,1.9c0.3-0.2,0.4-1.6,0.5-2c0.1-0.4,0.2-0.9,0.4-1.3c0.4-1,0.3-0.9-0.3,0.5     c0.2,1.4-0.8,1.4,0.1,0c0.3-0.6,0.7-1.1,1-1.7c0.1-0.1,1-1.7,1.1-1.6c0.5,0.1-3,2.9-1.1,1.5c0.5-0.3,1-1,1.4-1.4     c1.1-1.2,0.4-1.2,0-0.1c-0.4,1.2-1.4,0.8,0.1,0c0.8-0.4,1.5-0.9,2.3-1.3c2.9-1.8-3.3,0.8,0.1,0c0.6-0.1,1.4-0.3,2-0.5     c2-0.7-1.7,0.3-2,0.2c0.8,0.3,2.1-0.1,3-0.1c1,0,2,0,3.1,0c28.2,0,56.5,0,84.7,0c5.3,0,10.6,0,15.9,0c1.2,0,2.4,0,3.6,0     c0.2,0,0.3,0,0.5,0c0.7,0,4.7,0.2,1.5,0c-3.7-0.3,2.4,1,2.6,0.9c-0.3,0.1-3.4-1.9-1.7-0.7c0.5,0.4,1.2,0.6,1.7,0.9     c0.5,0.3,1.1,0.8,1.7,1.1c2,1-1.7-0.9-1.5-1.1c0.1-0.1,2.8,2.7,2.8,2.8c-0.2,0.3-2.1-3.5-1.1-1.5c0.4,0.7,0.9,1.5,1.4,2.2     c0.1,0.1,1,1.7,0.9,1.8c-0.2,0.2-1.3-4-0.8-1.7c0.2,0.8,0.9,5,0.7,1.9c-0.2-2.9,0,1,0,2.2c0.1,7.1,0,14.2,0,21.3     C370,452.1,370,454.1,370,456.1c0,10.5,9.2,20.5,20,20c10.8-0.5,20-8.8,20-20c0-17.2,2.5-36.8-6.6-52.2     c-8.6-14.7-24.6-23.4-41.5-23.8c-3-0.1-6.1,0-9.1,0c-31,0-62,0-92.9,0c-5.5,0-10.6,0.1-16,1.1c-17.1,3.1-31.1,17.1-36,33.5     c-2.6,8.6-1.9,18-1.9,26.9c0,8.8-0.6,18,1.5,26.6c4.1,16.5,18.3,30.8,35,34.5c5.7,1.3,11.2,1.4,16.9,1.4c14.9,0,29.7,0,44.6,0     c16.1,0,32.2,0,48.3,0c3.2,0,6.5,0.1,9.7,0c16.8-0.3,32.3-8.8,41.2-23.2c4.6-7.4,6.7-16.1,6.9-24.8c0.3-10.5-9.4-20.5-20-20     C378.9,436.6,370.3,444.9,370,456.1z"/></g></g></g><text x="0" y="1039" fill="#000000" font-size="5px" font-weight="bold" font-family="'Helvetica Neue', Helvetica, Arial-Unicode, Arial, Sans-serif">Created by shashank singh</text><text x="0" y="1044" fill="#000000" font-size="5px" font-weight="bold" font-family="'Helvetica Neue', Helvetica, Arial-Unicode, Arial, Sans-serif">from the Noun Project</text></svg>