<?xml version="1.0" encoding="UTF-8" standalone="no"?>
<svg
   xmlns:dc="http://purl.org/dc/elements/1.1/"
   xmlns:cc="http://creativecommons.org/ns#"
   xmlns:rdf="http://www.w3.org/1999/02/22-rdf-syntax-ns#"
   xmlns:svg="http://www.w3.org/2000/svg"
   xmlns="http://www.w3.org/2000/svg"
   width="100"
   height="100"
   viewBox="0 0 100 100"
   id="svg4157"
   version="1.1">
  <defs
     id="defs4159" />
  <metadata
     id="metadata4162">
    <rdf:RDF>
      <cc:Work
         rdf:about="">
        <dc:format>image/svg+xml</dc:format>
        <dc:type
           rdf:resource="http://purl.org/dc/dcmitype/StillImage" />
        <dc:title></dc:title>
      </cc:Work>
    </rdf:RDF>
  </metadata>
  <g
     id="layer1"
     transform="translate(0,2.2107222e-5)">
    <ellipse
       style="opacity:1;fill:none;fill-opacity:1;fill-rule:nonzero;stroke:#000000;stroke-width:8.0;stroke-linecap:round;stroke-linejoin:bevel;stroke-miterlimit:4;stroke-dasharray:none;stroke-dashoffset:0;stroke-opacity:1"
       id="path4705"
       cx="50"
       cy="50"
       rx="46"
       ry="46" />
  </g>
  <g
     id="g17198"
     transform="translate(-1.1,2.2107222e-5)">
    <path
       id="path17200"
       d="m 78.1,25.6 -2.7,-2.7 c -2.2,-2.2 -5.1,-3.4 -8.3,-3.4 -3.2,0 -6.1,1.2 -8.3,3.4 L 24,57.8 c -2.2,2.2 -3.4,5.1 -3.4,8.3 0,3.1 1.2,6.1 3.4,8.3 l 2.7,2.7 c 2.3,2.3 5.3,3.4 8.3,3.4 3,0 6,-1.1 8.3,-3.4 L 78.2,42.2 c 2.2,-2.2 3.4,-5.1 3.4,-8.3 0,-3.1 -1.3,-6.1 -3.5,-8.3 z m -26.8,39.2 -15,-15 14.6,-14.6 15,15 -14.6,14.6 z M 41.1,75 c -3.4,3.4 -8.9,3.4 -12.3,0 l -2.7,-2.7 c -1.6,-1.6 -2.5,-3.8 -2.5,-6.1 0,-2.3 0.9,-4.5 2.5,-6.1 l 8.1,-8.1 15,15 -8.1,8 z M 76,40 68,48.1 53,33.1 61,25 c 1.6,-1.6 3.8,-2.5 6.1,-2.5 2.3,0 4.5,0.9 6.1,2.5 l 2.7,2.7 c 1.6,1.6 2.5,3.8 2.5,6.1 0.2,2.4 -0.7,4.6 -2.4,6.2 z" />
    <circle
       id="ellipse17202"
       cy="42.5"
       cx="51.099998"
       transform="matrix(0.7071,-0.7071,0.7071,0.7071,-15.08,48.6135)"
       r="1.7" />
    <circle
       id="ellipse17204"
       cy="46.200001"
       cx="54.799999"
       transform="matrix(0.7071,-0.7071,0.7071,0.7071,-16.614,52.317)"
       r="1.7" />
    <circle
       id="ellipse17206"
       cy="49.900002"
       cx="58.5"
       transform="matrix(0.7071,-0.7071,0.7071,0.7071,-18.1482,56.0196)"
       r="1.7" />
    <circle
       id="ellipse17208"
       cy="46.299999"
       cx="47.400002"
       transform="matrix(0.7071,-0.7071,0.7071,0.7071,-18.8666,47.0442)"
       r="1.7" />
    <circle
       id="ellipse17210"
       cy="50"
       cx="51.099998"
       transform="matrix(0.7071,-0.7071,0.7071,0.7071,-20.4006,50.7495)"
       r="1.7" />
    <circle
       id="ellipse17212"
       cy="53.700001"
       cx="54.799999"
       transform="matrix(0.7071,-0.7071,0.7071,0.7071,-21.9346,54.4521)"
       r="1.7" />
    <circle
       id="ellipse17214"
       cy="50.099998"
       cx="43.599998"
       transform="matrix(0.7071,-0.7071,0.7071,0.7071,-22.6531,45.4775)"
       r="1.7" />
    <circle
       id="ellipse17216"
       cy="53.799999"
       cx="47.299999"
       transform="matrix(0.7071,-0.7071,0.7071,0.7071,-24.1871,49.1793)"
       r="1.7" />
    <circle
       id="ellipse17218"
       cy="57.5"
       cx="51"
       transform="matrix(0.7071,-0.7071,0.7071,0.7071,-25.7212,52.8837)"
       r="1.7" />
  </g>
</svg>
