<?xml version="1.0" encoding="UTF-8" standalone="no"?>
<svg
   xmlns:dc="http://purl.org/dc/elements/1.1/"
   xmlns:cc="http://creativecommons.org/ns#"
   xmlns:rdf="http://www.w3.org/1999/02/22-rdf-syntax-ns#"
   xmlns:svg="http://www.w3.org/2000/svg"
   xmlns="http://www.w3.org/2000/svg"
   width="100"
   height="100"
   viewBox="0 0 100 100"
   id="svg4157"
   version="1.1">
  <defs
     id="defs4159" />
  <metadata
     id="metadata4162">
    <rdf:RDF>
      <cc:Work
         rdf:about="">
        <dc:format>image/svg+xml</dc:format>
        <dc:type
           rdf:resource="http://purl.org/dc/dcmitype/StillImage" />
        <dc:title></dc:title>
      </cc:Work>
    </rdf:RDF>
  </metadata>
  <g
     id="layer1"
     transform="translate(0,2.2107222e-5)">
    <ellipse
       style="opacity:1;fill:none;fill-opacity:1;fill-rule:nonzero;stroke:#000000;stroke-width:8.0;stroke-linecap:round;stroke-linejoin:bevel;stroke-miterlimit:4;stroke-dasharray:none;stroke-dashoffset:0;stroke-opacity:1"
       id="path4705"
       cx="50"
       cy="50"
       rx="46"
       ry="46" />
  </g>
  <path
     id="path16541"
     d="M 59.713153,40.612666 C 58.328084,38.89318 57.538586,36.820317 57.426539,34.576797 l -0.734336,-8.87582 0.161174,0 c 0.334417,0 0.652457,-0.141351 0.877412,-0.387854 0.224955,-0.247365 0.334416,-0.577471 0.302526,-0.910164 l -0.339587,-3.541537 c -0.183585,-1.91686 -1.774647,-3.3614 -3.699265,-3.3614 l -7.987204,0 c -1.924617,0 -3.51568,1.445402 -3.699264,3.3614 l -0.339587,3.541537 c -0.03189,0.332693 0.07757,0.662799 0.302526,0.910164 0.224955,0.247364 0.542995,0.387854 0.877411,0.387854 l 0.161175,0 -0.738646,8.914606 c -0.108599,2.204734 -0.898097,4.277597 -2.283166,5.997083 -1.819466,2.256447 -2.820991,5.095538 -2.820991,7.994099 l 0,28.654644 c 0,2.88908 2.350394,5.238613 5.238613,5.238613 l 14.589339,0 c 2.88908,0 5.238613,-2.350394 5.238613,-5.238613 l 0,-2.818405 0,-23.017834 0,-2.818405 c 8.62e-4,-2.898561 -1.001525,-5.737652 -2.820129,-7.994099 z M 44.667009,21.087239 c 0.06637,-0.694689 0.642975,-1.217861 1.34025,-1.217861 l 7.987204,0 c 0.697276,0 1.273885,0.523172 1.340251,1.217861 l 0.215474,2.24352 -0.143936,0 -10.810781,0 -0.143937,0 0.215475,-2.24352 z m 12.62766,59.042565 -14.588477,0 c -1.581582,0 -2.868395,-1.286813 -2.868395,-2.868395 l 0,-28.654644 c 0,-2.359875 0.815355,-4.670622 2.296095,-6.507326 1.701386,-2.111649 2.671882,-4.659418 2.802029,-7.327853 l 0.751574,-9.071471 8.626732,0 0.748127,9.031824 c 0.133595,2.708082 1.104091,5.255851 2.805477,7.3675 1.48074,1.836704 2.296095,4.147451 2.296095,6.507326 l 0,1.633296 -14.734138,0 c -0.65418,0 -1.185109,0.530929 -1.185109,1.185109 l 0,23.017834 c 0,0.655042 0.530929,1.185109 1.185109,1.185109 l 14.734138,0 0,1.633296 c 0,1.581582 -1.287675,2.868395 -2.869257,2.868395 z m 2.869257,-6.871909 -13.549029,0 0,-20.647616 13.549029,0 0,20.647616 z" />
</svg>
