<?xml version="1.0" encoding="UTF-8" standalone="no"?>
<svg
   xmlns:dc="http://purl.org/dc/elements/1.1/"
   xmlns:cc="http://creativecommons.org/ns#"
   xmlns:rdf="http://www.w3.org/1999/02/22-rdf-syntax-ns#"
   xmlns:svg="http://www.w3.org/2000/svg"
   xmlns="http://www.w3.org/2000/svg"
   width="100"
   height="100"
   viewBox="0 0 100 100"
   id="svg4157"
   version="1.1">
  <defs
     id="defs4159" />
  <metadata
     id="metadata4162">
    <rdf:RDF>
      <cc:Work
         rdf:about="">
        <dc:format>image/svg+xml</dc:format>
        <dc:type
           rdf:resource="http://purl.org/dc/dcmitype/StillImage" />
        <dc:title></dc:title>
      </cc:Work>
    </rdf:RDF>
  </metadata>
  <g
     id="layer1"
     transform="translate(0,2.2107222e-5)">
    <ellipse
       style="opacity:1;fill:none;fill-opacity:1;fill-rule:nonzero;stroke:#000000;stroke-width:8.0;stroke-linecap:round;stroke-linejoin:bevel;stroke-miterlimit:4;stroke-dasharray:none;stroke-dashoffset:0;stroke-opacity:1"
       id="path4705"
       cx="50"
       cy="50"
       rx="46"
       ry="46" />
  </g>
  <g
     transform="matrix(0.61541904,0,0,0.61541904,60.879175,62.952804)"
     id="g15689">
    <path
       d="m -17.67867,-65.732093 c -24.678,0 -44.684,20.006 -44.684,44.684 0,24.6789999 20.006,44.686 44.684,44.686 24.6790005,0 44.686,-20.0070001 44.686,-44.686 0,-24.678 -20.0069995,-44.684 -44.686,-44.684 z m 0.001,67.6199999 c -12.459,0 -22.56,-10.101 -22.56,-22.5599999 0,-12.459 10.101,-22.559 22.56,-22.559 12.4590005,0 22.5600005,10.1 22.5600005,22.559 0,12.4589999 -10.101,22.5599999 -22.5600005,22.5599999 z"
       id="path15112" />
    <g
       transform="translate(-67.67767,-71.047093)"
       id="g15114">
      <path
         d="m 41.017,51.842 c 0.718,-1.289 1.77,-2.259 3.153,-2.91 -1.372,-0.911 -2.264,-1.897 -2.676,-2.959 -0.411,-1.061 -0.617,-2.054 -0.617,-2.979 0,-2.057 0.776,-3.812 2.329,-5.264 1.553,-1.452 3.745,-2.178 6.577,-2.178 2.832,0 5.024,0.726 6.577,2.178 1.553,1.452 2.329,3.207 2.329,5.264 0,0.925 -0.205,1.917 -0.615,2.979 -0.41,1.062 -1.299,1.982 -2.666,2.764 1.399,0.781 2.453,1.816 3.159,3.105 0.706,1.289 1.06,2.728 1.06,4.316 0,2.383 -0.883,4.411 -2.649,6.084 -1.766,1.673 -4.232,2.51 -7.399,2.51 -3.167,0 -5.565,-0.836 -7.195,-2.51 -1.629,-1.673 -2.443,-3.701 -2.443,-6.084 -0.002,-1.588 0.358,-3.027 1.076,-4.316 z m 5.788,7.187 c 0.723,0.769 1.722,1.152 2.998,1.152 1.276,0 2.275,-0.384 2.998,-1.152 0.723,-0.768 1.084,-1.849 1.084,-3.242 0,-1.445 -0.368,-2.542 -1.104,-3.291 -0.735,-0.749 -1.729,-1.123 -2.979,-1.123 -1.25,0 -2.243,0.375 -2.979,1.123 -0.735,0.749 -1.104,1.846 -1.104,3.291 0.002,1.394 0.363,2.474 1.086,3.242 z m 0.353,-12.89 c 0.634,0.651 1.512,0.977 2.635,0.977 1.136,0 2.014,-0.325 2.634,-0.977 0.62,-0.651 0.931,-1.491 0.931,-2.52 0,-1.12 -0.311,-1.995 -0.931,-2.627 -0.62,-0.631 -1.498,-0.947 -2.634,-0.947 -1.123,0 -2.001,0.316 -2.635,0.947 -0.633,0.632 -0.949,1.507 -0.949,2.627 0,1.029 0.316,1.869 0.949,2.52 z"
         id="path15116" />
    </g>
  </g>
</svg>
