<?xml version="1.0" encoding="UTF-8" standalone="no"?>
<svg
   xmlns:dc="http://purl.org/dc/elements/1.1/"
   xmlns:cc="http://creativecommons.org/ns#"
   xmlns:rdf="http://www.w3.org/1999/02/22-rdf-syntax-ns#"
   xmlns:svg="http://www.w3.org/2000/svg"
   xmlns="http://www.w3.org/2000/svg"
   width="100"
   height="100"
   viewBox="0 0 100 100"
   id="svg4157"
   version="1.1">
  <defs
     id="defs4159" />
  <metadata
     id="metadata4162">
    <rdf:RDF>
      <cc:Work
         rdf:about="">
        <dc:format>image/svg+xml</dc:format>
        <dc:type
           rdf:resource="http://purl.org/dc/dcmitype/StillImage" />
        <dc:title></dc:title>
      </cc:Work>
    </rdf:RDF>
  </metadata>
  <g
     id="layer1"
     transform="translate(0,2.2107222e-5)">
    <ellipse
       style="opacity:1;fill:none;fill-opacity:1;fill-rule:nonzero;stroke:#000000;stroke-width:8.0;stroke-linecap:round;stroke-linejoin:bevel;stroke-miterlimit:4;stroke-dasharray:none;stroke-dashoffset:0;stroke-opacity:1"
       id="path4705"
       cx="50"
       cy="50"
       rx="46"
       ry="46" />
  </g>
  <path
     id="path13759"
     d="m 73.987203,64.008551 0,3.070362 q 0,1.471216 -0.319829,2.558636 -0.31983,1.08742 -1.151386,1.727079 -0.831557,0.639658 -2.49467,0.639658 l 0,3.965885 q 0,1.663113 -1.183369,2.846482 -1.183369,1.183369 -2.846482,1.183369 -1.663113,0 -2.814498,-1.183369 -1.151386,-1.183369 -1.151386,-2.846482 l 0,-3.965885 -24.051172,0 0,3.965885 q 0,1.663113 -1.151385,2.846482 -1.151386,1.183369 -2.814499,1.183369 -1.663113,0 -2.846482,-1.183369 -1.183369,-1.183369 -1.183369,-2.846482 l 0,-3.965885 q -1.599147,0 -2.430704,-0.639658 -0.831556,-0.639659 -1.151386,-1.727079 -0.319829,-1.08742 -0.351812,-2.526653 -0.03198,-1.439232 -0.03198,-3.102345 l 0,-36.012793 q 0,-1.663113 0.639659,-3.102346 0.639659,-1.439232 1.727079,-2.526652 1.08742,-1.08742 2.526652,-1.727079 1.439233,-0.639659 3.102346,-0.639659 l 31.98294,0 q 1.663113,0 3.102346,0.639659 1.439232,0.639659 2.526652,1.727079 1.08742,1.08742 1.727079,2.526652 0.639659,1.439233 0.639659,3.102346 l 0,36.012793 z M 41.87633,23.965907 q -0.831556,0 -1.407249,0.575693 -0.575693,0.575693 -0.575693,1.407249 0,0.895523 0.575693,1.471216 0.575693,0.575693 1.407249,0.575693 l 16.247334,0 q 0.831556,0 1.407249,-0.575693 0.575693,-0.575693 0.575693,-1.471216 0,-0.831556 -0.575693,-1.407249 -0.575693,-0.575693 -1.407249,-0.575693 l -16.247334,0 z M 35.863537,64.64821 q 1.215352,0 2.078892,-0.86354 0.863539,-0.863539 0.863539,-2.078891 0,-1.215352 -0.863539,-2.078891 -0.86354,-0.86354 -2.078892,-0.86354 -1.279317,0 -2.110874,0.86354 -0.831556,0.863539 -0.831556,2.078891 0,1.215352 0.831556,2.078891 0.831557,0.86354 2.110874,0.86354 z m 28.017056,-0.127932 q 1.151386,0 1.95096,-0.831557 0.799573,-0.831556 0.799573,-1.982942 0,-1.151386 -0.799573,-1.982943 -0.799574,-0.831556 -1.95096,-0.831556 -1.215352,0 -2.014925,0.831556 -0.799574,0.831557 -0.799574,1.982943 0,1.151386 0.799574,1.982942 0.799573,0.831557 2.014925,0.831557 z m 6.140725,-32.558636 -40.042642,0 0,15.991472 40.042642,0 0,-15.991472 z"
     style="fill:#000000" />
</svg>
