<?xml version="1.0" encoding="UTF-8" standalone="no"?>
<svg
   xmlns:dc="http://purl.org/dc/elements/1.1/"
   xmlns:cc="http://creativecommons.org/ns#"
   xmlns:rdf="http://www.w3.org/1999/02/22-rdf-syntax-ns#"
   xmlns:svg="http://www.w3.org/2000/svg"
   xmlns="http://www.w3.org/2000/svg"
   width="100"
   height="100"
   viewBox="0 0 100 100"
   id="svg4157"
   version="1.1">
  <defs
     id="defs4159" />
  <metadata
     id="metadata4162">
    <rdf:RDF>
      <cc:Work
         rdf:about="">
        <dc:format>image/svg+xml</dc:format>
        <dc:type
           rdf:resource="http://purl.org/dc/dcmitype/StillImage" />
        <dc:title></dc:title>
      </cc:Work>
    </rdf:RDF>
  </metadata>
  <g
     id="layer1"
     transform="translate(0,2.2107222e-5)">
    <ellipse
       style="opacity:1;fill:none;fill-opacity:1;fill-rule:nonzero;stroke:#000000;stroke-width:8.0;stroke-linecap:round;stroke-linejoin:bevel;stroke-miterlimit:4;stroke-dasharray:none;stroke-dashoffset:0;stroke-opacity:1"
       id="path4705"
       cx="50"
       cy="50"
       rx="46"
       ry="46" />
  </g>
  <g
     id="g13117"
     transform="matrix(0.72222824,0,0,0.72222824,13.88846,13.894117)">
    <path
       id="path13119"
       d="M 73.684,36.223 C 73.679,36.185 73.676,36.144 73.67,36.108 72.966,31.205 68.013,26.76 61.066,24.577 61.97,22.209 62.052,19.448 61.183,16.61 59.686,11.72 57.006,8.5 52.228,5.843 51.735,5.568 51.267,5.339 50.795,5.142 c -0.478,-0.199 -1.014,-0.199 -1.491,0 -0.472,0.197 -0.94,0.426 -1.428,0.699 -4.811,2.674 -7.496,5.913 -8.978,10.829 -0.851,2.821 -0.767,5.558 0.126,7.904 -7.107,2.212 -12.122,6.685 -12.75,11.593 -0.081,0.637 -0.104,1.419 0.03,2.297 l 0,42.391 c 0,5.267 4.661,11.595 17.742,13.559 2.542,0.383 4.899,0.578 7.124,0.578 5.655,0 10.452,-1.262 15.238,-3.912 l 0,0 c 2.737,-1.514 7.281,-4.819 7.373,-10.058 0.002,-0.036 0.011,-0.071 0.011,-0.108 l 0,-44.076 c 0,-0.216 -0.043,-0.421 -0.108,-0.615 z M 42.605,17.789 c 1.179,-3.914 3.251,-6.395 7.155,-8.565 0.099,-0.055 0.195,-0.107 0.29,-0.157 0.096,0.051 0.194,0.103 0.293,0.159 3.877,2.155 5.945,4.622 7.137,8.517 0.339,1.108 1.054,4.28 -0.733,6.832 -0.06,0.072 -0.114,0.147 -0.164,0.229 -0.502,0.65 -1.17,1.255 -2.071,1.764 -0.021,0.012 -0.042,0.023 -0.061,0.037 -0.009,0.004 -0.018,0.009 -0.027,0.015 -3.271,1.809 -5.478,1.808 -8.756,-0.004 C 44.709,26.09 43.986,25.429 43.449,24.69 43.447,24.688 43.446,24.685 43.444,24.682 41.96,22.631 41.948,19.965 42.605,17.789 Z m -1.437,10.187 c 0.746,0.786 1.621,1.475 2.633,2.029 1.511,0.836 2.926,1.38 4.312,1.646 l 0,5.391 c 0,1.069 0.867,1.936 1.936,1.936 1.069,0 1.936,-0.867 1.936,-1.936 l 0,-5.391 c 1.386,-0.266 2.802,-0.811 4.312,-1.646 0.026,-0.014 0.052,-0.029 0.078,-0.045 0.014,-0.007 0.028,-0.015 0.042,-0.023 0.961,-0.543 1.794,-1.208 2.508,-1.961 5.892,1.605 10.405,5.149 10.912,8.681 0.466,3.248 -2.627,5.695 -5.305,7.177 -7.697,4.257 -20.455,4.383 -28.44,0.28 -3.423,-1.759 -5.465,-3.846 -5.916,-5.997 l 0,-1.125 c 0,-0.141 -0.017,-0.278 -0.046,-0.411 0.511,-3.536 4.966,-6.976 11.038,-8.605 z m 23.366,59.718 c 0,0 0,0 0,0 -0.001,10e-4 -0.001,10e-4 0,0 -5.941,3.288 -11.708,4.127 -19.911,2.892 -5.366,-0.805 -14.446,-3.762 -14.446,-9.73 l 0,-36.035 c 1.084,0.932 2.433,1.855 4.146,2.736 4.46,2.292 10.094,3.432 15.723,3.432 5.918,0 11.83,-1.261 16.362,-3.768 1.424,-0.788 2.573,-1.606 3.513,-2.43 l 0,36.025 c 0.032,3.501 -3.756,5.976 -5.387,6.878 z" />
  </g>
</svg>
