<?xml version="1.0" encoding="UTF-8" standalone="no"?>
<svg
   xmlns:dc="http://purl.org/dc/elements/1.1/"
   xmlns:cc="http://creativecommons.org/ns#"
   xmlns:rdf="http://www.w3.org/1999/02/22-rdf-syntax-ns#"
   xmlns:svg="http://www.w3.org/2000/svg"
   xmlns="http://www.w3.org/2000/svg"
   width="100"
   height="100"
   viewBox="0 0 100 100"
   id="svg4157"
   version="1.1">
  <defs
     id="defs4159" />
  <metadata
     id="metadata4162">
    <rdf:RDF>
      <cc:Work
         rdf:about="">
        <dc:format>image/svg+xml</dc:format>
        <dc:type
           rdf:resource="http://purl.org/dc/dcmitype/StillImage" />
        <dc:title></dc:title>
      </cc:Work>
    </rdf:RDF>
  </metadata>
  <g
     id="layer1"
     transform="translate(0,2.2107222e-5)">
    <ellipse
       style="opacity:1;fill:none;fill-opacity:1;fill-rule:nonzero;stroke:#000000;stroke-width:8.0;stroke-linecap:round;stroke-linejoin:bevel;stroke-miterlimit:4;stroke-dasharray:none;stroke-dashoffset:0;stroke-opacity:1"
       id="path4705"
       cx="50"
       cy="50"
       rx="46"
       ry="46" />
  </g>
  <path
     id="path21226"
     d="m 31.030535,49.278667 12.442748,0 0,30.458015 c 0,1.145038 0.91603,2.061069 2.061068,2.061069 l 8.931298,0 c 1.145038,0 2.061069,-0.916031 2.061069,-2.061069 l 0,-30.458015 12.442748,0 c 1.145038,0 2.061069,-0.916031 2.061069,-2.061069 l 0,-8.931298 c 0,-1.145038 -0.916031,-2.061068 -2.061069,-2.061068 l -12.366412,0 0,-12.366412 c 0,-1.145038 -0.91603,-2.061069 -2.061069,-2.061069 l -8.931298,0 c -1.145038,0 -2.061069,0.916031 -2.061069,2.061069 l 0,12.366412 -12.519083,0 c -1.14504,0 -2.06107,0.91603 -2.06107,2.061068 l 0,8.931298 c 0,1.145038 0.91603,2.061069 2.06107,2.061069 z" />
</svg>
