<?xml version="1.0" encoding="UTF-8" standalone="no"?>
<svg
   xmlns:dc="http://purl.org/dc/elements/1.1/"
   xmlns:cc="http://creativecommons.org/ns#"
   xmlns:rdf="http://www.w3.org/1999/02/22-rdf-syntax-ns#"
   xmlns:svg="http://www.w3.org/2000/svg"
   xmlns="http://www.w3.org/2000/svg"
   width="100"
   height="100"
   viewBox="0 0 100 100"
   id="svg4157"
   version="1.1">
  <defs
     id="defs4159" />
  <metadata
     id="metadata4162">
    <rdf:RDF>
      <cc:Work
         rdf:about="">
        <dc:format>image/svg+xml</dc:format>
        <dc:type
           rdf:resource="http://purl.org/dc/dcmitype/StillImage" />
        <dc:title></dc:title>
      </cc:Work>
    </rdf:RDF>
  </metadata>
  <g
     id="layer1"
     transform="translate(0,2.2107222e-5)">
    <ellipse
       style="opacity:1;fill:none;fill-opacity:1;fill-rule:nonzero;stroke:#000000;stroke-width:8.0;stroke-linecap:round;stroke-linejoin:bevel;stroke-miterlimit:4;stroke-dasharray:none;stroke-dashoffset:0;stroke-opacity:1"
       id="path4705"
       cx="50"
       cy="50"
       rx="46"
       ry="46" />
  </g>
  <g
     id="g12392"
     transform="matrix(1.3541464,0,0,1.3541464,14.792193,14.792214)">
    <g
       id="g12394">
      <path
         id="path12396"
         d="m 8.9710617,19.935394 c -0.2983398,0 -0.59375,-0.132812 -0.7910156,-0.387695 -0.3364263,-0.433594 -0.2592778,-1.058594 0.1713867,-1.397461 0.02832,-0.02344 0.828125,-0.69043 0.9194336,-1.713867 C 9.3392258,15.667816 8.9998703,14.839691 8.2620773,13.97348 7.3861003,13.191254 6.3680339,11.039887 8.3533859,7.9910589 8.6546555,7.5291448 9.2737961,7.3982854 9.737175,7.6990666 c 0.462402,0.3017573 0.593262,0.920898 0.291992,1.3837886 -1.510742,2.3203128 -0.5283201,3.3124998 -0.4111326,3.4189458 0.029785,0.02637 0.081055,0.07519 0.1074219,0.105468 1.1513667,1.325196 1.6674807,2.685547 1.5336917,4.044922 -0.183106,1.866211 -1.5234378,2.955078 -1.6757816,3.073242 -0.1821289,0.141602 -0.3979492,0.209961 -0.6123047,0.209961 z" />
    </g>
    <g
       id="g12398">
      <path
         id="path12400"
         d="m 3.772331,18.895355 c -0.3344727,0 -0.6616211,-0.167969 -0.8505859,-0.472656 C 2.631706,17.954926 2.7737959,17.341644 3.2381514,17.049652 3.2654952,17.031097 4.0164715,16.520355 4.0760418,15.830902 4.1292645,15.211761 3.6038741,14.572113 3.1356124,14.13266 2.8753585,13.936371 2.2029952,13.339691 2.0369796,12.292816 1.8694991,11.238129 2.2659835,10.112152 3.2156905,8.9451597 3.5648115,8.5154724 4.194694,8.4510193 4.6229167,8.8006287 5.0511394,9.1492615 5.1155925,9.7791443 4.767448,10.206879 c -0.5595703,0.6875 -0.8276365,1.317383 -0.7553711,1.772461 0.054199,0.342773 0.2993164,0.537109 0.3012695,0.539062 0.04834,0.03027 0.093262,0.06543 0.1352539,0.104492 1.184082,1.089844 1.7285156,2.235352 1.6176758,3.405274 -0.1586914,1.673828 -1.6035156,2.615234 -1.7680664,2.716797 -0.1640625,0.101562 -0.3461912,0.15039 -0.5258787,0.15039 z" />
    </g>
    <g
       id="g12402">
      <path
         id="path12404"
         d="m 39.800652,46.153168 -23.19629,0 c -2.756835,0 -4.999999,-2.243164 -4.999999,-5 l 0,-16.797852 c 0,-0.552734 0.447753,-1 1,-1 l 31.196289,0 c 0.552246,0 1,0.447266 1,1 l 0,16.797852 c 0,2.756836 -2.243165,5 -5,5 z m -26.196289,-20.797852 0,15.797852 c 0,1.654297 1.345703,3 2.999999,3 l 23.19629,0 c 1.654296,0 3,-1.345703 3,-3 l 0,-15.797852 -29.196289,0 z" />
    </g>
    <g
       id="g12406">
      <path
         id="path12408"
         d="m 12.604363,33.415863 -3.1997075,0 c -1.6542974,0 -3.0000005,-1.345703 -3.0000005,-3 l 0,-0.15918 c 0,-1.654297 1.3457031,-3 3.0000005,-3 l 3.1997075,0 c 0.552246,0 1,0.447266 1,1 l 0,4.15918 c 0,0.552734 -0.447754,1 -1,1 z m -3.1997075,-4.15918 c -0.5512695,0 -1,0.448242 -1,1 l 0,0.15918 c 0,0.551758 0.4487305,1 1,1 l 2.1997075,0 0,-2.15918 -2.1997075,0 z" />
    </g>
    <g
       id="g12410">
      <path
         id="path12412"
         d="m 47.000359,33.415863 -3.199707,0 c -0.552247,0 -1,-0.447266 -1,-1 l 0,-4.15918 c 0,-0.552734 0.447753,-1 1,-1 l 3.199707,0 c 1.654296,0 3,1.345703 3,3 l 0,0.15918 c 0,1.654297 -1.345704,3 -3,3 z m -2.199707,-2 2.199707,0 c 0.551269,0 1,-0.448242 1,-1 l 0,-0.15918 c 0,-0.551757 -0.448731,-1 -1,-1 l -2.199707,0 0,2.15918 z" />
    </g>
    <g
       id="g12414">
      <path
         id="path12416"
         d="m 43.516472,25.355316 c -0.119629,0 -0.23877,-0.02148 -0.353027,-0.06445 L 13.973015,14.284027 c -0.516602,-0.194336 -0.777344,-0.771484 -0.58252,-1.288086 0.682617,-1.811523 2.025391,-3.2470701 3.78125,-4.041992 1.764649,-0.7958984 3.730957,-0.8613281 5.536621,-0.1816406 L 40.23278,15.37973 c 3.734864,1.408203 5.627442,5.59375 4.219239,9.328125 -0.09326,0.248047 -0.281739,0.449219 -0.523438,0.558594 -0.130859,0.05957 -0.271484,0.08887 -0.412109,0.08887 z M 15.702507,12.798676 42.844109,23.033051 c 0.413085,-2.422852 -0.934082,-4.882813 -3.317383,-5.782227 L 22.0028,10.643402 c -1.305176,-0.492187 -2.728027,-0.443359 -4.006348,0.132813 -0.961425,0.435547 -1.752441,1.137695 -2.293945,2.022461 z" />
    </g>
    <g
       id="g12418">
      <path
         id="path12420"
         d="m 34.450066,15.268402 c -0.118653,0 -0.238282,-0.02148 -0.353028,-0.06445 l -6.655273,-2.509766 c -0.324219,-0.12207 -0.562012,-0.404296 -0.628418,-0.74414 -0.179199,-0.919922 -0.09717,-1.875 0.237305,-2.761719 0.485839,-1.289062 1.445312,-2.3124995 2.700683,-2.8798823 1.254883,-0.5683594 2.656738,-0.6132813 3.946777,-0.1269531 2.661622,1.0039063 4.010743,3.9863274 3.007813,6.6484374 0,0 0,0 0,9.76e-4 -0.333984,0.884766 -0.902832,1.655274 -1.644531,2.228516 -0.177735,0.137695 -0.393555,0.208984 -0.611328,0.208984 z m -5.729004,-4.229492 5.5083,2.077148 c 0.260254,-0.286132 0.465821,-0.62207 0.605469,-0.992187 C 35.448601,10.493988 34.622429,8.6678161 32.992546,8.0525817 32.201042,7.7547306 31.34362,7.7830509 30.575554,8.1297301 29.806999,8.4783629 29.219597,9.1043395 28.921745,9.8943785 28.782097,10.264496 28.714714,10.652191 28.721062,11.03891 Z m 7.049316,1.438477 0.0098,0 -0.0098,0 z" />
    </g>
  </g>
</svg>
