<?xml version="1.0" encoding="UTF-8" standalone="no"?>
<svg
   xmlns:dc="http://purl.org/dc/elements/1.1/"
   xmlns:cc="http://creativecommons.org/ns#"
   xmlns:rdf="http://www.w3.org/1999/02/22-rdf-syntax-ns#"
   xmlns:svg="http://www.w3.org/2000/svg"
   xmlns="http://www.w3.org/2000/svg"
   width="100"
   height="100"
   viewBox="0 0 100 100"
   id="svg4157"
   version="1.1">
  <defs
     id="defs4159" />
  <metadata
     id="metadata4162">
    <rdf:RDF>
      <cc:Work
         rdf:about="">
        <dc:format>image/svg+xml</dc:format>
        <dc:type
           rdf:resource="http://purl.org/dc/dcmitype/StillImage" />
        <dc:title></dc:title>
      </cc:Work>
    </rdf:RDF>
  </metadata>
  <g
     id="layer1"
     transform="translate(0,2.2107222e-5)">
    <ellipse
       style="opacity:1;fill:none;fill-opacity:1;fill-rule:nonzero;stroke:#000000;stroke-width:8.0;stroke-linecap:round;stroke-linejoin:bevel;stroke-miterlimit:4;stroke-dasharray:none;stroke-dashoffset:0;stroke-opacity:1"
       id="path4705"
       cx="50"
       cy="50"
       rx="46"
       ry="46" />
  </g>
  <g
     id="g11070"
     transform="matrix(0.73863636,0,0,0.73863636,13.068182,-690.38114)">
    <path
       id="path11072"
       overflow="visible"
       display="inline"
       visibility="visible"
       d="M 17.8125,982.36438 A 2.0001996,2.0000897 0 0 0 16,984.36427 l 0,4.99972 -4,0 c -3.2894047,0 -6,2.71045 -6,5.99967 l 0,13.99924 c 0,3.2892 2.7105953,5.9997 6,5.9997 l 4,0 0,4.9997 a 2.0001996,2.0000897 0 0 0 2,1.9999 l 10,0 a 2.0001996,2.0000897 0 0 0 2,-1.9999 l 0,-15.9991 40,0 0,15.9991 a 2.0001996,2.0000897 0 0 0 2,1.9999 l 10,0 a 2.0001996,2.0000897 0 0 0 2,-1.9999 l 0,-4.9997 4,0 c 3.289404,0 6,-2.7105 6,-5.9997 l 0,-13.99924 c 0,-3.28922 -2.710596,-5.99967 -6,-5.99967 l -4,0 0,-4.99972 a 2.0001996,2.0000897 0 0 0 -1.8125,-1.99989 2.0001996,2.0000897 0 0 0 -0.1875,0 l -10,0 a 2.0001996,2.0000897 0 0 0 -2,1.99989 l 0,15.99913 -40,0 0,-15.99913 a 2.0001996,2.0000897 0 0 0 -2,-1.99989 l -10,0 a 2.0001996,2.0000897 0 0 0 -0.1875,0 z m 2.1875,3.99978 6,0 0,15.37414 a 2.0021961,2.0020861 0 0 0 0,1.2812 l 0,15.3429 -6,0 0,-31.99824 z m 54,0 6,0 0,31.99824 -6,0 0,-15.6241 a 2.0001999,2.00009 0 0 0 0,-0.5938 l 0,-15.78034 z m -62,6.99961 4,0 0,17.99903 -4,0 c -1.142593,0 -2,-0.8574 -2,-1.9999 l 0,-13.99924 c 0,-1.14253 0.857407,-1.99989 2,-1.99989 z m 72,0 4,0 c 1.142592,0 2,0.85736 2,1.99989 l 0,13.99924 c 0,1.1425 -0.857408,1.9999 -2,1.9999 l -4,0 0,-17.99903 z"
       style="color:#000000;text-indent:0;text-transform:none;direction:ltr;block-progression:tb;baseline-shift:baseline;display:inline;overflow:visible;visibility:visible;fill:#000000;fill-opacity:1;stroke:none;marker:none;enable-background:accumulate" />
  </g>
</svg>
