<?xml version="1.0" encoding="UTF-8" standalone="no"?>
<svg
   xmlns:dc="http://purl.org/dc/elements/1.1/"
   xmlns:cc="http://creativecommons.org/ns#"
   xmlns:rdf="http://www.w3.org/1999/02/22-rdf-syntax-ns#"
   xmlns:svg="http://www.w3.org/2000/svg"
   xmlns="http://www.w3.org/2000/svg"
   width="100"
   height="100"
   viewBox="0 0 100 100"
   id="svg4157"
   version="1.1">
  <defs
     id="defs4159" />
  <metadata
     id="metadata4162">
    <rdf:RDF>
      <cc:Work
         rdf:about="">
        <dc:format>image/svg+xml</dc:format>
        <dc:type
           rdf:resource="http://purl.org/dc/dcmitype/StillImage" />
        <dc:title></dc:title>
      </cc:Work>
    </rdf:RDF>
  </metadata>
  <g
     id="layer1"
     transform="translate(0,2.2107222e-5)">
    <ellipse
       style="opacity:1;fill:none;fill-opacity:1;fill-rule:nonzero;stroke:#000000;stroke-width:8.0;stroke-linecap:round;stroke-linejoin:bevel;stroke-miterlimit:4;stroke-dasharray:none;stroke-dashoffset:0;stroke-opacity:1"
       id="path4705"
       cx="50"
       cy="50"
       rx="46"
       ry="46" />
  </g>
  <g
     transform="matrix(0.56008147,0,0,0.56008147,107.90673,45.728214)"
     id="g10993">
    <path
       d="m -82.589831,23.177119 0,0 c 0,-0.2 -1.2,-14.8000004 -19.699999,-14.8000004 -18.8,0 -19.7,14.7000004 -19.7,14.9000004 l 0,4.3 c 0,1.2 1,2.2 2.2,2.2 l 34.999999,0 c 1.2,0 2.2,-1 2.2,-2.2 l 0,-4.4 z"
       id="path10416" />
    <path
       d="m -102.78983,4.7771186 c 5.399999,0 9.799999,-4.79999996 9.799999,-10.8 0,-5.9999996 -4.4,-10.7999996 -9.799999,-10.7999996 -5.4,0 -9.8,4.8 -9.8,10.7999996 0,6.00000004 4.4,10.8 9.8,10.8 z"
       id="path10418" />
    <path
       d="m -103.38983,-41.522881 c -27.1,0 -49.1,22.1 -49.1,49.1999996 0,8.6000004 2.3,17.1000004 6.6,24.6000004 l 0.2,0.3 -4.4,15 c -0.6,1.9 0,4 1.4,5.4 1.4,1.4 3.5,2 5.4,1.4 l 15.2,-4.3 0.3,0.2 c 7.4,4.2 15.8,6.5 24.4,6.5 27.099999,0 49.099999,-22 49.099999,-49.1000004 0,-27.0999996 -22,-49.1999996 -49.099999,-49.1999996 z m 0,94.5 c -8.3,0 -16.4,-2.3 -23.5,-6.5 l -0.7,-0.4 -16.8,4.7 c -0.6,0.2 -1.3,0 -1.7,-0.4 -0.4,-0.4 -0.6,-1.1 -0.4,-1.7 l 4.8,-16.7 -0.4,-0.7 c -4.3,-7.1 -6.6,-15.3 -6.6,-23.6000004 0,-24.9999996 20.3,-45.3999996 45.3,-45.3999996 24.999999,0 45.299999,20.4 45.299999,45.3999996 0,25.0000004 -20.3,45.3000004 -45.299999,45.3000004 z"
       id="path10420" />
  </g>
</svg>
