<?xml version="1.0" encoding="UTF-8" standalone="no"?>
<svg
   xmlns:dc="http://purl.org/dc/elements/1.1/"
   xmlns:cc="http://creativecommons.org/ns#"
   xmlns:rdf="http://www.w3.org/1999/02/22-rdf-syntax-ns#"
   xmlns:svg="http://www.w3.org/2000/svg"
   xmlns="http://www.w3.org/2000/svg"
   width="100"
   height="100"
   viewBox="0 0 100 100"
   id="svg4157"
   version="1.1">
  <defs
     id="defs4159" />
  <metadata
     id="metadata4162">
    <rdf:RDF>
      <cc:Work
         rdf:about="">
        <dc:format>image/svg+xml</dc:format>
        <dc:type
           rdf:resource="http://purl.org/dc/dcmitype/StillImage" />
        <dc:title></dc:title>
      </cc:Work>
    </rdf:RDF>
  </metadata>
  <g
     id="layer1"
     transform="translate(0,2.2107222e-5)">
    <ellipse
       style="opacity:1;fill:none;fill-opacity:1;fill-rule:nonzero;stroke:#000000;stroke-width:8.0;stroke-linecap:round;stroke-linejoin:bevel;stroke-miterlimit:4;stroke-dasharray:none;stroke-dashoffset:0;stroke-opacity:1"
       id="path4705"
       cx="50"
       cy="50"
       rx="46"
       ry="46" />
  </g>
  <path
     id="path9775"
     d="m 56.071794,20.681102 0.528136,-2.895209 c 0.108561,-0.597819 -0.288274,-1.171433 -0.885361,-1.279261 -0.597086,-0.108561 -1.170699,0.287541 -1.279261,0.88536 l 0,-7.33e-4 -0.527401,2.892275 c -1.54553,-0.230327 -3.083724,-0.34989 -4.602847,-0.34989 -6.886298,7.33e-4 -13.387497,2.296654 -18.575693,6.267939 -5.18893,3.969084 -9.069991,9.623066 -10.698409,16.320849 -0.118828,0.490726 0.112237,1.001256 0.560418,1.23525 0.448182,0.233993 0.999055,0.132033 1.333541,-0.246463 1.5954,-1.805197 3.954407,-2.912814 6.500459,-2.91208 0.528136,0 1.062873,0.04621 1.602011,0.145237 l 0.198784,-1.081944 -0.19805,1.082678 c 3.495962,0.635962 6.110232,3.226026 6.900968,6.369165 0.105627,0.417373 0.445981,0.736455 0.871423,0.813475 0.423975,0.07702 0.855286,-0.101959 1.100282,-0.455516 2.150685,-3.10573 5.796286,-5.065699 9.772704,-5.064231 0.393901,0 0.790736,0.02274 1.189772,0.06162 l -1.035732,5.678923 -4.150997,22.775102 c -5.033423,0.02861 -9.696418,0.398302 -13.560609,1.023996 -2.014249,0.325682 -3.81211,0.71885 -5.346636,1.174367 -1.534527,0.456983 -2.80205,0.966047 -3.782034,1.573403 -0.516397,0.321282 -0.674834,0.998323 -0.354286,1.514722 0.320547,0.516398 0.999055,0.675573 1.514713,0.35429 l 0,0 c 0.715918,-0.446714 1.833072,-0.915434 3.248034,-1.332808 4.255157,-1.266058 11.160526,-2.116208 18.910913,-2.112541 5.170591,0 9.956818,0.373362 13.840814,1.001257 1.940896,0.313946 3.65587,0.69171 5.071565,1.112018 1.414963,0.417374 2.531382,0.886094 3.247299,1.333541 0.516399,0.32055 1.194172,0.162109 1.514722,-0.353557 0.320548,-0.515665 0.163575,-1.194906 -0.352824,-1.515455 -0.980718,-0.60736 -2.247509,-1.117158 -3.782769,-1.574142 -4.280097,-1.266057 -10.673469,-2.082466 -17.932396,-2.190294 l 4.080579,-22.387803 1.032799,-5.662784 c 4.23095,1.193438 7.356485,4.522891 8.354073,8.507379 0.104894,0.418107 0.444514,0.737923 0.869956,0.814942 0.423976,0.07702 0.855286,-0.100492 1.10175,-0.454783 1.560933,-2.249709 4.207478,-3.671274 7.096085,-3.669806 0.529602,0 1.065806,0.04621 1.605678,0.14597 l 0.0022,0 c 3.14534,0.572146 5.572561,2.727966 6.606093,5.447129 0.178979,0.473121 0.659435,0.762128 1.161164,0.70198 0.501729,-0.06089 0.898564,-0.457717 0.960179,-0.958712 0.145238,-1.187572 0.21639,-2.370741 0.21639,-3.542908 -0.0037,-13.779932 -9.827719,-26.079616 -23.928199,-29.191947 z m -25.648306,17.898653 0,0 c -0.672638,-0.123232 -1.340877,-0.181914 -1.998845,-0.181914 -1.871947,7.34e-4 -3.655871,0.487793 -5.222668,1.341611 1.827198,-4.750284 4.935127,-8.783184 8.863134,-11.790622 4.70774,-3.602323 10.587647,-5.717064 16.829179,-5.805087 -0.115162,0.08362 -0.231059,0.164309 -0.345488,0.253066 -2.4705,1.926959 -4.740748,5.02462 -6.702185,8.948225 -1.707637,3.426278 -3.168811,7.48852 -4.236085,11.960798 -1.580739,-2.390546 -4.116521,-4.164934 -7.187042,-4.726077 z m 20.854011,1.865345 0.0022,0 c -0.875809,-0.161376 -1.747966,-0.237661 -2.606186,-0.237661 -3.268571,0.0015 -6.347893,1.11862 -8.784651,3.041912 1.425232,-5.735403 3.517968,-10.718213 5.866703,-14.34621 1.337944,-2.069997 2.759507,-3.694746 4.143663,-4.770089 1.389288,-1.079742 2.709627,-1.592473 3.894997,-1.58954 0.247197,0 0.491459,0.02127 0.734989,0.06602 0.945508,0.173844 1.817665,0.671171 2.647278,1.540393 1.240385,1.299066 2.315727,3.446817 3.04558,6.21806 0.733522,2.769043 1.134758,6.147643 1.133291,9.890069 7.34e-4,2.168288 -0.135701,4.460542 -0.413706,6.829082 -2.021584,-3.35806 -5.457398,-5.875505 -9.664143,-6.642035 z m 20.171103,5.614371 0.0022,0 c -0.67484,-0.123964 -1.345278,-0.182646 -2.003981,-0.181913 -2.359737,0 -4.584507,0.76653 -6.399973,2.083201 0.338886,-2.667817 0.509798,-5.254947 0.510531,-7.702707 -0.003,-5.199933 -0.730588,-9.778573 -2.130879,-13.267201 -0.423976,-1.051869 -0.919836,-1.992977 -1.475112,-2.833592 10.662466,4.18914 17.762219,14.341075 17.841439,25.520673 -1.574137,-1.822801 -3.770299,-3.149741 -6.344226,-3.618461 z" />
</svg>
