<?xml version="1.0" encoding="UTF-8" standalone="no"?>
<svg
   xmlns:dc="http://purl.org/dc/elements/1.1/"
   xmlns:cc="http://creativecommons.org/ns#"
   xmlns:rdf="http://www.w3.org/1999/02/22-rdf-syntax-ns#"
   xmlns:svg="http://www.w3.org/2000/svg"
   xmlns="http://www.w3.org/2000/svg"
   width="100"
   height="100"
   viewBox="0 0 100 100"
   id="svg4157"
   version="1.1">
  <defs
     id="defs4159" />
  <metadata
     id="metadata4162">
    <rdf:RDF>
      <cc:Work
         rdf:about="">
        <dc:format>image/svg+xml</dc:format>
        <dc:type
           rdf:resource="http://purl.org/dc/dcmitype/StillImage" />
        <dc:title></dc:title>
      </cc:Work>
    </rdf:RDF>
  </metadata>
  <g
     id="layer1"
     transform="translate(0,2.2107222e-5)">
    <ellipse
       style="opacity:1;fill:none;fill-opacity:1;fill-rule:nonzero;stroke:#000000;stroke-width:8.0;stroke-linecap:round;stroke-linejoin:bevel;stroke-miterlimit:4;stroke-dasharray:none;stroke-dashoffset:0;stroke-opacity:1"
       id="path4705"
       cx="50"
       cy="50"
       rx="46"
       ry="46" />
  </g>
  <path
     id="path7810"
     d="m 21.857356,65.814836 52,0 c 2.677,0 4.076,-2.296 4.076,-4.565 0,-2.204 -1.399,-4.435 -4.076,-4.435 l -45.5,0 c -4.687,0 -8.5,-3.813 -8.5,-8.5 0,-4.687 3.813,-8.5 8.5,-8.5 l 3.551,0 c 0.52,8.356 7.465,15 15.949,15 7.119,0 13.35,-4.701 15.338,-11.498 1.779,-0.609 3.616,-1.079 5.397,-1.534 4.972,-1.271 9.265,-2.369 9.265,-5.968 l 0,-8 c 0,-2.757 -2.243,-5 -5,-5 l -15,0 0,-0.917 c 0,-1.7 -1.383,-3.083 -3.083,-3.083 l -5.834,0 c -1.7,0 -3.083,1.383 -3.083,3.083 l 0,1.055 c -7.553,0.949 -13.471,7.174 -13.949,14.862 l -3.551,0 c -5.79,0 -10.5,4.71 -10.5,10.5 0,5.79 4.71,10.5 10.5,10.5 l 45.5,0 c 1.533,0 2.076,1.312 2.076,2.435 0,0.887 -0.433,2.565 -2.076,2.565 l -52,0 c -1.237,0 -2.324,0.531 -3.062,1.496 -0.623,0.814 -0.966,1.891 -0.966,3.029 0,2.224 1.383,4.475 4.028,4.475 l 33,0 0,1 c 0,0.552 0.447,1 1,1 l 6,0 c 0.553,0 1,-0.448 1,-1 l 0,-1 2.586,0 4.707,4.707 c 0.739,0.739 1.745,1.121 2.841,1.121 0.665,0 1.362,-0.14 2.054,-0.427 1.708,-0.707 2.812,-2.042 2.812,-3.401 0,-2.393 -1.558,-4 -3.877,-4 l 0,2 c 0.701,0 1.877,0.26 1.877,2 0,0.442 -0.59,1.145 -1.577,1.554 -0.841,0.348 -1.993,0.461 -2.716,-0.261 l -3.293,-3.293 3.586,0 0,-2 -5,0 0,-1 -2,0 0,1 -2,0 0,-1 c 0,-0.552 -0.447,-1 -1,-1 l -6,0 c -0.553,0 -1,0.448 -1,1 l 0,1 -33,0 c -1.602,0 -2.028,-1.556 -2.028,-2.475 0,-0.938 0.426,-2.525 2.028,-2.525 z m 26,-43.917 c 0,-0.597 0.486,-1.083 1.083,-1.083 l 5.834,0 c 0.597,0 1.083,0.486 1.083,1.083 l 0,0.917 -8,0 0,-0.917 z m 0,2.917 9,0 16,0 c 1.654,0 3,1.346 3,3 l 0,8 c 0,2.046 -3.596,2.966 -7.76,4.03 -1.99,0.509 -4.048,1.035 -6.066,1.761 -0.312,0.112 -0.548,0.372 -0.63,0.692 -1.588,6.193 -7.158,10.517 -13.544,10.517 -7.72,0 -14,-6.28 -14,-14 0,-7.72 6.28,-14 14,-14 z m 9,46 4,0 0,2 -4,0 0,-2 z" />
</svg>
