<?xml version="1.0" encoding="UTF-8" standalone="no"?>
<svg
   xmlns:dc="http://purl.org/dc/elements/1.1/"
   xmlns:cc="http://creativecommons.org/ns#"
   xmlns:rdf="http://www.w3.org/1999/02/22-rdf-syntax-ns#"
   xmlns:svg="http://www.w3.org/2000/svg"
   xmlns="http://www.w3.org/2000/svg"
   width="100"
   height="100"
   viewBox="0 0 100 100"
   id="svg4157"
   version="1.1">
  <defs
     id="defs4159" />
  <metadata
     id="metadata4162">
    <rdf:RDF>
      <cc:Work
         rdf:about="">
        <dc:format>image/svg+xml</dc:format>
        <dc:type
           rdf:resource="http://purl.org/dc/dcmitype/StillImage" />
        <dc:title></dc:title>
      </cc:Work>
    </rdf:RDF>
  </metadata>
  <g
     id="layer1"
     transform="translate(0,2.2107222e-5)">
    <ellipse
       style="opacity:1;fill:none;fill-opacity:1;fill-rule:nonzero;stroke:#000000;stroke-width:8.0;stroke-linecap:round;stroke-linejoin:bevel;stroke-miterlimit:4;stroke-dasharray:none;stroke-dashoffset:0;stroke-opacity:1"
       id="path4705"
       cx="50"
       cy="50"
       rx="46"
       ry="46" />
  </g>
  <g
     transform="matrix(0.67265833,0,0,0.67265833,61.400989,55.415492)"
     id="g7022">
    <path
       d="m -62.196367,-17.664125 c 4.9,0.9 9.9,1.4 14.9,1.4 9,0.1 18,-1.7 26.4,-5.1 l 0,16.7 5.9,2.8 2,1.00000004 0,-20.50000004 c 8.4,3.4 17.4,5.1 26.4,5 5,0 10,-0.5 14.9,-1.4 1.5,-0.3 2.7,-1.5 3,-3 0.3,-1.6 -0.5,-3.1 -1.8,-3.9 -6.6,-3.7 -12.2,-8.9 -16.5,-15.1 -0.8,-1.2 -2,-2 -3.4,-2.2 -1.4,-0.2 -2.9,0.1 -4,1 -5.59999996,4 -11.8,7.2 -18.4,9.3 l 0,-6 c 5.1,-2.2 7.5,-8.1 5.3,-13.2 -2.3,-5.2 -8.2,-7.5 -13.3,-5.4 -5.1,2.1 -7.5,8.1 -5.3,13.2 1,2.4 2.9,4.3 5.3,5.3 l 0,6 c -6.6,-2.1 -12.8,-5.2 -18.5,-9.3 -1.1,-0.9 -2.6,-1.2 -4,-1 -1.4,0.2 -2.6,1 -3.4,2.2 -4.3,6.3 -10,11.4 -16.7,15.2 -1.4,0.8 -2.1,2.4 -1.8,3.9 0.3,1.6 1.5,2.8 3,3.1 z"
       id="path6435" />
    <path
       d="m -12.896367,36.935875 0,-16 -8,-3.7 0,19.7 c 0,2.2 1.8,4 4,4 2.2,0 4,-1.8 4,-4 z"
       id="path6437" />
    <path
       d="M -9.896367,0.43587504 -0.69636696,4.735875 c 4.79999996,-2.8 6.39999996,-8.9 3.59999996,-13.7 -1,-1.7 -2.49999996,-3.1 -4.3,-4 -1.8,-1.2 -4.3,-0.7 -5.5,1.1 -1.2,1.8 -0.7,4.3 1.1,5.5 0.3,0.2 0.6,0.4 1,0.5 1,0.5 1.5,1.8 1,2.8 -0.2,0.4 -0.6,0.8 -1,1 l -5.1,2.50000004 z"
       id="path6439" />
    <path
       d="m -32.396367,29.135875 c 2.1,0.7 4.4,-0.4 5.1,-2.5 0.6,-1.8 -0.1,-3.7 -1.7,-4.7 -1,-0.5 -1.5,-1.8 -1,-2.8 0.2,-0.4 0.6,-0.8 1,-1 l 5.1,-2.4 -9.2,-4.3 c -4.8,2.8 -6.4,8.9 -3.6,13.7 0.9,1.7 2.5,3.1 4.3,4 z"
       id="path6441" />
    <path
       d="m -28.996367,-5.764125 c 2.1,-0.7 3.3,-2.9 2.6,-5 -0.7,-2.1 -2.9,-3.3 -5,-2.6 -0.3,0.1 -0.7,0.3 -1,0.5 -5,2.4 -7.1,8.3 -4.8,13.30000004 1,2.09999996 2.7,3.79999996 4.8,4.79999996 l 11.5,5.4 16,7.6 c 1,0.5 1.5,1.8 1,2.8 -0.2,0.4 -0.6,0.8 -1,1 -2.1,0.7 -3.3,2.9 -2.6,5 0.7,2.1 2.9,3.3 5,2.6 0.3,-0.1 0.7,-0.3 1,-0.5 5,-2.4 7.1,-8.3 4.8,-13.3 -1,-2.1 -2.69999996,-3.8 -4.8,-4.8 l -16,-7.5 -11.5,-5.4 c -1,-0.5 -1.5,-1.8 -1,-2.8 0.2,-0.5 0.5,-0.9 1,-1.1 l 0,0 z"
       id="path6443" />
  </g>
</svg>
