<?xml version="1.0" encoding="UTF-8" standalone="no"?>
<svg
   xmlns:dc="http://purl.org/dc/elements/1.1/"
   xmlns:cc="http://creativecommons.org/ns#"
   xmlns:rdf="http://www.w3.org/1999/02/22-rdf-syntax-ns#"
   xmlns:svg="http://www.w3.org/2000/svg"
   xmlns="http://www.w3.org/2000/svg"
   width="100"
   height="100"
   viewBox="0 0 100 100"
   id="svg4157"
   version="1.1">
  <defs
     id="defs4159" />
  <metadata
     id="metadata4162">
    <rdf:RDF>
      <cc:Work
         rdf:about="">
        <dc:format>image/svg+xml</dc:format>
        <dc:type
           rdf:resource="http://purl.org/dc/dcmitype/StillImage" />
        <dc:title></dc:title>
      </cc:Work>
    </rdf:RDF>
  </metadata>
  <g
     id="layer1"
     transform="translate(0,2.2107222e-5)">
    <ellipse
       style="opacity:1;fill:none;fill-opacity:1;fill-rule:nonzero;stroke:#000000;stroke-width:8.0;stroke-linecap:round;stroke-linejoin:bevel;stroke-miterlimit:4;stroke-dasharray:none;stroke-dashoffset:0;stroke-opacity:1"
       id="path4705"
       cx="50"
       cy="50"
       rx="46"
       ry="46" />
  </g>
  <g
     id="g5635"
     transform="matrix(0.79269463,0,0,0.79269463,10.36527,10.365289)">
    <path
       id="path5637"
       d="M 90.745132,58.745918 76.864273,19.289375 C 76.681656,18.767891 76.11232,18.494942 75.588882,18.678047 l -6.520263,2.293823 -1.657471,-4.71228 c -0.08789,-0.25 -0.271484,-0.455078 -0.510742,-0.569824 -0.240235,-0.114746 -0.515625,-0.128418 -0.764649,-0.0415 L 9.6689644,35.513008 C 9.1484566,35.696114 8.8740425,36.267403 9.0576363,36.788399 L 24.334004,80.212227 c 0.555664,1.580566 1.694335,2.850586 3.206054,3.575683 0.860352,0.41211 1.782227,0.620118 2.708985,0.620118 0.701171,0 1.405273,-0.119141 2.086914,-0.358887 L 88.001969,64.466133 c 2.333007,-0.820801 3.563476,-3.386719 2.743163,-5.720215 z M 31.671894,82.162422 c -1.076172,0.379395 -2.236328,0.315918 -3.266602,-0.178223 -1.030273,-0.493652 -1.805664,-1.358886 -2.18457,-2.435546 L 11.276386,37.067696 65.856461,17.86701 67.181534,21.635687 20.097675,38.199532 c -0.25,0.08789 -0.455078,0.271972 -0.569336,0.510742 -0.05762,0.119629 -0.09009,0.24823 -0.09717,0.378174 -0.0071,0.129882 0.01123,0.26123 0.05518,0.386474 l 13.819336,39.280762 c 0.488281,1.389648 -0.24414,2.917969 -1.633789,3.406738 z M 87.337906,62.579414 35.285175,80.891426 c 0.0042,-0.01459 0.0051,-0.03003 0.009,-0.04468 0.01257,-0.04694 0.01733,-0.09558 0.02857,-0.142944 0.05127,-0.218139 0.0874,-0.439392 0.106934,-0.664551 0.0076,-0.08673 0.0099,-0.173034 0.01257,-0.260437 0.0062,-0.199524 -0.0018,-0.399353 -0.02185,-0.600891 -0.0083,-0.08411 -0.01343,-0.167175 -0.02637,-0.251343 -0.04346,-0.279296 -0.104614,-0.55841 -0.20166,-0.834472 L 21.705097,39.754219 68.789078,23.190741 c 2.44e-4,-6.1e-5 2.44e-4,-1.84e-4 4.88e-4,-2.44e-4 l 6.52002,-2.293702 13.548828,38.512696 c 0.454101,1.29297 -0.227539,2.715334 -1.520508,3.169923 z" />
    <path
       id="path5639"
       d="m 61.076191,45.427071 c 0.144531,0.411132 0.53125,0.668457 0.943359,0.668457 0.110352,0 0.22168,-0.01855 0.332032,-0.05713 l 12.877925,-4.530274 c 0.520508,-0.183105 0.794922,-0.754394 0.611329,-1.27539 L 71.310562,27.354803 c -0.183594,-0.520996 -0.75293,-0.793945 -1.27539,-0.611328 l -12.878903,4.530273 c -0.25,0.08789 -0.455078,0.271973 -0.569336,0.511231 -0.115234,0.238771 -0.129883,0.513674 -0.04199,0.764162 l 4.53125,12.87793 z m 8.679684,-16.464846 3.86621,10.991213 -10.991207,3.866211 -3.867187,-10.991211 10.992184,-3.866213 z" />
    <path
       id="path5641"
       d="M 50.319355,56.087715 C 50.135761,55.566719 49.566425,55.29377 49.043964,55.476387 L 36.166035,60.00666 c -0.520508,0.183106 -0.794922,0.754395 -0.611328,1.275391 l 4.530273,12.878418 c 0.08789,0.25 0.271484,0.455078 0.510742,0.569824 0.136719,0.06494 0.28418,0.09815 0.432617,0.09815 0.112305,0 0.22461,-0.01904 0.332032,-0.05664 L 54.2383,70.241035 c 0.520508,-0.183105 0.794922,-0.754394 0.611329,-1.27539 l -4.530274,-12.87793 z m -8.679687,16.465332 -3.866211,-10.991699 10.991211,-3.866211 3.86621,10.991211 -10.99121,3.866699 z" />
    <path
       id="path5643"
       d="m 47.964863,35.567207 c -0.182617,-0.520996 -0.751953,-0.79248 -1.275391,-0.611328 l -17.207031,6.053223 c -0.520508,0.183105 -0.794922,0.754394 -0.611328,1.27539 0.144531,0.411133 0.53125,0.668457 0.943359,0.668457 0.110352,0 0.22168,-0.01855 0.332031,-0.05713 l 17.207032,-6.053223 c 0.520508,-0.183106 0.794922,-0.754395 0.611328,-1.275391 z" />
    <path
       id="path5645"
       d="m 49.475605,39.859688 c -0.183594,-0.521485 -0.75293,-0.794434 -1.275391,-0.611328 l -17.207031,6.053711 c -0.520508,0.183105 -0.794922,0.754394 -0.611328,1.27539 0.144531,0.411133 0.53125,0.668457 0.943359,0.668457 0.110352,0 0.22168,-0.01856 0.332032,-0.05713 l 17.207031,-6.053711 c 0.520508,-0.183105 0.794922,-0.754394 0.611328,-1.27539 z" />
    <path
       id="path5647"
       d="m 50.985371,44.152657 c -0.183594,-0.521485 -0.75293,-0.794434 -1.275391,-0.611329 l -17.207031,6.053223 c -0.520508,0.183106 -0.794922,0.754395 -0.611328,1.275391 0.144531,0.411133 0.53125,0.668457 0.943359,0.668457 0.110352,0 0.22168,-0.01855 0.332031,-0.05713 l 17.207032,-6.053223 c 0.520507,-0.183105 0.794921,-0.754394 0.611328,-1.27539 z" />
    <path
       id="path5649"
       d="m 52.495136,48.445137 c -0.183593,-0.520996 -0.752929,-0.793945 -1.27539,-0.611328 L 34.012714,53.88752 c -0.520507,0.183105 -0.794922,0.754394 -0.611328,1.27539 0.144532,0.411133 0.53125,0.668457 0.94336,0.668457 0.110351,0 0.221679,-0.01855 0.332031,-0.05713 l 17.207031,-6.05371 c 0.520508,-0.183106 0.794922,-0.754395 0.611328,-1.275391 z" />
    <path
       id="path5651"
       d="m 78.057632,46.534981 c -0.183593,-0.520996 -0.751953,-0.793457 -1.27539,-0.611328 l -20.835934,7.329589 c -0.520508,0.183106 -0.794922,0.754395 -0.611328,1.275391 0.144531,0.411133 0.53125,0.668457 0.943359,0.668457 0.110352,0 0.22168,-0.01856 0.332032,-0.05713 l 20.835933,-7.32959 c 0.520508,-0.183105 0.794922,-0.754394 0.611328,-1.27539 z" />
    <path
       id="path5653"
       d="m 79.54689,50.766914 c -0.183593,-0.520996 -0.752929,-0.79248 -1.27539,-0.611328 l -20.835934,7.32959 c -0.520508,0.183106 -0.794922,0.754395 -0.611328,1.275391 0.144531,0.411132 0.53125,0.668457 0.943359,0.668457 0.110352,0 0.22168,-0.01855 0.332032,-0.05713 l 20.835933,-7.32959 c 0.520508,-0.183104 0.794922,-0.754393 0.611328,-1.27539 z" />
    <path
       id="path5655"
       d="M 81.035172,54.99836 C 80.851578,54.477364 80.283218,54.204903 79.759781,54.387032 L 58.923847,61.71711 c -0.520508,0.183105 -0.794922,0.754394 -0.611328,1.27539 0.144531,0.411133 0.53125,0.668457 0.94336,0.668457 0.110351,0 0.221679,-0.01855 0.332031,-0.05713 L 80.423844,56.27375 c 0.520507,-0.183105 0.794921,-0.754394 0.611328,-1.27539 z" />
    <path
       id="path5657"
       d="m 81.248062,58.618965 -20.834957,7.330078 c -0.520508,0.183106 -0.794922,0.754395 -0.611328,1.275391 0.144531,0.411133 0.53125,0.668457 0.943359,0.668457 0.110352,0 0.22168,-0.01856 0.332032,-0.05713 l 20.834957,-7.330078 c 0.520507,-0.183106 0.794922,-0.754395 0.611328,-1.275391 -0.182617,-0.520996 -0.751953,-0.79248 -1.275391,-0.611328 z" />
  </g>
</svg>
