<?xml version="1.0" encoding="UTF-8" standalone="no"?>
<svg
   xmlns:dc="http://purl.org/dc/elements/1.1/"
   xmlns:cc="http://creativecommons.org/ns#"
   xmlns:rdf="http://www.w3.org/1999/02/22-rdf-syntax-ns#"
   xmlns:svg="http://www.w3.org/2000/svg"
   xmlns="http://www.w3.org/2000/svg"
   width="100"
   height="100"
   viewBox="0 0 100 100"
   id="svg4157"
   version="1.1">
  <defs
     id="defs4159" />
  <metadata
     id="metadata4162">
    <rdf:RDF>
      <cc:Work
         rdf:about="">
        <dc:format>image/svg+xml</dc:format>
        <dc:type
           rdf:resource="http://purl.org/dc/dcmitype/StillImage" />
        <dc:title></dc:title>
      </cc:Work>
    </rdf:RDF>
  </metadata>
  <g
     id="layer1"
     transform="translate(0,2.2107222e-5)">
    <ellipse
       style="opacity:1;fill:none;fill-opacity:1;fill-rule:nonzero;stroke:#000000;stroke-width:8.0;stroke-linecap:round;stroke-linejoin:bevel;stroke-miterlimit:4;stroke-dasharray:none;stroke-dashoffset:0;stroke-opacity:1"
       id="path4705"
       cx="50"
       cy="50"
       rx="46"
       ry="46" />
  </g>
  <g
     id="g4937"
     transform="matrix(1.1108762,0,0,1.1108762,22.196956,22.205517)">
    <path
       id="path4939"
       d="M 49.2,2.3 C 46,0.7 41.2,-0.5 37.7,0.8 35.5,1.6 34.1,3.8 34.4,6.1 18,22.9 25,14.5 0.7,46.6 c -1.5,2 1.3,4.3 3,2.6 C 31.8,20.6 24.5,28.8 39,10.1 c 1.7,0 3.3,-1 4.2,-2.6 0.8,-1.5 2.7,-4.2 5.7,-3.7 0,0 0.1,0 0.1,0 0,0 0,0 0,0 0.9,-0.1 1.1,-1.3 0.2,-1.5 z M 2.5,48.1 C 2,48.6 1.5,47.9 1.8,47.5 l 17.5,-23 3.5,3 L 2.5,48.1 Z M 23.9,26.5 20.3,23.3 c 0.8,-1.1 0.6,-0.8 1.5,-1.8 l 3.8,3.3 c -1,1 -0.8,0.7 -1.7,1.7 z m 2.6,-2.8 -3.8,-3.3 c 1.1,-1.2 0.1,-0.1 12.2,-12.7 0.5,0.9 1.4,1.7 2.5,2.1 -10.8,13.8 -9.8,12.6 -10.9,13.9 z m 15.4,-17 c -1.6,2.9 -5.4,2.1 -6,-0.5 -0.3,-1.5 0.4,-3.4 2.3,-4 2.4,-0.8 5.4,-0.4 7.9,0.4 -2.2,0.9 -3.5,2.8 -4.2,4.1 z" />
  </g>
</svg>
