<?xml version="1.0" encoding="UTF-8" standalone="no"?>
<svg
   xmlns:dc="http://purl.org/dc/elements/1.1/"
   xmlns:cc="http://creativecommons.org/ns#"
   xmlns:rdf="http://www.w3.org/1999/02/22-rdf-syntax-ns#"
   xmlns:svg="http://www.w3.org/2000/svg"
   xmlns="http://www.w3.org/2000/svg"
   width="100"
   height="100"
   viewBox="0 0 100 100"
   id="svg4157"
   version="1.1">
  <defs
     id="defs4159" />
  <metadata
     id="metadata4162">
    <rdf:RDF>
      <cc:Work
         rdf:about="">
        <dc:format>image/svg+xml</dc:format>
        <dc:type
           rdf:resource="http://purl.org/dc/dcmitype/StillImage" />
        <dc:title></dc:title>
      </cc:Work>
    </rdf:RDF>
  </metadata>
  <g
     id="layer1"
     transform="translate(0,2.2107222e-5)">
    <ellipse
       style="opacity:1;fill:none;fill-opacity:1;fill-rule:nonzero;stroke:#000000;stroke-width:8.0;stroke-linecap:round;stroke-linejoin:bevel;stroke-miterlimit:4;stroke-dasharray:none;stroke-dashoffset:0;stroke-opacity:1"
       id="path4705"
       cx="50"
       cy="50"
       rx="46"
       ry="46" />
  </g>
  <g
     transform="matrix(0.68750262,0,0,0.68750262,39.221357,96.901684)"
     id="g4221">
    <path
       d="m -14.077067,-98.119839 c 1.675,0.916 3.044,2.285 3.961,3.961 l 1.0110004,1.847 c 0.175,0.32 0.512,0.52 0.877,0.52 0.365,0 0.702,-0.199 0.877,-0.521 l 1.01,-1.847 c 0.916,-1.675 2.286,-3.044 3.961,-3.96 l 1.84699999,-1.01 c 0.321,-0.175 0.521,-0.512 0.521,-0.877001 0,-0.365 -0.199,-0.702 -0.521,-0.877 l -1.84699999,-1.01 c -1.675,-0.916 -3.045,-2.285 -3.961,-3.96 l -1.01,-1.847 c -0.175,-0.321 -0.512,-0.52 -0.877,-0.52 -0.365,0 -0.702,0.199 -0.877,0.52 l -1.0110004,1.848 c -0.917,1.675 -2.286,3.044 -3.961,3.96 l -1.847,1.01 c -0.321,0.175 -0.521,0.512 -0.521,0.877 0,0.365001 0.199,0.702001 0.521,0.877001 l 1.847,1.009 z m 0.959,-2.020001 c 2.012,-1.1 3.6560004,-2.743 4.7560004,-4.754 l 0.134,-0.243 0.133,0.242 c 1.1,2.012 2.744,3.655 4.756,4.755 l 0.242,0.133 -0.242,0.133001 c -2.012,1.1 -3.656,2.743 -4.756,4.755 l -0.133,0.242 -0.134,-0.242 c -1.1,-2.012 -2.7440004,-3.655 -4.7560004,-4.755 l -0.242,-0.133001 0.242,-0.133 z"
       id="path22533" />
    <path
       d="m 38.323933,-95.995839 c 2.15,1.177 3.909,2.936 5.086,5.087 l 1.271,2.323 c 0.175,0.32 0.512,0.52 0.877,0.52 0.365,0 0.702,-0.199 0.877,-0.521 l 1.271,-2.322 c 1.178,-2.152 2.937,-3.911 5.087,-5.087 l 2.323,-1.271 c 0.321,-0.175 0.521,-0.512 0.521,-0.877 0,-0.365 -0.199,-0.702 -0.521,-0.877 l -2.323,-1.271001 c -2.15,-1.175 -3.909,-2.934 -5.087,-5.085 l -1.271,-2.323 c -0.174,-0.322 -0.511,-0.521 -0.876,-0.521 -0.365,0 -0.702,0.199 -0.877,0.52 l -1.271,2.324 c -1.177,2.15 -2.936,3.909 -5.086,5.085 l -2.324,1.271001 c -0.321,0.176 -0.521,0.513 -0.521,0.878 0,0.365 0.199,0.702 0.521,0.878 l 2.323,1.269 z m 0.959,-2.541 c 2.487,-1.359 4.521,-3.394001 5.881,-5.880001 l 0.395,-0.72 0.394,0.72 c 1.361,2.488 3.396,4.521001 5.882,5.880001 l 0.719,0.394 -0.719,0.393 c -2.486,1.359 -4.521,3.393 -5.882,5.882 l -0.394,0.719 -0.395,-0.719 c -1.359,-2.487 -3.394,-4.521 -5.881,-5.882 l -0.719,-0.393 0.719,-0.394 z"
       id="path22535" />
    <path
       d="m 40.656933,-49.314839 c 0,2.971 2.412,5.388 5.378,5.388 2.966,0 5.379,-2.417 5.379,-5.388 0,-2.971 -2.413,-5.388 -5.379,-5.388 -2.966,0 -5.378,2.418 -5.378,5.388 z m 8.756,0 c 0,1.868 -1.516,3.388 -3.379,3.388 -1.862,0 -3.378,-1.52 -3.378,-3.388 0,-1.868 1.516,-3.388 3.378,-3.388 1.864,10e-4 3.379,1.52 3.379,3.388 z"
       id="path22537" />
    <path
       d="m 18.160933,-108.21984 c -2.966,0 -5.378,2.417 -5.378,5.388 0,2.971001 2.412,5.388001 5.378,5.388001 2.966,0 5.379,-2.417 5.379,-5.388001 0,-2.971 -2.413,-5.388 -5.379,-5.388 z m 0,8.775001 c -1.862,0 -3.378,-1.520001 -3.378,-3.388001 0,-1.868 1.516,-3.388 3.378,-3.388 1.863,0 3.379,1.52 3.379,3.388 0,1.868 -1.515,3.388001 -3.379,3.388001 z"
       id="path22539" />
    <path
       d="m 41.656933,-66.189839 c 2.966,0 5.378,-2.417 5.378,-5.389 0,-2.971 -2.412,-5.387 -5.378,-5.387 -2.966,0 -5.379,2.417 -5.379,5.388 0,2.971 2.413,5.388 5.379,5.388 z m 0,-8.775 c 1.862,0 3.378,1.52 3.378,3.387 0,1.868 -1.516,3.389 -3.378,3.389 -1.863,0 -3.379,-1.521 -3.379,-3.389 0,-1.868 1.515,-3.387 3.379,-3.387 z"
       id="path22541" />
    <path
       d="m -24.029067,-28.511839 c 0.191,0.19 0.447,0.292 0.707,0.292 0.132,0 0.264,-0.025 0.39,-0.079 l 59.72,-25.245 c 0.306,-0.129 0.528,-0.402 0.592,-0.729 0.064,-0.327 -0.039,-0.663 -0.273,-0.898 l -34.5299996,-34.602 c -0.235,-0.236 -0.573,-0.34 -0.899,-0.275 -0.327,0.063 -0.601,0.286 -0.73000001,0.594 l -25.19200039,59.846 c -0.157,0.375 -0.072,0.808 0.215,1.096 z m 26.2420004,-58.794 32.4289996,32.497 -5.586,2.361 c -2.004,-1.702 -4.031,-1.71 -5.857,-1.691 -1.795,0.01 -3.351,0.029 -4.923,-1.543 -1.572,-1.571 -1.559,-3.124 -1.543,-4.922 0.018,-1.964 0.037,-4.188 -2.128,-6.354 -2.164,-2.163 -4.393,-2.144 -6.3519996,-2.125 -1.801,0.017 -3.351,0.03 -4.921,-1.54 -1.568,-1.568 -1.554,-3.119 -1.537,-4.915 0.019,-1.903 0.022,-4.051 -1.94800001,-6.15 l 2.36600001,-5.618 z m -3.246,7.711 c 0.84099999,1.278 0.84299999,2.577 0.82999999,4.038 -0.02,1.963 -0.041,4.187 2.12200001,6.349 2.164,2.164 4.388,2.148 6.353,2.126 1.7919996,-0.02 3.3499996,-0.031 4.9199996,1.539 1.572,1.571 1.559,3.124 1.543,4.922 -0.018,1.964 -0.037,4.188 2.128,6.354 2.165,2.166 4.382,2.148 6.354,2.128 1.32,-0.009 2.512,-0.016 3.677,0.606 l -48.34,20.435 20.4130004,-48.497 z"
       id="path22543" />
    <path
       d="m 21.949933,-80.388839 c 0.179,0.131 0.385,0.193 0.59,0.193 0.308,0 0.611,-0.142 0.807,-0.409 0.315,-0.431 7.709,-10.742 5.675,-26.741001 -0.069,-0.548 -0.565,-0.929 -1.118,-0.866 -0.548,0.07 -0.936,0.57 -0.866,1.118 1.93,15.173001 -5.232,25.209001 -5.305,25.309001 -0.326,0.446 -0.228,1.071 0.217,1.396 z"
       id="path22545" />
    <path
       d="m 27.589933,-75.213839 c 0.197,0.247 0.488,0.376 0.782,0.376 0.219,0 0.438,-0.071 0.623,-0.219 0.11,-0.089 11.328,-8.844 25.282,-3.274 0.513,0.205 1.094,-0.045 1.3,-0.558 0.205,-0.514 -0.045,-1.095 -0.558,-1.3 -15.024,-5.996 -26.778,3.175 -27.272,3.569 -0.431,0.344 -0.502,0.973 -0.157,1.406 z"
       id="path22547" />
    <path
       d="m 8.8449334,-87.717839 c 0.075,0.018 0.15,0.026 0.225,0.026 0.455,0 0.867,-0.312 0.9739996,-0.775 0.096,-0.414 2.265,-10.22 -4.4349996,-16.151001 -0.412,-0.363 -1.044,-0.327 -1.412,0.086 -0.366,0.414 -0.327,1.046 0.086,1.412 5.7999996,5.135001 3.832,14.115001 3.812,14.205001 -0.124,0.538 0.212,1.074 0.75,1.197 z"
       id="path22549" />
    <path
       d="m 53.862933,-56.916839 c 0.195,0.274 0.503,0.421 0.816,0.421 0.2,0 0.402,-0.06 0.578,-0.185 0.45,-0.319 0.556,-0.944 0.236,-1.395 -5.575,-7.852 -17.513,-4.298 -18.019,-4.144 -0.527,0.162 -0.824,0.722 -0.662,1.25 0.161,0.526 0.714,0.826 1.25,0.662 0.109,-0.033 11.053,-3.299 15.801,3.391 z"
       id="path22551" />
  </g>
</svg>
