<?xml version="1.0" encoding="UTF-8" standalone="no"?>
<svg
   xmlns:dc="http://purl.org/dc/elements/1.1/"
   xmlns:cc="http://creativecommons.org/ns#"
   xmlns:rdf="http://www.w3.org/1999/02/22-rdf-syntax-ns#"
   xmlns:svg="http://www.w3.org/2000/svg"
   xmlns="http://www.w3.org/2000/svg"
   width="100"
   height="100"
   viewBox="0 0 100 100"
   id="svg4157"
   version="1.1">
  <defs
     id="defs4159" />
  <metadata
     id="metadata4162">
    <rdf:RDF>
      <cc:Work
         rdf:about="">
        <dc:format>image/svg+xml</dc:format>
        <dc:type
           rdf:resource="http://purl.org/dc/dcmitype/StillImage" />
        <dc:title></dc:title>
      </cc:Work>
    </rdf:RDF>
  </metadata>
  <g
     id="layer1"
     transform="translate(0,2.2107222e-5)">
    <ellipse
       style="opacity:1;fill:none;fill-opacity:1;fill-rule:nonzero;stroke:#000000;stroke-width:8.0;stroke-linecap:round;stroke-linejoin:bevel;stroke-miterlimit:4;stroke-dasharray:none;stroke-dashoffset:0;stroke-opacity:1"
       id="path4705"
       cx="50"
       cy="50"
       rx="46"
       ry="46" />
  </g>
  <g
     id="g4261"
     transform="matrix(0.63627229,0,0,0.63627229,18.186147,18.187044)">
    <path
       id="path4263"
       d="m 20.826,61.955 c 4.803,0 9.316,-1.869 12.711,-5.266 L 56.688,33.541 c 7.002,-7.01 7.003,-18.417 0,-25.43 -3.396,-3.393 -7.911,-5.264 -12.713,-5.263 -4.803,0 -9.32,1.869 -12.718,5.263 L 8.111,31.261 C 1.099,38.27 1.097,49.678 8.107,56.694 c 3.399,3.392 7.915,5.262 12.719,5.261 l 0,0 z m 2.043,-41.21 10.508,-10.512 c 2.832,-2.829 6.596,-4.386 10.598,-4.386 4.002,0 7.764,1.558 10.59,4.386 5.835,5.841 5.835,15.347 0.001,21.188 L 44.053,41.934 22.869,20.745 Z M 10.233,33.383 20.748,22.866 41.932,44.054 31.416,54.568 c -2.828,2.831 -6.588,4.387 -10.589,4.387 -4.003,0 -7.767,-1.556 -10.598,-4.385 -5.841,-5.843 -5.84,-15.346 0.004,-21.187 z m 81.203,-1.776 c -3.495,-3.473 -8.307,-5.623 -13.611,-5.623 -10.654,0 -19.322,8.669 -19.322,19.322 0,5.296 2.143,10.097 5.604,13.59 0.02,0.023 0.027,0.055 0.051,0.078 0.023,0.022 0.054,0.029 0.078,0.052 3.493,3.462 8.295,5.605 13.59,5.604 10.656,0 19.325,-8.669 19.324,-19.323 0,-5.305 -2.15,-10.115 -5.622,-13.61 -0.017,-0.016 -0.021,-0.038 -0.036,-0.055 -0.018,-0.015 -0.041,-0.021 -0.056,-0.035 z m -29.934,13.7 c -0.001,-9 7.322,-16.322 16.323,-16.322 3.961,0 7.596,1.42 10.425,3.774 L 65.277,55.733 C 62.923,52.902 61.502,49.269 61.502,45.307 Z m 32.647,10e-4 C 94.148,54.309 86.826,61.631 77.825,61.632 73.862,61.631 70.228,60.211 67.397,57.854 L 90.373,34.881 c 2.356,2.829 3.776,6.466 3.776,10.427 z M 45.304,58.505 c -10.654,10e-4 -19.323,8.668 -19.323,19.322 0,5.295 2.143,10.096 5.604,13.591 0.02,0.022 0.028,0.053 0.051,0.077 0.023,0.022 0.053,0.029 0.078,0.051 3.493,3.463 8.295,5.605 13.59,5.604 10.656,10e-4 19.325,-8.668 19.325,-19.322 0,-5.305 -2.15,-10.115 -5.623,-13.61 C 58.99,64.202 58.986,64.18 58.969,64.163 58.953,64.146 58.932,64.142 58.914,64.129 55.42,60.655 50.609,58.505 45.304,58.505 Z M 28.981,77.827 c 0,-9 7.323,-16.322 16.323,-16.322 3.961,0 7.596,1.42 10.425,3.775 L 32.757,88.255 C 30.403,85.423 28.981,81.79 28.981,77.827 Z m 32.648,0 c 0,9.002 -7.323,16.324 -16.325,16.324 -3.962,0 -7.596,-1.42 -10.427,-3.777 L 57.853,67.401 c 2.354,2.83 3.775,6.465 3.776,10.426 z" />
  </g>
</svg>
