<?xml version="1.0" encoding="UTF-8" standalone="no"?>
<svg
   xmlns:dc="http://purl.org/dc/elements/1.1/"
   xmlns:cc="http://creativecommons.org/ns#"
   xmlns:rdf="http://www.w3.org/1999/02/22-rdf-syntax-ns#"
   xmlns:svg="http://www.w3.org/2000/svg"
   xmlns="http://www.w3.org/2000/svg"
   width="100"
   height="100"
   viewBox="0 0 100 100"
   id="svg4157"
   version="1.1">
  <defs
     id="defs4159" />
  <metadata
     id="metadata4162">
    <rdf:RDF>
      <cc:Work
         rdf:about="">
        <dc:format>image/svg+xml</dc:format>
        <dc:type
           rdf:resource="http://purl.org/dc/dcmitype/StillImage" />
        <dc:title></dc:title>
      </cc:Work>
    </rdf:RDF>
  </metadata>
  <g
     id="layer1"
     transform="translate(0,2.2107222e-5)">
    <ellipse
       style="opacity:1;fill:none;fill-opacity:1;fill-rule:nonzero;stroke:#000000;stroke-width:8.0;stroke-linecap:round;stroke-linejoin:bevel;stroke-miterlimit:4;stroke-dasharray:none;stroke-dashoffset:0;stroke-opacity:1"
       id="path4705"
       cx="50"
       cy="50"
       rx="46"
       ry="46" />
  </g>
  <g
     id="g15574"
     transform="matrix(0.67192619,0,0,0.67192619,14.941793,18.978198)">
    <path
       id="path15576"
       d="m 51.54,15.021 c -0.754,-0.754 -1.758,-1.169 -2.828,-1.169 -0.731,0 -1.425,0.207 -2.035,0.57 -2.513,-2.382 -5.787,-3.699 -9.277,-3.699 -3.46,0 -6.709,1.297 -9.214,3.642 -0.986,-0.829 -2.209,-1.303 -3.517,-1.303 -0.581,0 -1.139,0.113 -1.676,0.285 L 17.246,7.6 C 16.209,6.563 14.827,5.991 13.355,5.991 11.883,5.991 10.501,6.562 9.464,7.6 l -7.832,7.832 0,4.242 9.953,-9.953 c 0.939,-0.941 2.598,-0.942 3.54,0 l 5.302,5.302 -1.415,1.414 -3.18,-3.18 c -1.319,-1.321 -3.633,-1.322 -4.954,0 l -9.246,9.246 0,4.242 11.367,-11.367 c 0.127,-0.127 0.277,-0.146 0.355,-0.146 0.079,0 0.229,0.019 0.356,0.146 l 3.625,3.625 c -0.564,1.771 -0.213,3.757 1.057,5.24 -4.188,5.203 -3.939,12.807 0.729,17.733 -0.363,0.61 -0.57,1.304 -0.57,2.035 0,1.071 0.415,2.075 1.169,2.828 0.754,0.754 1.758,1.169 2.828,1.169 1.071,0 2.075,-0.415 2.828,-1.169 L 51.54,20.678 c 1.56,-1.559 1.56,-4.097 0,-5.657 z m -25.494,1.452 -5.584,5.585 c -0.641,-0.972 -0.534,-2.295 0.319,-3.148 l 2.118,-2.117 c 0.471,-0.471 1.1,-0.73 1.77,-0.73 0.498,-10e-4 0.973,0.144 1.377,0.41 z m -4.558,8.801 8.484,-8.485 c 1.978,-1.977 4.615,-3.066 7.427,-3.066 2.643,0 5.123,0.972 7.055,2.729 L 21.15,39.754 C 17.409,35.637 17.514,29.249 21.488,25.274 Z M 49.419,18.557 23.255,44.719 c -0.372,0.375 -1.037,0.378 -1.413,-10e-4 -0.188,-0.187 -0.29,-0.437 -0.29,-0.706 0,-0.269 0.103,-0.52 0.29,-0.707 L 48.005,17.142 c 0.188,-0.188 0.438,-0.29 0.707,-0.29 0.269,0 0.52,0.103 0.707,0.29 0.39,0.391 0.39,1.025 0,1.415 z" />
    <rect
       id="rect15578"
       height="3"
       width="6.0009999"
       transform="matrix(-0.7071,-0.7071,0.7071,-0.7071,51.6811,108.7234)"
       y="42.158001"
       x="45.358002" />
    <rect
       id="rect15580"
       height="3"
       width="5.9990001"
       transform="matrix(-0.7071,-0.7071,0.7071,-0.7071,45.3173,93.3599)"
       y="35.794998"
       x="38.993999" />
    <rect
       id="rect15582"
       height="6.0009999"
       width="3"
       transform="matrix(0.7071,-0.7071,0.7071,0.7071,-21.9792,59.7089)"
       y="53.384998"
       x="59.585999" />
    <rect
       id="rect15584"
       height="3"
       width="5.9990001"
       transform="matrix(-0.7071,-0.7071,0.7071,-0.7071,58.0493,124.0863)"
       y="48.521999"
       x="51.722" />
    <rect
       id="rect15586"
       height="3"
       width="5.9990001"
       transform="matrix(0.7071,0.7071,-0.7071,0.7071,64.1264,-29.3147)"
       y="61.25"
       x="64.449997" />
    <rect
       id="rect15588"
       height="3"
       width="6"
       transform="matrix(0.7072,0.707,-0.707,0.7072,70.4782,-31.9505)"
       y="67.612999"
       x="70.813004" />
    <rect
       id="rect15590"
       height="3"
       width="5.0019999"
       transform="matrix(-0.7071,-0.7071,0.7071,-0.7071,83.1478,184.689)"
       y="73.624001"
       x="77.322998" />
    <rect
       id="rect15592"
       height="6"
       width="2.9990001"
       transform="matrix(0.7527,-0.6583,0.6583,0.7527,-33.4382,62.8281)"
       y="72.928001"
       x="65.418999" />
    <rect
       id="rect15594"
       height="2.9990001"
       width="6"
       transform="matrix(0.6581,0.753,-0.753,0.6581,58.6711,-17.9944)"
       y="54.102001"
       x="46.147999" />
    <rect
       id="rect15596"
       height="2.9990001"
       width="6"
       transform="matrix(-0.6581,-0.753,0.753,-0.6581,58.5052,191.9746)"
       y="81.203003"
       x="69.842003" />
    <rect
       id="rect15598"
       height="2.9990001"
       width="6"
       transform="matrix(0.6582,0.7529,-0.7529,0.6582,65.7879,-20.139)"
       y="60.876999"
       x="52.070999" />
    <rect
       id="rect15600"
       height="2.9990001"
       width="6"
       transform="matrix(0.6582,0.7528,-0.7528,0.6582,51.5292,-15.853)"
       y="47.326"
       x="40.224998" />
    <rect
       id="rect15602"
       height="2.9990001"
       width="6"
       transform="matrix(-0.6582,-0.7528,0.7528,-0.6582,30.1974,97.8106)"
       y="40.550999"
       x="34.300999" />
    <rect
       id="rect15604"
       height="2.9990001"
       width="6"
       transform="matrix(0.6582,0.7529,-0.7529,0.6582,72.914,-22.2828)"
       y="67.653"
       x="57.994999" />
    <rect
       id="rect15606"
       height="5.9990001"
       width="3"
       transform="matrix(0.8094,-0.5873,0.5873,0.8094,-27.9193,37.1141)"
       y="58.563"
       x="41.709" />
    <rect
       id="rect15608"
       height="5.9990001"
       width="3"
       transform="matrix(0.8094,-0.5873,0.5873,0.8094,-37.7315,50.5926)"
       y="80.416"
       x="57.564999" />
    <rect
       id="rect15610"
       height="6.0009999"
       width="3"
       transform="matrix(0.8094,-0.5873,0.5873,0.8094,-34.461,46.0998)"
       y="73.130997"
       x="52.279999" />
    <rect
       id="rect15612"
       height="3"
       width="6.0009999"
       transform="matrix(-0.5872,-0.8095,0.8095,-0.5872,28.7146,196.0451)"
       y="89.199997"
       x="61.348999" />
    <rect
       id="rect15614"
       height="6.0009999"
       width="2.9990001"
       transform="matrix(0.8094,-0.5872,0.5872,0.8094,-24.646,32.6131)"
       y="51.278"
       x="36.424" />
    <rect
       id="rect15616"
       height="6"
       width="3"
       transform="matrix(0.8094,-0.5873,0.5873,0.8094,-21.3782,28.1285)"
       y="43.993999"
       x="31.139" />
    <rect
       id="rect15618"
       height="5.9990001"
       width="3"
       transform="matrix(0.8094,-0.5873,0.5873,0.8094,-31.1904,41.607)"
       y="65.848"
       x="46.993999" />
    <rect
       id="rect15620"
       height="2.9990001"
       width="6"
       transform="matrix(-0.7528,-0.6582,0.6582,-0.7528,67.6379,103.1337)"
       y="37.367001"
       x="50.183998" />
    <rect
       id="rect15622"
       height="2.9990001"
       width="6"
       transform="matrix(-0.7528,-0.6582,0.6582,-0.7528,59.6612,88.2906)"
       y="31.443001"
       x="43.409" />
    <rect
       id="rect15624"
       height="2.9990001"
       width="5.9990001"
       transform="matrix(0.7529,0.6581,-0.6581,0.7529,44.2951,-28.3941)"
       y="43.290001"
       x="56.959999" />
    <rect
       id="rect15626"
       height="2.9990001"
       width="6"
       transform="matrix(-0.7528,-0.6582,0.6582,-0.7528,99.5455,162.5038)"
       y="61.061001"
       x="77.286003" />
    <rect
       id="rect15628"
       height="2.9990001"
       width="6"
       transform="matrix(-0.7528,-0.6582,0.6582,-0.7528,107.5222,177.347)"
       y="66.985001"
       x="84.060997" />
    <rect
       id="rect15630"
       height="2.9990001"
       width="5.9990001"
       transform="matrix(0.7528,0.6582,-0.6582,0.7528,49.8727,-31.3906)"
       y="49.213001"
       x="63.735001" />
    <rect
       id="rect15632"
       height="2.9990001"
       width="6"
       transform="matrix(-0.7528,-0.6582,0.6582,-0.7528,91.5689,147.6607)"
       y="55.137001"
       x="70.510002" />
    <rect
       id="rect15634"
       height="3"
       width="6"
       transform="matrix(-0.8094,-0.5872,0.5872,-0.8094,126.6934,150.5303)"
       y="53.206001"
       x="84.774002" />
    <rect
       id="rect15636"
       height="6"
       width="3"
       transform="matrix(0.5873,-0.8094,0.8094,0.5873,-9.3252,101.6937)"
       y="56.991001"
       x="93.558998" />
    <rect
       id="rect15638"
       height="2.9990001"
       width="6"
       transform="matrix(-0.8094,-0.5872,0.5872,-0.8094,116.6225,136.6882)"
       y="47.922001"
       x="77.489998" />
    <rect
       id="rect15640"
       height="3"
       width="5.9990001"
       transform="matrix(0.8094,0.5873,-0.5873,0.8094,35.3861,-31.3097)"
       y="37.352001"
       x="62.921001" />
    <rect
       id="rect15642"
       height="3"
       width="5.9990001"
       transform="matrix(0.8095,0.5871,-0.5871,0.8095,39.8607,-34.573)"
       y="42.637001"
       x="70.206001" />
    <rect
       id="rect15644"
       height="3"
       width="6"
       transform="matrix(0.8094,0.5872,-0.5872,0.8094,30.8873,-28.0362)"
       y="32.067001"
       x="55.636002" />
    <rect
       id="rect15646"
       height="3"
       width="6"
       transform="matrix(-0.8094,-0.5872,0.5872,-0.8094,76.3087,81.3294)"
       y="26.782"
       x="48.352001" />
  </g>
</svg>
