<?xml version="1.0" encoding="UTF-8" standalone="no"?>
<svg
   xmlns:dc="http://purl.org/dc/elements/1.1/"
   xmlns:cc="http://creativecommons.org/ns#"
   xmlns:rdf="http://www.w3.org/1999/02/22-rdf-syntax-ns#"
   xmlns:svg="http://www.w3.org/2000/svg"
   xmlns="http://www.w3.org/2000/svg"
   width="100"
   height="100"
   viewBox="0 0 100 100"
   id="svg4157"
   version="1.1">
  <defs
     id="defs4159" />
  <metadata
     id="metadata4162">
    <rdf:RDF>
      <cc:Work
         rdf:about="">
        <dc:format>image/svg+xml</dc:format>
        <dc:type
           rdf:resource="http://purl.org/dc/dcmitype/StillImage" />
        <dc:title></dc:title>
      </cc:Work>
    </rdf:RDF>
  </metadata>
  <g
     id="layer1"
     transform="translate(0,2.2107222e-5)">
    <ellipse
       style="opacity:1;fill:none;fill-opacity:1;fill-rule:nonzero;stroke:#000000;stroke-width:8.0;stroke-linecap:round;stroke-linejoin:bevel;stroke-miterlimit:4;stroke-dasharray:none;stroke-dashoffset:0;stroke-opacity:1"
       id="path4705"
       cx="50"
       cy="50"
       rx="46"
       ry="46" />
  </g>
  <g
     id="g14149"
     transform="matrix(0.80346106,0,0,0.80346106,9.7064278,9.7365797)">
    <path
       id="path14151"
       d="m 71,20 c -0.3,0 -0.5,0 -0.8,0 -0.2,0 -0.5,0 -0.7,0 C 65.6,11.2 56.7,5 46.4,5 32.4,5 21.1,16.3 21.1,30.3 c 0,0 0,0 0,0 -6.5,1.4 -11.4,7.2 -11.4,14.1 0,7.9 6.5,14.4 14.4,14.4 l 47.4,0 c 0.8,0 1.6,-0.1 2.4,-0.2 C 83.3,57.3 90.6,49.2 90.6,39.4 90.4,28.7 81.7,20 71,20 Z m 2.1,34.5 c 0,0 -0.1,0 -0.1,0 -0.6,0.1 -1.1,0.1 -1.7,0.1 l -47.3,0 c -5.6,0 -10.1,-4.5 -10.1,-10.1 0,-4.8 3.4,-8.9 8.1,-9.9 2,-0.4 3.4,-2.2 3.4,-4.2 0,0 0,-0.1 0,-0.1 0,-11.6 9.4,-21 21,-21 7.9,0 15.1,4.5 18.7,11.5 -9,2.6 -15.6,10.9 -15.6,20.7 0,1.2 1,2.1 2.1,2.1 1.2,0 2.1,-1 2.1,-2.1 0,-9.1 7,-16.5 15.9,-17.2 0.1,0 0.1,0 0.2,0 0.2,0 0.4,0 0.6,0 0.2,0 0.4,0 0.6,0 8.4,0 15.2,6.8 15.2,15.2 -0.1,7.4 -5.7,13.9 -13.1,15 z" />
    <path
       id="path14153"
       d="M 49.1,78.3 C 49,77.8 48.5,77.5 48,77.7 l -4.4,1.2 0,-4.3 c 0,-0.5 -0.4,-0.9 -0.9,-0.9 l -0.2,0 c -0.5,0 -0.9,0.4 -0.9,0.9 l 0,4.3 -4.3,-1.2 c -0.5,-0.1 -1,0.2 -1.1,0.6 l -0.1,0.2 c -0.1,0.5 0.2,1 0.6,1.1 l 4.1,1.1 -3.3,3.3 c -0.3,0.3 -0.3,0.9 0,1.3 l 0.2,0.2 c 0.3,0.3 0.9,0.3 1.3,0 l 3.6,-3.6 3.6,3.6 c 0.3,0.3 0.9,0.3 1.3,0 l 0.2,-0.2 C 48,85 48,84.4 47.7,84 l -3.3,-3.3 4.2,-1.1 c 0.5,-0.1 0.8,-0.6 0.6,-1.1 l -0.1,-0.2 z" />
    <path
       id="path14155"
       d="m 63.8,87.9 c -0.1,-0.5 -0.6,-0.8 -1.1,-0.6 l -4.4,1.2 0,-4.3 c 0,-0.5 -0.4,-0.9 -0.9,-0.9 l -0.2,0 c -0.5,0 -0.9,0.4 -0.9,0.9 l 0,4.3 -4.3,-1.3 c -0.5,-0.1 -1,0.2 -1.1,0.6 L 50.8,88 c -0.1,0.5 0.2,1 0.6,1.1 l 4.1,1.1 -3.3,3.3 c -0.3,0.3 -0.3,0.9 0,1.3 l 0.2,0.2 c 0.3,0.3 0.9,0.3 1.3,0 l 3.6,-3.6 3.6,3.6 c 0.3,0.3 0.9,0.3 1.3,0 l 0.2,-0.2 c 0.3,-0.3 0.3,-0.9 0,-1.3 L 59,90.3 63.2,89.2 c 0.5,-0.1 0.8,-0.6 0.6,-1.1 l 0,-0.2 z" />
    <path
       id="path14157"
       d="M 63.8,68.8 C 63.7,68.3 63.2,68 62.7,68.2 l -4.4,1.2 0,-4.3 c 0,-0.5 -0.4,-0.9 -0.9,-0.9 l -0.2,0 c -0.5,0 -0.9,0.4 -0.9,0.9 l 0,4.3 -4.3,-1.3 c -0.5,-0.1 -1,0.2 -1.1,0.6 l -0.1,0.2 c -0.1,0.5 0.2,1 0.6,1.1 l 4.1,1.1 -3.3,3.3 c -0.4,0.3 -0.4,0.9 0,1.3 l 0.2,0.2 c 0.3,0.4 0.9,0.4 1.3,0 l 3.6,-3.5 3.6,3.6 c 0.3,0.4 0.9,0.4 1.3,0 l 0.2,-0.2 c 0.4,-0.3 0.4,-0.9 0,-1.3 L 59,71.2 63.2,70.1 C 63.7,70 64,69.5 63.8,69 l 0,-0.2 z" />
  </g>
</svg>
