<?xml version="1.0" encoding="UTF-8" standalone="no"?>
<svg
   xmlns:dc="http://purl.org/dc/elements/1.1/"
   xmlns:cc="http://creativecommons.org/ns#"
   xmlns:rdf="http://www.w3.org/1999/02/22-rdf-syntax-ns#"
   xmlns:svg="http://www.w3.org/2000/svg"
   xmlns="http://www.w3.org/2000/svg"
   width="100"
   height="100"
   viewBox="0 0 100 100"
   id="svg4157"
   version="1.1">
  <defs
     id="defs4159" />
  <metadata
     id="metadata4162">
    <rdf:RDF>
      <cc:Work
         rdf:about="">
        <dc:format>image/svg+xml</dc:format>
        <dc:type
           rdf:resource="http://purl.org/dc/dcmitype/StillImage" />
        <dc:title></dc:title>
      </cc:Work>
    </rdf:RDF>
  </metadata>
  <g
     id="layer1"
     transform="translate(0,2.2107222e-5)">
    <ellipse
       style="opacity:1;fill:none;fill-opacity:1;fill-rule:nonzero;stroke:#000000;stroke-width:8.0;stroke-linecap:round;stroke-linejoin:bevel;stroke-miterlimit:4;stroke-dasharray:none;stroke-dashoffset:0;stroke-opacity:1"
       id="path4705"
       cx="50"
       cy="50"
       rx="46"
       ry="46" />
  </g>
  <g
     id="g12839"
     transform="matrix(0.78636959,0,0,0.78636959,13.140439,8.6022169)">
    <path
       id="path12841"
       d="M 82.6,35 C 80.1,28.5 72.9,22 64.1,22 l -0.2,0 C 57,22.1 51,24.9 48.9,26 45.7,25.2 41.3,23.5 40.3,21.9 38.5,19.2 38,15.7 38,15.7 38,15.4 37.8,15 37.6,14.8 c -0.8,-1.1 -3.1,-3 -6.1,-3 -0.7,0 -1.5,0.1 -2.2,0.3 -5,1.5 -5.6,6.2 -5.6,6.4 0,0.3 0,0.5 0.1,0.8 l 1.5,5.2 c 0.9,2.9 3.1,8.4 8.3,11.6 2.6,1.6 4.6,2.7 5.9,3.4 -0.5,1.2 -0.9,3 -0.9,5 0.1,4.3 -0.6,6.9 -2,8.4 -0.9,0.9 -1.6,1.1 -3.2,1.5 -1.3,0.3 -3,0.8 -5.4,1.8 -5.9,2.5 -9.3,5.6 -11.4,15.4 -2.3,10.4 -2,11.4 -1.8,12 0.4,1.1 3,4.1 6.8,4.5 0.2,0 0.4,0 0.6,0 0,0 0,0 0,0 3.8,0 6.2,-3.4 6.3,-3.6 0.2,-0.3 0.3,-0.6 0.3,-0.9 0,0 0.2,-1.6 1,-5.4 0.6,-2.7 1.8,-5 2.5,-5.6 0.4,0.2 1,0.6 1.4,0.9 2.7,1.7 7.1,4.6 13.4,4.7 0.3,0 0.7,0 1,0 4.8,0 21.3,-1 30.4,-14 7.3,-10.3 6.9,-21.9 4.1,-29.2 z m -7.5,27.1 c -8,11.4 -22.8,12.3 -27.1,12.3 -0.3,0 -0.6,0 -0.9,0 -5.2,-0.1 -8.9,-2.5 -11.4,-4.1 -1.5,-1 -2.6,-1.6 -3.7,-1.6 -0.2,0 -0.4,0 -0.6,0.1 -3.2,0.8 -5.1,6.1 -5.7,8.9 -0.6,2.7 -0.8,4.3 -0.9,5.1 -0.5,0.5 -1.6,1.6 -2.9,1.5 C 20.2,84 19,83 18.5,82.4 c 0,-0.8 0.3,-3.2 1.8,-9.9 1.8,-8.3 4.2,-10.5 9.1,-12.6 2.1,-0.9 3.7,-1.3 4.9,-1.7 1.9,-0.5 3.4,-0.9 5,-2.6 0.6,0.2 1,0.6 1.7,1.3 1.1,1.1 2.7,2.6 5.5,2.6 2.8,0 4.4,-1.5 5.5,-2.6 1,-1 1.5,-1.4 2.8,-1.4 1.2,0 1.8,0.5 2.8,1.4 1.1,1.1 2.7,2.6 5.5,2.6 2.9,0 4.4,-1.5 5.5,-2.6 1,-1 1.5,-1.4 2.8,-1.4 1.3,0 1.8,0.5 2.8,1.4 0.7,0.7 1.5,1.5 2.8,2 -0.5,1.1 -1.2,2.1 -1.9,3.2 z m 3.6,-6.8 C 78.1,55.1 77.7,54.7 77,54 75.9,52.9 74.3,51.4 71.5,51.4 68.7,51.4 67.1,53 66,54 c -1,1 -1.5,1.4 -2.8,1.4 -1.2,0 -1.8,-0.5 -2.8,-1.4 -1.1,-1.1 -2.7,-2.6 -5.5,-2.6 -2.9,0 -4.4,1.5 -5.5,2.6 -1,1 -1.5,1.4 -2.8,1.4 -1.2,0 -1.8,-0.5 -2.8,-1.4 -0.6,-0.6 -1.4,-1.3 -2.4,-1.8 0.9,-2.5 1.1,-5.4 1,-7.8 0,-2.7 1.2,-4.7 1.2,-4.8 0.3,-0.5 0.4,-1.1 0.2,-1.7 -0.2,-0.6 -0.6,-1 -1.2,-1.3 0,0 -2.8,-1.1 -7.3,-3.9 -4.2,-2.6 -6,-7.4 -6.6,-9.4 l -1.4,-4.7 c 0.2,-0.7 0.8,-2.2 2.7,-2.7 0.4,-0.1 0.7,-0.2 1.1,-0.2 1.2,0 2.2,0.7 2.6,1.1 0.3,1.3 1,4.5 2.9,7.2 2.4,3.6 10.2,5.6 11.8,5.9 0.5,0.1 1,0 1.5,-0.2 0.1,0 6.5,-3.8 13.7,-3.9 l 0.2,0 c 7,0 12.8,5.4 14.8,10.5 2.1,5 2.7,11.9 0.1,19 z" />
  </g>
</svg>
