<?xml version="1.0" encoding="UTF-8" standalone="no"?>
<svg
   xmlns:dc="http://purl.org/dc/elements/1.1/"
   xmlns:cc="http://creativecommons.org/ns#"
   xmlns:rdf="http://www.w3.org/1999/02/22-rdf-syntax-ns#"
   xmlns:svg="http://www.w3.org/2000/svg"
   xmlns="http://www.w3.org/2000/svg"
   width="100"
   height="100"
   viewBox="0 0 100 100"
   id="svg4157"
   version="1.1">
  <defs
     id="defs4159" />
  <metadata
     id="metadata4162">
    <rdf:RDF>
      <cc:Work
         rdf:about="">
        <dc:format>image/svg+xml</dc:format>
        <dc:type
           rdf:resource="http://purl.org/dc/dcmitype/StillImage" />
        <dc:title></dc:title>
      </cc:Work>
    </rdf:RDF>
  </metadata>
  <g
     id="layer1"
     transform="translate(0,2.2107222e-5)">
    <ellipse
       style="opacity:1;fill:none;fill-opacity:1;fill-rule:nonzero;stroke:#000000;stroke-width:8.0;stroke-linecap:round;stroke-linejoin:bevel;stroke-miterlimit:4;stroke-dasharray:none;stroke-dashoffset:0;stroke-opacity:1"
       id="path4705"
       cx="50"
       cy="50"
       rx="46"
       ry="46" />
  </g>
  <g
     id="g11535"
     style="image-rendering:optimizeQuality;shape-rendering:geometricPrecision;text-rendering:geometricPrecision"
     transform="matrix(0.28195489,0,0,0.28195489,12.5,33.087137)">
    <path
       id="path11537"
       d="m 7,44 c 0,19 22,31 39,35 2,0 3,2 2,4 l -7,19 21,-20 c 0,-1 2,-1 3,-1 21,0 58,-11 58,-37 C 123,-5 7,-5 7,44 Z m 123,0 c 0,31 -40,44 -64,44 l -31,31 c -3,3 -7,0 -6,-4 L 40,85 C 21,80 0,66 0,44 0,-15 130,-15 130,44 Z"
       class="fil0" />
    <path
       id="path11539"
       d="m 259,44 c 0,19 -22,31 -38,35 -2,0 -4,2 -3,4 l 7,19 -21,-20 c 0,-1 -1,-1 -3,-1 -21,0 -57,-11 -57,-37 0,-49 115,-49 115,0 z m -123,0 c 0,31 40,44 64,44 l 31,31 c 3,3 8,0 6,-4 L 226,85 c 19,-5 40,-19 40,-41 0,-59 -130,-59 -130,0 z"
       class="fil0" />
  </g>
</svg>
