<?xml version="1.0" encoding="UTF-8" standalone="no"?>
<svg
   xmlns:dc="http://purl.org/dc/elements/1.1/"
   xmlns:cc="http://creativecommons.org/ns#"
   xmlns:rdf="http://www.w3.org/1999/02/22-rdf-syntax-ns#"
   xmlns:svg="http://www.w3.org/2000/svg"
   xmlns="http://www.w3.org/2000/svg"
   width="100"
   height="100"
   viewBox="0 0 100 100"
   id="svg4157"
   version="1.1">
  <defs
     id="defs4159" />
  <metadata
     id="metadata4162">
    <rdf:RDF>
      <cc:Work
         rdf:about="">
        <dc:format>image/svg+xml</dc:format>
        <dc:type
           rdf:resource="http://purl.org/dc/dcmitype/StillImage" />
        <dc:title></dc:title>
      </cc:Work>
    </rdf:RDF>
  </metadata>
  <g
     id="layer1"
     transform="translate(0,2.2107222e-5)">
    <ellipse
       style="opacity:1;fill:none;fill-opacity:1;fill-rule:nonzero;stroke:#000000;stroke-width:8.0;stroke-linecap:round;stroke-linejoin:bevel;stroke-miterlimit:4;stroke-dasharray:none;stroke-dashoffset:0;stroke-opacity:1"
       id="path4705"
       cx="50"
       cy="50"
       rx="46"
       ry="46" />
  </g>
  <g
     id="g8897"
     style="fill:#000000"
     transform="matrix(0.91674191,0,0,0.91674191,22.500636,22.495841)">
    <path
       id="path8899"
       transform="translate(16.103,-0.780466)"
       d="m 11.0332,44.5798 0,0 c -0.265266,3.01e-4 -0.51971,-0.105148 -0.707,-0.293 l -9.93557994,-9.93552 -10e-9,0 C 1.3804928e-4,33.960995 -2.095072e-5,33.32806 0.39026447,32.93758 c 1.185e-4,-1.19e-4 2.3703e-4,-2.37e-4 3.556e-4,-3.56e-4 L 30.19672,3.1311244 l -10e-7,6e-7 c 3.13716,-3.131060019663 8.21855,-3.12611002 11.3496,0.011051 3.12675,3.13284 3.12675,8.20572 2e-6,11.3386 l -29.8062,29.8062 0,0 c -0.187302,0.187848 -0.441758,0.293287 -0.70703,0.29297 z m -8.52148,-10.9355 8.52148,8.52148 29.0991,-29.0991 0,0 c 2.35053,-2.35575 2.3463,-6.1709501 -0.0095,-8.5214801 -2.35206,-2.34685 -6.15997,-2.34685 -8.51203,2e-7 z" />
    <path
       id="path8901"
       transform="translate(45.1998,2.67007)"
       d="m 11.0326,12.0326 0,0 c -0.265266,3.01e-4 -0.51971,-0.105148 -0.707,-0.293 l -9.93508994,-9.93503 -10e-9,0 C 2.8053228e-5,1.414088 2.8053228e-5,0.78099 0.39051006,0.39051 0.78099206,2.7995719e-5 1.4140901,2.7995719e-5 1.8045701,0.39051 l 9.9350599,9.93506 0,0 c 0.390465,0.390583 0.39037,1.02375 -2.13e-4,1.41421 -0.187475,0.187419 -0.441696,0.29273 -0.706786,0.292786 z" />
    <path
       id="path8903"
       transform="translate(25.6479,15.7628)"
       d="m 5.03662,18.3939 0,0 c -0.531471,9.53e-4 -1.04141,-0.209912 -1.417,-0.58594 l -2.83837005,-2.83838 -2e-7,0 c -0.7812509985896,-0.782945 -0.7812509985896,-2.05055 4e-7,-2.8335 L 12.13575,0.7810798 l 0,1e-8 c 0.782821,-0.78089000248 2.04991,-0.781109002484 2.833,-4.9002e-4 l 2.83936,2.83936001 0,0 c 0.780648,0.782921 0.780867,2.04981 4.9e-4,2.833 L 6.4531001,17.80795 l 0,0 c -0.375446,0.375931 -0.885196,0.586791 -1.4165,0.58594 z m 8.51856,-16.1987 -11.3599,11.355 2.83984,2.84521 11.3589,-11.356 z" />
    <path
       id="path8905"
       transform="translate(42.2848,9.69094)"
       d="m 4.01256,8.02293 -10e-8,0 C 1.7972199,8.0234026 9.4986495e-4,6.2279 4.6986495e-4,4.01256 -2.758049e-6,1.79722 1.7954999,9.5000003e-4 4.0108399,4.7000003e-4 6.2261799,-2.6229712e-6 8.0224499,1.7955 8.0229299,4.01084 c 2.269e-4,1.06393 -0.422235,2.08437 -1.17443,2.8368 l 0,0 2e-7,-2e-7 c -0.750326,0.754919 -1.77157,1.17815 -2.83594,1.17529 z m 0,-6.021 1e-7,0 c -1.10998,-7.867e-4 -2.01044,0.898393 -2.01122,2.00837 -3.784e-4,0.533867 0.211667,1.04595 0.589354,1.42326 l -10e-8,0 c 0.795677,0.759763 2.04807,0.759763 2.84375,0 l 0,0 0,0 C 6.219721,4.64911 6.220392,3.37659 5.4359415,2.59132 5.0586095,2.21359 4.5464835,2.001526 4.0125715,2.001924 Z" />
    <path
       id="path8907"
       transform="translate(7.5869,31.8639)"
       d="m 3.93654,20.4516 0,0 c -0.265192,-7.1e-5 -0.519499,-0.105463 -0.707,-0.293 l -2.83890003,-2.83884 0,0 C 1.5796614e-4,16.929475 -1.0338618e-6,16.29654 0.39028438,15.90606 c 1.1851e-4,-1.19e-4 2.3704e-4,-2.37e-4 3.556e-4,-3.56e-4 l 2.83887002,-2.83838 -5e-7,1e-6 c 3.1997,-3.2357801 5.1134,-7.5248001 5.38428,-12.06740015 l 0,-3.57e-6 C 8.6137894,0.44768628 9.0614645,1.1283015e-5 9.6136995,1.1283015e-5 9.8789165,1.1242968e-5 10.133269,0.10537828 10.320793,0.29292728 l 9.93555,9.93554972 0,0 c 0.390258,0.391087 0.389586,1.02449 -0.0015,1.41475 -0.186799,0.186404 -0.439686,0.291446 -0.703579,0.29225 l -1e-6,0 c -4.54067,0.280994 -8.82692,2.19314 -12.0693001,5.38428 l -2.83838,2.83887 0,0 c -0.187508,0.187522 -0.441816,0.292897 -0.707002,0.292956 z m -1.4248,-3.83887 1.4248,1.4248 2.13135,-2.13184 -1.1e-6,10e-7 c 3.07077,-3.04534 7.0150501,-5.0569 11.2832001,-5.75438 l -2.76709,-2.7665999 0,0 -4.186,-4.18652 0,-9e-7 C 9.700511,7.4663502 7.688949,11.41062 4.643609,14.48139 Z" />
    <path
       id="path8909"
       transform="translate(-0.00107329,47.3789)"
       d="m 3.00791,12.6197 2e-7,0 C 1.3476902,12.620492 0.00117017,11.27526 3.8016944e-4,9.61503 -3.38555e-7,8.816974 0.31697317,8.05152 0.88144317,7.48737 l 7.09717003,-7.09668 0,0 c 0.390285,-0.39048199981 1.02322,-0.390640999813 1.4137,-3.556e-4 1.185e-4,1.185e-4 2.371e-4,2.3704e-4 3.556e-4,3.556e-4 l 2.8388702,2.83887 0,0 c 0.390482,0.390286 0.390641,1.02322 3.55e-4,1.4137 -1.18e-4,1.186e-4 -2.37e-4,2.371e-4 -3.55e-4,3.556e-4 l -7.0966803,7.0966804 2e-7,-1e-6 c -0.563921,0.564178 -1.32926,0.880614 -2.12695,0.8794 z M 8.68564,2.5118 2.29599,8.90144 l 10e-8,-10e-8 c -0.394417,0.392346 -0.396096,1.03014 -0.00375,1.4245601 0.392346,0.394417 1.03014,0.396096 1.42456,0.0037 0.00133,-0.0013 0.00266,-0.0027 0.00399,-0.004 L 10.110439,3.9365994 Z" />
  </g>
</svg>
