<?xml version="1.0" encoding="UTF-8" standalone="no"?>
<svg
   xmlns:dc="http://purl.org/dc/elements/1.1/"
   xmlns:cc="http://creativecommons.org/ns#"
   xmlns:rdf="http://www.w3.org/1999/02/22-rdf-syntax-ns#"
   xmlns:svg="http://www.w3.org/2000/svg"
   xmlns="http://www.w3.org/2000/svg"
   width="100"
   height="100"
   viewBox="0 0 100 100"
   id="svg4157"
   version="1.1">
  <defs
     id="defs4159" />
  <metadata
     id="metadata4162">
    <rdf:RDF>
      <cc:Work
         rdf:about="">
        <dc:format>image/svg+xml</dc:format>
        <dc:type
           rdf:resource="http://purl.org/dc/dcmitype/StillImage" />
        <dc:title></dc:title>
      </cc:Work>
    </rdf:RDF>
  </metadata>
  <g
     id="layer1"
     transform="translate(0,2.2107222e-5)">
    <ellipse
       style="opacity:1;fill:none;fill-opacity:1;fill-rule:nonzero;stroke:#000000;stroke-width:8.0;stroke-linecap:round;stroke-linejoin:bevel;stroke-miterlimit:4;stroke-dasharray:none;stroke-dashoffset:0;stroke-opacity:1"
       id="path4705"
       cx="50"
       cy="50"
       rx="46"
       ry="46" />
  </g>
  <g
     id="g7532"
     transform="matrix(0.68239201,0,0,0.68239201,15.880399,15.880242)">
    <g
       id="g7534">
      <path
         id="path7536"
         d="M 75.411,46.723 C 71.537,46.47 68.158,47.144 65.242,48.347 61.851,36.244 55.351,31.164 55.057,30.94 c -0.926,-0.707 -2.251,-0.53 -2.963,0.398 -0.707,0.928 -0.529,2.255 0.399,2.963 0.061,0.048 5.96,4.689 8.903,16.084 -1.302,0.849 -2.485,1.789 -3.543,2.771 -0.097,0.082 -0.202,0.18 -0.327,0.305 -3.718,3.706 -10.089,2.238 -12.146,0 -0.005,-0.005 -0.008,-0.007 -0.012,-0.012 -1.441,-1.748 -3.108,-3.567 -4.944,-5.252 0.354,-1.523 1.524,-4.101 5.415,-4.996 0.971,-0.225 1.577,-1.193 1.354,-2.164 -0.225,-0.972 -1.191,-1.579 -2.166,-1.353 -4.276,0.984 -6.511,3.6 -7.563,6.056 -3.902,-2.9 -8.359,-4.859 -13.003,-4.275 -1.159,0.146 -1.978,1.204 -1.832,2.363 0.144,1.159 1.202,1.977 2.361,1.833 6.751,-0.853 13.984,6.317 18.624,12.382 0.041,0.056 0.081,0.11 0.141,0.197 0.869,1.256 3.569,5.892 3.284,14.553 -0.002,0.067 -0.002,0.119 -0.004,0.185 -0.27,10.632 -0.823,24.49 -1.885,25.449 -1.737,1.572 14.123,2.566 11.627,0 -1.554,-1.599 -1.991,-15.855 -2.1,-26.357 -0.003,-0.635 0.04,-9.126 4.204,-13.985 0.163,-0.187 0.327,-0.373 0.502,-0.558 1.66,-1.78 3.441,-3.205 5.336,-4.27 0.006,-0.003 0.012,-0.008 0.018,-0.011 3.163,-1.773 6.64,-2.545 10.398,-2.304 1.15,0.075 2.171,-0.808 2.245,-1.973 0.079,-1.164 -0.803,-2.171 -1.969,-2.246 z M 54.656,69.431 c 10e-4,0.003 0.003,0.012 0.003,0.015 l 0.019,2.571 c -0.009,-0.895 -0.017,-1.756 -0.022,-2.586 z"
         style="fill:#000000" />
      <path
         id="path7538"
         d="M 30.368,75.715 C 16.952,75.715 6.037,64.33 6.037,50.338 6.037,41.024 10.998,32.425 18.795,28.018 18.697,27.096 18.648,26.171 18.648,25.257 18.648,11.33 29.512,0 42.864,0 c 8.157,0 15.808,4.345 20.262,11.425 0.466,-0.023 0.923,-0.036 1.375,-0.036 16.246,0 29.462,13.793 29.462,30.748 0,16.955 -13.216,30.747 -29.462,30.747 -1.671,0 -3.345,-0.147 -4.973,-0.438 -1.109,-0.197 -1.847,-1.257 -1.648,-2.363 0.198,-1.108 1.254,-1.851 2.363,-1.648 1.394,0.248 2.826,0.374 4.258,0.374 13.998,0 25.388,-11.966 25.388,-26.672 0,-14.707 -11.39,-26.672 -25.388,-26.672 -0.732,0 -1.481,0.038 -2.29,0.114 l -1.323,0.125 -0.648,-1.16 C 56.632,8.087 49.973,4.076 42.864,4.076 c -11.106,0 -20.141,9.501 -20.141,21.182 0,1.182 0.098,2.386 0.291,3.576 l 0.243,1.498 -1.364,0.662 c -7.156,3.473 -11.78,11.066 -11.78,19.345 0,11.745 9.086,21.301 20.255,21.301 2.049,0 4.071,-0.321 6.01,-0.954 1.066,-0.352 2.22,0.232 2.57,1.304 0.35,1.069 -0.234,2.22 -1.304,2.57 -2.348,0.764 -4.796,1.155 -7.276,1.155 z"
         style="fill:#000000" />
    </g>
    <path
       id="path7540"
       d="M 45.794,73.098"
       stroke-miterlimit="10"
       style="fill:#000000;stroke:#231f20;stroke-width:4;stroke-miterlimit:10" />
  </g>
</svg>
