<?xml version="1.0" encoding="UTF-8" standalone="no"?>
<svg
   xmlns:dc="http://purl.org/dc/elements/1.1/"
   xmlns:cc="http://creativecommons.org/ns#"
   xmlns:rdf="http://www.w3.org/1999/02/22-rdf-syntax-ns#"
   xmlns:svg="http://www.w3.org/2000/svg"
   xmlns="http://www.w3.org/2000/svg"
   width="100"
   height="100"
   viewBox="0 0 100 100"
   id="svg4157"
   version="1.1">
  <defs
     id="defs4159" />
  <metadata
     id="metadata4162">
    <rdf:RDF>
      <cc:Work
         rdf:about="">
        <dc:format>image/svg+xml</dc:format>
        <dc:type
           rdf:resource="http://purl.org/dc/dcmitype/StillImage" />
        <dc:title></dc:title>
      </cc:Work>
    </rdf:RDF>
  </metadata>
  <g
     id="layer1"
     transform="translate(0,2.2107222e-5)">
    <ellipse
       style="opacity:1;fill:none;fill-opacity:1;fill-rule:nonzero;stroke:#000000;stroke-width:8.0;stroke-linecap:round;stroke-linejoin:bevel;stroke-miterlimit:4;stroke-dasharray:none;stroke-dashoffset:0;stroke-opacity:1"
       id="path4705"
       cx="50"
       cy="50"
       rx="46"
       ry="46" />
  </g>
  <g
     id="g5531"
     transform="matrix(0.07501615,0,0,-0.07501615,9.1472454,948.14775)">
    <path
       id="path5533"
       d="m 729.7,12372.2 c -3.5,-1.3 -5.9,-4.9 -5.5,-8.8 0.6,-5.8 4.3,-7.9 13.9,-7.9 3.5,0 9.6,-0.4 13.6,-0.7 45.4,-4.6 86.7,-24.1 118.9,-56.2 15.6,-15.6 27.3,-31.9 36.8,-51.1 12.2,-24.8 18.3,-48 19.8,-76.6 0.4,-6.5 1,-12.4 1.4,-13.1 1.4,-2.7 4.3,-4.3 7.5,-4.3 2.5,0 3.6,0.4 5.8,2.4 l 2.6,2.5 -0.1,9.9 c -0.8,50.4 -22.4,101.9 -58.8,139.4 -36.3,37.7 -87.9,61.9 -137.5,64.4 -4.1,0.2 -9.3,0.5 -11.7,0.7 -2.3,0.1 -5.3,-0.1 -6.7,-0.6 z" />
    <path
       id="path5535"
       d="m 727.1,12328.5 c -5,-4.2 -4.1,-11.8 1.7,-14.2 1.3,-0.6 4.5,-1 7.3,-1 12,0 31,-3.2 43.5,-7.4 22.6,-7.5 42,-19.3 59,-35.8 12.7,-12.3 21.4,-24.1 29.4,-39.8 10.1,-19.8 15.1,-38.4 16.4,-62.3 0.5,-9.3 1.3,-11.8 4.5,-13.4 4.5,-2.3 9.6,-0.6 11.8,3.8 1,2.1 1.1,3.9 0.7,11.5 -1.8,35.8 -15.1,70.4 -37.6,98 -6.5,8 -20.9,22 -28.3,27.6 -28.3,21.3 -61.3,33.2 -95.2,34.5 l -11,0.4 -2.2,-1.9 z" />
    <path
       id="path5537"
       d="m 728.9,12285.4 c -5.3,-2.8 -5.5,-11.7 -0.4,-14.5 0.8,-0.4 6,-1.2 11.5,-1.7 17.1,-1.5 28,-4.4 41.8,-11.3 20.3,-10.1 37.2,-26.7 47.7,-46.7 7.5,-14.4 11,-27.2 12,-43.3 0.3,-5.1 0.9,-9.9 1.4,-10.8 1.2,-2.2 4.9,-4.4 7.5,-4.4 3.1,0 6.7,2.5 7.9,5.5 0.9,2.3 1,3.8 0.3,12 -1.6,17.6 -5.9,33.1 -13.5,47.9 -19.4,37.8 -55.9,62.8 -98.8,67.7 -8.9,1 -15.2,0.8 -17.4,-0.4 z" />
    <path
       id="path5539"
       d="m 689,12231.2 c -14.6,-2.7 -27.9,-8 -39.5,-15.5 -6.8,-4.5 -19,-16.5 -207.6,-203.9 l -200.3,-199.1 -2.1,0.8 c -1.1,0.4 -4.7,0.8 -8.1,0.9 -7.4,0.1 -11.8,-1.3 -17.5,-5.6 -2.3,-1.6 -17.8,-16.8 -34.6,-33.5 -35.5,-35.7 -34.6,-34.3 -34.5,-46.7 0,-13.3 -6.4,-5.8 71.4,-83.3 62.4,-62.2 68.4,-68 72.6,-70 8.4,-4.1 19.8,-3.4 27.6,1.5 4.7,3 66.1,64.5 67.8,67.9 3.6,7.2 4.5,13.9 2.7,20.8 l -1,3.9 199.5,198.1 c 156.5,155.6 200.3,199.3 203.5,203.8 8.8,12.7 15.4,28.4 17.8,42.9 1.6,9.2 1.6,23.9 0,33.1 -2.4,14.6 -9.1,30.6 -17.8,42.8 -5.5,7.5 -16.1,18.1 -23.9,23.7 -10.8,7.5 -24.5,13.4 -38.6,16.6 -7.7,1.8 -29.7,2.3 -37.4,0.8 z m 30.5,-16.8 c 22.2,-3.8 41.3,-15.3 54.7,-33.3 10.8,-14.6 16.4,-31.6 16.4,-50.1 0,-17.6 -4.5,-32.1 -14.7,-47.9 -3.4,-5.3 -27,-29 -202.2,-202.9 l -198.4,-196.9 -60,59.6 -60,59.6 198.7,197.6 c 179.5,178.3 199.4,197.9 205.2,201.6 6.7,4.3 15.6,8.4 22.4,10.4 11.5,3.3 26.5,4.2 37.9,2.3 z m -481.8,-418.9 c 1.3,-0.9 31.5,-30.5 67,-65.9 55.7,-55.5 64.6,-64.6 65.3,-67.1 1,-3.7 1,-4.9 -0.3,-8 -1.3,-3.2 -59.6,-61.5 -63.5,-63.6 -2.9,-1.5 -6.5,-1.7 -9.6,-0.6 -2.7,1 -133.2,130.6 -134.4,133.5 -1.2,2.9 -1.3,6 0.1,9.2 0.8,1.8 10.5,12 30.3,31.7 16.1,16 30.1,29.8 31.2,30.5 4.2,3.2 9.6,3.2 13.9,0.3 z" />
    <path
       id="path5541"
       d="m 629.6,12139.5 c -0.8,-0.4 -74.8,-73.6 -164.4,-162.8 -154.3,-153.4 -163.1,-162.4 -163.5,-165.1 -0.7,-5.5 3,-9.4 9.1,-9.4 l 3,0 163.4,162.5 c 176.2,175.2 166.1,164.6 163.8,169.9 -0.6,1.3 -1.7,2.9 -2.5,3.7 -1.6,1.4 -6.8,2.1 -8.9,1.2 z" />
    <path
       id="path5543"
       d="m 664.6,12102.7 c -2.1,-0.8 -324.6,-321.2 -326.1,-323.9 -3.3,-6.2 1.6,-13.2 8.4,-12.3 2.7,0.4 11.7,9.2 165.6,162.2 111.2,110.6 162.9,162.5 163.4,163.9 1,2.8 -0.4,7 -2.8,8.9 -2.2,1.6 -6.2,2.2 -8.5,1.2 z" />
    <path
       id="path5545"
       d="m 701.8,12066.3 c -3.5,-2.3 -326.6,-324.1 -327.1,-325.9 -1.8,-6.3 4.2,-12.5 10.5,-10.6 3.2,0.9 327.9,323.7 329,327.1 2.4,6.9 -6.2,13.4 -12.4,9.4 z" />
  </g>
</svg>
