<?xml version="1.0" encoding="UTF-8" standalone="no"?>
<svg
   xmlns:dc="http://purl.org/dc/elements/1.1/"
   xmlns:cc="http://creativecommons.org/ns#"
   xmlns:rdf="http://www.w3.org/1999/02/22-rdf-syntax-ns#"
   xmlns:svg="http://www.w3.org/2000/svg"
   xmlns="http://www.w3.org/2000/svg"
   width="100"
   height="100"
   viewBox="0 0 100 100"
   id="svg4157"
   version="1.1">
  <defs
     id="defs4159" />
  <metadata
     id="metadata4162">
    <rdf:RDF>
      <cc:Work
         rdf:about="">
        <dc:format>image/svg+xml</dc:format>
        <dc:type
           rdf:resource="http://purl.org/dc/dcmitype/StillImage" />
        <dc:title></dc:title>
      </cc:Work>
    </rdf:RDF>
  </metadata>
  <g
     id="layer1"
     transform="translate(0,2.2107222e-5)">
    <ellipse        style="opacity:1;fill:none;fill-opacity:1;fill-rule:nonzero;stroke:#000000;stroke-width:2.0;stroke-linecap:round;stroke-linejoin:bevel;stroke-miterlimit:4;stroke-dasharray:none;stroke-dashoffset:0;stroke-opacity:1"
       id="path4705"
       cx="50"
       cy="50"
       rx="49"
       ry="49" />
  </g>
  <path
     id="path12708"
     d="m 79.669869,31.767459 -12.00876,13.032284 c -0.01512,0.0151 -0.03167,0.0295 -0.04823,0.0446 -2.005299,1.97578 -4.61665,2.9626 -7.229441,2.9626 -1.558317,0 -3.118074,-0.35125 -4.548271,-1.05448 l -10.292808,10.29282 0.7572,0.7572 -18.57529,18.57529 c -7.2e-4,7.2e-4 -7.2e-4,7.2e-4 -7.2e-4,7.2e-4 -0.75144,0.75145 -1.70731,1.17396 -2.68908,1.26825 -0.14036,0.0137 -0.28144,0.0202 -0.42323,0.0202 -0.0698,0 -0.14036,-0.001 -0.21018,-0.005 -0.42179,-0.0202 -0.84142,-0.10077 -1.24449,-0.24184 -0.0669,-0.023 -0.13388,-0.0489 -0.2001,-0.0756 -0.52904,-0.21521 -1.02568,-0.53695 -1.45539,-0.96666 -0.42971,-0.42971 -0.75145,-0.92563 -0.96666,-1.45539 -0.0266,-0.0655 -0.0525,-0.13244 -0.0756,-0.2001 -0.14107,-0.40307 -0.22169,-0.82198 -0.24184,-1.24449 -0.0101,-0.2109 -0.005,-0.42251 0.0151,-0.63269 0.0936,-0.98105 0.5168,-1.93692 1.26825,-2.68908 7.2e-4,-7.2e-4 7.2e-4,-7.2e-4 7.2e-4,-7.2e-4 l 18.57385,-18.57385 0.7572,0.75721 10.292817,-10.29282 C 49.234062,38.196548 49.88618,33.41363 53.087748,30.211341 l 0.0043,0.0043 13.025085,-12.000843 c 0.401636,-0.401635 0.852216,-0.542712 1.241616,-0.542712 0.38508,0 0.711139,0.137478 0.87093,0.297268 l -13.68944,13.69016 0.0014,0.0014 13.689439,-13.689439 c 0.321021,0.32102 0.552789,1.314313 -0.244724,2.112545 l -12.000843,13.022207 2.948927,2.948926 13.022206,-12.000842 c 0.401636,-0.401636 0.852216,-0.542712 1.241616,-0.541993 0.385081,0 0.71114,0.137478 0.87093,0.297268 l -13.68944,13.68944 0.0014,0.0014 13.68944,-13.68944 c 0.32102,0.32102 0.552788,1.314313 -0.244725,2.112546 L 61.825023,38.945738 64.778268,41.898985 77.801194,29.89886 c 0.401636,-0.401635 0.852216,-0.542712 1.241616,-0.541992 0.38508,0 0.711139,0.137477 0.87093,0.297268 l -13.69016,13.689439 0.0014,10e-4 13.68944,-13.689439 c 0.32102,0.3203 0.553508,1.313593 -0.244725,2.111825 z m -21.073632,19.815464 -0.757925,0.75792 -2.092392,-2.09239 -4.706622,4.70662 2.091672,2.09168 -0.757206,0.7572 18.574567,18.57385 c 1.718108,1.71811 4.503645,1.71739 6.221753,0 1.718107,-1.71811 1.717388,-4.50365 0,-6.22175 L 58.596237,51.582923 Z m -17.794333,-2.61855 6.83069,-6.83068 -2.09383,-2.09384 -13.3821,-13.381371 c -1.37118,-1.371175 -5.28748,-4.361129 -6.9624,-2.848158 -7.2e-4,7.2e-4 -0.002,0.0022 -0.002,0.0022 -2.92662,2.934531 1.04439,11.65535 8.87125,19.48221 2.22483,2.22555 4.52236,4.13799 6.73855,5.66968 z" />
</svg>
