<?xml version="1.0" encoding="UTF-8" standalone="no"?>
<svg
   xmlns:dc="http://purl.org/dc/elements/1.1/"
   xmlns:cc="http://creativecommons.org/ns#"
   xmlns:rdf="http://www.w3.org/1999/02/22-rdf-syntax-ns#"
   xmlns:svg="http://www.w3.org/2000/svg"
   xmlns="http://www.w3.org/2000/svg"
   width="100"
   height="100"
   viewBox="0 0 100 100"
   id="svg4157"
   version="1.1">
  <defs
     id="defs4159" />
  <metadata
     id="metadata4162">
    <rdf:RDF>
      <cc:Work
         rdf:about="">
        <dc:format>image/svg+xml</dc:format>
        <dc:type
           rdf:resource="http://purl.org/dc/dcmitype/StillImage" />
        <dc:title></dc:title>
      </cc:Work>
    </rdf:RDF>
  </metadata>
  <g
     id="layer1"
     transform="translate(0,2.2107222e-5)">
    <ellipse
       id="path4705"
       cx="50"
       cy="50"
       rx="49"
       ry="49"
       style="opacity:1;fill:none;fill-opacity:1;fill-rule:nonzero;stroke:#000000;stroke-width:2.0;stroke-linecap:round;stroke-linejoin:bevel;stroke-miterlimit:4;stroke-dasharray:none;stroke-dashoffset:0;stroke-opacity:1" />
  </g>
  <g
     id="g5873"
     transform="matrix(0.73170732,0,0,0.73170732,13.414634,13.414656)">
    <path
       id="path5875"
       d="M 83.86084,9 16.13916,9 c -2.986816,0 -5.416504,2.429688 -5.416504,5.416504 l 0,15.222656 0,55.944336 C 10.722656,88.570312 13.152344,91 16.13916,91 l 67.72168,0 c 2.986816,0 5.416504,-2.429688 5.416504,-5.416504 l 0,-55.944336 0,-15.222656 C 89.277344,11.429688 86.847656,9 83.86084,9 Z M 12.722656,14.416504 C 12.722656,12.532715 14.255371,11 16.13916,11 l 67.72168,0 c 1.883789,0 3.416504,1.532715 3.416504,3.416504 l 0,14.222656 -74.554688,0 0,-14.222656 z M 87.277344,85.583496 C 87.277344,87.467285 85.744629,89 83.86084,89 l -67.72168,0 c -1.883789,0 -3.416504,-1.532715 -3.416504,-3.416504 l 0,-54.944336 74.554688,0 0,54.944336 z" />
    <path
       id="path5877"
       d="m 32.333496,15.016602 -12.513672,0 c -0.552246,0 -1,0.447754 -1,1 l 0,7.606445 c 0,0.552246 0.447754,1 1,1 l 12.513672,0 c 0.552246,0 1,-0.447754 1,-1 l 0,-7.606445 c 0,-0.552246 -0.447754,-1 -1,-1 z m -1,7.606445 -10.513672,0 0,-5.606445 10.513672,0 0,5.606445 z" />
    <path
       id="path5879"
       d="m 44.233887,16.120605 c -2.039551,0 -3.699219,1.659668 -3.699219,3.699219 0,2.039551 1.659668,3.698731 3.699219,3.698731 2.03955,0 3.699218,-1.65918 3.699218,-3.698731 0,-2.039551 -1.659668,-3.699219 -3.699218,-3.699219 z m 0,5.39795 c -0.937012,0 -1.699219,-0.762207 -1.699219,-1.698731 0,-0.937012 0.762207,-1.699219 1.699219,-1.699219 0.937011,0 1.699218,0.762207 1.699218,1.699219 1e-6,0.936524 -0.762207,1.698731 -1.699218,1.698731 z" />
    <path
       id="path5881"
       d="m 55.92041,16.120605 c -2.039551,0 -3.699219,1.659668 -3.699219,3.699219 0,2.039551 1.659668,3.698731 3.699219,3.698731 2.039551,0 3.699219,-1.65918 3.699219,-3.698731 0,-2.039551 -1.659668,-3.699219 -3.699219,-3.699219 z m 0,5.39795 c -0.937012,0 -1.699219,-0.762207 -1.699219,-1.698731 0,-0.937012 0.762207,-1.699219 1.699219,-1.699219 0.937012,0 1.699219,0.762207 1.699219,1.699219 0,0.936524 -0.762207,1.698731 -1.699219,1.698731 z" />
    <path
       id="path5883"
       d="m 67.606934,16.120605 c -2.039551,0 -3.698731,1.659668 -3.698731,3.699219 0,2.039551 1.65918,3.698731 3.698731,3.698731 2.03955,0 3.699218,-1.65918 3.699218,-3.698731 0,-2.039551 -1.659668,-3.699219 -3.699218,-3.699219 z m 0,5.39795 c -0.936524,0 -1.698731,-0.762207 -1.698731,-1.698731 0,-0.937012 0.762207,-1.699219 1.698731,-1.699219 0.937011,0 1.699218,0.762207 1.699218,1.699219 0,0.936524 -0.762207,1.698731 -1.699218,1.698731 z" />
    <path
       id="path5885"
       d="m 50,82.586426 c 8.473145,0 16.196289,-4.660645 20.155762,-12.163574 1.83e-4,-3.67e-4 1.22e-4,-7.94e-4 3.05e-4,-0.0012 1.712646,-3.222351 2.617859,-6.890808 2.617859,-10.609192 0,-3.708618 -0.905213,-7.372192 -2.617859,-10.594544 -1.83e-4,-3.66e-4 -1.22e-4,-7.93e-4 -3.05e-4,-0.0012 C 66.196777,41.713867 58.473633,37.053223 50,37.053223 c -12.557617,0 -22.773926,10.209961 -22.773926,22.759277 0,12.557617 10.216309,22.773926 22.773926,22.773926 z M 62.253845,65.823059 C 59.96637,70.485535 55.217468,73.475586 50,73.475586 c -7.525879,0 -13.648438,-6.129395 -13.648438,-13.663086 0,-7.525879 6.122559,-13.648438 13.648438,-13.648438 5.217773,0 9.966126,2.989991 12.253723,7.652222 -1.117554,1.816284 -1.711731,3.875122 -1.711731,5.996216 0,2.130676 0.595032,4.195557 1.711853,6.010559 z m 6.509827,2.920532 c -0.0031,-0.0012 -0.0063,-0.0019 -0.0093,-0.003 -0.418213,-0.154358 -0.819764,-0.344727 -1.209534,-0.555237 -0.05713,-0.03082 -0.115479,-0.05933 -0.171936,-0.09131 -0.3703,-0.210022 -0.724304,-0.446777 -1.062622,-0.704651 -0.05896,-0.04492 -0.117249,-0.09082 -0.175232,-0.137146 -0.334229,-0.267456 -0.652649,-0.555237 -0.94867,-0.867065 -0.03973,-0.04187 -0.07666,-0.08655 -0.115661,-0.129212 -0.304993,-0.333374 -0.593018,-0.684387 -0.849487,-1.062133 -1.098633,-1.599121 -1.6792,-3.459961 -1.6792,-5.381348 0,-1.912109 0.580567,-3.768066 1.682617,-5.371582 0.253663,-0.37384 0.539246,-0.721008 0.841004,-1.051514 0.04254,-0.04657 0.08282,-0.0954 0.126221,-0.141052 0.293029,-0.308227 0.608337,-0.592895 0.939148,-0.857849 0.06097,-0.04883 0.122253,-0.09711 0.184387,-0.144348 0.336487,-0.255982 0.688293,-0.491272 1.056457,-0.700073 0.0578,-0.03278 0.117615,-0.06201 0.176148,-0.09357 0.388733,-0.209656 0.789184,-0.399475 1.206176,-0.553406 0.0035,-0.0013 0.0071,-0.0021 0.01056,-0.0034 1.333679,2.772705 2.009216,5.767761 2.009216,8.916748 0,3.110474 -0.693299,6.180481 -2.010254,8.931091 z M 50,39.053223 c 7.333496,0 14.051758,3.828125 17.805664,10.066406 -0.0636,0.02521 -0.122498,0.05969 -0.185547,0.08606 -0.08789,0.03668 -0.174988,0.07349 -0.261841,0.112365 -0.182495,0.0816 -0.361694,0.168518 -0.539245,0.2594 -0.117737,0.06024 -0.234375,0.121399 -0.349793,0.185669 -0.118408,0.06586 -0.237488,0.130065 -0.353393,0.200073 -0.06567,0.03967 -0.127686,0.08411 -0.192505,0.125061 -0.06708,0.0423 -0.13324,0.08582 -0.199402,0.129516 -0.08588,0.0567 -0.174317,0.108948 -0.258606,0.167969 -0.202576,0.141846 -0.396485,0.294922 -0.589417,0.449585 -0.06048,0.04852 -0.123108,0.09326 -0.182617,0.142945 -0.05048,0.04218 -0.102051,0.08264 -0.151794,0.125671 -0.05621,0.04865 -0.107605,0.1026 -0.162842,0.152344 -0.237854,0.214111 -0.467041,0.437317 -0.686523,0.671264 -0.03534,0.03766 -0.07574,0.06995 -0.110596,0.108094 C 60.811523,47.206543 55.641113,44.164062 50,44.164062 c -8.628418,0 -15.648438,7.02002 -15.648438,15.648438 0,8.636719 7.02002,15.663086 15.648438,15.663086 5.640625,0 10.811523,-3.042481 13.581543,-7.871582 0.03674,0.04022 0.07935,0.07434 0.116638,0.114014 0.214783,0.228576 0.439087,0.446533 0.671265,0.656066 0.0589,0.05316 0.113647,0.110657 0.173584,0.162537 0.04864,0.04211 0.09918,0.08154 0.148498,0.122803 0.06134,0.05127 0.125855,0.09741 0.188233,0.1474 0.192138,0.15393 0.385193,0.306457 0.586792,0.447631 0.0824,0.05768 0.168884,0.108704 0.252807,0.164246 0.06818,0.04517 0.136475,0.08997 0.205628,0.133606 0.06415,0.04053 0.125427,0.08441 0.190307,0.123657 0.117615,0.07105 0.238465,0.136231 0.358704,0.203064 0.111877,0.06219 0.224731,0.12146 0.338745,0.179871 0.180359,0.09235 0.362305,0.180725 0.547668,0.263611 0.08728,0.039 0.174866,0.07574 0.263184,0.112548 0.06189,0.02582 0.11969,0.05975 0.182068,0.08447 C 64.051758,76.758301 57.333496,80.586426 50,80.586426 38.54541,80.586426 29.226074,71.26709 29.226074,59.8125 29.226074,48.365723 38.54541,39.053223 50,39.053223 Z" />
  </g>
</svg>
