<?xml version="1.0" encoding="UTF-8" standalone="no"?>
<svg
   xmlns:dc="http://purl.org/dc/elements/1.1/"
   xmlns:cc="http://creativecommons.org/ns#"
   xmlns:rdf="http://www.w3.org/1999/02/22-rdf-syntax-ns#"
   xmlns:svg="http://www.w3.org/2000/svg"
   xmlns="http://www.w3.org/2000/svg"
   version="1.1"
   id="svg4157"
   viewBox="0 0 100 100"
   height="100"
   width="100">
  <defs
     id="defs4159" />
  <metadata
     id="metadata4162">
    <rdf:RDF>
      <cc:Work
         rdf:about="">
        <dc:format>image/svg+xml</dc:format>
        <dc:type
           rdf:resource="http://purl.org/dc/dcmitype/StillImage" />
        <dc:title></dc:title>
      </cc:Work>
    </rdf:RDF>
  </metadata>
  <g
     style="fill:#000000;fill-opacity:1"
     transform="translate(0,2.2107222e-5)"
     id="layer1">
    <ellipse
       ry="49"
       rx="49"
       cy="50"
       cx="50"
       id="path4705"
       style="opacity:1;fill:#000000;fill-opacity:1;fill-rule:nonzero;stroke:#000000;stroke-width:2;stroke-linecap:round;stroke-linejoin:bevel;stroke-miterlimit:4;stroke-dasharray:none;stroke-dashoffset:0;stroke-opacity:1" />
  </g>
  <g
     style="fill:#ffffff;fill-opacity:1"
     id="g18159"
     transform="matrix(0.83333339,0,0,0.83333339,111.28786,57.165133)">
    <polygon
       style="fill:#ffffff;fill-opacity:1"
       id="polygon17572"
       points="0.05,0.04 0.05,4.02 5.06,4.02 4.06,0.04 "
       transform="matrix(2.4958403,0,0,2.4958403,-103.6203,-38.598132)" />
    <polygon
       style="fill:#ffffff;fill-opacity:1"
       id="polygon17574"
       points="10.37,0.04 6.36,0.04 7.36,4.02 11.37,4.02 "
       transform="matrix(2.4958403,0,0,2.4958403,-103.6203,-38.598132)" />
    <polygon
       style="fill:#ffffff;fill-opacity:1"
       id="polygon17576"
       points="16.76,0.04 12.76,0.04 13.76,4.02 17.77,4.02 "
       transform="matrix(2.4958403,0,0,2.4958403,-103.6203,-38.598132)" />
    <polygon
       style="fill:#ffffff;fill-opacity:1"
       id="polygon17578"
       points="20.07,4.02 24.07,4.02 24.07,0.04 19.06,0.04 "
       transform="matrix(2.4958403,0,0,2.4958403,-103.6203,-38.598132)" />
    <path
       style="fill:#ffffff;fill-opacity:1"
       id="path17580"
       d="m -103.54542,16.310353 c 0,2.745425 2.24626,4.991681 4.991681,4.991681 l 49.667211,0 c 2.745424,0 4.99168,-2.246256 4.99168,-4.991681 l 0,-39.933444 -59.650572,0 0,39.933444 z m 23.760389,-28.103161 15.998336,10.6322797 -15.998336,10.582362 0,-21.2146417 z" />
  </g>
</svg>
