<?xml version="1.0" encoding="UTF-8" standalone="no"?>
<svg
   xmlns:dc="http://purl.org/dc/elements/1.1/"
   xmlns:cc="http://creativecommons.org/ns#"
   xmlns:rdf="http://www.w3.org/1999/02/22-rdf-syntax-ns#"
   xmlns:svg="http://www.w3.org/2000/svg"
   xmlns="http://www.w3.org/2000/svg"
   width="100"
   height="100"
   viewBox="0 0 100 100"
   id="svg4157"
   version="1.1">
  <defs
     id="defs4159" />
  <metadata
     id="metadata4162">
    <rdf:RDF>
      <cc:Work
         rdf:about="">
        <dc:format>image/svg+xml</dc:format>
        <dc:type
           rdf:resource="http://purl.org/dc/dcmitype/StillImage" />
        <dc:title></dc:title>
      </cc:Work>
    </rdf:RDF>
  </metadata>
  <g
     id="layer1"
     transform="translate(0,2.2107222e-5)">
    <ellipse        style="opacity:1;fill:none;fill-opacity:1;fill-rule:nonzero;stroke:#000000;stroke-width:2.0;stroke-linecap:round;stroke-linejoin:bevel;stroke-miterlimit:4;stroke-dasharray:none;stroke-dashoffset:0;stroke-opacity:1"
       id="path4705"
       cx="50"
       cy="50"
       rx="49"
       ry="49" />
  </g>
  <g
     id="g5740"
     transform="matrix(1.8305966,0,0,1.8305966,20.710454,20.710477)">
    <path
       id="path5742"
       d="M 27.313,4.688 C 24.188,1.563 19.125,1.563 16,4.688 L 4.687,16 c -3.125,3.125 -3.125,8.19 0,11.312 3.123,3.125 8.187,3.125 11.312,0 L 27.313,16 c 3.125,-3.125 3.125,-8.189 0,-11.312 z M 14.585,25.899 c -2.344,2.344 -6.143,2.344 -8.484,0 -2.344,-2.342 -2.344,-6.141 0,-8.484 L 7.515,16 l 0,0 4.242,-4.242 8.485,8.484 -5.657,5.657 z"
       style="clip-rule:evenodd;fill-rule:evenodd" />
  </g>
</svg>
