<?xml version="1.0" encoding="UTF-8" standalone="no"?>
<svg
   xmlns:dc="http://purl.org/dc/elements/1.1/"
   xmlns:cc="http://creativecommons.org/ns#"
   xmlns:rdf="http://www.w3.org/1999/02/22-rdf-syntax-ns#"
   xmlns:svg="http://www.w3.org/2000/svg"
   xmlns="http://www.w3.org/2000/svg"
   width="100"
   height="100"
   viewBox="0 0 100 100"
   id="svg4157"
   version="1.1">
  <defs
     id="defs4159" />
  <metadata
     id="metadata4162">
    <rdf:RDF>
      <cc:Work
         rdf:about="">
        <dc:format>image/svg+xml</dc:format>
        <dc:type
           rdf:resource="http://purl.org/dc/dcmitype/StillImage" />
        <dc:title></dc:title>
      </cc:Work>
    </rdf:RDF>
  </metadata>
  <g
     id="layer1"
     transform="translate(0,2.2107222e-5)">
    <ellipse        style="opacity:1;fill:none;fill-opacity:1;fill-rule:nonzero;stroke:#000000;stroke-width:2.0;stroke-linecap:round;stroke-linejoin:bevel;stroke-miterlimit:4;stroke-dasharray:none;stroke-dashoffset:0;stroke-opacity:1"
       id="path4705"
       cx="50"
       cy="50"
       rx="49"
       ry="49" />
  </g>
  <path
     id="path16391"
     d="M 73.971262,66.913524 70.517646,28.018608 c -0.06879,-0.776059 -0.718858,-1.371242 -1.498008,-1.371242 l -7.260478,0 c -0.01624,-6.471278 -5.284,-11.73209 -11.759144,-11.73209 -6.475141,0 -11.74291,5.260039 -11.759143,11.73209 l -7.260478,0 c -0.77915,0 -1.429216,0.595183 -1.49801,1.371242 L 26.02877,66.913524 c -0.0038,0.04406 -0.0062,0.08889 -0.0062,0.13295 0,4.338663 3.989282,7.868802 8.892984,7.868802 l 30.168892,0 c 4.903702,0 8.892983,-3.530139 8.892983,-7.868802 0,-0.04406 -0.0024,-0.08812 -0.0062,-0.13295 z M 50.000016,17.923663 c 4.816356,0 8.735298,3.910439 8.750757,8.723703 l -17.501514,0 c 0.01546,-4.812492 3.934402,-8.723703 8.750757,-8.723703 z m 15.084446,53.983999 -30.168892,0 c -3.22018,0 -5.844401,-2.147301 -5.883824,-4.799351 l 3.325304,-37.452559 5.882278,0 0,5.212888 c 0,0.83094 0.673254,1.504194 1.504193,1.504194 0.830939,0 1.504193,-0.673254 1.504193,-1.504194 l 0,-5.212888 17.503833,0 0,5.212888 c 0,0.83094 0.673254,1.504194 1.504193,1.504194 0.83094,0 1.504194,-0.673254 1.504194,-1.504194 l 0,-5.212888 5.882278,0 3.326075,37.452559 c -0.03942,2.65205 -2.663643,4.799351 -5.883825,4.799351 z" />
</svg>
