<?xml version="1.0" encoding="UTF-8" standalone="no"?>
<svg
   xmlns:dc="http://purl.org/dc/elements/1.1/"
   xmlns:cc="http://creativecommons.org/ns#"
   xmlns:rdf="http://www.w3.org/1999/02/22-rdf-syntax-ns#"
   xmlns:svg="http://www.w3.org/2000/svg"
   xmlns="http://www.w3.org/2000/svg"
   version="1.1"
   id="svg4157"
   viewBox="0 0 100 100"
   height="100"
   width="100">
  <defs
     id="defs4159" />
  <metadata
     id="metadata4162">
    <rdf:RDF>
      <cc:Work
         rdf:about="">
        <dc:format>image/svg+xml</dc:format>
        <dc:type
           rdf:resource="http://purl.org/dc/dcmitype/StillImage" />
        <dc:title></dc:title>
      </cc:Work>
    </rdf:RDF>
  </metadata>
  <g
     style="fill:#000000;fill-opacity:1"
     transform="translate(0,2.2107222e-5)"
     id="layer1">
    <ellipse
       ry="49"
       rx="49"
       cy="50"
       cx="50"
       id="path4705"
       style="opacity:1;fill:#000000;fill-opacity:1;fill-rule:nonzero;stroke:#000000;stroke-width:2;stroke-linecap:round;stroke-linejoin:bevel;stroke-miterlimit:4;stroke-dasharray:none;stroke-dashoffset:0;stroke-opacity:1" />
  </g>
  <g
     style="fill:#ffffff;fill-opacity:1"
     transform="matrix(1.1538462,0,0,1.1538462,13.076922,13.076944)"
     id="g18474">
    <path
       style="fill:#ffffff;fill-opacity:1"
       d="M 56,12 8,12 c -1.104,0 -2,0.896 -2,2 l 0,30 c 0,1.104 0.896,2 2,2 l 22,0 0,2 -6,0 c -1.104,0 -2,0.896 -2,2 0,1.104 0.896,2 2,2 l 16,0 c 1.104,0 2,-0.896 2,-2 0,-1.104 -0.896,-2 -2,-2 l -6,0 0,-2 22,0 c 1.104,0 2,-0.896 2,-2 l 0,-30 c 0,-1.104 -0.896,-2 -2,-2 z m -2,30 -44,0 0,-26 44,0 0,26 z"
       id="path18476" />
  </g>
</svg>
